<svg width="547" height="479" viewBox="0 0 547 479" fill="none" xmlns="http://www.w3.org/2000/svg">
<g clip-path="url(#clip0_7_31343)">
<g filter="url(#filter0_di_7_31343)">
<path d="M488.195 29.6494C493.005 29.6494 496.993 33.9811 496.993 39.2317V389.315C496.993 394.696 493.122 399.028 488.195 399.028H48.8537C44.0439 399.028 40.0552 394.696 40.0552 389.315V39.2317C40.0552 33.9811 43.9265 29.6494 48.8537 29.6494H488.195Z" fill="white"/>
</g>
<path d="M496.993 39.0109V62.2224H40.0552V39.0109C40.0552 33.8813 43.9265 29.6494 48.8537 29.6494H488.195C493.122 29.6494 496.993 33.8813 496.993 39.0109Z" fill="black"/>
<path d="M55.0556 51.0682C57.6053 51.0682 59.6722 49.0013 59.6722 46.4516C59.6722 43.9019 57.6053 41.835 55.0556 41.835C52.5059 41.835 50.439 43.9019 50.439 46.4516C50.439 49.0013 52.5059 51.0682 55.0556 51.0682Z" fill="white"/>
<path d="M67.7524 51.0682C70.3021 51.0682 72.369 49.0013 72.369 46.4516C72.369 43.9019 70.3021 41.835 67.7524 41.835C65.2027 41.835 63.1357 43.9019 63.1357 46.4516C63.1357 49.0013 65.2027 51.0682 67.7524 51.0682Z" fill="white"/>
<path d="M80.3217 51.0682C82.8714 51.0682 84.9384 49.0013 84.9384 46.4516C84.9384 43.9019 82.8714 41.835 80.3217 41.835C77.772 41.835 75.7051 43.9019 75.7051 46.4516C75.7051 49.0013 77.772 51.0682 80.3217 51.0682Z" fill="white"/>
<circle cx="123.12" cy="110.106" r="2.44861" fill="#C4C4C4"/>
<path d="M170.417 195.303H78.5025C75.0771 195.303 72.2227 192.472 72.2227 189.076V96.2391C72.2227 92.8426 75.0771 90.0122 78.5025 90.0122H170.417C173.842 90.0122 176.697 92.8426 176.697 96.2391V189.076C176.697 192.472 173.842 195.303 170.417 195.303Z" fill="#EAEDF1"/>
<rect x="86.6514" y="102.781" width="34.1536" height="3.60944" rx="1.80472" fill="#989FB0"/>
<path d="M158.982 127.793H88.0963C87.2491 127.793 86.4019 126.852 86.4019 125.91V117.434C86.4019 116.492 87.2491 115.55 88.0963 115.55H158.982C159.829 115.55 160.677 116.492 160.677 117.434V125.91C160.677 126.852 159.829 127.793 158.982 127.793Z" fill="#DFE3E9"/>
<path d="M158.983 163.159H88.0968C87.2496 163.159 86.4023 162.217 86.4023 161.275V134.226C86.4023 133.285 87.2496 132.343 88.0968 132.343H158.983C159.83 132.343 160.677 133.285 160.677 134.226V161.275C160.677 162.217 159.83 163.159 158.983 163.159Z" fill="#DFE3E9"/>
<path d="M158.907 170.505H133.05C132.169 170.505 131.287 171.178 131.287 172.522V179.916C131.287 180.924 131.875 181.932 133.05 181.932H158.907C159.789 181.932 160.67 181.26 160.67 179.916V172.522C160.67 171.458 159.789 170.505 158.907 170.505Z" fill="#989FB0"/>
<path d="M153.007 175.402H139.754C139.19 175.402 138.626 175.81 138.626 176.219C138.626 176.627 139.19 177.035 139.754 177.035H153.007C153.57 177.035 154.134 176.627 154.134 176.219C154.134 175.606 153.57 175.402 153.007 175.402Z" fill="#EAEDF1"/>
<rect x="91.2944" y="120.448" width="31.832" height="2.44861" fill="#989FB0"/>
<rect x="91.2944" y="137.606" width="31.832" height="2.44861" fill="#989FB0"/>
<circle cx="263.582" cy="119.393" r="2.44861" fill="#C4C4C4"/>
<path d="M310.877 195.303H218.962C215.537 195.303 212.683 192.472 212.683 189.076V96.2391C212.683 92.8426 215.537 90.0122 218.962 90.0122H310.877C314.302 90.0122 317.157 92.8426 317.157 96.2391V189.076C317.157 192.472 314.302 195.303 310.877 195.303Z" fill="#EAEDF1"/>
<path d="M260.886 128.954H228.307C227.46 128.954 226.613 128.013 226.613 127.071V118.595C226.613 117.653 227.46 116.711 228.307 116.711H260.886C261.733 116.711 262.58 117.653 262.58 118.595V127.071C262.58 128.013 261.733 128.954 260.886 128.954Z" fill="#DFE3E9"/>
<path d="M299.193 128.954H266.614C265.767 128.954 264.92 128.013 264.92 127.071V118.595C264.92 117.653 265.767 116.711 266.614 116.711H299.193C300.04 116.711 300.887 117.653 300.887 118.595V127.071C300.887 128.013 300.04 128.954 299.193 128.954Z" fill="#DFE3E9"/>
<path d="M299.442 146.37H228.556C227.709 146.37 226.862 145.428 226.862 144.486V136.01C226.862 135.068 227.709 134.126 228.556 134.126H299.442C300.289 134.126 301.136 135.068 301.136 136.01V144.486C301.136 145.428 300.289 146.37 299.442 146.37Z" fill="#DFE3E9"/>
<path d="M299.442 163.779H228.556C227.709 163.779 226.862 162.837 226.862 161.896V153.42C226.862 152.478 227.709 151.536 228.556 151.536H299.442C300.289 151.536 301.136 152.478 301.136 153.42V161.896C301.136 162.837 300.289 163.779 299.442 163.779Z" fill="#DFE3E9"/>
<path d="M299.369 173.988H273.512C272.63 173.988 271.749 174.66 271.749 176.004V183.398C271.749 184.406 272.336 185.415 273.512 185.415H299.369C300.25 185.415 301.132 184.742 301.132 183.398V176.004C301.132 174.94 300.25 173.988 299.369 173.988Z" fill="#989FB0"/>
<path d="M293.466 178.885H280.213C279.649 178.885 279.085 179.293 279.085 179.701C279.085 180.109 279.649 180.517 280.213 180.517H293.466C294.029 180.517 294.593 180.109 294.593 179.701C294.593 179.089 294.029 178.885 293.466 178.885Z" fill="#EAEDF1"/>
<rect x="231.755" y="121.608" width="13.2588" height="2.44861" fill="#989FB0"/>
<rect x="227.111" y="102.781" width="34.1536" height="3.60944" rx="1.80472" fill="#989FB0"/>
<rect x="269.812" y="121.608" width="13.2588" height="2.44861" fill="#989FB0"/>
<rect x="231.755" y="139.024" width="31.832" height="2.44861" fill="#989FB0"/>
<rect x="231.755" y="156.433" width="31.832" height="2.44861" fill="#989FB0"/>
<circle cx="408.685" cy="291.195" r="2.44861" fill="#C4C4C4"/>
<path d="M455.98 367.105H364.066C360.64 367.105 357.786 364.274 357.786 360.878V268.041C357.786 264.645 360.64 261.814 364.066 261.814H455.98C459.405 261.814 462.26 264.645 462.26 268.041V360.878C462.26 364.274 459.405 367.105 455.98 367.105Z" fill="#EAEDF1"/>
<path d="M405.988 300.756H373.41C372.563 300.756 371.715 299.814 371.715 298.873V290.397C371.715 289.455 372.563 288.513 373.41 288.513H405.988C406.836 288.513 407.683 289.455 407.683 290.397V298.873C407.683 299.814 406.836 300.756 405.988 300.756Z" fill="#DFE3E9"/>
<path d="M444.295 300.756H411.717C410.87 300.756 410.022 299.814 410.022 298.873V290.397C410.022 289.455 410.87 288.513 411.717 288.513H444.295C445.143 288.513 445.99 289.455 445.99 290.397V298.873C445.99 299.814 445.143 300.756 444.295 300.756Z" fill="#DFE3E9"/>
<path d="M444.545 318.172H373.659C372.812 318.172 371.965 317.23 371.965 316.288V307.812C371.965 306.87 372.812 305.929 373.659 305.929H444.545C445.392 305.929 446.239 306.87 446.239 307.812V316.288C446.239 317.23 445.392 318.172 444.545 318.172Z" fill="#DFE3E9"/>
<path d="M444.545 335.581H373.659C372.812 335.581 371.965 334.64 371.965 333.698V325.222C371.965 324.28 372.812 323.338 373.659 323.338H444.545C445.392 323.338 446.239 324.28 446.239 325.222V333.698C446.239 334.64 445.392 335.581 444.545 335.581Z" fill="#DFE3E9"/>
<path d="M444.472 345.79H418.615C417.733 345.79 416.852 346.462 416.852 347.807V355.2C416.852 356.209 417.439 357.217 418.615 357.217H444.472C445.353 357.217 446.235 356.545 446.235 355.2V347.807C446.235 346.742 445.353 345.79 444.472 345.79Z" fill="#989FB0"/>
<path d="M438.569 350.687H425.316C424.752 350.687 424.188 351.095 424.188 351.503C424.188 351.911 424.752 352.319 425.316 352.319H438.569C439.132 352.319 439.696 351.911 439.696 351.503C439.696 350.891 439.132 350.687 438.569 350.687Z" fill="#EAEDF1"/>
<rect x="376.857" y="293.411" width="13.2588" height="2.44861" fill="#989FB0"/>
<rect x="372.214" y="274.583" width="34.1536" height="3.60944" rx="1.80472" fill="#989FB0"/>
<rect x="414.916" y="293.411" width="13.2588" height="2.44861" fill="#989FB0"/>
<rect x="376.857" y="310.826" width="31.832" height="2.44861" fill="#989FB0"/>
<rect x="376.857" y="328.235" width="31.832" height="2.44861" fill="#989FB0"/>
<circle cx="408.685" cy="158.861" r="2.44861" fill="#C4C4C4"/>
<path d="M455.98 234.771H364.066C360.64 234.771 357.786 231.941 357.786 228.544V135.707C357.786 132.311 360.64 129.48 364.066 129.48H455.98C459.405 129.48 462.26 132.311 462.26 135.707V228.544C462.26 231.941 459.405 234.771 455.98 234.771Z" fill="#EAEDF1"/>
<path d="M444.545 203.247H373.659C372.812 203.247 371.965 202.305 371.965 201.363V158.063C371.965 157.121 372.812 156.179 373.659 156.179H444.545C445.392 156.179 446.24 157.121 446.24 158.063V201.363C446.24 202.305 445.392 203.247 444.545 203.247Z" fill="#DFE3E9"/>
<path d="M406.599 185.246L410.023 181.828L413.446 185.246" stroke="#989FB0" stroke-width="1.74124" stroke-linecap="round" stroke-linejoin="round"/>
<path d="M410.022 191.179L410.022 181.828" stroke="#989FB0" stroke-width="1.74124" stroke-linecap="round" stroke-linejoin="round"/>
<path d="M416.401 188.877C419.303 188.877 421.631 186.523 421.631 183.589C421.631 180.654 419.303 178.3 416.401 178.3C416.401 175.058 413.802 172.431 410.596 172.431C408.133 172.431 406.041 173.966 405.197 176.15C405.062 176.15 404.927 176.116 404.792 176.116C401.283 176.116 398.415 178.982 398.415 182.565C398.415 186.114 401.249 189.014 404.792 189.014" stroke="#989FB0" stroke-width="1.74124" stroke-miterlimit="10" stroke-linecap="round" stroke-linejoin="round"/>
<path d="M444.472 213.456H418.615C417.733 213.456 416.852 214.128 416.852 215.473V222.866C416.852 223.875 417.439 224.883 418.615 224.883H444.472C445.353 224.883 446.235 224.211 446.235 222.866V215.473C446.235 214.408 445.353 213.456 444.472 213.456Z" fill="#989FB0"/>
<path d="M438.569 218.353H425.316C424.752 218.353 424.188 218.761 424.188 219.169C424.188 219.577 424.752 219.985 425.316 219.985H438.569C439.132 219.985 439.696 219.577 439.696 219.169C439.696 218.557 439.132 218.353 438.569 218.353Z" fill="#EAEDF1"/>
<rect x="372.214" y="142.25" width="34.1536" height="3.60944" rx="1.80472" fill="#989FB0"/>
<circle cx="262.421" cy="251.727" r="2.44861" fill="#C4C4C4"/>
<path d="M309.716 327.637H217.801C214.376 327.637 211.521 324.806 211.521 321.41V228.573C211.521 225.177 214.376 222.346 217.801 222.346H309.716C313.141 222.346 315.996 225.177 315.996 228.573V321.41C315.996 324.806 313.141 327.637 309.716 327.637Z" fill="#EAEDF1"/>
<path d="M259.724 261.288H227.146C226.298 261.288 225.451 260.347 225.451 259.405V250.929C225.451 249.987 226.298 249.045 227.146 249.045H259.724C260.571 249.045 261.419 249.987 261.419 250.929V259.405C261.419 260.347 260.571 261.288 259.724 261.288Z" fill="#DFE3E9"/>
<path d="M298.031 261.288H265.453C264.606 261.288 263.758 260.347 263.758 259.405V250.929C263.758 249.987 264.606 249.045 265.453 249.045H298.031C298.879 249.045 299.726 249.987 299.726 250.929V259.405C299.726 260.347 298.879 261.288 298.031 261.288Z" fill="#DFE3E9"/>
<path d="M298.281 278.704H227.395C226.548 278.704 225.701 277.762 225.701 276.82V268.344C225.701 267.402 226.548 266.46 227.395 266.46H298.281C299.128 266.46 299.975 267.402 299.975 268.344V276.82C299.975 277.762 299.128 278.704 298.281 278.704Z" fill="#DFE3E9"/>
<path d="M298.281 296.113H227.395C226.548 296.113 225.701 295.171 225.701 294.23V285.754C225.701 284.812 226.548 283.87 227.395 283.87H298.281C299.128 283.87 299.975 284.812 299.975 285.754V294.23C299.975 295.171 299.128 296.113 298.281 296.113Z" fill="#DFE3E9"/>
<path d="M298.208 306.322H272.35C271.469 306.322 270.587 306.994 270.587 308.338V315.732C270.587 316.74 271.175 317.749 272.35 317.749H298.208C299.089 317.749 299.971 317.076 299.971 315.732V308.338C299.971 307.274 299.089 306.322 298.208 306.322Z" fill="#989FB0"/>
<path d="M292.304 311.219H279.052C278.488 311.219 277.924 311.627 277.924 312.035C277.924 312.443 278.488 312.851 279.052 312.851H292.304C292.868 312.851 293.432 312.443 293.432 312.035C293.432 311.423 292.868 311.219 292.304 311.219Z" fill="#EAEDF1"/>
<rect x="230.593" y="253.942" width="13.2588" height="2.44861" fill="#989FB0"/>
<rect x="225.95" y="235.115" width="34.1536" height="3.60944" rx="1.80472" fill="#989FB0"/>
<rect x="268.651" y="253.942" width="13.2588" height="2.44861" fill="#989FB0"/>
<rect x="230.593" y="271.358" width="31.832" height="2.44861" fill="#989FB0"/>
<rect x="230.593" y="288.768" width="31.832" height="2.44861" fill="#989FB0"/>
<path d="M176.697 142.25H213.263" stroke="#6BAFFF" stroke-width="1.74124" stroke-linecap="round" stroke-linejoin="round"/>
<circle cx="212.682" cy="142.249" r="2.32165" fill="#6BAFFF"/>
<circle cx="175.536" cy="142.249" r="2.32165" fill="#6BAFFF"/>
<path d="M263.759 196.808L263.759 221.766" stroke="#6BAFFF" stroke-width="1.74124" stroke-linecap="round" stroke-linejoin="round"/>
<circle cx="263.759" cy="222.347" r="2.32165" transform="rotate(90 263.759 222.347)" fill="#6BAFFF"/>
<circle cx="263.759" cy="195.647" r="2.32165" transform="rotate(90 263.759 195.647)" fill="#6BAFFF"/>
<path d="M410.022 236.276L410.022 261.234" stroke="#6BAFFF" stroke-width="1.74124" stroke-linecap="round" stroke-linejoin="round"/>
<circle cx="410.023" cy="261.814" r="2.32165" transform="rotate(90 410.023 261.814)" fill="#6BAFFF"/>
<circle cx="410.023" cy="235.116" r="2.32165" transform="rotate(90 410.023 235.116)" fill="#6BAFFF"/>
<circle cx="315.996" cy="143.411" r="2.32165" transform="rotate(90 315.996 143.411)" fill="#6BAFFF"/>
<circle cx="357.786" cy="184.039" r="2.32165" transform="rotate(90 357.786 184.039)" fill="#6BAFFF"/>
<path d="M315.996 142.83C329.926 142.83 326.444 184.039 357.205 184.039" stroke="#6BAFFF" stroke-width="1.74124" stroke-linecap="round" stroke-linejoin="round"/>
<circle cx="109.219" cy="284.434" r="3.68174" fill="#C4C4C4"/>
<g filter="url(#filter1_d_7_31343)">
<path d="M174.511 413.697H47.9416C40.291 413.697 33.9155 406.745 33.9155 398.402V254.571C33.9155 246.228 40.291 239.275 47.9416 239.275H174.511C182.161 239.275 188.537 246.228 188.537 254.571V398.402C188.537 406.745 182.161 413.697 174.511 413.697Z" fill="white"/>
<path d="M174.511 413.697H47.9416C40.291 413.697 33.9155 406.745 33.9155 398.402V254.571C33.9155 246.228 40.291 239.275 47.9416 239.275H174.511C182.161 239.275 188.537 246.228 188.537 254.571V398.402C188.537 406.745 182.161 413.697 174.511 413.697Z" stroke="url(#paint0_linear_7_31343)" stroke-width="4.6433"/>
</g>
<path d="M134.779 287.06C134.779 293.527 132.191 299.419 128.164 303.731C127.877 304.162 127.445 304.45 127.014 304.881C122.7 308.905 116.949 311.348 110.622 311.348C105.589 311.348 100.844 309.767 96.8178 307.036C95.6675 306.318 94.661 305.312 93.6544 304.45C89.1969 299.994 86.4648 293.958 86.4648 287.203C86.4648 273.694 97.2492 262.915 110.622 262.915C123.994 262.915 134.779 273.694 134.779 287.06Z" fill="#E9F0F8"/>
<path d="M134.779 287.06C134.779 294.102 131.759 300.425 127.014 304.737C122.7 308.761 116.949 311.204 110.622 311.204C105.589 311.204 100.844 309.623 96.8178 306.893C90.491 302.581 86.4648 295.252 86.4648 287.06C86.4648 273.694 97.2492 262.915 110.622 262.915C123.994 262.915 134.779 273.694 134.779 287.06Z" fill="#EBEFF2"/>
<path d="M128.167 303.731C127.88 304.162 127.448 304.449 127.017 304.88C122.703 308.905 116.951 311.348 110.625 311.348C105.592 311.348 100.847 309.767 96.8206 307.036C95.6703 306.318 94.6638 305.312 93.6572 304.449C94.2324 303.731 95.0951 303.3 96.9644 302.581L97.6834 302.294C99.1213 301.719 101.134 301 103.723 299.85C104.154 299.707 104.442 299.419 104.729 299.132C104.873 298.988 105.017 298.844 105.017 298.557C105.161 298.269 105.304 297.838 105.304 297.551V292.664C105.161 292.521 105.161 292.521 105.017 292.377C104.585 291.802 104.298 291.084 104.298 290.221L103.866 290.078C102.572 290.365 102.716 289.071 102.429 286.485C102.285 285.335 102.429 285.191 103.004 285.047L103.435 284.473C102.572 282.317 102.141 280.592 102.141 279.155C102.141 276.712 103.147 275.131 104.585 274.412C103.723 272.257 103.723 271.682 103.723 271.682C103.723 271.682 108.755 272.544 110.625 272.257C112.781 271.825 116.232 272.4 117.527 275.275C119.683 276.137 120.402 277.43 120.69 278.868C120.978 281.167 119.683 283.754 119.396 284.616V284.76C119.683 284.904 119.827 285.191 119.683 286.197C119.396 288.64 119.396 290.078 118.246 289.79L117.095 291.658C117.095 291.946 117.095 291.946 116.951 292.09C116.951 292.521 116.951 293.239 116.951 297.263C116.951 297.695 117.095 298.269 117.383 298.557C117.527 298.701 117.527 298.844 117.67 298.844C117.958 299.132 118.246 299.419 118.533 299.563C121.409 300.713 123.566 301.575 125.004 302.15C126.585 302.725 127.448 303.156 128.167 303.731Z" fill="white"/>
<path d="M128.168 303.73C127.88 304.161 127.449 304.449 127.017 304.88C122.704 308.904 116.952 311.347 110.625 311.347C105.592 311.347 100.847 309.766 96.8211 307.036C95.6708 306.317 94.6643 305.311 93.6577 304.449C94.2329 303.73 95.0956 303.299 96.9649 302.581L97.6839 302.293C99.1218 301.718 101.135 301 103.723 299.85C104.154 299.706 104.442 299.419 104.73 299.131C106.168 301.143 108.468 302.437 111.2 302.437C113.789 302.437 116.089 301.143 117.527 299.275C117.815 299.562 118.102 299.85 118.39 299.994C121.266 301.143 123.423 302.006 124.86 302.581C126.586 302.724 127.449 303.155 128.168 303.73Z" fill="url(#paint1_linear_7_31343)"/>
<path d="M119.248 284.616C119.392 284.041 119.104 283.179 118.816 282.748C118.816 282.604 118.673 282.604 118.673 282.46C117.666 280.448 115.509 279.73 113.496 279.586C108.176 279.299 107.745 280.305 106.019 278.868C106.594 279.586 106.594 280.88 105.731 282.317C105.156 283.323 104.15 283.898 103.143 284.185C100.699 278.724 101.993 275.275 104.294 274.125C103.718 272.257 103.718 271.682 103.718 271.682C103.718 271.682 108.751 272.544 110.62 272.257C112.777 271.825 116.228 272.4 117.522 275.275C119.679 276.137 120.398 277.43 120.686 278.868C120.83 281.167 119.535 283.61 119.248 284.616Z" fill="#333849"/>
<path d="M105.306 297.264V292.377C105.162 292.233 105.162 292.233 105.018 292.09V291.802C105.306 292.233 105.593 292.665 106.025 292.952L109.907 295.683C110.77 296.401 112.064 296.401 113.07 295.683L116.665 292.521C116.809 292.377 116.953 292.233 117.097 292.233C117.097 292.665 117.097 293.383 117.097 297.407C117.097 297.695 117.097 297.838 117.24 298.126H105.449C105.306 297.838 105.306 297.551 105.306 297.264Z" fill="url(#paint2_linear_7_31343)"/>
<path d="M134.779 287.06C134.779 294.102 131.759 300.425 127.014 304.737C122.7 308.761 116.949 311.204 110.622 311.204C105.589 311.204 100.844 309.623 96.8178 306.893C90.491 302.581 86.4648 295.252 86.4648 287.06C86.4648 273.694 97.2492 262.915 110.622 262.915C123.994 262.915 134.779 273.694 134.779 287.06Z" stroke="white" stroke-width="1.87728" stroke-miterlimit="10" stroke-linecap="round" stroke-linejoin="round"/>
<path d="M163.131 337.206H56.5473C55.2734 337.206 53.9995 335.79 53.9995 334.374V321.629C53.9995 320.213 55.2734 318.797 56.5473 318.797H163.131C164.405 318.797 165.679 320.213 165.679 321.629V334.374C165.679 335.79 164.405 337.206 163.131 337.206Z" fill="#D5DDEA"/>
<path d="M163.131 364.205H56.5473C55.2734 364.205 53.9995 362.789 53.9995 361.373V348.628C53.9995 347.212 55.2734 345.796 56.5473 345.796H163.131C164.405 345.796 165.679 347.212 165.679 348.628V361.373C165.679 362.789 164.405 364.205 163.131 364.205Z" fill="#D5DDEA"/>
<path d="M163.021 375.25H124.142C122.816 375.25 121.491 376.261 121.491 378.283V389.4C121.491 390.916 122.374 392.432 124.142 392.432H163.021C164.346 392.432 165.672 391.421 165.672 389.4V378.283C165.672 376.682 164.346 375.25 163.021 375.25Z" fill="#D5DDEA"/>
<path d="M154.159 382.614H134.232C133.385 382.614 132.537 383.227 132.537 383.841C132.537 384.455 133.385 385.068 134.232 385.068H154.159C155.006 385.068 155.854 384.455 155.854 383.841C155.854 382.921 155.006 382.614 154.159 382.614Z" fill="#989FB0"/>
<rect x="61.3608" y="326.161" width="47.8627" height="3.68174" fill="#989FB0"/>
<rect x="61.3608" y="353.16" width="3.68174" height="3.68174" rx="1.84087" fill="#AAB2C5"/>
<rect x="68.7222" y="353.16" width="3.68174" height="3.68174" rx="1.84087" fill="#AAB2C5"/>
<rect x="76.084" y="353.16" width="3.68174" height="3.68174" rx="1.84087" fill="#AAB2C5"/>
<rect x="83.4487" y="353.16" width="3.68174" height="3.68174" rx="1.84087" fill="#AAB2C5"/>
<rect x="89.5835" y="353.16" width="3.68174" height="3.68174" rx="1.84087" fill="#AAB2C5"/>
<rect x="96.9487" y="353.16" width="3.68174" height="3.68174" rx="1.84087" fill="#AAB2C5"/>
<g clip-path="url(#clip1_7_31343)">
<g filter="url(#filter2_d_7_31343)">
<path d="M97.8364 403.908C97.8364 401.71 100.407 400.523 102.069 401.955L118.52 416.105C120.289 417.626 119.282 420.536 116.955 420.631L109.488 420.93C108.686 420.961 107.931 421.32 107.395 421.919L102.312 427.62C100.743 429.382 97.8364 428.266 97.8364 425.903V403.91V403.908Z" fill="black"/>
<path d="M119.849 414.56L119.849 414.56C123.011 417.28 121.225 422.495 117.038 422.667L117.036 422.667L109.57 422.966L109.568 422.966C109.324 422.976 109.087 423.085 108.914 423.277C108.913 423.278 108.913 423.278 108.912 423.279L103.834 428.975L119.849 414.56ZM119.849 414.56L103.399 400.411C103.399 400.411 103.399 400.411 103.399 400.411M119.849 414.56L103.399 400.411M103.399 400.411C103.398 400.411 103.398 400.41 103.398 400.41L103.399 400.411Z" stroke="white" stroke-width="4.07593"/>
</g>
</g>
<g filter="url(#filter3_d_7_31343)">
<rect x="237.06" y="313.568" width="219.396" height="133.398" rx="11.4573" fill="white"/>
</g>
<path d="M254.667 346.749L254.667 357.583" stroke="#BDC2CE" stroke-width="1.3543" stroke-linecap="round" stroke-linejoin="round"/>
<path d="M253.366 337.467L254.93 332.727L256.513 337.467H257.537L259.869 330.461H258.457L257.006 335.267L255.319 330.461H254.532L252.883 335.267L251.404 330.461H249.991L252.333 337.467H253.366ZM261.8 337.467V334.68C261.8 333.874 262.312 333.315 263.042 333.315C263.724 333.315 264.17 333.798 264.17 334.661V337.467H265.402V334.329C265.402 333.637 265.203 333.115 264.815 332.746C264.426 332.376 263.961 332.186 263.402 332.186C262.672 332.186 262.065 332.518 261.771 332.983V330.262H260.568V337.467H261.8ZM271.543 334.784C271.543 333.988 271.306 333.362 270.823 332.897C270.349 332.433 269.742 332.196 268.993 332.196C268.206 332.196 267.561 332.452 267.059 332.964C266.566 333.466 266.319 334.111 266.319 334.888C266.319 336.253 267.173 337.581 269.107 337.581C269.96 337.581 270.709 337.344 271.344 336.87L270.851 335.988C270.349 336.339 269.78 336.519 269.154 336.519C268.272 336.519 267.741 336.045 267.58 335.334H271.505C271.534 335.106 271.543 334.926 271.543 334.784ZM268.993 333.229C269.704 333.229 270.225 333.675 270.33 334.395H267.58C267.741 333.675 268.272 333.229 268.993 333.229ZM273.733 337.467V334.689C273.733 333.883 274.255 333.315 274.985 333.315C275.667 333.315 276.113 333.807 276.113 334.67V337.467H277.355V334.329C277.355 333.637 277.156 333.115 276.767 332.746C276.378 332.376 275.895 332.186 275.335 332.186C274.587 332.186 273.989 332.518 273.714 333.04V332.319H272.501V337.467H273.733Z" fill="#333849"/>
<rect x="283.782" y="326.435" width="65.6833" height="17.6058" rx="2.70859" fill="#1F2330"/>
<path d="M292.642 334.53C293.138 334.359 293.463 333.855 293.463 333.311C293.463 332.913 293.317 332.563 293.016 332.263C292.715 331.962 292.301 331.816 291.765 331.816H289.213V337.821H291.887C292.463 337.821 292.927 337.65 293.268 337.317C293.609 336.976 293.78 336.561 293.78 336.074C293.78 335.351 293.382 334.725 292.642 334.53ZM291.586 332.799C292.065 332.799 292.35 333.108 292.35 333.474C292.35 333.864 292.065 334.189 291.545 334.189H290.31V332.799H291.586ZM290.31 336.829V335.131H291.675C292.293 335.131 292.634 335.513 292.634 335.993C292.634 336.439 292.285 336.829 291.675 336.829H290.31ZM296.571 337.926C297.814 337.926 298.57 337.203 298.57 335.976V333.409H297.506V335.976C297.506 336.569 297.156 336.959 296.571 336.959C295.994 336.959 295.645 336.569 295.645 335.976V333.409H294.58V335.976C294.58 337.203 295.344 337.926 296.571 337.926ZM302.376 336.732C302.124 336.886 301.872 336.959 301.629 336.959C301.198 336.959 300.987 336.691 300.987 336.163V334.302H302.465V333.409H300.987V331.848H299.938V333.409H299.191V334.302H299.922V336.204C299.922 337.333 300.434 337.926 301.433 337.926C301.929 337.926 302.36 337.805 302.709 337.561L302.376 336.732ZM306.058 336.732C305.806 336.886 305.554 336.959 305.311 336.959C304.88 336.959 304.669 336.691 304.669 336.163V334.302H306.147V333.409H304.669V331.848H303.62V333.409H302.873V334.302H303.604V336.204C303.604 337.333 304.116 337.926 305.115 337.926C305.611 337.926 306.042 337.805 306.391 337.561L306.058 336.732ZM306.646 335.611C306.646 336.269 306.865 336.821 307.304 337.268C307.751 337.715 308.311 337.935 309.002 337.935C309.693 337.935 310.254 337.715 310.692 337.268C311.139 336.821 311.359 336.269 311.359 335.611C311.359 334.961 311.139 334.416 310.692 333.969C310.254 333.522 309.693 333.295 309.002 333.295C308.311 333.295 307.751 333.522 307.304 333.969C306.865 334.416 306.646 334.961 306.646 335.611ZM310.294 335.611C310.294 335.984 310.172 336.301 309.92 336.561C309.668 336.821 309.368 336.951 309.002 336.951C308.636 336.951 308.336 336.821 308.084 336.561C307.832 336.301 307.71 335.984 307.71 335.611C307.71 335.245 307.832 334.928 308.084 334.668C308.336 334.408 308.636 334.278 309.002 334.278C309.368 334.278 309.668 334.408 309.92 334.668C310.172 334.928 310.294 335.245 310.294 335.611ZM313.247 337.821V335.44C313.247 334.749 313.694 334.262 314.319 334.262C314.904 334.262 315.286 334.684 315.286 335.424V337.821H316.351V335.131C316.351 334.538 316.18 334.091 315.847 333.774C315.514 333.457 315.099 333.295 314.62 333.295C313.978 333.295 313.466 333.579 313.23 334.026V333.409H312.19V337.821H313.247ZM319.957 335.009C320.306 335.009 320.574 334.733 320.574 334.375C320.574 334.026 320.306 333.758 319.957 333.758C319.599 333.758 319.315 334.026 319.315 334.375C319.315 334.733 319.599 335.009 319.957 335.009ZM319.957 337.951C320.306 337.951 320.574 337.675 320.574 337.317C320.574 336.968 320.306 336.699 319.957 336.699C319.599 336.699 319.315 336.968 319.315 337.317C319.315 337.675 319.599 337.951 319.957 337.951ZM322.187 335.009C322.536 335.009 322.804 334.733 322.804 334.375C322.804 334.026 322.536 333.758 322.187 333.758C321.829 333.758 321.545 334.026 321.545 334.375C321.545 334.733 321.829 335.009 322.187 335.009ZM322.187 337.951C322.536 337.951 322.804 337.675 322.804 337.317C322.804 336.968 322.536 336.699 322.187 336.699C321.829 336.699 321.545 336.968 321.545 337.317C321.545 337.675 321.829 337.951 322.187 337.951ZM329.943 335.667L326.66 331.816H325.993V337.821H327.09V334.002L330.316 337.821H331.04V331.816H329.943V335.667ZM336.453 335.521C336.453 334.839 336.25 334.302 335.835 333.904C335.429 333.506 334.909 333.303 334.267 333.303C333.592 333.303 333.04 333.522 332.609 333.961C332.187 334.392 331.975 334.944 331.975 335.611C331.975 336.781 332.707 337.918 334.364 337.918C335.096 337.918 335.738 337.715 336.282 337.309L335.86 336.553C335.429 336.854 334.941 337.008 334.405 337.008C333.649 337.008 333.194 336.602 333.056 335.993H336.42C336.445 335.797 336.453 335.643 336.453 335.521ZM334.267 334.189C334.876 334.189 335.323 334.57 335.413 335.188H333.056C333.194 334.57 333.649 334.189 334.267 334.189ZM339.511 335.594L340.909 333.409H339.706L338.853 334.806L338.048 333.409H336.829L338.154 335.562L336.675 337.821H337.902L338.828 336.326L339.73 337.821H340.949L339.511 335.594ZM344.362 336.732C344.11 336.886 343.858 336.959 343.614 336.959C343.184 336.959 342.972 336.691 342.972 336.163V334.302H344.451V333.409H342.972V331.848H341.924V333.409H341.177V334.302H341.908V336.204C341.908 337.333 342.42 337.926 343.419 337.926C343.915 337.926 344.346 337.805 344.695 337.561L344.362 336.732Z" fill="white"/>
<rect x="283.782" y="360.97" width="79.9035" height="17.6058" rx="2.70859" fill="#1F2330"/>
<path d="M290.318 372.355V369.91H292.788V368.853H290.318V367.407H293.138V366.351H289.213V372.355H290.318ZM294.46 367.415C294.842 367.415 295.126 367.139 295.126 366.749C295.126 366.367 294.842 366.082 294.46 366.082C294.078 366.082 293.777 366.367 293.777 366.749C293.777 367.139 294.07 367.415 294.46 367.415ZM294.98 367.943H293.916V372.355H294.98V367.943ZM300.276 370.056C300.276 369.373 300.072 368.837 299.658 368.439C299.252 368.041 298.732 367.838 298.09 367.838C297.415 367.838 296.863 368.057 296.432 368.496C296.01 368.926 295.798 369.479 295.798 370.145C295.798 371.315 296.53 372.453 298.187 372.453C298.919 372.453 299.561 372.25 300.105 371.844L299.682 371.088C299.252 371.389 298.764 371.543 298.228 371.543C297.472 371.543 297.017 371.137 296.879 370.527H300.243C300.267 370.332 300.276 370.178 300.276 370.056ZM298.09 368.723C298.699 368.723 299.146 369.105 299.235 369.723H296.879C297.017 369.105 297.472 368.723 298.09 368.723ZM302.153 366.18H301.097V372.355H302.153V366.18ZM306.571 368.504C306.205 368.057 305.742 367.838 305.181 367.838C304.564 367.838 304.044 368.057 303.621 368.504C303.207 368.951 302.996 369.495 302.996 370.145C302.996 370.803 303.207 371.356 303.621 371.803C304.036 372.242 304.564 372.461 305.19 372.461C305.758 372.461 306.23 372.234 306.595 371.779V372.355H307.627V366.18H306.571V368.504ZM305.336 371.494C304.954 371.494 304.645 371.364 304.409 371.104C304.174 370.844 304.052 370.527 304.052 370.145C304.052 369.771 304.174 369.455 304.409 369.195C304.645 368.935 304.954 368.805 305.336 368.805C305.718 368.805 306.027 368.935 306.262 369.195C306.506 369.455 306.628 369.771 306.628 370.145C306.628 370.527 306.506 370.844 306.27 371.104C306.035 371.364 305.718 371.494 305.336 371.494ZM311.299 369.544C311.649 369.544 311.917 369.268 311.917 368.91C311.917 368.561 311.649 368.293 311.299 368.293C310.942 368.293 310.657 368.561 310.657 368.91C310.657 369.268 310.942 369.544 311.299 369.544ZM311.299 372.485C311.649 372.485 311.917 372.209 311.917 371.852C311.917 371.502 311.649 371.234 311.299 371.234C310.942 371.234 310.657 371.502 310.657 371.852C310.657 372.209 310.942 372.485 311.299 372.485ZM313.529 369.544C313.879 369.544 314.147 369.268 314.147 368.91C314.147 368.561 313.879 368.293 313.529 368.293C313.172 368.293 312.887 368.561 312.887 368.91C312.887 369.268 313.172 369.544 313.529 369.544ZM313.529 372.485C313.879 372.485 314.147 372.209 314.147 371.852C314.147 371.502 313.879 371.234 313.529 371.234C313.172 371.234 312.887 371.502 312.887 371.852C312.887 372.209 313.172 372.485 313.529 372.485ZM319.571 372.461C320.245 372.461 320.798 372.266 321.228 371.884C321.659 371.494 321.878 370.933 321.878 370.202V366.351H320.757V370.105C320.757 370.925 320.294 371.38 319.571 371.38C318.831 371.38 318.384 370.942 318.384 370.105V366.351H317.271V370.202C317.271 370.933 317.49 371.494 317.921 371.884C318.352 372.266 318.904 372.461 319.571 372.461ZM324.365 372.469C324.877 372.469 325.291 372.339 325.608 372.071C325.925 371.803 326.079 371.47 326.079 371.072C326.079 370.592 325.827 370.218 325.332 369.95C325.258 369.91 324.901 369.763 324.267 369.511C324.015 369.422 323.885 369.276 323.885 369.081C323.885 368.845 324.088 368.666 324.422 368.666C324.795 368.666 325.128 368.821 325.413 369.121L325.965 368.447C325.583 368.016 325.08 367.797 324.454 367.797C323.975 367.797 323.585 367.919 323.292 368.163C322.999 368.406 322.853 368.723 322.853 369.105C322.853 369.609 323.097 369.983 323.593 370.227C323.69 370.275 323.877 370.357 324.153 370.462C324.438 370.568 324.617 370.641 324.69 370.682C324.909 370.787 325.023 370.933 325.023 371.104C325.023 371.364 324.755 371.567 324.373 371.567C323.942 371.567 323.479 371.332 323.186 370.942L322.585 371.592C322.999 372.169 323.65 372.469 324.365 372.469ZM331.12 370.056C331.12 369.373 330.917 368.837 330.503 368.439C330.096 368.041 329.576 367.838 328.934 367.838C328.26 367.838 327.707 368.057 327.277 368.496C326.854 368.926 326.643 369.479 326.643 370.145C326.643 371.315 327.374 372.453 329.032 372.453C329.763 372.453 330.405 372.25 330.95 371.844L330.527 371.088C330.096 371.389 329.609 371.543 329.072 371.543C328.317 371.543 327.862 371.137 327.724 370.527H331.088C331.112 370.332 331.12 370.178 331.12 370.056ZM328.934 368.723C329.544 368.723 329.991 369.105 330.08 369.723H327.724C327.862 369.105 328.317 368.723 328.934 368.723ZM332.998 372.355V370.202C332.998 369.284 333.453 368.845 334.111 368.845C334.273 368.845 334.444 368.878 334.623 368.935L334.712 367.919C334.55 367.862 334.371 367.829 334.184 367.829C333.64 367.829 333.225 368.073 332.957 368.553V367.943H331.941V372.355H332.998ZM336.354 372.355V369.975C336.354 369.284 336.801 368.796 337.427 368.796C338.012 368.796 338.394 369.219 338.394 369.958V372.355H339.458V369.666C339.458 369.073 339.288 368.626 338.955 368.309C338.621 367.992 338.207 367.829 337.728 367.829C337.086 367.829 336.574 368.114 336.338 368.561V367.943H335.298V372.355H336.354ZM343.86 368.504C343.462 368.057 342.983 367.838 342.422 367.838C341.796 367.838 341.268 368.057 340.854 368.488C340.439 368.918 340.236 369.471 340.236 370.129C340.236 370.787 340.439 371.348 340.854 371.795C341.268 372.242 341.788 372.461 342.422 372.461C342.999 372.461 343.478 372.242 343.86 371.811V372.355H344.868V367.943H343.86V368.504ZM343.885 370.145C343.885 370.527 343.763 370.844 343.519 371.104C343.275 371.364 342.966 371.494 342.584 371.494C342.203 371.494 341.894 371.364 341.65 371.104C341.414 370.844 341.292 370.527 341.292 370.145C341.292 369.771 341.414 369.455 341.65 369.195C341.894 368.935 342.203 368.805 342.584 368.805C342.966 368.805 343.275 368.935 343.519 369.195C343.763 369.455 343.885 369.771 343.885 370.145ZM351.229 367.821C350.554 367.821 349.961 368.114 349.644 368.609C349.409 368.098 348.905 367.829 348.328 367.821C347.751 367.821 347.239 368.114 346.987 368.577V367.943H345.947V372.355H347.003V369.934C347.003 369.243 347.434 368.796 348.027 368.796C348.588 368.796 348.962 369.211 348.962 369.901V372.355H350.018V369.926C350.018 369.243 350.441 368.796 351.034 368.796C351.586 368.796 351.952 369.178 351.952 369.893V372.355H353.017V369.698C353.017 369.113 352.846 368.658 352.513 368.325C352.18 367.992 351.757 367.821 351.229 367.821ZM358.283 370.056C358.283 369.373 358.08 368.837 357.665 368.439C357.259 368.041 356.739 367.838 356.097 367.838C355.423 367.838 354.87 368.057 354.439 368.496C354.017 368.926 353.806 369.479 353.806 370.145C353.806 371.315 354.537 372.453 356.194 372.453C356.926 372.453 357.568 372.25 358.112 371.844L357.69 371.088C357.259 371.389 356.771 371.543 356.235 371.543C355.479 371.543 355.024 371.137 354.886 370.527H358.25C358.275 370.332 358.283 370.178 358.283 370.056ZM356.097 368.723C356.706 368.723 357.153 369.105 357.243 369.723H354.886C355.024 369.105 355.479 368.723 356.097 368.723Z" fill="white"/>
<path d="M356.164 331.701C356.609 331.701 356.941 331.379 356.941 330.924C356.941 330.479 356.609 330.147 356.164 330.147C355.718 330.147 355.367 330.479 355.367 330.924C355.367 331.379 355.709 331.701 356.164 331.701ZM356.77 332.318H355.528V337.465H356.77V332.318ZM359.659 337.598C360.256 337.598 360.74 337.446 361.109 337.134C361.479 336.821 361.659 336.432 361.659 335.967C361.659 335.408 361.365 334.972 360.787 334.659C360.702 334.612 360.285 334.441 359.545 334.147C359.251 334.043 359.1 333.872 359.1 333.645C359.1 333.37 359.337 333.161 359.725 333.161C360.161 333.161 360.55 333.342 360.882 333.692L361.526 332.905C361.081 332.403 360.493 332.147 359.763 332.147C359.204 332.147 358.749 332.289 358.407 332.574C358.066 332.858 357.896 333.228 357.896 333.673C357.896 334.261 358.18 334.697 358.758 334.982C358.872 335.038 359.09 335.133 359.412 335.256C359.744 335.38 359.953 335.465 360.038 335.512C360.294 335.636 360.427 335.806 360.427 336.005C360.427 336.309 360.114 336.546 359.668 336.546C359.166 336.546 358.626 336.271 358.284 335.816L357.583 336.574C358.066 337.247 358.825 337.598 359.659 337.598Z" fill="#333849"/>
<g filter="url(#filter4_d_7_31343)">
<rect x="367.749" y="325.082" width="75.1634" height="18.9601" rx="3.38574" fill="white"/>
<rect x="368.087" y="325.42" width="74.4863" height="18.283" rx="3.04717" stroke="#DBDFE8" stroke-width="0.677148"/>
</g>
<path d="M437.495 333.209L434.787 335.918L432.078 333.209" stroke="#A3AABA" stroke-width="1.3543" stroke-linecap="round" stroke-linejoin="round"/>
<path d="M388.106 337.232C389.211 337.232 390.186 336.712 390.747 335.957L389.975 335.258C389.503 335.867 388.902 336.168 388.163 336.168C387.594 336.168 387.114 335.981 386.733 335.599C386.351 335.217 386.164 334.738 386.164 334.161C386.164 333.568 386.359 333.08 386.741 332.69C387.131 332.3 387.61 332.105 388.171 332.105C388.87 332.105 389.463 332.406 389.95 333.015L390.706 332.292C390.178 331.536 389.203 331.032 388.122 331.032C387.261 331.032 386.529 331.325 385.92 331.918C385.319 332.503 385.018 333.251 385.018 334.161C385.018 335.063 385.311 335.802 385.904 336.379C386.497 336.948 387.236 337.232 388.106 337.232ZM392.507 330.967H391.45V337.143H392.507V330.967ZM394.146 332.203C394.527 332.203 394.812 331.926 394.812 331.536C394.812 331.154 394.527 330.87 394.146 330.87C393.764 330.87 393.463 331.154 393.463 331.536C393.463 331.926 393.755 332.203 394.146 332.203ZM394.666 332.731H393.601V337.143H394.666V332.731ZM397.816 337.241C398.718 337.241 399.498 336.786 399.88 336.079L399.018 335.575C398.799 335.989 398.32 336.265 397.832 336.265C397.458 336.265 397.15 336.135 396.906 335.884C396.662 335.632 396.54 335.315 396.54 334.933C396.54 334.551 396.662 334.234 396.914 333.982C397.166 333.73 397.483 333.6 397.865 333.6C398.352 333.6 398.775 333.868 399.035 334.299L399.896 333.836C399.539 333.064 398.75 332.625 397.848 332.625C397.15 332.625 396.581 332.845 396.142 333.275C395.703 333.706 395.484 334.258 395.484 334.933C395.484 335.607 395.703 336.16 396.134 336.591C396.573 337.021 397.133 337.241 397.816 337.241ZM404.817 337.143L402.72 334.551L404.711 332.731H403.362L401.664 334.307V330.967H400.608V337.143H401.664V335.51L401.989 335.217L403.5 337.143H404.817ZM409.222 334.843C409.222 334.161 409.018 333.625 408.604 333.226C408.198 332.828 407.678 332.625 407.036 332.625C406.361 332.625 405.809 332.845 405.378 333.283C404.956 333.714 404.744 334.267 404.744 334.933C404.744 336.103 405.476 337.241 407.133 337.241C407.865 337.241 408.507 337.037 409.051 336.631L408.628 335.875C408.198 336.176 407.71 336.33 407.174 336.33C406.418 336.33 405.963 335.924 405.825 335.315H409.189C409.213 335.12 409.222 334.965 409.222 334.843ZM407.036 333.511C407.645 333.511 408.092 333.893 408.182 334.51H405.825C405.963 333.893 406.418 333.511 407.036 333.511ZM413.382 333.291C413.017 332.845 412.554 332.625 411.993 332.625C411.375 332.625 410.855 332.845 410.433 333.291C410.018 333.738 409.807 334.283 409.807 334.933C409.807 335.591 410.018 336.144 410.433 336.591C410.847 337.029 411.375 337.249 412.001 337.249C412.57 337.249 413.041 337.021 413.407 336.566V337.143H414.439V330.967H413.382V333.291ZM412.147 336.282C411.765 336.282 411.457 336.152 411.221 335.892C410.985 335.632 410.863 335.315 410.863 334.933C410.863 334.559 410.985 334.242 411.221 333.982C411.457 333.722 411.765 333.592 412.147 333.592C412.529 333.592 412.838 333.722 413.074 333.982C413.317 334.242 413.439 334.559 413.439 334.933C413.439 335.315 413.317 335.632 413.082 335.892C412.846 336.152 412.529 336.282 412.147 336.282Z" fill="#414859"/>
<path d="M376.907 329.143C377.018 329.143 377.124 329.186 377.201 329.262C377.279 329.337 377.323 329.44 377.323 329.548V330.896C377.323 331.004 377.279 331.107 377.201 331.183C377.124 331.258 377.018 331.301 376.907 331.301C376.797 331.301 376.691 331.258 376.613 331.183C376.536 331.107 376.492 331.004 376.492 330.896V329.548C376.492 329.44 376.536 329.337 376.613 329.262C376.691 329.186 376.797 329.143 376.907 329.143ZM374.258 330.206C374.336 330.13 374.441 330.088 374.551 330.088C374.662 330.088 374.767 330.13 374.845 330.206L375.815 331.15C375.856 331.187 375.889 331.232 375.912 331.281C375.934 331.331 375.947 331.385 375.948 331.439C375.949 331.493 375.938 331.547 375.917 331.598C375.897 331.648 375.865 331.694 375.826 331.732C375.786 331.771 375.739 331.801 375.688 331.821C375.636 331.842 375.58 331.852 375.525 331.851C375.469 331.85 375.414 331.838 375.363 331.816C375.312 331.793 375.266 331.762 375.228 331.722L374.258 330.778C374.18 330.702 374.136 330.599 374.136 330.492C374.136 330.385 374.18 330.282 374.258 330.206ZM379.557 330.206C379.635 330.282 379.679 330.385 379.679 330.492C379.679 330.599 379.635 330.702 379.557 330.778L378.587 331.722C378.549 331.762 378.503 331.793 378.452 331.816C378.401 331.838 378.346 331.85 378.29 331.851C378.235 331.852 378.179 331.842 378.127 331.821C378.076 331.801 378.029 331.771 377.989 331.732C377.95 331.694 377.918 331.648 377.898 331.598C377.877 331.547 377.866 331.493 377.867 331.439C377.868 331.385 377.881 331.331 377.903 331.281C377.926 331.232 377.959 331.187 378 331.15L378.97 330.206C379.048 330.13 379.153 330.088 379.264 330.088C379.374 330.088 379.479 330.13 379.557 330.206ZM373.166 332.785C373.166 332.677 373.209 332.574 373.287 332.499C373.365 332.423 373.471 332.38 373.581 332.38H374.967C375.077 332.38 375.183 332.423 375.261 332.499C375.339 332.574 375.383 332.677 375.383 332.785C375.383 332.892 375.339 332.995 375.261 333.071C375.183 333.147 375.077 333.189 374.967 333.189H373.581C373.471 333.189 373.365 333.147 373.287 333.071C373.209 332.995 373.166 332.892 373.166 332.785ZM376.492 333.182C376.492 332.574 377.225 332.246 377.699 332.642L382.389 336.555C382.893 336.975 382.606 337.78 381.943 337.806L379.814 337.889C379.585 337.897 379.37 337.997 379.217 338.162L377.768 339.739C377.32 340.226 376.492 339.917 376.492 339.264V333.182Z" fill="#1F2330"/>
<path d="M250.731 372.679H252.029V365.673H250.731V372.679ZM256.094 366.384C256.321 366.384 256.596 366.45 256.919 366.593L257.307 365.626C256.852 365.389 256.388 365.275 255.923 365.275C254.7 365.275 253.875 365.995 253.875 367.294V367.531H253.06V368.574H253.875V372.679H255.108V368.574H256.719V367.531H255.108V367.322C255.108 366.716 255.459 366.384 256.094 366.384Z" fill="#333849"/>
<path d="M284.464 385.344V393.47C284.464 394.592 285.373 395.501 286.495 395.501H290.917" stroke="#BDC2CE" stroke-width="1.3543" stroke-linecap="round" stroke-linejoin="round"/>
<path d="M289.563 393.467L291.601 395.499L289.563 397.53" stroke="#BDC2CE" stroke-width="1.3543" stroke-linecap="round" stroke-linejoin="round"/>
<g filter="url(#filter5_d_7_31343)">
<rect x="340.583" y="386.697" width="102.323" height="18.9601" rx="3.38574" fill="white"/>
<rect x="340.922" y="387.036" width="101.646" height="18.283" rx="3.04717" stroke="#DCE0E7" stroke-width="0.677148"/>
</g>
<path d="M351.115 397.304L349.953 394.346H348.783L350.7 398.751H351.497L353.422 394.346H352.26L351.115 397.304ZM357.197 394.907C356.799 394.46 356.319 394.241 355.759 394.241C355.133 394.241 354.605 394.46 354.19 394.891C353.776 395.322 353.573 395.874 353.573 396.532C353.573 397.191 353.776 397.751 354.19 398.198C354.605 398.645 355.125 398.864 355.759 398.864C356.336 398.864 356.815 398.645 357.197 398.214V398.759H358.205V394.346H357.197V394.907ZM357.221 396.549C357.221 396.93 357.1 397.247 356.856 397.507C356.612 397.767 356.303 397.897 355.921 397.897C355.539 397.897 355.231 397.767 354.987 397.507C354.751 397.247 354.629 396.93 354.629 396.549C354.629 396.175 354.751 395.858 354.987 395.598C355.231 395.338 355.539 395.208 355.921 395.208C356.303 395.208 356.612 395.338 356.856 395.598C357.1 395.858 357.221 396.175 357.221 396.549ZM360.34 392.583H359.284V398.759H360.34V392.583ZM363.353 398.864C364.596 398.864 365.351 398.141 365.351 396.914V394.346H364.287V396.914C364.287 397.507 363.938 397.897 363.353 397.897C362.776 397.897 362.426 397.507 362.426 396.914V394.346H361.362V396.914C361.362 398.141 362.126 398.864 363.353 398.864ZM370.612 396.459C370.612 395.777 370.409 395.24 369.994 394.842C369.588 394.444 369.068 394.241 368.426 394.241C367.752 394.241 367.199 394.46 366.768 394.899C366.346 395.33 366.135 395.882 366.135 396.549C366.135 397.719 366.866 398.856 368.524 398.856C369.255 398.856 369.897 398.653 370.441 398.247L370.019 397.491C369.588 397.792 369.1 397.946 368.564 397.946C367.808 397.946 367.353 397.54 367.215 396.93H370.579C370.604 396.735 370.612 396.581 370.612 396.459ZM368.426 395.127C369.035 395.127 369.482 395.508 369.572 396.126H367.215C367.353 395.508 367.808 395.127 368.426 395.127Z" fill="#A3AABA"/>
<g filter="url(#filter6_d_7_31343)">
<rect x="296.583" y="386.698" width="40.6289" height="18.9601" rx="3.38574" fill="white"/>
<rect x="296.921" y="387.036" width="39.9517" height="18.283" rx="3.04717" stroke="#DCE0E7" stroke-width="0.677148"/>
</g>
<path d="M312.638 395.54V394.259H305.755V395.54H312.638ZM312.638 398.147V396.866H305.755V398.147H312.638Z" fill="#414859"/>
<path d="M324.021 395.677L326.73 398.385L329.438 395.677" stroke="#414859" stroke-width="1.3543" stroke-linecap="round" stroke-linejoin="round"/>
<path d="M253.988 379.929L253.988 416.495" stroke="#BDC2CE" stroke-width="1.3543" stroke-linecap="round" stroke-linejoin="round"/>
<path d="M254.621 425.002V423.21H253.465V425.002H251.663V426.158H253.465V427.969L254.621 427.95V426.158H256.403V425.002H254.621ZM265.405 428.983C266.695 428.983 267.832 428.376 268.486 427.495L267.586 426.68C267.036 427.391 266.334 427.741 265.472 427.741C264.808 427.741 264.249 427.523 263.803 427.078C263.358 426.632 263.139 426.073 263.139 425.4C263.139 424.708 263.367 424.139 263.813 423.684C264.268 423.229 264.827 423.001 265.481 423.001C266.296 423.001 266.988 423.352 267.557 424.063L268.439 423.219C267.823 422.338 266.685 421.75 265.424 421.75C264.419 421.75 263.566 422.091 262.855 422.783C262.154 423.466 261.803 424.338 261.803 425.4C261.803 426.452 262.144 427.315 262.836 427.988C263.528 428.651 264.391 428.983 265.405 428.983ZM268.976 426.3C268.976 427.068 269.232 427.713 269.744 428.234C270.266 428.756 270.92 429.012 271.726 429.012C272.531 429.012 273.185 428.756 273.697 428.234C274.219 427.713 274.475 427.068 274.475 426.3C274.475 425.542 274.219 424.907 273.697 424.385C273.185 423.864 272.531 423.599 271.726 423.599C270.92 423.599 270.266 423.864 269.744 424.385C269.232 424.907 268.976 425.542 268.976 426.3ZM273.233 426.3C273.233 426.736 273.091 427.106 272.797 427.409C272.503 427.713 272.152 427.865 271.726 427.865C271.299 427.865 270.948 427.713 270.654 427.409C270.36 427.106 270.218 426.736 270.218 426.3C270.218 425.874 270.36 425.504 270.654 425.201C270.948 424.897 271.299 424.746 271.726 424.746C272.152 424.746 272.503 424.897 272.797 425.201C273.091 425.504 273.233 425.874 273.233 426.3ZM276.677 428.879V426.101C276.677 425.295 277.199 424.727 277.929 424.727C278.611 424.727 279.057 425.22 279.057 426.082V428.879H280.299V425.741C280.299 425.049 280.1 424.528 279.711 424.158C279.322 423.788 278.839 423.599 278.28 423.599C277.531 423.599 276.933 423.93 276.658 424.452V423.731H275.445V428.879H276.677ZM285.377 424.385C284.951 423.864 284.41 423.608 283.756 423.608C283.036 423.608 282.429 423.864 281.936 424.385C281.453 424.907 281.206 425.542 281.206 426.3C281.206 427.068 281.453 427.713 281.936 428.234C282.42 428.746 283.036 429.002 283.766 429.002C284.429 429.002 284.979 428.737 285.406 428.206V428.879H286.61V421.674H285.377V424.385ZM283.936 427.874C283.491 427.874 283.131 427.722 282.856 427.419C282.581 427.116 282.439 426.746 282.439 426.3C282.439 425.864 282.581 425.495 282.856 425.191C283.131 424.888 283.491 424.736 283.936 424.736C284.382 424.736 284.742 424.888 285.017 425.191C285.302 425.495 285.444 425.864 285.444 426.3C285.444 426.746 285.302 427.116 285.027 427.419C284.752 427.722 284.382 427.874 283.936 427.874ZM288.523 423.115C288.969 423.115 289.301 422.793 289.301 422.338C289.301 421.892 288.969 421.56 288.523 421.56C288.078 421.56 287.727 421.892 287.727 422.338C287.727 422.793 288.068 423.115 288.523 423.115ZM289.13 423.731H287.888V428.879H289.13V423.731ZM293.611 427.609C293.317 427.789 293.023 427.874 292.739 427.874C292.236 427.874 291.99 427.561 291.99 426.945V424.774H293.715V423.731H291.99V421.911H290.767V423.731H289.895V424.774H290.748V426.992C290.748 428.31 291.345 429.002 292.511 429.002C293.09 429.002 293.592 428.86 294 428.576L293.611 427.609ZM295.309 423.115C295.755 423.115 296.087 422.793 296.087 422.338C296.087 421.892 295.755 421.56 295.309 421.56C294.864 421.56 294.513 421.892 294.513 422.338C294.513 422.793 294.854 423.115 295.309 423.115ZM295.916 423.731H294.674V428.879H295.916V423.731ZM296.861 426.3C296.861 427.068 297.117 427.713 297.629 428.234C298.15 428.756 298.804 429.012 299.61 429.012C300.416 429.012 301.07 428.756 301.582 428.234C302.104 427.713 302.36 427.068 302.36 426.3C302.36 425.542 302.104 424.907 301.582 424.385C301.07 423.864 300.416 423.599 299.61 423.599C298.804 423.599 298.15 423.864 297.629 424.385C297.117 424.907 296.861 425.542 296.861 426.3ZM301.118 426.3C301.118 426.736 300.975 427.106 300.682 427.409C300.388 427.713 300.037 427.865 299.61 427.865C299.184 427.865 298.833 427.713 298.539 427.409C298.245 427.106 298.103 426.736 298.103 426.3C298.103 425.874 298.245 425.504 298.539 425.201C298.833 424.897 299.184 424.746 299.61 424.746C300.037 424.746 300.388 424.897 300.682 425.201C300.975 425.504 301.118 425.874 301.118 426.3ZM304.562 428.879V426.101C304.562 425.295 305.084 424.727 305.814 424.727C306.496 424.727 306.942 425.22 306.942 426.082V428.879H308.184V425.741C308.184 425.049 307.984 424.528 307.596 424.158C307.207 423.788 306.724 423.599 306.164 423.599C305.415 423.599 304.818 423.93 304.543 424.452V423.731H303.33V428.879H304.562Z" fill="#A3AABA"/>
</g>
<defs>
<filter id="filter0_di_7_31343" x="24.6664" y="19.3902" width="487.716" height="400.157" filterUnits="userSpaceOnUse" color-interpolation-filters="sRGB">
<feFlood flood-opacity="0" result="BackgroundImageFix"/>
<feColorMatrix in="SourceAlpha" type="matrix" values="0 0 0 0 0 0 0 0 0 0 0 0 0 0 0 0 0 0 127 0" result="hardAlpha"/>
<feOffset dy="5.1296"/>
<feGaussianBlur stdDeviation="7.6944"/>
<feColorMatrix type="matrix" values="0 0 0 0 0.186493 0 0 0 0 0.248562 0 0 0 0 0.341667 0 0 0 0.1 0"/>
<feBlend mode="normal" in2="BackgroundImageFix" result="effect1_dropShadow_7_31343"/>
<feBlend mode="normal" in="SourceGraphic" in2="effect1_dropShadow_7_31343" result="shape"/>
<feColorMatrix in="SourceAlpha" type="matrix" values="0 0 0 0 0 0 0 0 0 0 0 0 0 0 0 0 0 0 127 0" result="hardAlpha"/>
<feMorphology radius="1.2824" operator="erode" in="SourceAlpha" result="effect2_innerShadow_7_31343"/>
<feOffset dy="-1.2824"/>
<feComposite in2="hardAlpha" operator="arithmetic" k2="-1" k3="1"/>
<feColorMatrix type="matrix" values="0 0 0 0 0.950625 0 0 0 0 0.962 0 0 0 0 0.975 0 0 0 0.76 0"/>
<feBlend mode="normal" in2="shape" result="effect2_innerShadow_7_31343"/>
</filter>
<filter id="filter1_d_7_31343" x="-10.136" y="216.089" width="242.724" height="262.525" filterUnits="userSpaceOnUse" color-interpolation-filters="sRGB">
<feFlood flood-opacity="0" result="BackgroundImageFix"/>
<feColorMatrix in="SourceAlpha" type="matrix" values="0 0 0 0 0 0 0 0 0 0 0 0 0 0 0 0 0 0 127 0" result="hardAlpha"/>
<feOffset dy="20.8649"/>
<feGaussianBlur stdDeviation="20.8649"/>
<feColorMatrix type="matrix" values="0 0 0 0 0.397708 0 0 0 0 0.47749 0 0 0 0 0.575 0 0 0 0.27 0"/>
<feBlend mode="normal" in2="BackgroundImageFix" result="effect1_dropShadow_7_31343"/>
<feBlend mode="normal" in="SourceGraphic" in2="effect1_dropShadow_7_31343" result="shape"/>
</filter>
<filter id="filter2_d_7_31343" x="76.4375" y="396.224" width="52.1574" height="57.7458" filterUnits="userSpaceOnUse" color-interpolation-filters="sRGB">
<feFlood flood-opacity="0" result="BackgroundImageFix"/>
<feColorMatrix in="SourceAlpha" type="matrix" values="0 0 0 0 0 0 0 0 0 0 0 0 0 0 0 0 0 0 127 0" result="hardAlpha"/>
<feOffset dx="-6.1139" dy="10.1898"/>
<feGaussianBlur stdDeviation="5.60441"/>
<feComposite in2="hardAlpha" operator="out"/>
<feColorMatrix type="matrix" values="0 0 0 0 0 0 0 0 0 0 0 0 0 0 0 0 0 0 0.1 0"/>
<feBlend mode="normal" in2="BackgroundImageFix" result="effect1_dropShadow_7_31343"/>
<feBlend mode="normal" in="SourceGraphic" in2="effect1_dropShadow_7_31343" result="shape"/>
</filter>
<filter id="filter3_d_7_31343" x="217.635" y="303.151" width="258.245" height="172.247" filterUnits="userSpaceOnUse" color-interpolation-filters="sRGB">
<feFlood flood-opacity="0" result="BackgroundImageFix"/>
<feColorMatrix in="SourceAlpha" type="matrix" values="0 0 0 0 0 0 0 0 0 0 0 0 0 0 0 0 0 0 127 0" result="hardAlpha"/>
<feOffset dy="9.00756"/>
<feGaussianBlur stdDeviation="9.71222"/>
<feColorMatrix type="matrix" values="0 0 0 0 0.11816 0 0 0 0 0.142741 0 0 0 0 0.170833 0 0 0 0.15 0"/>
<feBlend mode="normal" in2="BackgroundImageFix" result="effect1_dropShadow_7_31343"/>
<feBlend mode="normal" in="SourceGraphic" in2="effect1_dropShadow_7_31343" result="shape"/>
</filter>
<filter id="filter4_d_7_31343" x="366.394" y="324.404" width="77.8722" height="21.6686" filterUnits="userSpaceOnUse" color-interpolation-filters="sRGB">
<feFlood flood-opacity="0" result="BackgroundImageFix"/>
<feColorMatrix in="SourceAlpha" type="matrix" values="0 0 0 0 0 0 0 0 0 0 0 0 0 0 0 0 0 0 127 0" result="hardAlpha"/>
<feOffset dy="0.677148"/>
<feGaussianBlur stdDeviation="0.677148"/>
<feColorMatrix type="matrix" values="0 0 0 0 0.168663 0 0 0 0 0.212865 0 0 0 0 0.279167 0 0 0 0.1 0"/>
<feBlend mode="normal" in2="BackgroundImageFix" result="effect1_dropShadow_7_31343"/>
<feBlend mode="normal" in="SourceGraphic" in2="effect1_dropShadow_7_31343" result="shape"/>
</filter>
<filter id="filter5_d_7_31343" x="339.229" y="386.02" width="105.032" height="21.6686" filterUnits="userSpaceOnUse" color-interpolation-filters="sRGB">
<feFlood flood-opacity="0" result="BackgroundImageFix"/>
<feColorMatrix in="SourceAlpha" type="matrix" values="0 0 0 0 0 0 0 0 0 0 0 0 0 0 0 0 0 0 127 0" result="hardAlpha"/>
<feOffset dy="0.677148"/>
<feGaussianBlur stdDeviation="0.677148"/>
<feColorMatrix type="matrix" values="0 0 0 0 0.168663 0 0 0 0 0.212865 0 0 0 0 0.279167 0 0 0 0.1 0"/>
<feBlend mode="normal" in2="BackgroundImageFix" result="effect1_dropShadow_7_31343"/>
<feBlend mode="normal" in="SourceGraphic" in2="effect1_dropShadow_7_31343" result="shape"/>
</filter>
<filter id="filter6_d_7_31343" x="295.228" y="386.021" width="43.3375" height="21.6686" filterUnits="userSpaceOnUse" color-interpolation-filters="sRGB">
<feFlood flood-opacity="0" result="BackgroundImageFix"/>
<feColorMatrix in="SourceAlpha" type="matrix" values="0 0 0 0 0 0 0 0 0 0 0 0 0 0 0 0 0 0 127 0" result="hardAlpha"/>
<feOffset dy="0.677148"/>
<feGaussianBlur stdDeviation="0.677148"/>
<feColorMatrix type="matrix" values="0 0 0 0 0.168663 0 0 0 0 0.212865 0 0 0 0 0.279167 0 0 0 0.1 0"/>
<feBlend mode="normal" in2="BackgroundImageFix" result="effect1_dropShadow_7_31343"/>
<feBlend mode="normal" in="SourceGraphic" in2="effect1_dropShadow_7_31343" result="shape"/>
</filter>
<linearGradient id="paint0_linear_7_31343" x1="126.661" y1="239.275" x2="262.472" y2="503.227" gradientUnits="userSpaceOnUse">
<stop offset="0.0001" stop-color="#6770FF"/>
<stop offset="1" stop-color="#62B5FF"/>
</linearGradient>
<linearGradient id="paint1_linear_7_31343" x1="110.913" y1="311.347" x2="110.913" y2="299.131" gradientUnits="userSpaceOnUse">
<stop stop-color="#6F2DDA"/>
<stop offset="1" stop-color="#D882F6"/>
</linearGradient>
<linearGradient id="paint2_linear_7_31343" x1="111.11" y1="298.024" x2="111.11" y2="294.616" gradientUnits="userSpaceOnUse">
<stop stop-color="white"/>
<stop offset="0.9913" stop-color="#D1D8E2"/>
</linearGradient>
<clipPath id="clip0_7_31343">
<rect width="547" height="479" fill="white"/>
</clipPath>
<clipPath id="clip1_7_31343">
<rect width="68.9267" height="68.9267" fill="white" transform="translate(74.1685 384.618)"/>
</clipPath>
</defs>
</svg>
