<svg width="523" height="1813" viewBox="0 0 523 1813" fill="none" xmlns="http://www.w3.org/2000/svg">
<g clip-path="url(#clip0_3_27781)">
<path d="M250.6 2100.7C285.3 2026.9 317 1955.6 345.1 1885.7C419.3 1701.2 454.9 1557.5 453.9 1446.3C453 1360.1 437.9 1281.7 406.4 1199.7C378.4 1126.8 341.2 1060.6 301.7 990.6L301.473 990.196C207.228 822.695 100.4 632.828 100.4 294.4C100.4 190.3 115.9 92.1001 139.9 0H133.2C109.2 92.1001 93.8999 190.3 93.8999 294.4C93.8999 446.4 115.2 581.7 159 707.8C197.583 818.75 247.654 907.719 296.034 993.683L296.1 993.8C373 1130.3 445.5 1259.2 447.5 1446.4C448.5 1556.7 413.1 1699.6 339.2 1883.3C310.8 1953.9 278.7 2026 243.5 2100.7H250.6Z" fill="url(#paint0_linear_3_27781)"/>
<path d="M271.9 2100.7H264.8C382.1 1854.2 472 1620.1 470.2 1446.3C468.1 1252.5 390.9 1119.7 309.2 979.2C259.3 893.4 207.7 804.6 168.2 695.6C123.4 571.9 101.6 440.3 101.6 293.3C101.6 189.6 117.5 91.8003 142.3 0.100098H149C124.1 91.8003 108.1 189.6 108.1 293.3C108.1 620.3 217.9 809.2 314.8 975.9C397 1117.2 474.5 1250.6 476.7 1446.2C478.5 1620.5 388.9 1854.4 271.9 2100.7Z" fill="url(#paint1_linear_3_27781)"/>
<path d="M286.4 2100.7H293.5C412.9 1851.9 501.5 1618.2 499.7 1446.3C497.5 1243.8 415.1 1106.4 327.9 961C223.7 787.3 116 607.7 116 292.2C116 188.9 132.5 91.3999 158.3 0.100098H151.6C126 91.3999 109.5 188.8 109.6 292.3C109.6 434.1 131.8 562 177.6 683.3C218 790.3 271.1 878.8 322.4 964.3L322.735 964.861C409.312 1109.35 491.103 1245.86 493.3 1446.3C495 1617.8 406.1 1851.7 286.4 2100.7Z" fill="url(#paint2_linear_3_27781)"/>
<path d="M315.2 2100.7C353.6 2021.4 385.9 1949.6 413.1 1882.8C488 1699.3 523.7 1556.4 522.5 1446C520.101 1236.65 432.921 1095.5 340.592 946.011L340.4 945.7C233.8 773.3 123.7 595.1 123.7 291.1C123.7 188.2 140.8 91.1001 167.4 0.200195H160.7C134.3 91.1001 117.3 188.1 117.3 291.1C117.3 427.9 139.9 552.2 186.6 670.9C227.61 775.318 281.799 863.09 334.175 947.925L334.9 949.1C426.9 1097.9 513.7 1238.4 516.1 1446.1C517.3 1555.6 481.7 1697.7 407.2 1880.4C379.6 1947.8 347 2020.4 308 2100.7H315.2Z" fill="url(#paint3_linear_3_27781)"/>
<path d="M430.8 1446.6C431.7 1554.7 398.4 1693.3 328.7 1870.3C299.2 1945.4 265 2022.8 228.8 2100.8H221.7C334.5 1858.7 425.9 1625.7 424.3 1446.7C422.5 1266.07 357.55 1146.79 282.386 1008.76L282.3 1008.6C190.2 839.6 85.8999 647.9 85.8999 295.7C85.8999 191.2 100.7 92.7002 123.7 0.200195H130.4C107.2 92.7002 92.3999 191.3 92.3999 295.7C92.3999 646.3 196.3 837.2 288 1005.6C325.1 1073.7 360.1 1138.1 386.4 1208.6C415.9 1287.6 430 1363.3 430.8 1446.6Z" fill="url(#paint4_linear_3_27781)"/>
<path d="M315 1848.1C378.3 1682 408.7 1550.7 407.8 1446.8C407.1 1366.5 393.9 1293.4 366.4 1216.9C341.997 1148.97 309.262 1086.7 274.616 1020.79L274.613 1020.78L274.2 1020C185.3 851 84.5 659.3 84.5 296.7C84.5 192 98.7998 93 121.1 0.100098H114.4C92.2002 93 78 191.9 78 296.7C78 661 179.2 853.4 268.5 1023.1L268.551 1023.2C338.929 1157.06 399.701 1272.64 401.4 1446.8C402.9 1627.6 310.6 1861 200.3 2100.7H207.3C246.6 2015.3 283.7 1930.3 315 1848.1Z" fill="url(#paint5_linear_3_27781)"/>
<path d="M385 1446.8C386.3 1630.3 293.4 1863.7 185.8 2100.7H178.7C286.5 1863.4 379.9 1629.7 378.6 1446.8C377.1 1278.9 320.3 1166.9 254.5 1037.3C168.1 867.1 70.2998 674.1 70.3999 297.7C70.3999 192.6 84 93.3003 105.3 0.100098H111.9C90.6001 93.3003 76.7998 192.6 76.7998 297.7C76.7002 672.522 174.159 864.72 260.146 1034.29L260.441 1034.87L260.445 1034.88C292.954 1099 323.657 1159.56 346.4 1225.2C372 1298.9 384.3 1369.3 385 1446.8Z" fill="url(#paint6_linear_3_27781)"/>
<path d="M164.2 2100.7C269.5 1865.8 363.4 1632.2 362.1 1446.8C360.7 1283.7 307.5 1174.7 245.9 1048.5C162.9 878.5 68.8999 685.9 68.8999 298.8C68.8999 193.4 82.1001 93.7002 102.5 0.100098H95.8999C75.6001 93.7002 62.5 193.3 62.5 298.8C62.5 472 81.3999 622.1 120.5 757.7C154.646 876.114 199.958 969.009 239.911 1050.92L239.92 1050.93L239.927 1050.95L240.1 1051.3C301.4 1176.8 354.2 1285.2 355.7 1446.8C357.1 1631.6 262.7 1865.5 157.2 2100.7H164.2Z" fill="url(#paint7_linear_3_27781)"/>
<path d="M339.2 1447C340.4 1634.5 245.6 1868.1 142.7 2100.8H135.7C238.7 1868 334 1634 332.8 1447.1C331.5 1291.5 282.4 1186.8 225.5 1065.5C187.1 983.7 143.6 890.9 110.7 770.5C73 632.7 54.7002 478.8 54.7002 300.1C54.7002 203 65.2002 104.2 86.7002 0.200195H93.2002C73.7002 94.2002 61.2002 194.3 61.2002 300.1C61.2002 699.793 151.597 892.593 231.396 1062.79L231.4 1062.8L231.576 1063.18C288.502 1184.82 337.802 1290.16 339.2 1447Z" fill="url(#paint8_linear_3_27781)"/>
<path d="M121 2100.8C221.6 1870.3 317.3 1636.7 316.2 1447.2C314.904 1296.66 269.478 1195.12 216.981 1077.78L216.5 1076.7L216.493 1076.68C143.794 914.887 53.2998 713.486 53.2998 301.2C53.2998 195.1 65.1997 94.6001 83.7998 0.200195H77.2998C56.7998 104.6 46.7998 203.8 46.7998 301.2C46.7998 485.5 64.3999 643.1 100.7 783.2C132.3 905.3 173.8 997.8 210.5 1079.4L210.601 1079.63C263.158 1196.63 308.601 1297.8 309.8 1447.3C310.9 1636.2 214.7 1870.1 114 2100.8H121Z" fill="url(#paint9_linear_3_27781)"/>
<path d="M293.3 1447.4C294.3 1638.9 197.8 1872.3 99.6001 2100.8H92.6001C190.9 1872.2 287.9 1638.4 286.9 1447.5C285.8 1303.82 243.914 1206.23 195.423 1093.25L195.4 1093.2L195.109 1092.52C160.28 1011.39 120.816 919.457 90.6001 795.9C55.7998 653.6 38.8999 492.2 38.8999 302.4C38.8999 204.7 48.3999 105.1 67.8999 0.200195H74.2998C56.6997 95 45.2998 195.8 45.2998 302.4C45.2998 727.5 131.8 928.9 201.3 1090.6C250.1 1204.2 292.2 1302.4 293.3 1447.4Z" fill="url(#paint10_linear_3_27781)"/>
<path d="M78.2002 2100.7C174.1 1874.2 271.4 1641.1 270.5 1447.5C269.5 1308.3 230.8 1213.7 186 1104.3L185.906 1104.07C119.822 942.51 37.6001 741.493 37.6001 303.5C37.6001 196.6 48.3003 95.4004 65 0.200195H58.6001C40.2002 105.5 31.2002 205.5 31.2002 303.5C31.2002 742.647 113.705 944.367 179.986 1106.42L180.1 1106.7L180.106 1106.71L180.107 1106.72C224.704 1215.61 263.2 1309.61 264.1 1447.6C265 1640.6 167.2 1874.1 71.2002 2100.7H78.2002Z" fill="url(#paint11_linear_3_27781)"/>
<path d="M247.5 1447.7C248.299 1641.19 152.51 1870.96 59.8486 2093.22L59.4004 2094.3C58.9985 2095.24 58.5967 2096.2 58.1948 2097.16L58.019 2097.57L58.0088 2097.6C57.5723 2098.64 57.1362 2099.68 56.7002 2100.7H49.7002C50.1416 2099.63 50.5967 2098.55 51.0557 2097.46L51.8511 2095.57C52.0981 2094.98 52.3447 2094.39 52.5889 2093.8C52.8628 2093.13 53.1338 2092.47 53.4004 2091.8L53.5059 2091.55C146.072 1869.63 241.8 1640.13 241.1 1447.7C240.2 1315.4 205.1 1224.9 164.3 1120C101.4 958.4 23.2002 757.1 23.2002 304.6C23.2002 206.3 31.7002 106 49 0.100098H55.4004C39.7002 95.7002 29.6001 197.3 29.6001 304.6C29.6001 755.744 107.512 956.373 170.093 1117.53L170.2 1117.8L170.203 1117.81C211.202 1223.21 246.6 1314.2 247.5 1447.7Z" fill="url(#paint12_linear_3_27781)"/>
<path d="M45.5 2075.6C133.9 1860.6 225.3 1638.2 224.5 1447.7C223.7 1319.9 191.5 1232.4 154.2 1131.1C95.1001 970.4 21.6001 770.5 21.6001 305.8C21.6001 198.2 31.1001 96.2002 45.8003 0.200195H39.4004C23.2002 106.5 15.2002 207.2 15.2002 305.8C15.2002 771.6 88.9004 972.1 148.2 1133.3C186.8 1238.2 217.3 1321.1 218 1447.8C218.799 1636.66 127.836 1858.13 39.8428 2072.37L39.5 2073.2C35.7002 2082.4 31.9004 2091.6 28.2002 2100.7H35.2002C38.6001 2092.4 42 2084 45.5 2075.6Z" fill="url(#paint13_linear_3_27781)"/>
<path d="M201.6 1447.9C202.2 1635.4 114.8 1851.1 30.2002 2059.7C24.6001 2073.5 19.1001 2087.1 13.6001 2100.7H6.6001C8.54443 2095.91 10.4888 2091.09 12.4404 2086.26C16.311 2076.67 20.2114 2067.01 24.2002 2057.3L24.2764 2057.11C108.553 1849.17 195.7 1634.14 195.1 1448C194.4 1326.78 166.935 1247.3 132.167 1146.69L132.1 1146.5L131.834 1145.73C104.499 1066.72 73.5215 977.179 49.3003 847.3C21.1001 696.6 7.3999 519.8 7.3999 306.9C7.3999 208 14.8003 106.9 30 0.200195H36.3999C22.7002 96.5 13.8999 198.9 13.8999 306.9C13.8999 785.3 82.8003 984.4 138.2 1144.4C173.3 1245.6 201 1325.6 201.6 1447.9Z" fill="url(#paint14_linear_3_27781)"/>
<path d="M14.5044 2044.39C95.4033 1841.99 179.1 1632.6 178.6 1448.1C178.101 1331.42 153.295 1254.79 121.98 1158.05L121.8 1157.5C70.2002 998.2 6 800 6 308C6 199.6 14.1001 96.8003 27 0.200195H20.6001C6.5 107.4 -0.399902 208.9 -0.399902 308.1C-0.399902 526.9 12.4004 707.5 38.7002 860.3C61.459 991.86 90.1958 1080.68 115.561 1159.07L115.564 1159.08L115.565 1159.08L115.7 1159.5C147 1256 171.7 1332.3 172.2 1448.2C172.7 1631.5 89.3003 1840.2 8.6001 2042.1C2.67969 2056.86 -3.18506 2071.57 -8.99316 2086.14L-14.7998 2100.7H-7.8999C-1.43066 2084.22 5.19531 2067.66 11.9087 2050.88L14.5 2044.4L14.5044 2044.39Z" fill="url(#paint15_linear_3_27781)"/>
<path d="M155.8 1448.3C156 1529.9 139.6 1623.8 105.8 1735.4C75.8999 1834 36.3999 1934.2 -1.8999 2031.1C-11.2002 2054.6 -20.3003 2077.8 -29.2002 2100.7H-36.1001C-27.9937 2079.91 -19.6543 2058.8 -11.2188 2037.45L-11.1763 2037.34L-7.80029 2028.8C69.6997 1832.4 149.8 1629.4 149.4 1448.3C149 1337.6 127 1264.5 99.1001 1172C75.6997 1094.3 49.1997 1006.3 28.1001 873C3.6001 718.3 -8.2002 533.8 -8.2002 309.1C-8.2002 209.6 -1.8999 107.7 11.1001 0.100098H17.5C5.7998 97.2002 -1.7002 200.4 -1.7002 309.1C-1.7002 814.327 60.0591 1019.73 105.146 1169.69L105.3 1170.2L105.676 1171.46C133.399 1263.86 155.402 1337.2 155.8 1448.3Z" fill="url(#paint16_linear_3_27781)"/>
<path d="M84.7002 1730.3C117.3 1621.2 133 1529 132.9 1448.5C132.601 1342.29 113.17 1272.15 88.6318 1183.58L88.5 1183.1C47.1001 1034.2 -9.5 830.3 -9.5 310.3C-9.5 202.1 -2.6001 98.1001 8.2002 0.100098H1.6001C-10.2002 108.2 -16 210.4 -16 310.3C-16 831.1 40.7002 1035.5 82.2002 1184.7C106.8 1273.1 126.2 1342.9 126.5 1448.5C126.799 1626.93 49.9365 1824.29 -24.457 2015.32L-24.7998 2016.2C-27.1636 2022.29 -29.5229 2028.36 -31.875 2034.42C-40.5669 2056.79 -49.1572 2078.9 -57.5 2100.7H-50.5996C-42.1953 2078.67 -33.5239 2056.37 -24.7495 2033.81C-22.771 2028.72 -20.7871 2023.62 -18.7998 2018.5L-18.1157 2016.74C18.3716 1922.99 56.0786 1826.1 84.7002 1730.3Z" fill="url(#paint17_linear_3_27781)"/>
<path d="M109.9 1448.5C110 1528.1 94.7002 1618.8 63.3003 1725.7C35.6484 1819.6 -0.710449 1914.09 -35.9341 2005.63L-36.4995 2007.1C-39.0083 2013.64 -41.5127 2020.15 -44.0078 2026.64C-53.6465 2051.71 -63.1436 2076.41 -72.1992 2100.8H-79.0996C-69.9639 2076.28 -60.4014 2051.4 -50.6973 2026.15L-50.6299 2025.97L-50.4541 2025.51C-48.3945 2020.15 -46.3281 2014.78 -44.2578 2009.38L-42.5 2004.8C29.4004 1818.2 103.7 1625.2 103.5 1448.6C103.3 1348.15 86.418 1281.57 65.0342 1197.23L65.0005 1197.1L64.9463 1196.89C27.4507 1048.9 -23.8994 846.242 -23.8994 311.5C-23.8994 203 -17.5996 98.5 -7.89941 0.200195H-1.39941C-11.0996 98.6001 -17.3994 203 -17.3994 311.5C-17.3994 845.444 33.8701 1047.78 71.2681 1195.37L71.3003 1195.5L71.4819 1196.22L71.4834 1196.22C92.7969 1280.58 109.701 1347.49 109.9 1448.5Z" fill="url(#paint18_linear_3_27781)"/>
<path d="M41.8003 1721.6C72.2002 1616.7 87.0005 1527.5 86.9004 1448.7C86.8003 1352.63 72.271 1288.91 53.9346 1208.49L53.8003 1207.9L53.7607 1207.73C20.3643 1061.44 -25.3994 860.985 -25.3994 312.6C-25.3994 203.7 -19.7998 98.9004 -11.0996 0.200195H-17.5996C-26.2998 98.9004 -31.8994 203.7 -31.8994 312.6C-31.8994 861.9 13.9004 1062.7 47.4004 1209.3L47.519 1209.82C65.7627 1289.97 80.2007 1353.41 80.4004 1448.8C80.6006 1623.4 8.88721 1811.77 -60.4736 1993.97L-60.5996 1994.3C-74.3994 2030.5 -87.8994 2066.1 -100.6 2100.8H-93.6992C-81.1992 2066.8 -68 2032 -54.5 1996.6L-53.0664 1992.83L-53.0605 1992.82L-53.0547 1992.8C-19.4009 1904.28 15.3789 1812.79 41.8003 1721.6Z" fill="url(#paint19_linear_3_27781)"/>
<path d="M63.8999 1448.9C63.8999 1526.9 49.6001 1614.8 20.1001 1717.8C-5.79736 1808.24 -39.8301 1898.58 -72.71 1985.86L-73.0996 1986.9C-87.7002 2025.6 -102 2063.6 -115.2 2100.7H-122C-108.554 2063.05 -94.0156 2024.51 -79.1787 1985.17L-79.0557 1984.84L-79 1984.7C-11.7998 1806.4 57.6001 1622 57.5 1448.9C57.3999 1358.22 45.2334 1297.86 29.8613 1221.61L29.7998 1221.3C15.6001 1151.3 -2 1064.2 -15.7998 925.5C-31.8999 763.3 -39.7998 563.1 -39.7998 313.7C-39.7998 204.3 -34.8999 99.2002 -27.2998 0.100098H-20.7998C-28.3999 99.2002 -33.2998 204.4 -33.2998 313.7C-33.2998 876.9 6.7998 1075.2 36.1001 1220L36.2231 1220.61C51.6655 1297.12 63.8999 1357.74 63.8999 1448.9Z" fill="url(#paint20_linear_3_27781)"/>
<path d="M-1.1001 1714.3C27.5 1613.1 41.3999 1526.3 41.3999 1449.1C41.3999 1362.4 31.2998 1304.8 18.5 1231.9C-5.2002 1096.8 -41 892.7 -41 314.8C-41 205 -36.7998 99.5 -30.2002 0.200195H-36.7002C-43.2002 99.6001 -47.4004 205.1 -47.4004 314.9C-47.4004 570.7 -40.7002 774.7 -26.7998 938.7C-15 1078.6 0 1164.3 12.1001 1233.1C24.8999 1305.7 34.8999 1363 34.8999 1449.1C34.8999 1620.6 -32.2998 1801 -97.4004 1975.6L-98.9932 1979.88C-114.341 2021.09 -129.372 2061.46 -143 2100.7H-136.1C-122.2 2060.9 -106.9 2019.8 -91.2998 1977.9L-90.3096 1975.24C-58.7168 1890.37 -26.0391 1802.58 -1.1001 1714.3Z" fill="url(#paint21_linear_3_27781)"/>
</g>
<defs>
<linearGradient id="paint0_linear_3_27781" x1="189.765" y1="0" x2="189.765" y2="2100.8" gradientUnits="userSpaceOnUse">
<stop stop-color="#FFDCC9" stop-opacity="0"/>
<stop offset="0.734375" stop-color="#FFDCC9"/>
</linearGradient>
<linearGradient id="paint1_linear_3_27781" x1="189.765" y1="0" x2="189.765" y2="2100.8" gradientUnits="userSpaceOnUse">
<stop stop-color="#FFDCC9" stop-opacity="0"/>
<stop offset="0.734375" stop-color="#FFDCC9"/>
</linearGradient>
<linearGradient id="paint2_linear_3_27781" x1="189.765" y1="0" x2="189.765" y2="2100.8" gradientUnits="userSpaceOnUse">
<stop stop-color="#FFDCC9" stop-opacity="0"/>
<stop offset="0.734375" stop-color="#FFDCC9"/>
</linearGradient>
<linearGradient id="paint3_linear_3_27781" x1="189.765" y1="0" x2="189.765" y2="2100.8" gradientUnits="userSpaceOnUse">
<stop stop-color="#FFDCC9" stop-opacity="0"/>
<stop offset="0.734375" stop-color="#FFDCC9"/>
</linearGradient>
<linearGradient id="paint4_linear_3_27781" x1="189.765" y1="0" x2="189.765" y2="2100.8" gradientUnits="userSpaceOnUse">
<stop stop-color="#FFDCC9" stop-opacity="0"/>
<stop offset="0.734375" stop-color="#FFDCC9"/>
</linearGradient>
<linearGradient id="paint5_linear_3_27781" x1="189.765" y1="0" x2="189.765" y2="2100.8" gradientUnits="userSpaceOnUse">
<stop stop-color="#FFDCC9" stop-opacity="0"/>
<stop offset="0.734375" stop-color="#FFDCC9"/>
</linearGradient>
<linearGradient id="paint6_linear_3_27781" x1="189.765" y1="0" x2="189.765" y2="2100.8" gradientUnits="userSpaceOnUse">
<stop stop-color="#FFDCC9" stop-opacity="0"/>
<stop offset="0.734375" stop-color="#FFDCC9"/>
</linearGradient>
<linearGradient id="paint7_linear_3_27781" x1="189.765" y1="0" x2="189.765" y2="2100.8" gradientUnits="userSpaceOnUse">
<stop stop-color="#FFDCC9" stop-opacity="0"/>
<stop offset="0.734375" stop-color="#FFDCC9"/>
</linearGradient>
<linearGradient id="paint8_linear_3_27781" x1="189.765" y1="0" x2="189.765" y2="2100.8" gradientUnits="userSpaceOnUse">
<stop stop-color="#FFDCC9" stop-opacity="0"/>
<stop offset="0.734375" stop-color="#FFDCC9"/>
</linearGradient>
<linearGradient id="paint9_linear_3_27781" x1="189.765" y1="0" x2="189.765" y2="2100.8" gradientUnits="userSpaceOnUse">
<stop stop-color="#FFDCC9" stop-opacity="0"/>
<stop offset="0.734375" stop-color="#FFDCC9"/>
</linearGradient>
<linearGradient id="paint10_linear_3_27781" x1="189.765" y1="0" x2="189.765" y2="2100.8" gradientUnits="userSpaceOnUse">
<stop stop-color="#FFDCC9" stop-opacity="0"/>
<stop offset="0.734375" stop-color="#FFDCC9"/>
</linearGradient>
<linearGradient id="paint11_linear_3_27781" x1="189.765" y1="0" x2="189.765" y2="2100.8" gradientUnits="userSpaceOnUse">
<stop stop-color="#FFDCC9" stop-opacity="0"/>
<stop offset="0.734375" stop-color="#FFDCC9"/>
</linearGradient>
<linearGradient id="paint12_linear_3_27781" x1="189.765" y1="0" x2="189.765" y2="2100.8" gradientUnits="userSpaceOnUse">
<stop stop-color="#FFDCC9" stop-opacity="0"/>
<stop offset="0.734375" stop-color="#FFDCC9"/>
</linearGradient>
<linearGradient id="paint13_linear_3_27781" x1="189.765" y1="0" x2="189.765" y2="2100.8" gradientUnits="userSpaceOnUse">
<stop stop-color="#FFDCC9" stop-opacity="0"/>
<stop offset="0.734375" stop-color="#FFDCC9"/>
</linearGradient>
<linearGradient id="paint14_linear_3_27781" x1="189.765" y1="0" x2="189.765" y2="2100.8" gradientUnits="userSpaceOnUse">
<stop stop-color="#FFDCC9" stop-opacity="0"/>
<stop offset="0.734375" stop-color="#FFDCC9"/>
</linearGradient>
<linearGradient id="paint15_linear_3_27781" x1="189.765" y1="0" x2="189.765" y2="2100.8" gradientUnits="userSpaceOnUse">
<stop stop-color="#FFDCC9" stop-opacity="0"/>
<stop offset="0.734375" stop-color="#FFDCC9"/>
</linearGradient>
<linearGradient id="paint16_linear_3_27781" x1="189.765" y1="0" x2="189.765" y2="2100.8" gradientUnits="userSpaceOnUse">
<stop stop-color="#FFDCC9" stop-opacity="0"/>
<stop offset="0.734375" stop-color="#FFDCC9"/>
</linearGradient>
<linearGradient id="paint17_linear_3_27781" x1="189.765" y1="0" x2="189.765" y2="2100.8" gradientUnits="userSpaceOnUse">
<stop stop-color="#FFDCC9" stop-opacity="0"/>
<stop offset="0.734375" stop-color="#FFDCC9"/>
</linearGradient>
<linearGradient id="paint18_linear_3_27781" x1="189.765" y1="0" x2="189.765" y2="2100.8" gradientUnits="userSpaceOnUse">
<stop stop-color="#FFDCC9" stop-opacity="0"/>
<stop offset="0.734375" stop-color="#FFDCC9"/>
</linearGradient>
<linearGradient id="paint19_linear_3_27781" x1="189.765" y1="0" x2="189.765" y2="2100.8" gradientUnits="userSpaceOnUse">
<stop stop-color="#FFDCC9" stop-opacity="0"/>
<stop offset="0.734375" stop-color="#FFDCC9"/>
</linearGradient>
<linearGradient id="paint20_linear_3_27781" x1="189.765" y1="0" x2="189.765" y2="2100.8" gradientUnits="userSpaceOnUse">
<stop stop-color="#FFDCC9" stop-opacity="0"/>
<stop offset="0.734375" stop-color="#FFDCC9"/>
</linearGradient>
<linearGradient id="paint21_linear_3_27781" x1="189.765" y1="0" x2="189.765" y2="2100.8" gradientUnits="userSpaceOnUse">
<stop stop-color="#FFDCC9" stop-opacity="0"/>
<stop offset="0.734375" stop-color="#FFDCC9"/>
</linearGradient>
<clipPath id="clip0_3_27781">
<rect width="523" height="1813" fill="white"/>
</clipPath>
</defs>
</svg>
