<svg width="658" height="1813" viewBox="0 0 658 1813" fill="none" xmlns="http://www.w3.org/2000/svg">
<g clip-path="url(#clip0_3_27758)">
<g opacity="0.4">
<path d="M514.937 786.2C593.537 988.3 691.237 1239.9 691.237 1805.6C691.237 1813.2 691.237 1820.8 691.137 1828.4H683.037C683.137 1820.8 683.137 1813.21 683.137 1805.61V1805.6C683.137 1241.51 585.675 990.697 507.383 789.217L507.115 788.528C456.009 656.97 411.836 543.259 410.737 376.6C409.738 134.486 529.653 -152.958 645.669 -431.058L645.937 -431.7C677.837 -508.1 708.537 -581.7 736.237 -653H744.837C716.837 -580.7 685.737 -506.2 653.337 -428.6C537.537 -151.1 417.837 135.9 418.737 376.5C420.037 541.958 464.015 655.142 514.898 786.099L514.937 786.2Z" fill="url(#paint0_linear_3_27758)"/>
<path d="M573.537 1828.4V1822.5C573.537 1730.8 565.737 1645.8 549.637 1562.7C535.337 1489 514.837 1418.7 486.937 1347.8C435.337 1216.6 367.337 1106.5 301.537 1000C186.637 814 78.1369 638.3 75.1369 378.7C73.6369 241.8 118.137 64.1996 211.337 -164.2C268.537 -304.4 343.437 -462.4 443.237 -652.9H434.137C335.137 -463.8 260.737 -306.8 203.837 -167.2C159.637 -58.8004 125.837 40.1996 103.237 127.1C78.4369 222.5 66.2369 307.2 67.0369 378.8C70.0369 640.7 179.137 817.2 294.737 1004.2L294.892 1004.45C427.944 1219.87 565.537 1442.65 565.537 1822.5V1828.4H573.537Z" fill="url(#paint1_linear_3_27758)"/>
<path d="M583.237 1828.4V1821.1C583.237 1643.7 555.437 1483.8 498.137 1332.3C447.637 1198.5 381.337 1087.9 317.237 981C208.837 800.2 106.437 629.4 103.637 378.5C100.937 115.6 268.637 -264.5 468.837 -652.9H459.737C259.937 -264.8 92.9368 114.9 95.5368 378.5C98.3357 631.505 201.26 803.171 310.215 984.896L310.376 985.166C440.564 1202.35 575.137 1426.84 575.137 1821.1V1828.4H583.237Z" fill="url(#paint2_linear_3_27758)"/>
<path d="M593.237 1819.6V1828.4H585.137V1819.6C585.137 1410.98 447.957 1174.91 326.895 966.572L326.737 966.3C274.437 876.4 225.037 791.4 187.737 697.4C145.737 591.4 125.537 490.1 124.337 378.5C121.637 110.8 291.337 -269.6 485.237 -652.9H494.237C300.037 -269.3 129.737 111.5 132.437 378.5C135.037 620.799 231.536 786.699 333.736 962.398L333.737 962.4L333.778 962.47C396.165 1069.75 460.648 1180.63 510.037 1316.9C565.937 1471.5 593.237 1636 593.237 1819.6Z" fill="url(#paint3_linear_3_27758)"/>
<path d="M594.737 1828.4H602.837C602.937 1825 602.937 1821.6 602.937 1818.2C602.937 1628.1 576.337 1459.1 521.437 1301.4C473.265 1162.78 410.711 1051.63 350.244 944.191L350.244 944.19L349.695 943.214C253.858 772.805 163.333 611.84 160.937 378.2C159.637 240.4 203.937 61.6996 296.437 -167.9C358.237 -321.5 434.137 -480.9 519.637 -652.9H510.637C425.737 -482.1 350.337 -323.7 288.837 -170.9C196.037 59.6996 151.637 239.4 152.937 378.3C154.037 486.1 172.937 584.1 212.237 686.5C247.114 777.279 293.509 859.718 342.617 946.976L343.137 947.9C461.137 1157.4 594.837 1394.9 594.837 1818.2C594.837 1819.9 594.812 1821.59 594.787 1823.29L594.787 1823.3C594.762 1825 594.737 1826.7 594.737 1828.4Z" fill="url(#paint4_linear_3_27758)"/>
<path d="M612.837 1816.8V1828.4H604.737C604.737 1827.89 604.739 1827.38 604.742 1826.88C604.75 1825.45 604.769 1824.02 604.787 1822.6L604.787 1822.59C604.812 1820.67 604.837 1818.74 604.837 1816.8C604.837 1378.5 474.937 1139.9 360.237 929.5C313.837 844.4 270.037 763.9 237.237 675.8C200.437 576.8 182.737 482.2 181.637 378.1C181.037 305.6 192.237 224.3 216.137 129.7C237.237 45.9996 267.637 -46.0004 309.237 -151.5C373.137 -313.8 454.137 -484.6 536.037 -652.9H544.937C361.737 -276.7 187.337 102 189.737 378C192.037 603.8 273.237 752.9 367.337 925.6L367.556 926.002C482.503 1137.2 612.837 1376.68 612.837 1816.8Z" fill="url(#paint5_linear_3_27758)"/>
<path d="M622.637 1828.5C622.737 1824.1 622.737 1819.8 622.737 1815.4C622.737 1360.1 496.237 1119.6 384.637 907.5L384.436 907.118C296.521 739.879 220.535 595.334 218.437 377.8C216.037 98.2996 393.237 -281.7 570.137 -652.9H561.237C477.037 -476.3 391.737 -295.1 326.537 -123.7C288.737 -24.6004 261.037 62.1996 241.837 141.4C220.137 230.9 209.937 308.2 210.537 377.9C211.537 478.3 227.937 569.5 262.337 665.1C292.887 749.884 333.736 827.637 377 909.988L377.822 911.551C488.876 1122.87 614.737 1362.35 614.737 1815.4C614.737 1817.61 614.711 1819.82 614.686 1822.02C614.661 1824.2 614.637 1826.36 614.637 1828.5H622.637Z" fill="url(#paint6_linear_3_27758)"/>
<path d="M632.237 1814.2C632.237 1818.9 632.237 1823.7 632.137 1828.4H624.037C624.137 1823.7 624.137 1818.9 624.137 1814.2C624.237 1345.6 502.437 1105.3 394.937 893.4L394.657 892.848C354.06 812.752 315.671 737.011 287.137 654.9C255.137 562.7 239.837 474.7 238.937 377.9C238.437 310.6 247.937 236.5 267.837 151.2C285.537 75.6996 311.037 -6.60034 345.837 -100.5C410.237 -274.2 495.937 -458.3 578.837 -636.3C580.521 -639.863 582.163 -643.427 583.818 -647.017L583.825 -647.031L583.832 -647.046C584.727 -648.988 585.626 -650.938 586.537 -652.9H595.437C592.337 -646.2 589.237 -639.5 586.137 -632.9C418.437 -272.8 245.037 99.5995 247.037 377.8C248.936 587.584 319.859 727.446 402.001 889.433L402.544 890.504C457.018 997.954 513.346 1109.06 557.337 1254.7C607.837 1421.3 632.337 1604.3 632.237 1814.2Z" fill="url(#paint7_linear_3_27758)"/>
<path d="M642.037 1828.4C642.137 1823.1 642.137 1817.9 642.137 1812.7C642.137 1596.2 618.437 1408.6 569.737 1239C527.037 1090.8 470.337 974.6 420.237 872C343.637 715.2 277.537 579.7 275.737 377.7C273.837 108 435.037 -245.5 590.937 -587.3C592.333 -590.36 593.731 -593.424 595.13 -596.491L595.715 -597.772C604.049 -616.038 612.443 -634.434 620.837 -652.9H611.937C603.997 -635.433 596.057 -618.035 588.176 -600.766L588.108 -600.617C586.582 -597.274 585.058 -593.934 583.537 -590.6L582.066 -587.375C505.423 -419.279 426.257 -245.648 366.837 -81.1004C299.237 106 266.737 256.2 267.637 377.8C269.437 581.7 335.937 717.9 412.937 875.6C516.637 1088 634.137 1328.8 634.137 1812.7C634.137 1818 634.137 1823.2 634.037 1828.4H642.037Z" fill="url(#paint8_linear_3_27758)"/>
<path d="M652.037 1811.3V1811.31C652.037 1817.01 652.037 1822.7 651.937 1828.4H643.837C643.937 1822.7 643.937 1817 643.937 1811.3C643.937 1311.99 530.967 1070.98 431.309 858.366L431.013 857.736C359.566 705.348 297.836 573.687 296.237 377.6C294.537 113.488 445.236 -223.774 590.99 -549.971L591.137 -550.3C606.337 -584.1 621.637 -618.6 636.837 -652.9H645.637C629.937 -617.5 614.037 -581.9 598.437 -547L598.284 -546.658C452.931 -221.264 302.637 115.192 304.337 377.5C305.937 571.982 367.326 702.876 438.417 854.458L438.437 854.5C486.437 956.8 540.837 1072.8 581.937 1223.2C629.137 1395.6 652.037 1587.9 652.037 1811.3Z" fill="url(#paint9_linear_3_27758)"/>
<path d="M661.937 1809.8C661.937 1579.6 639.937 1382.5 594.537 1207.4C555.163 1055.29 503.369 939.938 457.676 838.177L457.131 836.965C391.376 690.665 334.536 564.2 333.037 377.3C331.538 121.816 472.398 -199.456 608.69 -510.31L611.301 -516.256L611.312 -516.281C631.811 -562.956 651.746 -608.347 670.937 -652.9H662.137C643.342 -609.11 623.795 -564.568 603.68 -518.729L603.676 -518.721L603.67 -518.705L603.664 -518.693L601.737 -514.3C464.937 -202.4 323.537 120 325.037 377.4C326.534 565.815 383.564 692.817 449.538 839.734L449.837 840.4L449.84 840.408C540.74 1042.71 653.837 1294.41 653.837 1809.8C653.837 1816 653.837 1822.1 653.737 1828.3H661.837C661.937 1822.1 661.937 1816 661.937 1809.8Z" fill="url(#paint10_linear_3_27758)"/>
<path d="M607.037 1191.6C650.537 1369.5 671.637 1571.3 671.637 1808.5V1808.51C671.637 1815.11 671.637 1821.8 671.537 1828.4H663.437C663.537 1821.8 663.537 1815.11 663.537 1808.51V1808.5C663.537 1277.22 555.485 1025.51 468.695 823.334L468.57 823.044C407.598 681.01 354.936 558.333 353.537 377.2C352.237 125.6 485.537 -183.9 614.437 -483.1C639.637 -541.5 663.837 -597.8 686.837 -652.9H695.537C673.854 -600.919 651.056 -547.821 627.539 -493.05L627.537 -493.044L627.251 -492.378C625.484 -488.262 623.712 -484.136 621.937 -480L621.917 -479.954C493.323 -181.468 360.337 127.213 361.637 377.1C362.934 556.281 415.192 678.13 475.613 819.012L476.037 820C519.737 921.6 569.137 1036.7 607.037 1191.6Z" fill="url(#paint11_linear_3_27758)"/>
<path d="M495.287 803.123L495.066 802.582C439.438 666.659 391.336 549.123 390.237 376.8C389.038 132.11 514.823 -164.732 636.472 -451.811L636.472 -451.812L637.7 -454.708L637.704 -454.716C666.624 -522.92 694.554 -588.788 720.337 -652.9H711.637C686.164 -589.81 658.741 -525.062 630.331 -457.983L629.237 -455.4C507.137 -167.5 381.037 130.3 382.137 376.8C383.235 550.531 431.587 668.734 487.478 805.366L487.737 806L487.755 806.044C570.452 1008.04 673.337 1259.34 673.337 1807C673.337 1814.2 673.337 1821.3 673.237 1828.4H681.237C681.337 1821.3 681.337 1814.1 681.337 1807C681.337 1257.81 578.179 1005.7 495.287 803.123Z" fill="url(#paint12_linear_3_27758)"/>
<path d="M701.237 1804.2C701.237 1545.5 683.037 1329.4 645.637 1143.5C613.137 982.6 571.637 869.5 534.937 769.7L534.91 769.627C486.723 638.561 448.637 534.97 447.737 376.6C446.737 140.1 560.637 -137.1 670.837 -405.2C672.175 -408.465 673.511 -411.725 674.845 -414.98L675.127 -415.668L675.128 -415.672C708.789 -497.803 741.138 -576.732 769.437 -652.9H760.837C731.875 -574.872 698.555 -493.773 663.932 -409.504L663.928 -409.495L663.437 -408.3C552.937 -139.5 438.737 138.5 439.637 376.6C440.537 536.4 480.737 645.8 527.337 772.5C601.237 973.4 693.137 1223.4 693.137 1804.2C693.137 1812.3 693.137 1820.3 693.037 1828.4H701.137C701.237 1820.3 701.237 1812.3 701.237 1804.2Z" fill="url(#paint13_linear_3_27758)"/>
<path d="M658.937 1127.2C694.137 1315.6 711.237 1536.6 711.237 1802.8C711.237 1811.3 711.237 1819.9 711.137 1828.5H702.337C702.437 1820 702.437 1811.4 702.437 1802.8C702.437 1205.13 616.304 956.194 547.118 756.234L546.012 753.031C525.29 693.032 505.705 636.324 491.637 577.1C475.737 510.4 468.137 446.6 467.837 376.5C467.437 271.5 489.637 149.2 535.537 2.60022C576.137 -127 629.937 -259.9 682.037 -388.4C719.337 -480.3 755.037 -568.5 785.037 -652.8H794.337C764.309 -568.266 728.487 -479.804 691.153 -387.608L690.029 -384.834C584.662 -124.917 475.737 143.78 476.537 376.4C477.337 527.9 511.737 627.3 555.337 753.2C589.637 852.1 628.437 964.2 658.937 1127.2Z" fill="url(#paint14_linear_3_27758)"/>
<path d="M719.037 1918.6C719.081 1917.51 719.125 1916.42 719.167 1915.33L719.037 1918.4C720.234 1888.76 720.934 1858.83 721.235 1828.5H711.937C712.037 1819.5 712.037 1810.51 712.037 1801.42V1801.4C712.037 1186.93 631.85 939.147 567.472 740.218L567.28 739.623C528.007 618.307 496.937 522.329 496.237 376.2C495.937 272.8 517.237 153.1 561.137 10.1996C599.96 -115.752 651.334 -244.393 701.043 -368.864L701.337 -369.6C740.937 -468.4 778.737 -563.1 809.137 -652.9H819.237C788.637 -562 750.337 -466.1 710.337 -366C609.337 -113.7 505.137 147.1 505.737 376.1C506.437 520.8 537.237 616.1 576.337 736.8C608.137 834.9 644.137 946.1 672.537 1110.9C699.837 1268.7 715.437 1450.2 720.037 1662.8V1662.7C709.743 1129.73 639.823 897.284 587.733 724.118L587.528 723.438C552.58 607.309 524.936 515.455 524.437 375.8C524.237 273.7 544.637 156.2 587.037 16.4996C624.437 -106.8 673.837 -232.1 721.637 -353.2C763.037 -458.1 802.637 -558.6 832.837 -652.9H843.637C813.237 -557.3 773.137 -455.6 731.137 -349.3L730.73 -348.27C634.057 -103.19 534.138 150.116 534.637 375.9C535.137 514.1 562.637 605.4 597.437 720.9C626.737 818 659.837 928.1 686.137 1094.8C704.637 1211.8 717.437 1342.4 724.637 1489.4L724.667 1490.02L724.637 1489.3C706.355 1061.13 650.947 861.396 608.463 708.256L608.337 707.8L608.331 707.778C577.434 596.589 553.037 508.791 552.637 375.6C552.437 274.8 572.237 159.4 612.937 22.8996C648.797 -97.133 696.068 -218.555 741.803 -336.028L742.337 -337.4C785.637 -448.4 826.937 -554.4 856.437 -652.9H867.937C838.237 -553.1 796.437 -445.8 752.637 -333.4L752.622 -333.364C659.527 -94.4751 563.237 152.611 563.637 375.6C564.037 507.4 588.237 594.5 618.937 704.9C659.037 849.2 710.537 1034.8 731.837 1412.8V1412.9C732.063 1416.94 732.286 1421 732.506 1425.09C732.319 1421.04 732.13 1417.01 731.937 1413V1412.9C713.037 1021.6 666.037 836.3 629.537 692.4L629.402 691.865C602.566 586.018 581.337 502.287 581.137 375.6C581.037 275.9 600.137 162.4 639.537 28.6C674.237 -89.4 720.037 -208.3 764.337 -323.3L765.271 -325.729L765.272 -325.731C809.732 -441.345 852.135 -551.61 880.337 -653H892.537C864.038 -550.125 821.044 -438.474 775.99 -321.474L775.037 -319C685.237 -85.9 592.437 155.2 592.737 375.7C593.037 501.085 614.132 584.28 640.828 689.563L640.837 689.6C679.905 843.504 730.945 1044.71 747.001 1492.85C733.028 1030.11 687.276 829.884 652.337 677C629.237 575.9 611.037 496.1 610.837 375.4C610.737 276.8 629.237 165 667.337 33.6996C700.667 -81.3127 744.588 -196.721 787.086 -308.389L787.737 -310.1C834.137 -431.7 878.237 -547.7 905.037 -652.9H917.937C891.037 -546.2 846.337 -428.8 799.437 -305.7L799.224 -305.142C712.59 -77.6156 623.037 157.578 623.237 375.4C623.437 494.623 641.513 573.797 664.392 674.005L664.455 674.279C696.552 814.867 737.74 995.272 755.237 1381.5C740.239 981.651 703.847 801.746 675.548 661.854L675.392 661.081C656.06 565.32 640.737 489.414 640.637 375.2C640.537 277.5 658.537 167.3 695.437 38.2996C727.937 -75.3004 770.637 -188.7 811.937 -298.3C859.637 -424.7 905.037 -545.2 929.737 -652.9H943.237C918.626 -543.992 872.866 -422.474 824.855 -294.976L824.337 -293.6C740.437 -70.9004 653.737 159.3 653.837 375.2C653.937 488.4 669.137 563.8 688.437 659.2L688.587 659.941C706.262 747.315 728.286 856.189 745.437 1029.2C748.024 1055.17 750.413 1081.83 752.702 1109.38C737.004 874.111 714.424 745.427 697.037 646.5C681.037 555.4 668.437 483.4 668.437 375.1C668.437 278.6 685.837 170.1 721.637 43.5996C753.137 -67.9004 794.437 -178.7 834.437 -285.9L834.595 -286.324C883.537 -417.769 930.061 -542.719 952.337 -652.9H960.537C938.237 -541.6 891.337 -415.6 841.937 -283.2L841.806 -282.849C760.547 -64.7585 676.537 160.715 676.537 375C676.537 482.425 689.096 554.067 704.96 644.558L705.037 645C720.137 731 738.937 838.1 753.737 1013C771.137 1218 779.537 1473 779.537 1792.8C779.537 1804.7 779.537 1816.6 779.437 1828.5H771.337C771.337 1828.47 771.338 1828.43 771.338 1828.4L740.237 1828.4L740.239 1828.2H731.537V1828.3H721.439L721.437 1828.5C721.137 1858.3 720.337 1888.3 719.037 1918.6Z" fill="url(#paint15_linear_3_27758)"/>
</g>
</g>
<defs>
<linearGradient id="paint0_linear_3_27758" x1="697" y1="396.5" x2="-77.5" y2="498.5" gradientUnits="userSpaceOnUse">
<stop stop-color="#F5727D"/>
<stop offset="1" stop-color="#F5727D" stop-opacity="0"/>
</linearGradient>
<linearGradient id="paint1_linear_3_27758" x1="697" y1="396.5" x2="-77.5" y2="498.5" gradientUnits="userSpaceOnUse">
<stop stop-color="#F5727D"/>
<stop offset="1" stop-color="#F5727D" stop-opacity="0"/>
</linearGradient>
<linearGradient id="paint2_linear_3_27758" x1="697" y1="396.5" x2="-77.5" y2="498.5" gradientUnits="userSpaceOnUse">
<stop stop-color="#F5727D"/>
<stop offset="1" stop-color="#F5727D" stop-opacity="0"/>
</linearGradient>
<linearGradient id="paint3_linear_3_27758" x1="697" y1="396.5" x2="-77.5" y2="498.5" gradientUnits="userSpaceOnUse">
<stop stop-color="#F5727D"/>
<stop offset="1" stop-color="#F5727D" stop-opacity="0"/>
</linearGradient>
<linearGradient id="paint4_linear_3_27758" x1="697" y1="396.5" x2="-77.5" y2="498.5" gradientUnits="userSpaceOnUse">
<stop stop-color="#F5727D"/>
<stop offset="1" stop-color="#F5727D" stop-opacity="0"/>
</linearGradient>
<linearGradient id="paint5_linear_3_27758" x1="697" y1="396.5" x2="-77.5" y2="498.5" gradientUnits="userSpaceOnUse">
<stop stop-color="#F5727D"/>
<stop offset="1" stop-color="#F5727D" stop-opacity="0"/>
</linearGradient>
<linearGradient id="paint6_linear_3_27758" x1="697" y1="396.5" x2="-77.5" y2="498.5" gradientUnits="userSpaceOnUse">
<stop stop-color="#F5727D"/>
<stop offset="1" stop-color="#F5727D" stop-opacity="0"/>
</linearGradient>
<linearGradient id="paint7_linear_3_27758" x1="697" y1="396.5" x2="-77.5" y2="498.5" gradientUnits="userSpaceOnUse">
<stop stop-color="#F5727D"/>
<stop offset="1" stop-color="#F5727D" stop-opacity="0"/>
</linearGradient>
<linearGradient id="paint8_linear_3_27758" x1="697" y1="396.5" x2="-77.5" y2="498.5" gradientUnits="userSpaceOnUse">
<stop stop-color="#F5727D"/>
<stop offset="1" stop-color="#F5727D" stop-opacity="0"/>
</linearGradient>
<linearGradient id="paint9_linear_3_27758" x1="697" y1="396.5" x2="-77.5" y2="498.5" gradientUnits="userSpaceOnUse">
<stop stop-color="#F5727D"/>
<stop offset="1" stop-color="#F5727D" stop-opacity="0"/>
</linearGradient>
<linearGradient id="paint10_linear_3_27758" x1="697" y1="396.5" x2="-77.5" y2="498.5" gradientUnits="userSpaceOnUse">
<stop stop-color="#F5727D"/>
<stop offset="1" stop-color="#F5727D" stop-opacity="0"/>
</linearGradient>
<linearGradient id="paint11_linear_3_27758" x1="697" y1="396.5" x2="-77.5" y2="498.5" gradientUnits="userSpaceOnUse">
<stop stop-color="#F5727D"/>
<stop offset="1" stop-color="#F5727D" stop-opacity="0"/>
</linearGradient>
<linearGradient id="paint12_linear_3_27758" x1="697" y1="396.5" x2="-77.5" y2="498.5" gradientUnits="userSpaceOnUse">
<stop stop-color="#F5727D"/>
<stop offset="1" stop-color="#F5727D" stop-opacity="0"/>
</linearGradient>
<linearGradient id="paint13_linear_3_27758" x1="697" y1="396.5" x2="-77.5" y2="498.5" gradientUnits="userSpaceOnUse">
<stop stop-color="#F5727D"/>
<stop offset="1" stop-color="#F5727D" stop-opacity="0"/>
</linearGradient>
<linearGradient id="paint14_linear_3_27758" x1="697" y1="396.5" x2="-77.5" y2="498.5" gradientUnits="userSpaceOnUse">
<stop stop-color="#F5727D"/>
<stop offset="1" stop-color="#F5727D" stop-opacity="0"/>
</linearGradient>
<linearGradient id="paint15_linear_3_27758" x1="697" y1="396.5" x2="-77.5" y2="498.5" gradientUnits="userSpaceOnUse">
<stop stop-color="#F5727D"/>
<stop offset="1" stop-color="#F5727D" stop-opacity="0"/>
</linearGradient>
<clipPath id="clip0_3_27758">
<rect width="658" height="1813" fill="white"/>
</clipPath>
</defs>
</svg>
