<svg width="565" height="565" viewBox="0 0 565 565" fill="none" xmlns="http://www.w3.org/2000/svg">
<g filter="url(#filter0_di_2537_28883)">
<path d="M511.894 80.3813C516.725 80.3813 520.732 84.6164 520.732 89.7498V432.019C520.732 437.28 516.843 441.515 511.894 441.515H70.5802C65.7488 441.515 61.7422 437.28 61.7422 432.019V89.7498C61.7422 84.6164 65.6309 80.3813 70.5802 80.3813H511.894Z" fill="white"/>
</g>
<path opacity="0.6" d="M188.722 101.351V441.516H72.5751C67.1452 441.516 62.9072 437.275 62.9072 432.006V101.351H188.722Z" fill="#EBEFF2"/>
<path d="M520.641 89.7761V113.07H62.0791V89.7761C62.0791 84.6283 65.9642 80.3813 70.9089 80.3813H511.811C516.756 80.3813 520.641 84.6283 520.641 89.7761Z" fill="black"/>
<path d="M77.1345 101.876C79.6933 101.876 81.7675 99.8017 81.7675 97.2429C81.7675 94.6841 79.6933 92.6099 77.1345 92.6099C74.5757 92.6099 72.5015 94.6841 72.5015 97.2429C72.5015 99.8017 74.5757 101.876 77.1345 101.876Z" fill="white"/>
<path d="M89.8762 101.876C92.435 101.876 94.5092 99.8017 94.5092 97.2429C94.5092 94.6841 92.435 92.6099 89.8762 92.6099C87.3174 92.6099 85.2432 94.6841 85.2432 97.2429C85.2432 99.8017 87.3174 101.876 89.8762 101.876Z" fill="white"/>
<path d="M102.488 101.876C105.047 101.876 107.121 99.8017 107.121 97.2429C107.121 94.6841 105.047 92.6099 102.488 92.6099C99.9293 92.6099 97.855 94.6841 97.855 97.2429C97.855 99.8017 99.9293 101.876 102.488 101.876Z" fill="white"/>
<path d="M418.015 414.645H472.642C481.686 414.645 489.103 407.67 489.103 399.163C489.103 390.657 481.686 383.682 472.642 383.682H418.015C408.971 383.682 401.555 390.657 401.555 399.163C401.374 407.67 408.79 414.645 418.015 414.645Z" fill="black"/>
<path opacity="0.6" d="M459.397 403.192H429.909C427.505 403.192 425.743 401.521 425.743 399.572C425.743 397.483 427.666 395.952 429.909 395.952H459.397C461.8 395.952 463.563 397.623 463.563 399.572C463.563 401.521 461.64 403.192 459.397 403.192Z" fill="white"/>
<rect x="72.2266" y="130.474" width="106.01" height="27.9588" rx="4.5917" fill="#E4E7EC"/>
<rect x="79.2163" y="136.299" width="15.6118" height="15.6118" rx="4.5917" fill="#D3D9E0"/>
<rect x="103.68" y="142.124" width="61.7423" height="4.65979" rx="2.3299" fill="#D3D9E0"/>
<rect x="72.2266" y="163.093" width="106.01" height="27.9588" rx="4.5917" fill="#E4E7EC"/>
<rect x="79.2163" y="168.917" width="15.6118" height="15.6118" rx="4.5917" fill="#D3D9E0"/>
<rect x="103.68" y="174.742" width="61.7423" height="4.65979" rx="2.3299" fill="#D3D9E0"/>
<rect x="72.2266" y="195.711" width="106.01" height="27.9588" rx="4.5917" fill="#E4E7EC"/>
<rect x="79.2163" y="201.536" width="15.6118" height="15.6118" rx="4.5917" fill="#D3D9E0"/>
<rect x="103.68" y="207.361" width="61.7423" height="4.65979" rx="2.3299" fill="#D3D9E0"/>
<rect x="72.2266" y="228.33" width="106.01" height="27.9588" rx="4.5917" fill="#E4E7EC"/>
<rect x="79.2163" y="234.155" width="15.6118" height="15.6118" rx="4.5917" fill="#D3D9E0"/>
<rect x="103.68" y="239.979" width="61.7423" height="4.65979" rx="2.3299" fill="#D3D9E0"/>
<rect x="72.2266" y="260.948" width="106.01" height="27.9588" rx="4.5917" fill="#E4E7EC"/>
<rect x="79.2163" y="266.773" width="15.6118" height="15.6118" rx="4.5917" fill="#D3D9E0"/>
<rect x="103.68" y="272.598" width="61.7423" height="4.65979" rx="2.3299" fill="#D3D9E0"/>
<path d="M250.484 177.242C248.967 177.712 247.559 177.928 246.295 177.928C244.597 177.928 243.225 177.495 242.25 176.628C244.742 175.581 246.764 173.92 248.245 171.645C249.762 169.369 250.52 166.805 250.52 163.952C250.52 160.088 249.184 156.802 246.511 154.13C243.839 151.457 240.517 150.121 236.58 150.121C232.608 150.121 229.285 151.457 226.613 154.13C223.94 156.802 222.604 160.052 222.604 163.916C222.604 167.419 223.724 170.453 225.999 173.017C228.274 175.581 231.163 177.098 234.666 177.567C237.302 181.648 241.022 183.67 245.861 183.67C247.667 183.67 249.509 183.345 251.423 182.695L250.484 177.242ZM231.488 158.752C232.897 157.344 234.594 156.658 236.58 156.658C238.566 156.658 240.264 157.344 241.636 158.752C243.008 160.161 243.695 161.894 243.695 163.952C243.695 166.011 243.008 167.744 241.636 169.153C240.264 170.525 238.566 171.211 236.58 171.211C234.594 171.211 232.897 170.525 231.488 169.153C230.116 167.744 229.43 166.011 229.43 163.952C229.43 161.894 230.116 160.161 231.488 158.752ZM253.545 168.575C253.545 174.461 257.157 177.784 263.115 177.784C269.074 177.784 272.722 174.461 272.722 168.575V157.344H266.329V168.647C266.329 170.633 265.102 171.97 263.115 171.97C261.201 171.97 259.937 170.633 259.937 168.647V157.344H253.545V168.575ZM291.244 159.149C289.619 157.597 287.669 156.838 285.358 156.838C282.541 156.838 280.194 157.813 278.352 159.799C276.51 161.75 275.607 164.241 275.607 167.239C275.607 170.236 276.51 172.728 278.352 174.75C280.194 176.773 282.505 177.784 285.358 177.784C287.669 177.784 289.619 177.026 291.244 175.545V177.278H297.239V157.344H291.244V159.149ZM291.172 167.275C291.172 168.575 290.739 169.695 289.836 170.597C288.933 171.5 287.85 171.97 286.55 171.97C285.249 171.97 284.166 171.5 283.263 170.597C282.397 169.695 281.963 168.575 281.963 167.275C281.963 166.011 282.397 164.928 283.263 164.025C284.13 163.122 285.213 162.652 286.55 162.652C287.85 162.652 288.933 163.122 289.836 164.025C290.739 164.928 291.172 166.011 291.172 167.275ZM307.623 149.724H301.267V177.278H307.623V149.724ZM314.958 155.574C317.017 155.574 318.606 154.021 318.606 151.891C318.606 149.832 317.017 148.279 314.958 148.279C312.9 148.279 311.275 149.832 311.275 151.891C311.275 154.021 312.828 155.574 314.958 155.574ZM318.173 157.344H311.78V177.278H318.173V157.344ZM335.835 171.067C334.679 171.681 333.632 171.97 332.693 171.97C330.996 171.97 330.165 170.922 330.165 168.792V162.616H336.413V157.344H330.165V150.265H323.845V157.344H320.74V162.616H323.773V169.55C323.773 175.039 326.229 177.784 331.176 177.784C333.56 177.784 335.691 177.242 337.532 176.159L335.835 171.067ZM349.532 168.792L345.126 157.344H337.795L346.463 176.953L346.354 177.206C345.379 179.12 344.115 180.095 342.526 180.095C341.696 180.095 340.829 179.878 339.926 179.409L338.698 184.645C339.89 185.404 341.334 185.765 342.996 185.765C347.618 185.765 350.471 182.84 352.638 177.314L360.366 157.344H353.469L349.532 168.792ZM380.885 177.82C384.099 177.82 386.736 176.809 388.722 174.786C390.744 172.764 391.756 170.272 391.756 167.311C391.756 164.35 390.744 161.858 388.722 159.836C386.736 157.777 384.099 156.766 380.885 156.766C377.671 156.766 375.071 157.777 373.049 159.836C371.063 161.858 370.051 164.35 370.051 167.311C370.051 170.272 371.063 172.764 373.049 174.786C375.071 176.809 377.671 177.82 380.885 177.82ZM380.885 171.861C379.621 171.861 378.574 171.428 377.707 170.561C376.841 169.658 376.407 168.575 376.407 167.275C376.407 166.011 376.841 164.964 377.707 164.097C378.574 163.194 379.621 162.761 380.885 162.761C382.149 162.761 383.197 163.194 384.063 164.061C384.966 164.928 385.4 166.011 385.4 167.275C385.4 168.575 384.966 169.658 384.099 170.561C383.233 171.428 382.149 171.861 380.885 171.861ZM405.926 154.094C406.865 154.094 408.021 154.419 409.357 155.069L411.488 150.302C409.212 149.146 407.009 148.568 404.879 148.568C402.351 148.568 400.292 149.29 398.703 150.699C397.114 152.107 396.32 154.202 396.32 156.91V157.344H393.503V162.616H396.32V177.278H402.676V162.616H408.779V157.344H402.676V157.055C402.676 155.177 403.904 154.094 405.926 154.094ZM233.98 212.242L237.7 201.661L241.455 212.242H247.125L253.915 192.344H247.198L243.803 203.936L239.939 192.344H235.461L231.669 203.936L228.238 192.344H221.521L228.31 212.242H233.98ZM265.21 212.82C268.424 212.82 271.06 211.809 273.046 209.786C275.069 207.764 276.08 205.272 276.08 202.311C276.08 199.35 275.069 196.858 273.046 194.836C271.06 192.777 268.424 191.766 265.21 191.766C261.996 191.766 259.395 192.777 257.373 194.836C255.387 196.858 254.376 199.35 254.376 202.311C254.376 205.272 255.387 207.764 257.373 209.786C259.395 211.809 261.996 212.82 265.21 212.82ZM265.21 206.861C263.946 206.861 262.898 206.428 262.032 205.561C261.165 204.658 260.732 203.575 260.732 202.275C260.732 201.011 261.165 199.964 262.032 199.097C262.898 198.194 263.946 197.761 265.21 197.761C266.474 197.761 267.521 198.194 268.388 199.061C269.29 199.928 269.724 201.011 269.724 202.275C269.724 203.575 269.29 204.658 268.424 205.561C267.557 206.428 266.474 206.861 265.21 206.861ZM285.546 212.278V203.683C285.546 199.855 287.027 197.941 289.952 197.941C290.783 197.941 291.649 198.086 292.588 198.411L293.094 192.344C292.3 191.983 291.469 191.802 290.602 191.802C288.327 191.802 286.557 192.813 285.294 194.799V192.344H279.19V212.278H285.546ZM316.073 212.278L306.864 200.361L315.423 192.344H307.658L301.663 198.122V184.724H295.307V212.278H301.663V205.236L302.602 204.369L308.489 212.278H316.073ZM328.216 204.406V202.744C328.216 200.505 330.672 198.88 332.658 197.111C333.994 195.847 335.078 193.933 335.078 191.658C335.078 189.419 334.247 187.541 332.622 186.024C330.997 184.507 328.794 183.749 326.013 183.749C322.077 183.749 318.79 185.41 316.226 188.732L320.199 193.102C322.041 190.899 323.774 189.78 325.471 189.78C327.024 189.78 328.108 190.683 328.108 192.127C328.108 194.005 325.905 195.413 324.171 197.075C322.98 198.23 322.004 200.072 322.004 202.275V204.406H328.216ZM325.219 212.748C327.096 212.748 328.613 211.267 328.613 209.281C328.613 207.367 327.133 205.85 325.219 205.85C323.232 205.85 321.716 207.367 321.716 209.281C321.716 211.267 323.305 212.748 325.219 212.748Z" fill="url(#paint0_linear_2537_28883)"/>
<g filter="url(#filter1_d_2537_28883)">
<rect x="221.34" y="237.649" width="41.9381" height="41.9381" rx="8.15464" fill="white"/>
</g>
<g filter="url(#filter2_d_2537_28883)">
<rect x="276.093" y="237.649" width="41.9381" height="41.9381" rx="8.15464" fill="white"/>
</g>
<g filter="url(#filter3_d_2537_28883)">
<rect x="330.845" y="237.649" width="41.9381" height="41.9381" rx="8.15464" fill="white"/>
<rect x="332.01" y="238.814" width="39.6082" height="39.6082" rx="6.98969" stroke="url(#paint1_linear_2537_28883)" stroke-width="2.3299"/>
</g>
<g filter="url(#filter4_d_2537_28883)">
<rect x="385.598" y="237.649" width="41.9381" height="41.9381" rx="8.15464" fill="white"/>
</g>
<g filter="url(#filter5_d_2537_28883)">
<rect x="440.351" y="237.649" width="41.9381" height="41.9381" rx="8.15464" fill="white"/>
</g>
<path fill-rule="evenodd" clip-rule="evenodd" d="M458.407 325.021H225.417V316.866H458.407V325.021Z" fill="#D3D9E0"/>
<path fill-rule="evenodd" clip-rule="evenodd" d="M411.809 343.66H225.417V335.505H411.809V343.66Z" fill="#D3D9E0"/>
<path d="M352.602 267.782C354.704 267.782 356.421 267.243 357.728 266.193C359.035 265.142 359.701 263.758 359.701 262.066C359.701 259.785 358.368 257.915 355.985 257.376V257.274C357.753 256.633 359.112 255.095 359.112 253.122C359.112 251.712 358.522 250.559 357.318 249.611C356.113 248.663 354.652 248.201 352.935 248.201C350.5 248.201 348.399 248.996 346.605 250.585L348.835 254.019C350.167 253.122 351.321 252.686 352.269 252.686C353.473 252.686 354.319 253.301 354.319 254.25C354.319 255.172 353.473 255.839 352.013 255.839H350.142V260.093H352.602C353.909 260.093 354.755 260.759 354.755 261.682C354.755 262.707 353.832 263.399 352.269 263.399C350.987 263.399 349.603 262.963 348.091 262.118L346.169 265.911C348.245 267.167 350.372 267.782 352.602 267.782Z" fill="url(#paint2_linear_2537_28883)"/>
<path d="M299.786 261.323C302.63 258.453 304.066 256.351 304.066 254.07C304.066 252.404 303.451 250.995 302.22 249.893C301.016 248.765 299.478 248.201 297.633 248.201C295.044 248.201 292.686 249.252 290.534 251.354L293.096 254.788C294.609 253.43 295.967 252.738 297.12 252.738C298.222 252.738 299.094 253.481 299.094 254.532C299.094 254.865 299.042 255.172 298.837 255.557C298.632 255.89 298.581 256.044 298.248 256.454C297.915 256.838 297.915 256.838 297.505 257.248L297.146 257.607L291.405 263.527V267.5H304.168V263.117H298.043L299.786 261.323Z" fill="#D3D9E0"/>
<path d="M411.714 259.478V248.534H407.998L398.438 260.221L399.361 263.374H407.306V267.474H411.714V263.374H413.687V259.478H411.714ZM407.306 254.685V259.478H403.461L407.306 254.685Z" fill="#D3D9E0"/>
<path d="M462.454 255.377C461.762 255.377 461.045 255.48 460.302 255.685L460.584 252.943H467.555V248.534H457.072L456.098 258.043L458.713 260.452C459.584 259.734 460.532 259.375 461.583 259.375C463.018 259.375 464.095 260.196 464.095 261.323C464.095 262.476 463.095 263.399 461.25 263.399C459.866 263.399 458.328 262.938 456.662 261.99L454.945 265.834C456.97 267.141 459.174 267.782 461.506 267.782C463.762 267.782 465.556 267.167 466.863 265.962C468.195 264.732 468.862 263.194 468.862 261.349C468.862 259.555 468.247 258.12 466.991 257.018C465.761 255.916 464.248 255.377 462.454 255.377Z" fill="#D3D9E0"/>
<path d="M236.279 253.327L238.637 256.761L241.354 254.788V267.474H245.967V248.534H242.533L236.279 253.327Z" fill="#D3D9E0"/>
<g filter="url(#filter6_d_2537_28883)">
<rect x="44.2681" y="243.474" width="267.15" height="241.144" rx="22.432" fill="white"/>
</g>
<rect opacity="0.5" x="78.7974" y="285.326" width="189.378" height="8.74054" rx="4.37027" fill="url(#paint3_linear_2537_28883)"/>
<rect opacity="0.5" x="78.7974" y="322.23" width="189.378" height="8.74054" rx="4.37027" fill="url(#paint4_linear_2537_28883)"/>
<rect opacity="0.5" x="78.7974" y="359.135" width="189.378" height="8.74054" rx="4.37027" fill="url(#paint5_linear_2537_28883)"/>
<rect opacity="0.5" x="78.7974" y="396.039" width="189.378" height="8.74054" rx="4.37027" fill="url(#paint6_linear_2537_28883)"/>
<rect opacity="0.5" x="78.7974" y="432.944" width="189.378" height="8.74054" rx="4.37027" fill="url(#paint7_linear_2537_28883)"/>
<path d="M272.378 290.683C271.856 291.181 271.618 291.917 271.737 292.629L273.541 303.144C273.849 304.948 271.951 306.324 270.337 305.47L269.862 305.209L260.961 300.533L260.914 300.509C260.653 300.367 260.368 300.296 260.083 300.272C259.656 300.224 259.228 300.319 258.849 300.509L256.095 301.957L249.402 305.47C248.547 305.921 247.622 305.755 246.981 305.233C246.53 304.853 246.221 304.307 246.174 303.666C246.15 303.5 246.174 303.334 246.198 303.144L248.001 292.629C248.12 291.917 247.883 291.181 247.361 290.683L239.718 283.23C238.412 281.948 239.124 279.717 240.952 279.456L251.514 277.913C252.226 277.818 252.867 277.367 253.176 276.703L257.899 267.137C258.326 266.283 259.157 265.879 259.964 265.903C260.724 265.927 261.46 266.354 261.839 267.137L266.563 276.703C266.705 276.987 266.919 277.248 267.156 277.438C267.465 277.676 267.821 277.842 268.224 277.913L278.549 279.408L278.786 279.432C279.19 279.48 279.546 279.646 279.831 279.859C279.878 279.883 279.902 279.931 279.949 279.954C279.997 280.002 280.021 280.025 280.068 280.073C280.377 280.382 280.59 280.785 280.662 281.212C280.685 281.307 280.685 281.402 280.685 281.497C280.709 282.09 280.519 282.708 280.021 283.182L272.378 290.683Z" fill="#72E253"/>
<path d="M252.865 287.621C254.307 287.621 255.476 286.845 255.476 285.888C255.476 284.931 254.307 284.155 252.865 284.155C251.423 284.155 250.254 284.931 250.254 285.888C250.254 286.845 251.423 287.621 252.865 287.621Z" fill="#4FCA2D"/>
<path d="M267.131 287.621C268.573 287.621 269.742 286.845 269.742 285.888C269.742 284.931 268.573 284.155 267.131 284.155C265.689 284.155 264.52 284.931 264.52 285.888C264.52 286.845 265.689 287.621 267.131 287.621Z" fill="#4FCA2D"/>
<path d="M256.068 301.98L249.375 305.493C248.52 305.944 247.594 305.778 246.953 305.256C246.503 304.876 246.194 304.33 246.146 303.689C246.669 303.784 247.215 303.927 247.808 304.164C249.018 304.639 253.054 303.191 256.068 301.98Z" fill="#4FCA2D"/>
<path d="M272.372 290.683C271.85 291.181 271.612 291.917 271.731 292.629L273.535 303.144C273.843 304.948 271.945 306.324 270.331 305.47L269.856 305.209L260.955 300.533C262.806 300.77 266.011 301.364 267.387 301.625C269.334 302.004 270.924 300.177 269.998 295.358C269.073 290.54 270.402 290.255 271.565 289.092C272.728 287.929 277.309 283.87 279.398 281.782C279.943 281.236 280.133 280.761 280.062 280.334C280.062 280.239 280.062 280.168 280.062 280.073C280.371 280.381 280.584 280.785 280.656 281.212C280.656 281.307 280.679 281.402 280.679 281.497C280.703 282.09 280.513 282.707 280.015 283.182L272.372 290.683Z" fill="#4FCA2D"/>
<path d="M265.035 291.229C264.371 292.249 263.421 293.08 262.306 293.555C262.187 293.602 262.069 293.65 261.926 293.697C261.285 293.934 260.597 294.053 259.861 294.053C259.173 294.053 258.508 293.934 257.891 293.721C257.796 293.673 257.677 293.65 257.583 293.602C256.396 293.127 255.375 292.273 254.711 291.205C254.331 290.611 254.758 289.828 255.446 289.828H264.276C264.988 289.852 265.415 290.635 265.035 291.229Z" fill="#231F20"/>
<path d="M256.519 285.057C256.234 285.057 255.997 284.82 255.997 284.535C255.997 283.894 255.475 283.396 254.858 283.396C254.24 283.396 253.718 283.918 253.718 284.535C253.718 284.82 253.481 285.057 253.196 285.057C252.911 285.057 252.674 284.82 252.674 284.535C252.674 283.325 253.647 282.352 254.858 282.352C256.068 282.352 257.041 283.325 257.041 284.535C257.041 284.82 256.804 285.057 256.519 285.057Z" fill="#231F20"/>
<path d="M266.651 285.057C266.366 285.057 266.129 284.82 266.129 284.535C266.129 283.894 265.606 283.396 264.989 283.396C264.348 283.396 263.85 283.918 263.85 284.535C263.85 284.82 263.613 285.057 263.328 285.057C263.043 285.057 262.806 284.82 262.806 284.535C262.806 283.325 263.779 282.352 264.989 282.352C266.2 282.352 267.173 283.325 267.173 284.535C267.173 284.82 266.936 285.057 266.651 285.057Z" fill="#231F20"/>
<path d="M264.417 289.876C263.444 290.375 261.759 290.707 259.86 290.707C257.937 290.707 256.276 290.375 255.303 289.876C255.35 289.876 255.398 289.853 255.469 289.853H264.299C264.322 289.853 264.37 289.853 264.417 289.876Z" fill="white"/>
<path d="M262.211 293.556C262.092 293.603 261.973 293.65 261.831 293.698C261.19 293.935 260.502 294.054 259.766 294.054C259.078 294.054 258.413 293.935 257.796 293.722C257.701 293.674 257.582 293.65 257.487 293.603C258.128 293.057 258.983 292.749 259.885 292.749C260.763 292.749 261.57 293.057 262.211 293.556Z" fill="#FB465B"/>
<path d="M237.405 330.502C236.883 331 236.646 331.736 236.764 332.448L238.568 342.963C238.877 344.767 236.978 346.143 235.364 345.289L234.889 345.028L225.988 340.352L225.941 340.328C225.68 340.186 225.395 340.114 225.11 340.091C224.683 340.043 224.256 340.138 223.876 340.328L221.123 341.776L214.429 345.289C213.575 345.74 212.649 345.574 212.008 345.051C211.557 344.672 211.249 344.126 211.201 343.485C211.201 343.319 211.201 343.153 211.225 342.963L213.029 332.448C213.147 331.736 212.91 331 212.388 330.502L204.745 323.049C203.44 321.767 204.152 319.536 205.979 319.275L216.542 317.732C217.254 317.637 217.895 317.186 218.203 316.521L222.927 306.956C223.354 306.101 224.185 305.698 224.992 305.722C225.751 305.745 226.487 306.173 226.867 306.956L231.59 316.521C231.732 316.806 231.946 317.067 232.183 317.257C232.492 317.495 232.848 317.661 233.251 317.732L243.576 319.227L243.814 319.251C244.217 319.298 244.573 319.465 244.858 319.678C244.906 319.702 244.929 319.749 244.977 319.773C245.024 319.821 245.048 319.844 245.096 319.892C245.404 320.2 245.594 320.604 245.689 321.031C245.713 321.126 245.713 321.221 245.713 321.316C245.736 321.909 245.546 322.526 245.048 323.001L237.405 330.502Z" fill="#BDE253"/>
<path d="M217.921 327.866C219.363 327.866 220.532 327.09 220.532 326.133C220.532 325.176 219.363 324.4 217.921 324.4C216.479 324.4 215.311 325.176 215.311 326.133C215.311 327.09 216.479 327.866 217.921 327.866Z" fill="#ABCE46"/>
<path d="M232.183 327.866C233.625 327.866 234.794 327.09 234.794 326.133C234.794 325.176 233.625 324.4 232.183 324.4C230.741 324.4 229.572 325.176 229.572 326.133C229.572 327.09 230.741 327.866 232.183 327.866Z" fill="#ABCE46"/>
<path d="M221.097 341.798L214.404 345.311C213.549 345.762 212.624 345.596 211.983 345.073C211.532 344.694 211.223 344.148 211.176 343.507C211.698 343.602 212.244 343.744 212.837 343.982C214.048 344.456 218.083 343.008 221.097 341.798Z" fill="#ABCE46"/>
<path d="M237.407 330.5C236.885 330.999 236.647 331.735 236.766 332.447L238.57 342.962C238.879 344.765 236.98 346.142 235.366 345.288L234.891 345.027L225.99 340.351C227.842 340.588 231.046 341.181 232.423 341.442C234.369 341.822 235.959 339.995 235.033 335.176C234.108 330.358 235.437 330.073 236.6 328.91C237.763 327.747 242.344 323.688 244.433 321.6C244.979 321.054 245.169 320.579 245.097 320.152C245.097 320.057 245.097 319.986 245.097 319.891C245.406 320.199 245.596 320.603 245.691 321.03C245.691 321.125 245.714 321.22 245.714 321.315C245.738 321.908 245.548 322.525 245.05 323L237.407 330.5Z" fill="#ABCE46"/>
<path d="M220.037 325.635C220.968 325.635 221.722 324.881 221.722 323.95C221.722 323.019 220.968 322.265 220.037 322.265C219.107 322.265 218.352 323.019 218.352 323.95C218.352 324.881 219.107 325.635 220.037 325.635Z" fill="#231F20"/>
<path d="M230.032 325.635C230.963 325.635 231.718 324.881 231.718 323.95C231.718 323.019 230.963 322.265 230.032 322.265C229.102 322.265 228.347 323.019 228.347 323.95C228.347 324.881 229.102 325.635 230.032 325.635Z" fill="#231F20"/>
<path d="M221.056 330.571C221.863 331.972 223.358 332.897 225.091 332.897C226.824 332.897 228.319 331.972 229.126 330.571" stroke="#231F20" stroke-width="1.68909" stroke-miterlimit="10" stroke-linecap="round" stroke-linejoin="round"/>
<path d="M185.931 368.375C185.409 368.874 185.171 369.609 185.29 370.321L187.094 380.836C187.402 382.64 185.504 384.017 183.89 383.162L183.415 382.901L174.514 378.225L174.467 378.202C174.206 378.059 173.921 377.988 173.636 377.964C173.209 377.917 172.781 378.012 172.402 378.202L169.625 379.649L162.931 383.162C162.077 383.613 161.151 383.447 160.51 382.925C160.059 382.545 159.751 381.999 159.703 381.358C159.703 381.192 159.703 381.026 159.727 380.836L161.531 370.321C161.649 369.609 161.412 368.874 160.89 368.375L153.247 360.922C151.942 359.64 152.654 357.409 154.481 357.148L165.044 355.605C165.756 355.51 166.397 355.059 166.705 354.395L171.428 344.829C171.856 343.975 172.686 343.571 173.493 343.595C174.253 343.619 174.989 344.046 175.369 344.829L180.092 354.395C180.234 354.68 180.448 354.941 180.685 355.131C180.994 355.368 181.35 355.534 181.753 355.605L192.078 357.101L192.316 357.124C192.719 357.172 193.075 357.338 193.36 357.552C193.408 357.575 193.431 357.623 193.479 357.647C193.526 357.694 193.55 357.718 193.597 357.765C193.906 358.074 194.096 358.477 194.191 358.905C194.215 359 194.215 359.095 194.215 359.189C194.238 359.783 194.048 360.4 193.55 360.875L185.931 368.375Z" fill="#F6CA25"/>
<path d="M166.062 365.979C167.504 365.979 168.673 365.203 168.673 364.246C168.673 363.289 167.504 362.513 166.062 362.513C164.62 362.513 163.451 363.289 163.451 364.246C163.451 365.203 164.62 365.979 166.062 365.979Z" fill="#FFB700"/>
<path d="M180.328 365.979C181.77 365.979 182.939 365.203 182.939 364.246C182.939 363.289 181.77 362.513 180.328 362.513C178.886 362.513 177.717 363.289 177.717 364.246C177.717 365.203 178.886 365.979 180.328 365.979Z" fill="#FFB700"/>
<path d="M169.648 379.65L162.955 383.163C162.101 383.614 161.175 383.448 160.534 382.926C160.083 382.546 159.775 382 159.727 381.359C160.249 381.454 160.795 381.597 161.389 381.834C162.599 382.309 166.634 380.861 169.648 379.65Z" fill="#FFB700"/>
<path d="M185.952 368.376C185.43 368.875 185.193 369.611 185.312 370.323L187.115 380.838C187.424 382.641 185.525 384.018 183.911 383.164L183.436 382.903L174.536 378.227C176.387 378.464 179.591 379.057 180.968 379.318C182.914 379.698 184.505 377.871 183.579 373.052C182.653 368.234 183.982 367.949 185.145 366.786C186.308 365.623 190.889 361.564 192.978 359.476C193.524 358.93 193.714 358.455 193.643 358.028C193.643 357.933 193.643 357.862 193.643 357.767C193.951 358.075 194.141 358.479 194.236 358.906C194.236 359.001 194.26 359.096 194.26 359.191C194.284 359.784 194.094 360.401 193.595 360.876L185.952 368.376Z" fill="#FFB700"/>
<path d="M168.228 363.487C169.158 363.487 169.913 362.732 169.913 361.801C169.913 360.871 169.158 360.116 168.228 360.116C167.297 360.116 166.542 360.871 166.542 361.801C166.542 362.732 167.297 363.487 168.228 363.487Z" fill="#231F20"/>
<path d="M178.223 363.487C179.154 363.487 179.908 362.732 179.908 361.801C179.908 360.871 179.154 360.116 178.223 360.116C177.292 360.116 176.538 360.871 176.538 361.801C176.538 362.732 177.292 363.487 178.223 363.487Z" fill="#231F20"/>
<path d="M169.483 369.16H176.936" stroke="#231F20" stroke-width="1.68909" stroke-miterlimit="10" stroke-linecap="round" stroke-linejoin="round"/>
<path d="M144.176 404.31C143.654 404.809 143.417 405.544 143.535 406.256L145.339 416.771C145.648 418.575 143.749 419.952 142.135 419.097L141.66 418.836L132.759 414.16L132.712 414.137C132.451 413.994 132.166 413.923 131.881 413.899C131.454 413.852 131.027 413.947 130.647 414.137L127.894 415.585L121.2 419.097C120.346 419.548 119.42 419.382 118.779 418.86C118.328 418.48 118.02 417.934 117.972 417.294C117.972 417.127 117.972 416.961 117.996 416.771L119.8 406.256C119.918 405.544 119.681 404.809 119.159 404.31L111.516 396.857C110.211 395.575 110.923 393.344 112.75 393.083L123.313 391.54C124.025 391.446 124.666 390.995 124.974 390.33L129.698 380.765C130.125 379.91 130.956 379.507 131.763 379.53C132.522 379.554 133.258 379.981 133.638 380.765L138.361 390.33C138.503 390.615 138.717 390.876 138.954 391.066C139.263 391.303 139.619 391.469 140.022 391.54L150.347 393.036L150.585 393.06C150.988 393.107 151.344 393.273 151.629 393.487C151.677 393.511 151.7 393.558 151.748 393.582C151.795 393.629 151.819 393.653 151.867 393.7C152.175 394.009 152.365 394.412 152.46 394.84C152.484 394.935 152.484 395.03 152.484 395.125C152.507 395.718 152.317 396.335 151.819 396.81L144.176 404.31Z" fill="#FFA14D"/>
<path d="M127.897 415.585L121.204 419.098C120.349 419.549 119.423 419.383 118.783 418.86C118.332 418.481 118.023 417.935 117.976 417.294C118.498 417.389 119.044 417.531 119.637 417.769C120.824 418.243 124.883 416.795 127.897 415.585Z" fill="#FF8619"/>
<path d="M144.184 404.311C143.662 404.809 143.425 405.545 143.544 406.257L145.347 416.772C145.656 418.576 143.757 419.953 142.143 419.098L141.668 418.837L132.768 414.161C134.619 414.399 137.823 414.992 139.2 415.253C141.146 415.633 142.737 413.805 141.811 408.987C140.885 404.169 142.214 403.884 143.377 402.721C144.54 401.558 149.121 397.499 151.21 395.41C151.756 394.864 151.946 394.39 151.875 393.962C151.875 393.867 151.875 393.796 151.875 393.701C152.183 394.01 152.373 394.413 152.468 394.84C152.468 394.935 152.492 395.03 152.492 395.125C152.516 395.719 152.326 396.336 151.827 396.811L144.184 404.311Z" fill="#FF8619"/>
<path d="M124.409 401.439C125.851 401.439 127.02 400.663 127.02 399.706C127.02 398.749 125.851 397.973 124.409 397.973C122.967 397.973 121.798 398.749 121.798 399.706C121.798 400.663 122.967 401.439 124.409 401.439Z" fill="#FF8619"/>
<path d="M138.675 401.439C140.117 401.439 141.286 400.663 141.286 399.706C141.286 398.749 140.117 397.973 138.675 397.973C137.233 397.973 136.064 398.749 136.064 399.706C136.064 400.663 137.233 401.439 138.675 401.439Z" fill="#FF8619"/>
<path d="M126.578 399.423C127.509 399.423 128.264 398.668 128.264 397.737C128.264 396.807 127.509 396.052 126.578 396.052C125.648 396.052 124.893 396.807 124.893 397.737C124.893 398.668 125.648 399.423 126.578 399.423Z" fill="black"/>
<path d="M136.594 399.423C137.525 399.423 138.28 398.668 138.28 397.737C138.28 396.807 137.525 396.052 136.594 396.052C135.664 396.052 134.909 396.807 134.909 397.737C134.909 398.668 135.664 399.423 136.594 399.423Z" fill="black"/>
<path d="M127.562 405.617C128.369 404.217 129.864 403.291 131.597 403.291C133.33 403.291 134.825 404.217 135.632 405.617" stroke="black" stroke-width="1.68909" stroke-miterlimit="10" stroke-linecap="round" stroke-linejoin="round"/>
<path d="M102.408 441.213C101.885 441.711 101.648 442.447 101.767 443.159L103.571 453.674C103.879 455.478 101.98 456.855 100.366 456L99.8917 455.739L90.9909 451.063L90.9434 451.04C90.6823 450.897 90.3975 450.826 90.1126 450.802C89.6854 450.755 89.2582 450.85 88.8784 451.04L86.1251 452.487L79.4316 456C78.5772 456.451 77.6515 456.285 77.0106 455.763C76.5597 455.383 76.2511 454.837 76.2036 454.196C76.2036 454.03 76.2036 453.864 76.2274 453.674L78.0313 443.159C78.1499 442.447 77.9126 441.711 77.3904 441.213L69.7476 433.76C68.4421 432.478 69.1542 430.247 70.9818 429.986L81.5441 428.443C82.2562 428.348 82.897 427.897 83.2056 427.233L87.929 417.667C88.3562 416.813 89.187 416.409 89.994 416.433C90.7535 416.457 91.4893 416.884 91.8691 417.667L96.5924 427.233C96.7348 427.518 96.9485 427.779 97.1858 427.969C97.4944 428.206 97.8504 428.372 98.2539 428.443L108.579 429.939L108.816 429.962C109.22 430.01 109.576 430.176 109.861 430.39C109.908 430.413 109.932 430.461 109.979 430.485C110.027 430.532 110.05 430.556 110.098 430.603C110.407 430.912 110.596 431.315 110.691 431.743C110.715 431.837 110.715 431.932 110.715 432.027C110.739 432.621 110.549 433.238 110.05 433.713L102.408 441.213Z" fill="#E65C5C"/>
<path d="M83.0665 439.174C84.5084 439.174 85.6774 438.398 85.6774 437.441C85.6774 436.484 84.5084 435.708 83.0665 435.708C81.6245 435.708 80.4556 436.484 80.4556 437.441C80.4556 438.398 81.6245 439.174 83.0665 439.174Z" fill="#E63C3C"/>
<path d="M97.3331 439.174C98.775 439.174 99.944 438.398 99.944 437.441C99.944 436.484 98.775 435.708 97.3331 435.708C95.8911 435.708 94.7222 436.484 94.7222 437.441C94.7222 438.398 95.8911 439.174 97.3331 439.174Z" fill="#E63C3C"/>
<path d="M86.1329 452.489L79.4395 456.002C78.585 456.453 77.6593 456.287 77.0184 455.765C76.5675 455.385 76.2589 454.839 76.2114 454.198C76.7336 454.293 77.2795 454.436 77.8729 454.673C79.0597 455.148 83.1185 453.7 86.1329 452.489Z" fill="#E63C3C"/>
<path d="M102.409 441.215C101.887 441.713 101.649 442.449 101.768 443.161L103.572 453.676C103.881 455.48 101.982 456.856 100.368 456.002L99.893 455.741L90.9922 451.065C92.8436 451.302 96.0479 451.896 97.4245 452.157C99.3708 452.537 100.961 450.709 100.035 445.891C99.1097 441.072 100.439 440.788 101.602 439.624C102.765 438.461 107.346 434.403 109.435 432.314C109.981 431.768 110.17 431.293 110.099 430.866C110.099 430.771 110.099 430.7 110.099 430.605C110.408 430.914 110.598 431.317 110.693 431.744C110.693 431.839 110.716 431.934 110.716 432.029C110.74 432.623 110.55 433.24 110.052 433.714L102.409 441.215Z" fill="#E63C3C"/>
<path d="M84.8893 437.228C85.82 437.228 86.5745 436.474 86.5745 435.543C86.5745 434.612 85.82 433.858 84.8893 433.858C83.9586 433.858 83.2041 434.612 83.2041 435.543C83.2041 436.474 83.9586 437.228 84.8893 437.228Z" fill="#231F20"/>
<path d="M94.9054 437.228C95.8362 437.228 96.5907 436.474 96.5907 435.543C96.5907 434.612 95.8362 433.858 94.9054 433.858C93.9747 433.858 93.2202 434.612 93.2202 435.543C93.2202 436.474 93.9747 437.228 94.9054 437.228Z" fill="#231F20"/>
<path d="M92.439 434.95C93.151 433.526 94.6701 432.671 96.2366 432.529" stroke="#231F20" stroke-width="1.40757" stroke-miterlimit="10" stroke-linecap="round" stroke-linejoin="round"/>
<path d="M87.3704 434.95C86.6584 433.526 85.1393 432.671 83.5728 432.529" stroke="#231F20" stroke-width="1.40757" stroke-miterlimit="10" stroke-linecap="round" stroke-linejoin="round"/>
<path d="M85.9927 442.877C86.7997 441.477 88.295 440.551 90.0277 440.551C91.7604 440.551 93.2557 441.477 94.0628 442.877" stroke="#231F20" stroke-width="1.68909" stroke-miterlimit="10" stroke-linecap="round" stroke-linejoin="round"/>
<defs>
<filter id="filter0_di_2537_28883" x="46.2987" y="70.0857" width="489.876" height="392.021" filterUnits="userSpaceOnUse" color-interpolation-filters="sRGB">
<feFlood flood-opacity="0" result="BackgroundImageFix"/>
<feColorMatrix in="SourceAlpha" type="matrix" values="0 0 0 0 0 0 0 0 0 0 0 0 0 0 0 0 0 0 127 0" result="hardAlpha"/>
<feOffset dy="5.14782"/>
<feGaussianBlur stdDeviation="7.72173"/>
<feColorMatrix type="matrix" values="0 0 0 0 0.186493 0 0 0 0 0.248562 0 0 0 0 0.341667 0 0 0 0.1 0"/>
<feBlend mode="normal" in2="BackgroundImageFix" result="effect1_dropShadow_2537_28883"/>
<feBlend mode="normal" in="SourceGraphic" in2="effect1_dropShadow_2537_28883" result="shape"/>
<feColorMatrix in="SourceAlpha" type="matrix" values="0 0 0 0 0 0 0 0 0 0 0 0 0 0 0 0 0 0 127 0" result="hardAlpha"/>
<feMorphology radius="1.28696" operator="erode" in="SourceAlpha" result="effect2_innerShadow_2537_28883"/>
<feOffset dy="-1.28696"/>
<feComposite in2="hardAlpha" operator="arithmetic" k2="-1" k3="1"/>
<feColorMatrix type="matrix" values="0 0 0 0 0.950625 0 0 0 0 0.962 0 0 0 0 0.975 0 0 0 0.76 0"/>
<feBlend mode="normal" in2="shape" result="effect2_innerShadow_2537_28883"/>
</filter>
<filter id="filter1_d_2537_28883" x="216.842" y="234.65" width="50.9349" height="50.9349" filterUnits="userSpaceOnUse" color-interpolation-filters="sRGB">
<feFlood flood-opacity="0" result="BackgroundImageFix"/>
<feColorMatrix in="SourceAlpha" type="matrix" values="0 0 0 0 0 0 0 0 0 0 0 0 0 0 0 0 0 0 127 0" result="hardAlpha"/>
<feOffset dy="1.49948"/>
<feGaussianBlur stdDeviation="2.24923"/>
<feColorMatrix type="matrix" values="0 0 0 0 0.593437 0 0 0 0 0.6315 0 0 0 0 0.675 0 0 0 0.76 0"/>
<feBlend mode="normal" in2="BackgroundImageFix" result="effect1_dropShadow_2537_28883"/>
<feBlend mode="normal" in="SourceGraphic" in2="effect1_dropShadow_2537_28883" result="shape"/>
</filter>
<filter id="filter2_d_2537_28883" x="271.594" y="234.65" width="50.9349" height="50.9349" filterUnits="userSpaceOnUse" color-interpolation-filters="sRGB">
<feFlood flood-opacity="0" result="BackgroundImageFix"/>
<feColorMatrix in="SourceAlpha" type="matrix" values="0 0 0 0 0 0 0 0 0 0 0 0 0 0 0 0 0 0 127 0" result="hardAlpha"/>
<feOffset dy="1.49948"/>
<feGaussianBlur stdDeviation="2.24923"/>
<feColorMatrix type="matrix" values="0 0 0 0 0.593437 0 0 0 0 0.6315 0 0 0 0 0.675 0 0 0 0.76 0"/>
<feBlend mode="normal" in2="BackgroundImageFix" result="effect1_dropShadow_2537_28883"/>
<feBlend mode="normal" in="SourceGraphic" in2="effect1_dropShadow_2537_28883" result="shape"/>
</filter>
<filter id="filter3_d_2537_28883" x="326.347" y="234.65" width="50.9349" height="50.9349" filterUnits="userSpaceOnUse" color-interpolation-filters="sRGB">
<feFlood flood-opacity="0" result="BackgroundImageFix"/>
<feColorMatrix in="SourceAlpha" type="matrix" values="0 0 0 0 0 0 0 0 0 0 0 0 0 0 0 0 0 0 127 0" result="hardAlpha"/>
<feOffset dy="1.49948"/>
<feGaussianBlur stdDeviation="2.24923"/>
<feColorMatrix type="matrix" values="0 0 0 0 0.27555 0 0 0 0 0.825 0 0 0 0 0.0825 0 0 0 0.6 0"/>
<feBlend mode="normal" in2="BackgroundImageFix" result="effect1_dropShadow_2537_28883"/>
<feBlend mode="normal" in="SourceGraphic" in2="effect1_dropShadow_2537_28883" result="shape"/>
</filter>
<filter id="filter4_d_2537_28883" x="381.1" y="234.65" width="50.9349" height="50.9349" filterUnits="userSpaceOnUse" color-interpolation-filters="sRGB">
<feFlood flood-opacity="0" result="BackgroundImageFix"/>
<feColorMatrix in="SourceAlpha" type="matrix" values="0 0 0 0 0 0 0 0 0 0 0 0 0 0 0 0 0 0 127 0" result="hardAlpha"/>
<feOffset dy="1.49948"/>
<feGaussianBlur stdDeviation="2.24923"/>
<feColorMatrix type="matrix" values="0 0 0 0 0.593437 0 0 0 0 0.6315 0 0 0 0 0.675 0 0 0 0.76 0"/>
<feBlend mode="normal" in2="BackgroundImageFix" result="effect1_dropShadow_2537_28883"/>
<feBlend mode="normal" in="SourceGraphic" in2="effect1_dropShadow_2537_28883" result="shape"/>
</filter>
<filter id="filter5_d_2537_28883" x="435.852" y="234.65" width="50.9354" height="50.9349" filterUnits="userSpaceOnUse" color-interpolation-filters="sRGB">
<feFlood flood-opacity="0" result="BackgroundImageFix"/>
<feColorMatrix in="SourceAlpha" type="matrix" values="0 0 0 0 0 0 0 0 0 0 0 0 0 0 0 0 0 0 127 0" result="hardAlpha"/>
<feOffset dy="1.49948"/>
<feGaussianBlur stdDeviation="2.24923"/>
<feColorMatrix type="matrix" values="0 0 0 0 0.593437 0 0 0 0 0.6315 0 0 0 0 0.675 0 0 0 0.76 0"/>
<feBlend mode="normal" in2="BackgroundImageFix" result="effect1_dropShadow_2537_28883"/>
<feBlend mode="normal" in="SourceGraphic" in2="effect1_dropShadow_2537_28883" result="shape"/>
</filter>
<filter id="filter6_d_2537_28883" x="6.23745" y="223.079" width="343.211" height="317.206" filterUnits="userSpaceOnUse" color-interpolation-filters="sRGB">
<feFlood flood-opacity="0" result="BackgroundImageFix"/>
<feColorMatrix in="SourceAlpha" type="matrix" values="0 0 0 0 0 0 0 0 0 0 0 0 0 0 0 0 0 0 127 0" result="hardAlpha"/>
<feOffset dy="17.6357"/>
<feGaussianBlur stdDeviation="19.0153"/>
<feColorMatrix type="matrix" values="0 0 0 0 0.11816 0 0 0 0 0.142741 0 0 0 0 0.170833 0 0 0 0.15 0"/>
<feBlend mode="normal" in2="BackgroundImageFix" result="effect1_dropShadow_2537_28883"/>
<feBlend mode="normal" in="SourceGraphic" in2="effect1_dropShadow_2537_28883" result="shape"/>
</filter>
<linearGradient id="paint0_linear_2537_28883" x1="395.74" y1="204.068" x2="277.524" y2="92.4325" gradientUnits="userSpaceOnUse">
<stop offset="0.00289017" stop-color="#98EE45"/>
<stop offset="1" stop-color="#1BC772"/>
</linearGradient>
<linearGradient id="paint1_linear_2537_28883" x1="330.845" y1="246.014" x2="374.069" y2="248.689" gradientUnits="userSpaceOnUse">
<stop stop-color="#22C96F"/>
<stop offset="1" stop-color="#87E94B"/>
</linearGradient>
<linearGradient id="paint2_linear_2537_28883" x1="359.905" y1="270.369" x2="342.457" y2="267.74" gradientUnits="userSpaceOnUse">
<stop offset="0.00289017" stop-color="#98EE45"/>
<stop offset="1" stop-color="#1BC772"/>
</linearGradient>
<linearGradient id="paint3_linear_2537_28883" x1="79.4962" y1="292.08" x2="270.625" y2="290.543" gradientUnits="userSpaceOnUse">
<stop stop-color="#E65C5C"/>
<stop offset="1" stop-color="#72E253"/>
</linearGradient>
<linearGradient id="paint4_linear_2537_28883" x1="79.4962" y1="328.984" x2="270.625" y2="327.448" gradientUnits="userSpaceOnUse">
<stop stop-color="#E65C5C"/>
<stop offset="1" stop-color="#72E253"/>
</linearGradient>
<linearGradient id="paint5_linear_2537_28883" x1="79.4962" y1="365.889" x2="270.625" y2="364.352" gradientUnits="userSpaceOnUse">
<stop stop-color="#E65C5C"/>
<stop offset="1" stop-color="#72E253"/>
</linearGradient>
<linearGradient id="paint6_linear_2537_28883" x1="79.4962" y1="402.793" x2="270.625" y2="401.257" gradientUnits="userSpaceOnUse">
<stop stop-color="#E65C5C"/>
<stop offset="1" stop-color="#72E253"/>
</linearGradient>
<linearGradient id="paint7_linear_2537_28883" x1="79.4962" y1="439.698" x2="270.625" y2="438.161" gradientUnits="userSpaceOnUse">
<stop stop-color="#E65C5C"/>
<stop offset="1" stop-color="#72E253"/>
</linearGradient>
</defs>
</svg>
