<svg width="810" height="482" viewBox="0 0 810 482" fill="none" xmlns="http://www.w3.org/2000/svg">
<g clip-path="url(#clip0_7_30191)">
<path d="M213.931 103.214H28.2601" stroke="url(#paint0_linear_7_30191)" stroke-width="3.09452" stroke-linecap="round" stroke-linejoin="round"/>
<path d="M100.466 212.553L100.466 26.8822" stroke="url(#paint1_linear_7_30191)" stroke-width="3.09452" stroke-linecap="round" stroke-linejoin="round"/>
<path d="M193.301 383.783H378.972" stroke="url(#paint2_linear_7_30191)" stroke-width="3.09452" stroke-linecap="round" stroke-linejoin="round"/>
<path d="M306.767 274.444L306.767 460.115" stroke="url(#paint3_linear_7_30191)" stroke-width="3.09452" stroke-linecap="round" stroke-linejoin="round"/>
<g filter="url(#filter0_d_7_30191)">
<rect x="97.3711" y="99.0876" width="212.49" height="288.265" rx="18.0989" fill="white"/>
<rect x="98.4026" y="100.119" width="210.427" height="286.202" rx="17.0674" stroke="#E9E9EC" stroke-width="2.06301"/>
</g>
<rect x="127.764" y="281.563" width="147.591" height="28.3178" rx="6.85436" fill="#F0F2F5"/>
<rect x="206.692" y="328.661" width="70.3245" height="27.9725" rx="6.85436" fill="#D3D3DA"/>
<rect x="127.764" y="234.896" width="147.591" height="28.3178" rx="6.85436" fill="#F0F2F5"/>
<rect opacity="0.5" x="108.407" y="110.141" width="189.636" height="99.8099" rx="10.2815" fill="#F0F2F5"/>
<path d="M213.882 143.181C216.326 143.181 218.308 141.109 218.308 138.553C218.308 135.997 216.326 133.925 213.882 133.925C211.438 133.925 209.457 135.997 209.457 138.553C209.457 141.109 211.438 143.181 213.882 143.181Z" fill="#DE5763"/>
<path d="M214.134 173.229H180.37C178.191 173.229 176.921 170.586 178.191 168.886L195.073 144.338C196.163 142.827 198.341 142.827 199.43 144.338L216.312 168.886C217.583 170.775 216.312 173.229 214.134 173.229Z" fill="#D3D3DA"/>
<path opacity="0.7" d="M225.895 172.731H209.278C206.753 172.731 205.491 169.986 206.753 168.086L214.957 156.473C216.219 154.784 218.533 154.784 219.795 156.473L227.999 168.086C229.892 169.986 228.419 172.731 225.895 172.731Z" fill="#7D7D88"/>
<path d="M606.935 243.499H792.606" stroke="url(#paint4_linear_7_30191)" stroke-width="3.09452" stroke-linecap="round" stroke-linejoin="round"/>
<path d="M720.401 130.033L720.401 315.704" stroke="url(#paint5_linear_7_30191)" stroke-width="3.09452" stroke-linecap="round" stroke-linejoin="round"/>
<path d="M573.926 74.3313H388.255" stroke="url(#paint6_linear_7_30191)" stroke-width="3.09452" stroke-linecap="round" stroke-linejoin="round"/>
<path d="M460.46 183.671L460.46 -2.00013" stroke="url(#paint7_linear_7_30191)" stroke-width="3.09452" stroke-linecap="round" stroke-linejoin="round"/>
<g filter="url(#filter1_d_7_30191)">
<rect x="457.366" y="68.1426" width="266.128" height="177.419" rx="18.0989" fill="white"/>
<rect x="458.398" y="69.1741" width="264.065" height="175.356" rx="17.0674" stroke="#E9E9EC" stroke-width="2.06301"/>
</g>
<rect x="583.21" y="138.408" width="111.309" height="22.9904" rx="5.42898" fill="#F0F2F5"/>
<rect x="583.21" y="173.928" width="53.0365" height="22.7299" rx="5.42898" fill="#D3D3DA"/>
<rect x="583.21" y="103.214" width="111.309" height="22.9904" rx="5.42898" fill="#F0F2F5"/>
<rect opacity="0.5" x="465.619" y="76.3945" width="90.7725" height="158.852" rx="8.14347" fill="#F0F2F5"/>
<path d="M515.604 139.077C517.448 139.077 518.942 137.514 518.942 135.586C518.942 133.658 517.448 132.096 515.604 132.096C513.761 132.096 512.267 133.658 512.267 135.586C512.267 137.514 513.761 139.077 515.604 139.077Z" fill="#F3803F"/>
<path d="M515.8 161.738H490.336C488.693 161.738 487.735 159.744 488.693 158.463L501.425 139.949C502.247 138.81 503.89 138.81 504.711 139.949L517.443 158.463C518.401 159.887 517.443 161.738 515.8 161.738Z" fill="#D3D3DA"/>
<path opacity="0.7" d="M524.67 161.363H512.138C510.234 161.363 509.282 159.293 510.234 157.86L516.421 149.102C517.373 147.828 519.118 147.828 520.07 149.102L526.257 157.86C527.684 159.293 526.574 161.363 524.67 161.363Z" fill="#7D7D88"/>
<mask id="mask0_7_30191" style="mask-type:alpha" maskUnits="userSpaceOnUse" x="370" y="243" width="300" height="228">
<rect x="371.752" y="244.53" width="297.074" height="224.868" rx="15.4726" fill="url(#paint8_linear_7_30191)" stroke="url(#paint9_linear_7_30191)" stroke-width="2.06301"/>
</mask>
<g mask="url(#mask0_7_30191)">
<g filter="url(#filter2_d_7_30191)">
<rect x="387.224" y="276.507" width="266.128" height="177.419" rx="18.0989" fill="white"/>
<rect x="388.256" y="277.538" width="264.065" height="175.356" rx="17.0674" stroke="#E9E9EC" stroke-width="2.06301"/>
</g>
<rect x="416.106" y="346.772" width="111.309" height="22.9904" rx="5.42898" fill="#F0F2F5"/>
<rect x="416.106" y="382.292" width="53.0365" height="22.7299" rx="5.42898" fill="#D3D3DA"/>
<rect x="416.106" y="311.578" width="111.309" height="22.9904" rx="5.42898" fill="#F0F2F5"/>
<rect opacity="0.5" x="548.139" y="284.759" width="90.7725" height="158.852" rx="8.14347" fill="#F0F2F5"/>
<path d="M598.125 347.441C599.969 347.441 601.463 345.878 601.463 343.95C601.463 342.022 599.969 340.46 598.125 340.46C596.282 340.46 594.788 342.022 594.788 343.95C594.788 345.878 596.282 347.441 598.125 347.441Z" fill="#F3803F"/>
<path d="M598.32 370.102H572.856C571.213 370.102 570.255 368.109 571.213 366.827L583.945 348.313C584.767 347.174 586.41 347.174 587.231 348.313L599.963 366.827C600.922 368.251 599.963 370.102 598.32 370.102Z" fill="#D3D3DA"/>
<path opacity="0.7" d="M607.191 369.727H594.658C592.755 369.727 591.803 367.657 592.755 366.224L598.942 357.466C599.893 356.193 601.638 356.193 602.59 357.466L608.777 366.224C610.205 367.657 609.094 369.727 607.191 369.727Z" fill="#7D7D88"/>
</g>
<g filter="url(#filter3_d_7_30191)">
<circle cx="391.35" cy="257.94" r="51.5753" fill="#DE5763"/>
</g>
<path d="M391.35 241.435C380.322 241.435 370.87 247.845 366.594 256.908C370.87 265.97 380.322 272.38 391.35 272.38C402.378 272.38 411.83 265.97 416.106 256.908C411.83 247.845 402.378 241.435 391.35 241.435Z" stroke="white" stroke-width="6.18903" stroke-miterlimit="10" stroke-linecap="round" stroke-linejoin="round"/>
<path d="M391.35 262.655C394.582 262.655 397.201 260.082 397.201 256.908C397.201 253.734 394.582 251.161 391.35 251.161C388.118 251.161 385.499 253.734 385.499 256.908C385.499 260.082 388.118 262.655 391.35 262.655Z" fill="white"/>
</g>
<defs>
<filter id="filter0_d_7_30191" x="89.119" y="99.0876" width="228.994" height="304.769" filterUnits="userSpaceOnUse" color-interpolation-filters="sRGB">
<feFlood flood-opacity="0" result="BackgroundImageFix"/>
<feColorMatrix in="SourceAlpha" type="matrix" values="0 0 0 0 0 0 0 0 0 0 0 0 0 0 0 0 0 0 127 0" result="hardAlpha"/>
<feOffset dy="8.25205"/>
<feGaussianBlur stdDeviation="4.12602"/>
<feComposite in2="hardAlpha" operator="out"/>
<feColorMatrix type="matrix" values="0 0 0 0 0.103646 0 0 0 0 0.105781 0 0 0 0 0.125 0 0 0 0.08 0"/>
<feBlend mode="normal" in2="BackgroundImageFix" result="effect1_dropShadow_7_30191"/>
<feBlend mode="normal" in="SourceGraphic" in2="effect1_dropShadow_7_30191" result="shape"/>
</filter>
<filter id="filter1_d_7_30191" x="449.114" y="68.1426" width="282.633" height="193.923" filterUnits="userSpaceOnUse" color-interpolation-filters="sRGB">
<feFlood flood-opacity="0" result="BackgroundImageFix"/>
<feColorMatrix in="SourceAlpha" type="matrix" values="0 0 0 0 0 0 0 0 0 0 0 0 0 0 0 0 0 0 127 0" result="hardAlpha"/>
<feOffset dy="8.25205"/>
<feGaussianBlur stdDeviation="4.12602"/>
<feComposite in2="hardAlpha" operator="out"/>
<feColorMatrix type="matrix" values="0 0 0 0 0.103646 0 0 0 0 0.105781 0 0 0 0 0.125 0 0 0 0.08 0"/>
<feBlend mode="normal" in2="BackgroundImageFix" result="effect1_dropShadow_7_30191"/>
<feBlend mode="normal" in="SourceGraphic" in2="effect1_dropShadow_7_30191" result="shape"/>
</filter>
<filter id="filter2_d_7_30191" x="378.972" y="276.507" width="282.633" height="193.923" filterUnits="userSpaceOnUse" color-interpolation-filters="sRGB">
<feFlood flood-opacity="0" result="BackgroundImageFix"/>
<feColorMatrix in="SourceAlpha" type="matrix" values="0 0 0 0 0 0 0 0 0 0 0 0 0 0 0 0 0 0 127 0" result="hardAlpha"/>
<feOffset dy="8.25205"/>
<feGaussianBlur stdDeviation="4.12602"/>
<feComposite in2="hardAlpha" operator="out"/>
<feColorMatrix type="matrix" values="0 0 0 0 0.103646 0 0 0 0 0.105781 0 0 0 0 0.125 0 0 0 0.08 0"/>
<feBlend mode="normal" in2="BackgroundImageFix" result="effect1_dropShadow_7_30191"/>
<feBlend mode="normal" in="SourceGraphic" in2="effect1_dropShadow_7_30191" result="shape"/>
</filter>
<filter id="filter3_d_7_30191" x="133.474" y="8.31516" width="515.753" height="515.753" filterUnits="userSpaceOnUse" color-interpolation-filters="sRGB">
<feFlood flood-opacity="0" result="BackgroundImageFix"/>
<feColorMatrix in="SourceAlpha" type="matrix" values="0 0 0 0 0 0 0 0 0 0 0 0 0 0 0 0 0 0 127 0" result="hardAlpha"/>
<feOffset dy="8.25205"/>
<feGaussianBlur stdDeviation="103.151"/>
<feComposite in2="hardAlpha" operator="out"/>
<feColorMatrix type="matrix" values="0 0 0 0 0.976471 0 0 0 0 0.494118 0 0 0 0 0.419608 0 0 0 1 0"/>
<feBlend mode="normal" in2="BackgroundImageFix" result="effect1_dropShadow_7_30191"/>
<feBlend mode="normal" in="SourceGraphic" in2="effect1_dropShadow_7_30191" result="shape"/>
</filter>
<linearGradient id="paint0_linear_7_30191" x1="191.238" y1="103.214" x2="50.9532" y2="103.214" gradientUnits="userSpaceOnUse">
<stop stop-color="#DE5763"/>
<stop offset="1" stop-color="#DE5763" stop-opacity="0"/>
</linearGradient>
<linearGradient id="paint1_linear_7_30191" x1="100.466" y1="189.86" x2="100.466" y2="49.5753" gradientUnits="userSpaceOnUse">
<stop stop-color="#DE5763"/>
<stop offset="1" stop-color="#DE5763" stop-opacity="0"/>
</linearGradient>
<linearGradient id="paint2_linear_7_30191" x1="215.994" y1="383.783" x2="356.279" y2="383.783" gradientUnits="userSpaceOnUse">
<stop stop-color="#DE5763"/>
<stop offset="1" stop-color="#DE5763" stop-opacity="0"/>
</linearGradient>
<linearGradient id="paint3_linear_7_30191" x1="306.767" y1="297.137" x2="306.767" y2="437.422" gradientUnits="userSpaceOnUse">
<stop stop-color="#DE5763"/>
<stop offset="1" stop-color="#DE5763" stop-opacity="0"/>
</linearGradient>
<linearGradient id="paint4_linear_7_30191" x1="629.628" y1="243.499" x2="769.912" y2="243.499" gradientUnits="userSpaceOnUse">
<stop stop-color="#F97E6B"/>
<stop offset="1" stop-color="#F97E6B" stop-opacity="0"/>
</linearGradient>
<linearGradient id="paint5_linear_7_30191" x1="720.401" y1="152.726" x2="720.401" y2="293.011" gradientUnits="userSpaceOnUse">
<stop stop-color="#F97E6B"/>
<stop offset="1" stop-color="#F97E6B" stop-opacity="0"/>
</linearGradient>
<linearGradient id="paint6_linear_7_30191" x1="551.233" y1="74.3313" x2="410.948" y2="74.3313" gradientUnits="userSpaceOnUse">
<stop stop-color="#F97E6B"/>
<stop offset="1" stop-color="#F97E6B" stop-opacity="0"/>
</linearGradient>
<linearGradient id="paint7_linear_7_30191" x1="460.46" y1="160.978" x2="460.46" y2="20.693" gradientUnits="userSpaceOnUse">
<stop stop-color="#F97E6B"/>
<stop offset="1" stop-color="#F97E6B" stop-opacity="0"/>
</linearGradient>
<linearGradient id="paint8_linear_7_30191" x1="466.65" y1="321.893" x2="494.357" y2="494.874" gradientUnits="userSpaceOnUse">
<stop stop-color="#1E1E1E"/>
<stop offset="1" stop-color="#141414" stop-opacity="0"/>
</linearGradient>
<linearGradient id="paint9_linear_7_30191" x1="379.861" y1="212.553" x2="455.184" y2="309.532" gradientUnits="userSpaceOnUse">
<stop stop-color="#363636"/>
<stop offset="1" stop-color="#141414"/>
</linearGradient>
<clipPath id="clip0_7_30191">
<rect width="810" height="482" fill="white"/>
</clipPath>
</defs>
</svg>
