<svg width="810" height="482" viewBox="0 0 810 482" fill="none" xmlns="http://www.w3.org/2000/svg">
<g clip-path="url(#clip0_7_28927)">
<mask id="mask0_7_28927" style="mask-type:alpha" maskUnits="userSpaceOnUse" x="373" y="40" width="427" height="383">
<path d="M799.727 40H373.923V422.397H799.727V40Z" fill="url(#paint0_linear_7_28927)"/>
</mask>
<g mask="url(#mask0_7_28927)">
<g filter="url(#filter0_d_7_28927)">
<path d="M740.25 54.4684H433.395C423.38 54.4684 415.261 62.5872 415.261 72.6024V478.675C415.261 488.69 423.38 496.809 433.395 496.809H740.25C750.266 496.809 758.384 488.69 758.384 478.675V72.6024C758.384 62.5872 750.266 54.4684 740.25 54.4684Z" fill="white"/>
<path d="M740.25 55.5019H433.395C423.95 55.5019 416.294 63.158 416.294 72.6024V478.675C416.294 488.119 423.95 495.775 433.395 495.775H740.25C749.695 495.775 757.351 488.119 757.351 478.675V72.6024C757.351 63.158 749.695 55.5019 740.25 55.5019Z" stroke="#E9E9EC" stroke-width="2.06701"/>
</g>
<path d="M448.943 337.346L444.716 326.614H443.626L439.356 337.346H441.158L442.173 334.702H446.125L447.14 337.346H448.943ZM445.617 333.164H442.711L444.164 329.272L445.617 333.164ZM451.725 326.337H450.127V337.346H451.725V326.337ZM454.629 328.486C455.224 328.486 455.689 328.021 455.689 327.397C455.689 326.802 455.224 326.337 454.629 326.337C454.005 326.337 453.525 326.802 453.525 327.397C453.525 328.021 454.005 328.486 454.629 328.486ZM455.4 329.518H453.802V337.346H455.4V329.518ZM463.59 330.52C462.891 329.72 462.021 329.33 460.989 329.33C459.871 329.33 458.912 329.706 458.143 330.477C457.374 331.231 456.996 332.19 456.996 333.338C456.996 334.485 457.36 335.444 458.1 336.213C458.84 336.982 459.784 337.36 460.917 337.36C461.992 337.36 462.862 336.967 463.546 336.198V336.765C463.546 338.218 462.529 339.247 460.859 339.247C459.886 339.247 458.955 338.943 458.085 338.319L457.389 339.553C458.418 340.293 459.582 340.671 460.888 340.671C462.165 340.671 463.197 340.293 463.966 339.553C464.737 338.813 465.129 337.811 465.129 336.548V329.518H463.59V330.52ZM461.119 335.938C460.408 335.938 459.813 335.69 459.334 335.21C458.854 334.716 458.623 334.092 458.623 333.352C458.623 332.612 458.854 332 459.334 331.523C459.813 331.029 460.408 330.781 461.119 330.781C461.847 330.781 462.442 331.029 462.922 331.508C463.399 331.986 463.633 332.612 463.633 333.352C463.633 334.092 463.399 334.702 462.922 335.196C462.442 335.69 461.847 335.938 461.119 335.938ZM468.788 337.346V333.061C468.788 331.725 469.629 330.795 470.834 330.795C471.953 330.795 472.709 331.595 472.709 333.032V337.346H474.319V332.583C474.319 331.523 474.016 330.723 473.42 330.157C472.825 329.59 472.097 329.315 471.242 329.315C470.123 329.315 469.222 329.809 468.757 330.622V329.518H467.19V337.346H468.788Z" fill="#707072"/>
<path d="M613.496 314.406H557.825C547.13 314.406 538.461 323.075 538.461 333.77C538.461 344.464 547.13 353.134 557.825 353.134H613.496C624.19 353.134 632.86 344.464 632.86 333.77C632.86 323.075 624.19 314.406 613.496 314.406Z" fill="#F0F2F5"/>
<path d="M549.044 326.204V341.333" stroke="#A7A7A7" stroke-width="1.81536" stroke-linecap="round"/>
<path d="M562.661 330.618H554.743C553.907 330.618 553.23 331.295 553.23 332.13V335.408C553.23 336.244 553.907 336.921 554.743 336.921H562.661C563.496 336.921 564.173 336.244 564.173 335.408V332.13C564.173 331.295 563.496 330.618 562.661 330.618Z" fill="#A7A7A7" stroke="#A7A7A7" stroke-width="1.81536" stroke-linecap="round"/>
<path d="M585.907 336.922V341.333" stroke="#474748" stroke-width="1.81536" stroke-linecap="round"/>
<path d="M585.907 326.204V330.618" stroke="#474748" stroke-width="1.81536" stroke-linecap="round"/>
<path d="M590.697 330.618H581.116C580.28 330.618 579.603 331.295 579.603 332.13V335.408C579.603 336.244 580.28 336.921 581.116 336.921H590.697C591.532 336.921 592.209 336.244 592.209 335.408V332.13C592.209 331.295 591.532 330.618 590.697 330.618Z" stroke="#474748" stroke-width="1.81536" stroke-linecap="round"/>
<path d="M622.264 341.333V326.204" stroke="#474748" stroke-width="1.81536" stroke-linecap="round"/>
<path d="M608.649 336.922H616.568C617.403 336.922 618.08 336.245 618.08 335.409V332.131C618.08 331.296 617.403 330.619 616.568 330.619H608.649C607.814 330.619 607.137 331.296 607.137 332.131V335.409C607.137 336.245 607.814 336.922 608.649 336.922Z" stroke="#474748" stroke-width="1.81536" stroke-linecap="round"/>
<path d="M715.166 314.406H659.495C648.8 314.406 640.131 323.075 640.131 333.77C640.131 344.464 648.8 353.134 659.495 353.134H715.166C725.86 353.134 734.53 344.464 734.53 333.77C734.53 323.075 725.86 314.406 715.166 314.406Z" fill="#F0F2F5"/>
<path d="M665.842 341.333H650.714" stroke="#474748" stroke-width="1.81536" stroke-linecap="round"/>
<path d="M661.429 327.718L661.429 335.636C661.429 336.472 660.752 337.149 659.917 337.149L656.639 337.149C655.803 337.149 655.126 336.472 655.126 335.636L655.126 327.718C655.126 326.883 655.803 326.206 656.639 326.206L659.917 326.206C660.752 326.206 661.429 326.883 661.429 327.718Z" stroke="#474748" stroke-width="1.81536" stroke-linecap="round"/>
<path d="M690.727 333.77H695.14" stroke="#A7A7A7" stroke-width="1.81536" stroke-linecap="round"/>
<path d="M680.012 333.77H684.425" stroke="#A7A7A7" stroke-width="1.81536" stroke-linecap="round"/>
<path d="M684.425 328.978V338.559C684.425 339.395 685.102 340.072 685.938 340.072H689.215C690.051 340.072 690.728 339.395 690.728 338.559V328.978C690.728 328.143 690.051 327.465 689.215 327.465H685.938C685.102 327.465 684.425 328.143 684.425 328.978Z" fill="#A7A7A7" stroke="#A7A7A7" stroke-width="1.81536" stroke-linecap="round"/>
<path d="M708.805 326.204H723.934" stroke="#474748" stroke-width="1.81536" stroke-linecap="round"/>
<path d="M713.218 339.821L713.218 331.903C713.218 331.067 713.896 330.39 714.731 330.39L718.009 330.39C718.844 330.39 719.522 331.067 719.522 331.903L719.522 339.821C719.522 340.657 718.844 341.334 718.009 341.334L714.731 341.334C713.896 341.334 713.218 340.657 713.218 339.821Z" stroke="#474748" stroke-width="1.81536" stroke-linecap="round"/>
<path d="M448.308 91.0117V89.032H442.566V79.8441H440.497V91.0117H448.308ZM455.719 83.8487C454.979 83.0176 454.088 82.6096 453.044 82.6096C451.88 82.6096 450.898 83.0176 450.127 83.8185C449.358 84.6195 448.98 85.647 448.98 86.8711C448.98 88.0952 449.358 89.1378 450.127 89.9689C450.898 90.8001 451.866 91.2081 453.044 91.2081C454.117 91.2081 455.01 90.8001 455.719 89.9991V91.0117H457.593V82.8061H455.719V83.8487ZM455.764 86.9013C455.764 87.6115 455.539 88.2008 455.084 88.6845C454.631 89.168 454.057 89.4098 453.348 89.4098C452.637 89.4098 452.062 89.168 451.609 88.6845C451.171 88.2008 450.944 87.6115 450.944 86.9013C450.944 86.2062 451.171 85.6168 451.609 85.1332C452.062 84.6497 452.637 84.4079 453.348 84.4079C454.057 84.4079 454.631 84.6497 455.084 85.1332C455.539 85.6168 455.764 86.2062 455.764 86.9013ZM463.242 88.3519L461.02 82.8061H458.738L462.321 90.9361L462.124 91.3894C461.717 92.2811 461.171 92.7193 460.522 92.7193C460.204 92.7193 459.857 92.6286 459.481 92.4473L459.162 94.1096C459.54 94.3665 460.053 94.5025 460.673 94.5025C462.23 94.5025 463.228 93.5504 464.013 91.5405L467.337 82.8061H465.192L463.242 88.3519ZM467.676 86.9013C467.676 88.1254 468.085 89.1529 468.902 89.984C469.733 90.8152 470.775 91.2232 472.058 91.2232C473.344 91.2232 474.386 90.8152 475.202 89.984C476.033 89.1529 476.442 88.1254 476.442 86.9013C476.442 85.6923 476.033 84.6799 475.202 83.8487C474.386 83.0176 473.344 82.5945 472.058 82.5945C470.775 82.5945 469.733 83.0176 468.902 83.8487C468.085 84.6799 467.676 85.6923 467.676 86.9013ZM474.462 86.9013C474.462 87.5964 474.235 88.1857 473.768 88.6694C473.298 89.1529 472.738 89.3947 472.058 89.3947C471.378 89.3947 470.82 89.1529 470.351 88.6694C469.884 88.1857 469.656 87.5964 469.656 86.9013C469.656 86.2212 469.884 85.6319 470.351 85.1483C470.82 84.6648 471.378 84.4229 472.058 84.4229C472.738 84.4229 473.298 84.6648 473.768 85.1483C474.235 85.6319 474.462 86.2212 474.462 86.9013ZM481.585 91.2081C483.896 91.2081 485.302 89.8631 485.302 87.5813V82.8061H483.323V87.5813C483.323 88.6845 482.672 89.4098 481.585 89.4098C480.512 89.4098 479.861 88.6845 479.861 87.5813V82.8061H477.883V87.5813C477.883 89.8631 479.303 91.2081 481.585 91.2081ZM492.381 88.9867C491.912 89.2738 491.443 89.4098 490.99 89.4098C490.188 89.4098 489.795 88.911 489.795 87.9288V84.4684H492.546V82.8061H489.795V79.9047H487.846V82.8061H486.457V84.4684H487.817V88.0045C487.817 90.1049 488.768 91.2081 490.626 91.2081C491.548 91.2081 492.35 90.9814 492.999 90.5281L492.381 88.9867Z" fill="black"/>
<path d="M624.579 263.578H546.716C542.15 263.578 538.448 267.28 538.448 271.846V294.038C538.448 298.604 542.15 302.306 546.716 302.306H624.579C629.145 302.306 632.847 298.604 632.847 294.038V271.846C632.847 267.28 629.145 263.578 624.579 263.578Z" fill="#F0F2F5"/>
<path d="M565.675 272.654V292.02" stroke="#B0B0BB" stroke-width="1.81536" stroke-linecap="round"/>
<path d="M547.525 272.654V292.02" stroke="#B0B0BB" stroke-width="1.81536" stroke-linecap="round"/>
<path d="M558.414 278.709L562.043 282.338L558.414 285.97" stroke="#B0B0BB" stroke-width="1.81536" stroke-linecap="round" stroke-linejoin="round"/>
<path d="M554.786 278.709L551.156 282.338L554.786 285.97" stroke="#B0B0BB" stroke-width="1.81536" stroke-linecap="round" stroke-linejoin="round"/>
<path d="M572.362 279.579L573.261 280.755L575.121 279.246V287.727H576.775V276.995H575.483L572.362 279.579ZM584.989 287.421C586.136 286.782 586.732 285.65 587.036 284.372C587.37 283.095 587.37 281.613 587.036 280.335C586.732 279.056 586.136 277.923 584.989 277.285C584.423 276.966 583.782 276.805 583.042 276.805C582.302 276.805 581.663 276.966 581.097 277.285C578.918 278.562 578.468 281.786 579.034 284.372C579.369 285.65 579.979 286.782 581.097 287.421C581.663 287.742 582.302 287.901 583.042 287.901C583.782 287.901 584.423 287.742 584.989 287.421ZM583.042 286.332C581.256 286.303 580.473 284.546 580.502 282.353C580.502 281.191 580.704 280.232 581.126 279.492C581.546 278.752 582.186 278.374 583.042 278.374C583.9 278.374 584.539 278.752 584.96 279.492C585.38 280.232 585.599 281.191 585.599 282.353C585.599 283.529 585.38 284.488 584.96 285.228C584.539 285.97 583.9 286.332 583.042 286.332ZM594.888 287.421C596.035 286.782 596.631 285.65 596.937 284.372C597.269 283.095 597.269 281.613 596.937 280.335C596.631 279.056 596.035 277.923 594.888 277.285C594.322 276.966 593.683 276.805 592.941 276.805C592.201 276.805 591.562 276.966 590.996 277.285C588.817 278.562 588.367 281.786 588.933 284.372C589.268 285.65 589.878 286.782 590.996 287.421C591.562 287.742 592.201 287.901 592.941 287.901C593.683 287.901 594.322 287.742 594.888 287.421ZM592.941 286.332C591.155 286.303 590.372 284.546 590.401 282.353C590.401 281.191 590.603 280.232 591.025 279.492C591.447 278.752 592.085 278.374 592.941 278.374C593.799 278.374 594.437 278.752 594.859 279.492C595.281 280.232 595.498 281.191 595.498 282.353C595.498 283.529 595.281 284.488 594.859 285.228C594.437 285.97 593.799 286.332 592.941 286.332Z" fill="#38393E"/>
<path d="M726.243 263.574H648.38C643.814 263.574 640.112 267.276 640.112 271.842V294.034C640.112 298.6 643.814 302.302 648.38 302.302H726.243C730.81 302.302 734.511 298.6 734.511 294.034V271.842C734.511 267.276 730.81 263.574 726.243 263.574Z" fill="#F0F2F5"/>
<path d="M613.613 278.258C612.668 278.258 611.883 278.63 611.256 279.389V278.43H609.526V288.628H611.269V284.755C611.895 285.472 612.681 285.832 613.6 285.832C614.624 285.832 615.477 285.472 616.155 284.74C616.835 284.009 617.181 283.103 617.181 282.039C617.181 280.987 616.848 280.096 616.17 279.362C615.49 278.63 614.638 278.258 613.613 278.258ZM611.23 282.051C611.23 281.439 611.43 280.92 611.815 280.495C612.201 280.069 612.708 279.856 613.334 279.856C613.958 279.856 614.464 280.069 614.851 280.495C615.237 280.906 615.436 281.427 615.436 282.051C615.436 282.677 615.237 283.196 614.851 283.622C614.464 284.035 613.958 284.248 613.334 284.248C612.708 284.248 612.201 284.035 611.815 283.622C611.43 283.196 611.23 282.677 611.23 282.051ZM622.017 282.012L624.308 278.43H622.338L620.94 280.72L619.622 278.43H617.625L619.795 281.958L617.373 285.66H619.382L620.899 283.211L622.377 285.66H624.374L622.017 282.012Z" fill="#B0B0BB"/>
<path d="M714.06 278.258C713.115 278.258 712.33 278.63 711.703 279.389V278.43H709.973V288.628H711.716V284.755C712.342 285.472 713.128 285.832 714.045 285.832C715.071 285.832 715.924 285.472 716.602 284.74C717.282 284.009 717.628 283.103 717.628 282.039C717.628 280.987 717.295 280.096 716.615 279.362C715.937 278.63 715.085 278.258 714.06 278.258ZM711.677 282.051C711.677 281.439 711.877 280.92 712.262 280.495C712.648 280.069 713.155 279.856 713.781 279.856C714.405 279.856 714.911 280.069 715.298 280.495C715.685 280.906 715.883 281.427 715.883 282.051C715.883 282.677 715.685 283.196 715.298 283.622C714.911 284.035 714.405 284.248 713.781 284.248C713.155 284.248 712.648 284.035 712.262 283.622C711.877 283.196 711.677 282.677 711.677 282.051ZM722.464 282.012L724.755 278.43H722.785L721.387 280.72L720.069 278.43H718.072L720.242 281.958L717.82 285.66H719.829L721.346 283.211L722.824 285.66H724.821L722.464 282.012Z" fill="#B0B0BB"/>
<path d="M648.583 274.465H667.947" stroke="#B0B0BB" stroke-width="1.81536" stroke-linecap="round"/>
<path d="M648.583 292.62H667.947" stroke="#B0B0BB" stroke-width="1.81536" stroke-linecap="round"/>
<path d="M654.637 281.727L658.267 278.097L661.899 281.727" stroke="#B0B0BB" stroke-width="1.81536" stroke-linecap="round" stroke-linejoin="round"/>
<path d="M654.637 285.358L658.267 288.988L661.899 285.358" stroke="#B0B0BB" stroke-width="1.81536" stroke-linecap="round" stroke-linejoin="round"/>
<path d="M680.95 283.659V276.993H679.89L674.111 284.052L674.445 285.098H679.353V287.727H680.95V285.098H682.141V283.659H680.95ZM679.353 279.781V283.659H676.188L679.353 279.781ZM687.292 287.901C688.439 287.901 689.369 287.609 690.08 287.028C690.806 286.448 691.17 285.708 691.17 284.821C691.17 283.616 690.355 282.512 689.078 282.061V282.018C690.109 281.555 690.719 280.668 690.719 279.637C690.719 278.81 690.399 278.14 689.76 277.603C689.136 277.067 688.309 276.805 687.292 276.805C686.261 276.805 685.432 277.067 684.793 277.603C684.154 278.14 683.836 278.81 683.836 279.637C683.836 280.668 684.46 281.541 685.463 282.018V282.047C684.198 282.512 683.385 283.616 683.385 284.821C683.385 285.708 683.747 286.448 684.475 287.028C685.2 287.609 686.145 287.901 687.292 287.901ZM689.136 279.796C689.136 280.712 688.425 281.394 687.277 281.394C686.13 281.394 685.388 280.712 685.388 279.796C685.388 278.868 686.159 278.2 687.277 278.2C688.396 278.2 689.136 278.868 689.136 279.796ZM687.292 286.433C685.955 286.433 685.041 285.664 685.041 284.604C685.041 283.572 685.926 282.832 687.277 282.832C688.627 282.832 689.514 283.572 689.514 284.604C689.514 285.664 688.584 286.433 687.292 286.433Z" fill="#38393E"/>
<path d="M443.352 287.899C444.427 287.899 445.311 287.607 445.993 287.026C446.678 286.431 447.025 285.677 447.025 284.761C447.025 283.657 446.473 282.801 445.384 282.204C445.123 282.059 444.687 281.842 444.063 281.565C443.438 281.276 443.046 281.071 442.858 280.97C442.262 280.637 441.956 280.201 441.956 279.693C441.956 278.895 442.624 278.386 443.554 278.386C444.441 278.386 445.181 278.748 445.776 279.49L446.808 278.343C445.979 277.311 444.89 276.803 443.54 276.803C442.537 276.803 441.725 277.092 441.101 277.659C440.474 278.225 440.171 278.938 440.171 279.779C440.171 280.854 440.708 281.727 441.797 282.38C442.072 282.539 442.494 282.741 443.031 282.989C443.583 283.221 443.947 283.382 444.121 283.469C444.832 283.845 445.181 284.31 445.181 284.848C445.181 285.662 444.455 286.315 443.352 286.315C442.291 286.315 441.289 285.763 440.693 284.674L439.561 285.763C440.33 287.142 441.783 287.899 443.352 287.899ZM449.468 278.864C450.063 278.864 450.528 278.401 450.528 277.776C450.528 277.179 450.063 276.716 449.468 276.716C448.842 276.716 448.364 277.179 448.364 277.776C448.364 278.401 448.842 278.864 449.468 278.864ZM450.237 279.895H448.639V287.723H450.237V279.895ZM458.166 280.912V279.91H451.95V281.276H456.002L451.717 286.663V287.723H458.296V286.359H453.896L458.166 280.912ZM467.05 283.657C467.05 282.438 466.688 281.478 465.975 280.767C465.264 280.056 464.334 279.707 463.216 279.707C462.04 279.707 461.068 280.1 460.326 280.869C459.586 281.638 459.222 282.611 459.222 283.787C459.222 285.85 460.487 287.899 463.42 287.899C464.741 287.899 466.004 287.405 466.804 286.809L466.136 285.633C465.438 286.142 464.365 286.474 463.478 286.474C461.967 286.474 461.111 285.648 460.878 284.426H466.992C467.035 284.137 467.05 283.874 467.05 283.657ZM463.216 281.086C464.394 281.086 465.307 281.886 465.438 283.12H460.878C461.111 281.9 462.011 281.086 463.216 281.086Z" fill="#707072"/>
<mask id="mask1_7_28927" style="mask-type:alpha" maskUnits="userSpaceOnUse" x="439" y="111" width="296" height="141">
<path d="M724.816 111.084H448.881C443.534 111.084 439.199 115.419 439.199 120.767V241.791C439.199 247.137 443.534 251.474 448.881 251.474H724.816C730.164 251.474 734.498 247.137 734.498 241.791V120.767C734.498 115.419 730.164 111.084 724.816 111.084Z" fill="#E2E4EA"/>
</mask>
<g mask="url(#mask1_7_28927)">
<path d="M726.228 111.085H447.465C442.899 111.085 439.197 114.787 439.197 119.353V243.205C439.197 247.772 442.899 251.474 447.465 251.474H726.228C730.794 251.474 734.496 247.772 734.496 243.205V119.353C734.496 114.787 730.794 111.085 726.228 111.085Z" fill="#F0F2F5"/>
<path d="M510.604 147.395H663.089C670.442 147.395 676.403 153.355 676.403 160.707V202.864C676.403 210.216 670.442 216.176 663.089 216.176H510.604C503.252 216.176 497.29 210.216 497.29 202.864V160.707C497.29 153.355 503.252 147.395 510.604 147.395Z" fill="white" stroke="#D3D3DA" stroke-width="2.42049"/>
<path d="M608.626 180.071H565.057C563.72 180.071 562.637 181.154 562.637 182.491C562.637 183.828 563.72 184.912 565.057 184.912H608.626C609.963 184.912 611.046 183.828 611.046 182.491C611.046 181.154 609.963 180.071 608.626 180.071Z" fill="#E2E4EA"/>
</g>
<path d="M586.711 132.989C587.858 132.989 588.788 132.698 589.499 132.117C590.225 131.537 590.589 130.796 590.589 129.91C590.589 128.705 589.776 127.601 588.497 127.151V127.107C589.528 126.642 590.138 125.756 590.138 124.725C590.138 123.897 589.82 123.229 589.181 122.692C588.555 122.155 587.728 121.893 586.711 121.893C585.679 121.893 584.853 122.155 584.214 122.692C583.575 123.229 583.255 123.897 583.255 124.725C583.255 125.756 583.879 126.628 584.882 127.107V127.136C583.619 127.601 582.804 128.705 582.804 129.91C582.804 130.796 583.168 131.537 583.894 132.117C584.619 132.698 585.564 132.989 586.711 132.989ZM588.555 124.885C588.555 125.8 587.844 126.482 586.696 126.482C585.549 126.482 584.809 125.8 584.809 124.885C584.809 123.956 585.578 123.287 586.696 123.287C587.815 123.287 588.555 123.956 588.555 124.885ZM586.711 131.522C585.376 131.522 584.46 130.752 584.46 129.692C584.46 128.661 585.347 127.92 586.696 127.92C588.048 127.92 588.933 128.661 588.933 129.692C588.933 130.752 588.003 131.522 586.711 131.522Z" fill="#38393E"/>
<path d="M589.035 168.818C590.182 168.179 590.777 167.046 591.083 165.768C591.418 164.49 591.418 163.009 591.083 161.731C590.777 160.453 590.182 159.32 589.035 158.681C588.468 158.361 587.83 158.201 587.09 158.201C586.348 158.201 585.709 158.361 585.143 158.681C582.964 159.959 582.515 163.183 583.082 165.768C583.415 167.046 584.024 168.179 585.143 168.818C585.709 169.137 586.348 169.297 587.09 169.297C587.83 169.297 588.468 169.137 589.035 168.818ZM587.09 167.728C585.304 167.699 584.518 165.942 584.547 163.749C584.547 162.587 584.752 161.629 585.172 160.888C585.593 160.147 586.232 159.77 587.09 159.77C587.945 159.77 588.586 160.147 589.006 160.888C589.428 161.629 589.645 162.587 589.645 163.749C589.645 164.926 589.428 165.884 589.006 166.625C588.586 167.365 587.945 167.728 587.09 167.728Z" fill="#38393E"/>
<path d="M586.711 237.07C587.858 237.07 588.788 236.779 589.499 236.198C590.225 235.618 590.589 234.877 590.589 233.991C590.589 232.786 589.776 231.682 588.497 231.232V231.188C589.528 230.723 590.138 229.837 590.138 228.806C590.138 227.978 589.82 227.31 589.181 226.773C588.555 226.236 587.728 225.974 586.711 225.974C585.679 225.974 584.853 226.236 584.214 226.773C583.575 227.31 583.255 227.978 583.255 228.806C583.255 229.837 583.879 230.709 584.882 231.188V231.217C583.619 231.682 582.804 232.786 582.804 233.991C582.804 234.877 583.168 235.618 583.894 236.198C584.619 236.779 585.564 237.07 586.711 237.07ZM588.555 228.966C588.555 229.881 587.844 230.563 586.696 230.563C585.549 230.563 584.809 229.881 584.809 228.966C584.809 228.037 585.578 227.369 586.696 227.369C587.815 227.369 588.555 228.037 588.555 228.966ZM586.711 235.603C585.376 235.603 584.46 234.833 584.46 233.773C584.46 232.742 585.347 232.001 586.696 232.001C588.048 232.001 588.933 232.742 588.933 233.773C588.933 234.833 588.003 235.603 586.711 235.603Z" fill="#38393E"/>
<path d="M589.035 202.704C590.182 202.065 590.777 200.932 591.083 199.654C591.418 198.376 591.418 196.895 591.083 195.617C590.777 194.339 590.182 193.206 589.035 192.567C588.468 192.248 587.83 192.088 587.09 192.088C586.348 192.088 585.709 192.248 585.143 192.567C582.964 193.845 582.515 197.069 583.082 199.654C583.415 200.932 584.024 202.065 585.143 202.704C585.709 203.024 586.348 203.183 587.09 203.183C587.83 203.183 588.468 203.024 589.035 202.704ZM587.09 201.615C585.304 201.586 584.518 199.828 584.547 197.636C584.547 196.474 584.752 195.515 585.172 194.775C585.593 194.034 586.232 193.656 587.09 193.656C587.945 193.656 588.586 194.034 589.006 194.775C589.428 195.515 589.645 196.474 589.645 197.636C589.645 198.812 589.428 199.77 589.006 200.511C588.586 201.252 587.945 201.615 587.09 201.615Z" fill="#38393E"/>
<path d="M705.262 186.242C706.41 186.242 707.34 185.952 708.051 185.371C708.778 184.79 709.14 184.049 709.14 183.163C709.14 181.958 708.328 180.854 707.05 180.404V180.36C708.08 179.895 708.692 179.01 708.692 177.979C708.692 177.151 708.371 176.483 707.732 175.945C707.108 175.408 706.279 175.147 705.262 175.147C704.233 175.147 703.404 175.408 702.765 175.945C702.127 176.483 701.806 177.151 701.806 177.979C701.806 179.01 702.431 179.881 703.433 180.36V180.389C702.17 180.854 701.356 181.958 701.356 183.163C701.356 184.049 701.72 184.79 702.445 185.371C703.173 185.952 704.115 186.242 705.262 186.242ZM707.108 178.138C707.108 179.053 706.395 179.736 705.248 179.736C704.101 179.736 703.361 179.053 703.361 178.138C703.361 177.209 704.13 176.541 705.248 176.541C706.366 176.541 707.108 177.209 707.108 178.138ZM705.262 184.775C703.927 184.775 703.011 184.006 703.011 182.945C703.011 181.914 703.898 181.174 705.248 181.174C706.6 181.174 707.484 181.914 707.484 182.945C707.484 184.006 706.556 184.775 705.262 184.775Z" fill="#38393E"/>
<path d="M645.621 185.763C646.768 185.124 647.363 183.991 647.667 182.713C648.002 181.435 648.002 179.954 647.667 178.676C647.363 177.397 646.768 176.265 645.621 175.626C645.054 175.306 644.416 175.147 643.674 175.147C642.934 175.147 642.295 175.306 641.729 175.626C639.55 176.904 639.099 180.128 639.666 182.713C640.001 183.991 640.61 185.124 641.729 185.763C642.295 186.082 642.934 186.242 643.674 186.242C644.416 186.242 645.054 186.082 645.621 185.763ZM643.674 184.674C641.888 184.644 641.104 182.887 641.133 180.694C641.133 179.532 641.336 178.574 641.758 177.833C642.179 177.093 642.818 176.715 643.674 176.715C644.531 176.715 645.17 177.093 645.592 177.833C646.014 178.574 646.231 179.532 646.231 180.694C646.231 181.871 646.014 182.829 645.592 183.57C645.17 184.31 644.531 184.674 643.674 184.674Z" fill="#38393E"/>
<path d="M470.578 186.242C471.725 186.242 472.654 185.952 473.367 185.371C474.092 184.79 474.456 184.049 474.456 183.163C474.456 181.958 473.642 180.854 472.364 180.404V180.36C473.396 179.895 474.005 179.01 474.005 177.979C474.005 177.151 473.685 176.483 473.046 175.945C472.422 175.408 471.593 175.147 470.578 175.147C469.547 175.147 468.718 175.408 468.079 175.945C467.441 176.483 467.12 177.151 467.12 177.979C467.12 179.01 467.744 179.881 468.747 180.36V180.389C467.484 180.854 466.672 181.958 466.672 183.163C466.672 184.049 467.033 184.79 467.761 185.371C468.486 185.952 469.431 186.242 470.578 186.242ZM472.422 178.138C472.422 179.053 471.711 179.736 470.564 179.736C469.415 179.736 468.675 179.053 468.675 178.138C468.675 177.209 469.446 176.541 470.564 176.541C471.682 176.541 472.422 177.209 472.422 178.138ZM470.578 184.775C469.241 184.775 468.327 184.006 468.327 182.945C468.327 181.914 469.212 181.174 470.564 181.174C471.914 181.174 472.8 181.914 472.8 182.945C472.8 184.006 471.87 184.775 470.578 184.775Z" fill="#38393E"/>
<path d="M532.442 185.763C533.589 185.124 534.184 183.991 534.49 182.713C534.823 181.435 534.823 179.954 534.49 178.676C534.184 177.397 533.589 176.265 532.442 175.626C531.875 175.306 531.237 175.147 530.497 175.147C529.755 175.147 529.116 175.306 528.55 175.626C526.371 176.904 525.92 180.128 526.487 182.713C526.822 183.991 527.431 185.124 528.55 185.763C529.116 186.082 529.755 186.242 530.497 186.242C531.237 186.242 531.875 186.082 532.442 185.763ZM530.497 184.674C528.709 184.644 527.925 182.887 527.954 180.694C527.954 179.532 528.157 178.574 528.579 177.833C529 177.093 529.639 176.715 530.497 176.715C531.352 176.715 531.991 177.093 532.413 177.833C532.835 178.574 533.052 179.532 533.052 180.694C533.052 181.871 532.835 182.829 532.413 183.57C531.991 184.31 531.352 184.674 530.497 184.674Z" fill="#38393E"/>
<path d="M506.695 157.442V165.491H508.175V162.648H509.484C510.453 162.648 511.172 162.398 511.65 161.908C512.142 161.417 512.38 160.796 512.38 160.067C512.38 159.337 512.152 158.727 511.683 158.215C511.216 157.703 510.53 157.442 509.604 157.442H506.695ZM508.175 161.287V158.825H509.637C510.41 158.825 510.867 159.359 510.867 160.045C510.867 160.731 510.397 161.287 509.527 161.287H508.175ZM519.308 165.491L516.226 157.442H515.083L511.968 165.491H513.547L514.211 163.661H517.066L517.729 165.491H519.308ZM516.64 162.322H514.647L515.65 159.566L516.64 162.322ZM523.159 165.491C524.366 165.491 525.325 165.132 526.012 164.413C526.708 163.694 527.057 162.714 527.057 161.483C527.057 160.23 526.721 159.25 526.034 158.531C525.348 157.801 524.41 157.442 523.223 157.442H520.118V165.491H523.159ZM521.601 158.869H523.223C523.953 158.869 524.509 159.119 524.912 159.609C525.315 160.099 525.511 160.709 525.511 161.45C525.511 162.202 525.305 162.833 524.902 163.324C524.498 163.814 523.942 164.064 523.213 164.064H521.601V158.869ZM531.291 165.491C532.5 165.491 533.457 165.132 534.143 164.413C534.842 163.694 535.189 162.714 535.189 161.483C535.189 160.23 534.852 159.25 534.166 158.531C533.48 157.801 532.543 157.442 531.355 157.442H528.252V165.491H531.291ZM529.732 158.869H531.355C532.084 158.869 532.64 159.119 533.044 159.609C533.447 160.099 533.643 160.709 533.643 161.45C533.643 162.202 533.436 162.833 533.033 163.324C532.63 163.814 532.074 164.064 531.344 164.064H529.732V158.869ZM536.384 165.491H537.876V157.442H536.384V165.491ZM544.799 162.605L540.398 157.442H539.505V165.491H540.977V160.372L545.301 165.491H546.27V157.442H544.799V162.605ZM551.607 165.611C553.034 165.611 554.253 165.066 555.278 163.988V160.731H551.574V162.038H553.906V163.258C553.37 163.814 552.511 164.184 551.651 164.184C550.878 164.184 550.224 163.923 549.712 163.4C549.199 162.877 548.949 162.234 548.949 161.461C548.949 160.677 549.21 160.023 549.722 159.511C550.245 158.999 550.898 158.738 551.671 158.738C552.566 158.738 553.327 159.054 553.949 159.696L554.939 158.651C554.21 157.856 552.98 157.3 551.671 157.3C550.485 157.3 549.472 157.692 548.656 158.476C547.839 159.261 547.424 160.263 547.424 161.472C547.424 162.67 547.816 163.661 548.6 164.445C549.396 165.219 550.398 165.611 551.607 165.611Z" fill="#B0B0BB"/>
<path d="M454.923 132.814V128.043L457.364 131.572H457.854L460.293 128.043V132.814H461.775V124.764H460.826L457.614 129.459L454.389 124.764H453.453V132.814H454.923ZM469.907 132.814L466.825 124.764H465.682L462.565 132.814H464.146L464.809 130.984H467.664L468.327 132.814H469.907ZM467.238 129.644H465.245L466.248 126.888L467.238 129.644ZM476.752 132.814L474.725 129.622C475.847 129.263 476.413 128.326 476.413 127.281C476.413 126.573 476.186 125.984 475.717 125.494C475.248 125.004 474.584 124.764 473.712 124.764H470.717V132.814H472.199V129.796H473.189L474.987 132.814H476.752ZM473.712 126.148C474.454 126.148 474.888 126.649 474.888 127.291C474.888 127.945 474.454 128.457 473.549 128.457H472.199V126.148H473.712ZM481.393 132.934C482.819 132.934 484.041 132.389 485.064 131.311V128.054H481.36V129.361H483.691V130.581C483.158 131.136 482.298 131.507 481.436 131.507C480.663 131.507 480.01 131.245 479.497 130.723C478.987 130.2 478.735 129.557 478.735 128.784C478.735 127.999 478.997 127.346 479.51 126.834C480.031 126.322 480.686 126.061 481.459 126.061C482.352 126.061 483.115 126.376 483.735 127.019L484.727 125.973C483.997 125.178 482.765 124.623 481.459 124.623C480.271 124.623 479.258 125.015 478.441 125.799C477.625 126.583 477.211 127.585 477.211 128.794C477.211 129.993 477.602 130.984 478.387 131.768C479.181 132.541 480.184 132.934 481.393 132.934ZM486.29 132.814H487.782V124.764H486.29V132.814ZM494.707 129.927L490.306 124.764H489.413V132.814H490.883V127.694L495.207 132.814H496.176V124.764H494.707V129.927Z" fill="#B0B0BB"/>
</g>
<mask id="mask2_7_28927" style="mask-type:alpha" maskUnits="userSpaceOnUse" x="156" y="232" width="345" height="209">
<path d="M500.01 232.232H156.887V441H500.01V232.232Z" fill="url(#paint1_linear_7_28927)"/>
</mask>
<g mask="url(#mask2_7_28927)">
<g filter="url(#filter1_d_7_28927)">
<path d="M478.989 250.835H177.088C167.072 250.835 158.954 258.954 158.954 268.969V403.123C158.954 413.138 167.072 421.257 177.088 421.257H478.989C489.004 421.257 497.123 413.138 497.123 403.123V268.969C497.123 258.954 489.004 250.835 478.989 250.835Z" fill="white"/>
<path d="M478.989 251.869H177.088C167.643 251.869 159.987 259.525 159.987 268.969V403.123C159.987 412.568 167.643 420.224 177.088 420.224H478.989C488.433 420.224 496.089 412.568 496.089 403.123V268.969C496.089 259.525 488.433 251.869 478.989 251.869Z" stroke="#E9E9EC" stroke-width="2.06701"/>
</g>
<path d="M189.552 278.262C190.502 277.936 191.126 276.968 191.126 275.924C191.126 275.162 190.845 274.49 190.268 273.915C189.692 273.339 188.897 273.057 187.869 273.057H182.975V284.573H188.102C189.209 284.573 190.097 284.246 190.751 283.607C191.406 282.952 191.733 282.159 191.733 281.222C191.733 279.835 190.97 278.636 189.552 278.262ZM187.526 274.943C188.445 274.943 188.991 275.536 188.991 276.237C188.991 276.985 188.445 277.607 187.448 277.607H185.079V274.943H187.526ZM185.079 282.673V279.416H187.697C188.881 279.416 189.536 280.147 189.536 281.067C189.536 281.925 188.866 282.673 187.697 282.673H185.079ZM192.91 280.335C192.91 281.596 193.331 282.657 194.173 283.514C195.03 284.37 196.105 284.792 197.429 284.792C198.754 284.792 199.83 284.37 200.671 283.514C201.528 282.657 201.949 281.596 201.949 280.335C201.949 279.089 201.528 278.043 200.671 277.187C199.83 276.33 198.754 275.893 197.429 275.893C196.105 275.893 195.03 276.33 194.173 277.187C193.331 278.043 192.91 279.089 192.91 280.335ZM199.907 280.335C199.907 281.053 199.674 281.66 199.191 282.159C198.707 282.657 198.131 282.907 197.429 282.907C196.728 282.907 196.152 282.657 195.669 282.159C195.185 281.66 194.952 281.053 194.952 280.335C194.952 279.633 195.185 279.025 195.669 278.527C196.152 278.029 196.728 277.779 197.429 277.779C198.131 277.779 198.707 278.029 199.191 278.527C199.674 279.025 199.907 279.633 199.907 280.335ZM205.57 284.573V280.443C205.57 278.684 206.442 277.841 207.705 277.841C208.016 277.841 208.344 277.905 208.686 278.012L208.858 276.065C208.546 275.955 208.203 275.893 207.845 275.893C206.801 275.893 206.006 276.361 205.492 277.28V276.113H203.544V284.573H205.57ZM216.082 277.187C215.381 276.33 214.492 275.91 213.417 275.91C212.233 275.91 211.235 276.33 210.425 277.187C209.63 278.043 209.225 279.089 209.225 280.335C209.225 281.596 209.63 282.657 210.425 283.514C211.22 284.356 212.233 284.775 213.432 284.775C214.523 284.775 215.427 284.339 216.128 283.467V284.573H218.108V272.731H216.082V277.187ZM213.713 282.921C212.981 282.921 212.388 282.673 211.937 282.173C211.485 281.675 211.251 281.067 211.251 280.335C211.251 279.618 211.485 279.01 211.937 278.512C212.388 278.012 212.981 277.764 213.713 277.764C214.446 277.764 215.038 278.012 215.49 278.512C215.957 279.01 216.191 279.618 216.191 280.335C216.191 281.067 215.957 281.675 215.505 282.173C215.053 282.673 214.446 282.921 213.713 282.921ZM228.312 280.164C228.312 278.853 227.923 277.826 227.128 277.061C226.349 276.299 225.351 275.91 224.12 275.91C222.827 275.91 221.767 276.33 220.941 277.171C220.131 277.998 219.726 279.056 219.726 280.335C219.726 282.578 221.128 284.761 224.307 284.761C225.71 284.761 226.941 284.37 227.985 283.591L227.175 282.142C226.349 282.719 225.414 283.014 224.385 283.014C222.936 283.014 222.063 282.237 221.799 281.067H228.25C228.297 280.693 228.312 280.397 228.312 280.164ZM224.12 277.607C225.289 277.607 226.146 278.341 226.318 279.525H221.799C222.063 278.341 222.936 277.607 224.12 277.607ZM231.913 284.573V280.443C231.913 278.684 232.786 277.841 234.048 277.841C234.36 277.841 234.687 277.905 235.03 278.012L235.201 276.065C234.89 275.955 234.547 275.893 234.188 275.893C233.144 275.893 232.349 276.361 231.835 277.28V276.113H229.887V284.573H231.913Z" fill="black"/>
<path d="M291.063 329.014C292.069 329.014 292.9 328.741 293.541 328.195C294.18 327.637 294.506 326.93 294.506 326.072C294.506 325.037 293.989 324.233 292.968 323.674C292.722 323.538 292.315 323.335 291.728 323.075C291.143 322.804 290.775 322.612 290.6 322.517C290.039 322.205 289.754 321.796 289.754 321.318C289.754 320.57 290.38 320.094 291.253 320.094C292.084 320.094 292.778 320.433 293.336 321.128L294.302 320.053C293.526 319.086 292.505 318.608 291.238 318.608C290.3 318.608 289.537 318.881 288.95 319.412C288.365 319.943 288.08 320.611 288.08 321.401C288.08 322.409 288.582 323.226 289.605 323.838C289.864 323.989 290.259 324.179 290.763 324.41C291.28 324.627 291.621 324.778 291.784 324.859C292.45 325.214 292.778 325.648 292.778 326.153C292.778 326.916 292.096 327.529 291.063 327.529C290.068 327.529 289.128 327.011 288.57 325.989L287.507 327.011C288.229 328.305 289.591 329.014 291.063 329.014ZM300.286 327.242C299.823 327.515 299.388 327.651 298.994 327.651C298.243 327.651 297.863 327.188 297.863 326.248V322.79H300.395V321.51H297.863V318.908H296.379V321.51H295.097V322.79H296.364V326.221C296.364 328.032 297.181 329.026 298.775 329.026C299.579 329.026 300.259 328.821 300.804 328.414L300.286 327.242ZM304.895 326.806L302.743 321.51H301.015L304.2 328.794L303.969 329.34C303.601 330.171 303.126 330.593 302.526 330.593C302.268 330.593 301.954 330.51 301.615 330.361L301.396 331.655C301.71 331.86 302.131 331.967 302.648 331.967C303.901 331.967 304.732 331.246 305.387 329.516L308.423 321.51H306.776L304.895 326.806ZM311.069 318.528H309.571V328.85H311.069V318.528ZM319.92 325.037C319.92 323.894 319.579 322.994 318.911 322.327C318.246 321.659 317.374 321.333 316.326 321.333C315.222 321.333 314.31 321.7 313.616 322.422C312.921 323.143 312.58 324.057 312.58 325.159C312.58 327.093 313.765 329.014 316.516 329.014C317.754 329.014 318.94 328.551 319.689 327.992L319.062 326.889C318.409 327.366 317.4 327.678 316.569 327.678C315.154 327.678 314.35 326.903 314.132 325.758H319.866C319.906 325.485 319.92 325.241 319.92 325.037ZM316.326 322.626C317.427 322.626 318.285 323.375 318.409 324.532H314.132C314.35 323.389 315.195 322.626 316.326 322.626Z" fill="#7D7D88"/>
<path d="M462.754 306.436H348.788C344.222 306.436 340.52 310.137 340.52 314.704V334.481C340.52 339.047 344.222 342.749 348.788 342.749H462.754C467.32 342.749 471.022 339.047 471.022 334.481V314.704C471.022 310.137 467.32 306.436 462.754 306.436Z" fill="#F0F2F5"/>
<g filter="url(#filter2_d_7_28927)">
<path d="M366.62 309.84H350.733C346.973 309.84 343.924 312.888 343.924 316.649V332.536C343.924 336.296 346.973 339.345 350.733 339.345H366.62C370.381 339.345 373.429 336.296 373.429 332.536V316.649C373.429 312.888 370.381 309.84 366.62 309.84Z" fill="white"/>
</g>
<path d="M291.794 376.511L294.273 369.293L296.763 376.511H297.811L301.216 366.447H299.529L297.268 373.624L294.667 366.447H293.837L291.29 373.624L288.987 366.447H287.299L290.717 376.511H291.794ZM303.109 368.204C303.667 368.204 304.103 367.768 304.103 367.183C304.103 366.625 303.667 366.189 303.109 366.189C302.524 366.189 302.076 366.625 302.076 367.183C302.076 367.768 302.524 368.204 303.109 368.204ZM303.831 369.171H302.334V376.511H303.831V369.171ZM311.443 370.192C310.776 369.388 309.959 368.994 308.992 368.994C307.944 368.994 307.072 369.362 306.377 370.11C305.683 370.846 305.329 371.757 305.329 372.834C305.329 373.923 305.683 374.835 306.377 375.585C307.072 376.319 307.956 376.687 309.004 376.687C309.998 376.687 310.829 376.292 311.47 375.49V376.511H312.954V366.189H311.443V370.192ZM311.551 372.834C311.551 373.529 311.334 374.128 310.898 374.604C310.461 375.081 309.891 375.312 309.196 375.312C308.502 375.312 307.929 375.081 307.493 374.604C307.057 374.128 306.84 373.529 306.84 372.834C306.84 372.14 307.057 371.567 307.493 371.092C307.929 370.614 308.502 370.37 309.196 370.37C309.891 370.37 310.461 370.614 310.898 371.092C311.334 371.567 311.551 372.14 311.551 372.834ZM319.327 374.903C318.864 375.176 318.428 375.312 318.033 375.312C317.285 375.312 316.902 374.849 316.902 373.909V370.451H319.434V369.171H316.902V366.569H315.418V369.171H314.139V370.451H315.404V373.882C315.404 375.693 316.222 376.687 317.814 376.687C318.618 376.687 319.3 376.484 319.844 376.075L319.327 374.903ZM322.355 376.511V372.481C322.355 371.228 323.132 370.37 324.263 370.37C325.311 370.37 326.02 371.118 326.02 372.466V376.511H327.516V372.045C327.516 371.05 327.246 370.302 326.685 369.771C326.127 369.24 325.447 368.981 324.643 368.981C323.61 368.981 322.75 369.43 322.316 370.097V366.189H320.859V376.511H322.355Z" fill="#7D7D88"/>
<path d="M462.749 354.099H348.783C344.217 354.099 340.515 357.8 340.515 362.367V382.144C340.515 386.71 344.217 390.412 348.783 390.412H462.749C467.315 390.412 471.017 386.71 471.017 382.144V362.367C471.017 357.8 467.315 354.099 462.749 354.099Z" fill="#F0F2F5"/>
<path d="M449.573 368.638C448.689 368.638 447.951 368.987 447.366 369.698V368.801H445.743V378.363H447.378V374.73C447.963 375.403 448.701 375.74 449.561 375.74C450.522 375.74 451.322 375.403 451.959 374.717C452.595 374.031 452.92 373.181 452.92 372.183C452.92 371.197 452.608 370.36 451.971 369.674C451.334 368.987 450.534 368.638 449.573 368.638ZM447.339 372.195C447.339 371.621 447.527 371.135 447.889 370.736C448.25 370.335 448.726 370.137 449.313 370.137C449.9 370.137 450.373 370.335 450.735 370.736C451.097 371.123 451.285 371.608 451.285 372.195C451.285 372.782 451.097 373.27 450.735 373.669C450.373 374.056 449.9 374.256 449.313 374.256C448.726 374.256 448.25 374.056 447.889 373.669C447.527 373.27 447.339 372.782 447.339 372.195ZM457.455 372.158L459.602 368.801H457.755L456.444 370.947L455.208 368.801H453.337L455.371 372.109L453.1 375.579H454.985L456.407 373.283L457.794 375.579H459.664L457.455 372.158Z" fill="#B0B0BB"/>
<path d="M356.407 377.809C357.443 377.809 358.286 377.537 358.927 376.993C359.58 376.433 359.906 375.726 359.906 374.868C359.906 373.628 359.185 372.675 357.945 372.39V372.334C358.966 372.007 359.675 371.123 359.675 370.048C359.675 369.297 359.375 368.671 358.79 368.169C358.205 367.665 357.47 367.406 356.556 367.406C355.398 367.406 354.228 367.855 353.478 368.603L354.27 369.707C355.018 369.149 355.739 368.861 356.407 368.861C357.345 368.861 358.081 369.421 358.081 370.306C358.081 371.191 357.36 371.79 356.312 371.79H355.113V373.206H356.366C357.496 373.206 358.271 373.859 358.271 374.8C358.271 375.726 357.538 376.367 356.353 376.367C355.603 376.367 354.801 376.094 353.941 375.548L353.247 376.815C354.255 377.483 355.303 377.809 356.407 377.809Z" fill="#38393E"/>
<path fill-rule="evenodd" clip-rule="evenodd" d="M357.891 324.528L354.143 328.274L354.871 329.001L358.616 325.254L362.364 329.001L363.091 328.274L359.344 324.528L363.091 320.781L362.364 320.053L358.616 323.801L354.871 320.053L354.143 320.781L357.891 324.528Z" fill="#A7A7A7" stroke="black" stroke-width="1.1348"/>
<mask id="mask3_7_28927" style="mask-type:luminance" maskUnits="userSpaceOnUse" x="377" y="310" width="28" height="29">
<path d="M398.901 310.975H383.014C379.88 310.975 377.34 313.515 377.34 316.649V332.536C377.34 335.67 379.88 338.21 383.014 338.21H398.901C402.034 338.21 404.575 335.67 404.575 332.536V316.649C404.575 313.515 402.034 310.975 398.901 310.975Z" fill="white"/>
</mask>
<g mask="url(#mask3_7_28927)">
<path d="M383.016 323.455H400.037V325.725H383.016V323.455Z" fill="#B0B0BB"/>
</g>
<path d="M412.51 323.453H417.049V325.723H412.51V323.453Z" fill="#B0B0BB"/>
<path d="M419.316 323.453H423.855V325.723H419.316V323.453Z" fill="#B0B0BB"/>
<path d="M430.669 323.453H426.129V325.723H430.669V323.453Z" fill="#B0B0BB"/>
<path d="M446.553 323.453H444.284V325.723H446.553V323.453Z" fill="#B0B0BB"/>
<path d="M448.829 323.453H451.099V325.723H448.829V323.453Z" fill="#B0B0BB"/>
<path d="M455.628 323.453H453.358V325.723H455.628V323.453Z" fill="#B0B0BB"/>
<path d="M457.903 323.453H460.172V325.723H457.903V323.453Z" fill="#B0B0BB"/>
<path d="M256.423 306.438H190.853C185.771 306.438 181.65 310.558 181.65 315.64V381.21C181.65 386.292 185.771 390.413 190.853 390.413H256.423C261.505 390.413 265.625 386.292 265.625 381.21V315.64C265.625 310.558 261.505 306.438 256.423 306.438Z" fill="#F0F2F5"/>
<path d="M232.266 334.621H215.011C212.152 334.621 209.834 336.939 209.834 339.798V357.053C209.834 359.912 212.152 362.23 215.011 362.23H232.266C235.125 362.23 237.442 359.912 237.442 357.053V339.798C237.442 336.939 235.125 334.621 232.266 334.621Z" fill="#F0F2F5" stroke="#D3D3DA" stroke-width="5.75172"/>
<path d="M265.626 316.793V380.062H264.474C261.934 380.062 259.873 378.002 259.873 375.459V321.395C259.873 318.852 261.934 316.793 264.474 316.793H265.626Z" fill="#D3D3DA"/>
<path d="M192.009 306.438H255.278V307.587C255.278 310.129 253.218 312.19 250.677 312.19H196.61C194.069 312.19 192.009 310.129 192.009 307.587V306.438Z" fill="#D3D3DA"/>
<path d="M181.65 316.793V380.062H182.801C185.342 380.062 187.402 378.002 187.402 375.459V321.395C187.402 318.852 185.342 316.793 182.801 316.793H181.65Z" fill="#DE5763"/>
<path d="M192.009 390.412H255.278V389.263C255.278 386.72 253.218 384.662 250.677 384.662H196.61C194.069 384.662 192.009 386.72 192.009 389.263V390.412Z" fill="#D3D3DA"/>
</g>
<g filter="url(#filter3_d_7_28927)">
<path d="M63.8711 80.2989H349.118V180.265H63.8711V80.2989Z" fill="white"/>
</g>
<path d="M94.3934 150.153H317.64C321.206 150.153 323.963 146.873 323.963 143.177V119.047C323.963 115.351 321.206 112.071 317.64 112.071H94.3934C90.8279 112.071 88.0713 115.351 88.0713 119.047V143.177C88.0713 146.873 90.8279 150.153 94.3934 150.153Z" fill="#F0F2F5" stroke="#E2E4EA" stroke-width="2.06701"/>
<path d="M312.669 119.267H296.682C294.475 119.267 292.685 121.056 292.685 123.264V139.251C292.685 141.458 294.475 143.248 296.682 143.248H312.669C314.877 143.248 316.666 141.458 316.666 139.251V123.264C316.666 121.056 314.877 119.267 312.669 119.267Z" fill="#E2E4EA"/>
<path d="M136.093 135.358H104.899C102.495 135.358 100.732 133.438 100.732 131.199C100.732 128.8 102.655 127.041 104.899 127.041H136.093C138.496 127.041 140.259 128.96 140.259 131.199C140.42 133.438 138.496 135.358 136.093 135.358Z" fill="#CDCED6"/>
<path d="M201.6 134.993H151.136C148.732 134.993 146.969 133.074 146.969 130.834C146.969 128.435 148.893 126.676 151.136 126.676H201.6C204.004 126.676 205.767 128.595 205.767 130.834C205.927 133.074 204.004 134.993 201.6 134.993Z" fill="#CDCED6"/>
<path d="M300.763 129.739L304.965 133.898L309.165 129.739" stroke="#65656D" stroke-width="2.49507" stroke-linecap="round" stroke-linejoin="round"/>
<path d="M63.8711 54.461V211.554" stroke="url(#paint2_linear_7_28927)" stroke-width="3.10052"/>
<path d="M349.118 54.461V211.554" stroke="url(#paint3_linear_7_28927)" stroke-width="3.10052"/>
<path d="M37 78.2312L370.822 78.2316" stroke="url(#paint4_linear_7_28927)" stroke-width="3.10052"/>
<path d="M37 181.582L370.822 181.583" stroke="url(#paint5_linear_7_28927)" stroke-width="3.10052"/>
</g>
<defs>
<filter id="filter0_d_7_28927" x="406.993" y="54.4684" width="359.66" height="458.876" filterUnits="userSpaceOnUse" color-interpolation-filters="sRGB">
<feFlood flood-opacity="0" result="BackgroundImageFix"/>
<feColorMatrix in="SourceAlpha" type="matrix" values="0 0 0 0 0 0 0 0 0 0 0 0 0 0 0 0 0 0 127 0" result="hardAlpha"/>
<feOffset dy="8.26804"/>
<feGaussianBlur stdDeviation="4.13402"/>
<feComposite in2="hardAlpha" operator="out"/>
<feColorMatrix type="matrix" values="0 0 0 0 0.103646 0 0 0 0 0.105781 0 0 0 0 0.125 0 0 0 0.08 0"/>
<feBlend mode="normal" in2="BackgroundImageFix" result="effect1_dropShadow_7_28927"/>
<feBlend mode="normal" in="SourceGraphic" in2="effect1_dropShadow_7_28927" result="shape"/>
</filter>
<filter id="filter1_d_7_28927" x="150.686" y="250.835" width="354.705" height="186.958" filterUnits="userSpaceOnUse" color-interpolation-filters="sRGB">
<feFlood flood-opacity="0" result="BackgroundImageFix"/>
<feColorMatrix in="SourceAlpha" type="matrix" values="0 0 0 0 0 0 0 0 0 0 0 0 0 0 0 0 0 0 127 0" result="hardAlpha"/>
<feOffset dy="8.26804"/>
<feGaussianBlur stdDeviation="4.13402"/>
<feComposite in2="hardAlpha" operator="out"/>
<feColorMatrix type="matrix" values="0 0 0 0 0.103646 0 0 0 0 0.105781 0 0 0 0 0.125 0 0 0 0.08 0"/>
<feBlend mode="normal" in2="BackgroundImageFix" result="effect1_dropShadow_7_28927"/>
<feBlend mode="normal" in="SourceGraphic" in2="effect1_dropShadow_7_28927" result="shape"/>
</filter>
<filter id="filter2_d_7_28927" x="339.79" y="307.773" width="37.7727" height="37.7727" filterUnits="userSpaceOnUse" color-interpolation-filters="sRGB">
<feFlood flood-opacity="0" result="BackgroundImageFix"/>
<feColorMatrix in="SourceAlpha" type="matrix" values="0 0 0 0 0 0 0 0 0 0 0 0 0 0 0 0 0 0 127 0" result="hardAlpha"/>
<feOffset dy="2.06701"/>
<feGaussianBlur stdDeviation="2.06701"/>
<feComposite in2="hardAlpha" operator="out"/>
<feColorMatrix type="matrix" values="0 0 0 0 0.0559028 0 0 0 0 0.0702916 0 0 0 0 0.145833 0 0 0 0.15 0"/>
<feBlend mode="normal" in2="BackgroundImageFix" result="effect1_dropShadow_7_28927"/>
<feBlend mode="normal" in="SourceGraphic" in2="effect1_dropShadow_7_28927" result="shape"/>
</filter>
<filter id="filter3_d_7_28927" x="-68.4176" y="-51.9898" width="549.825" height="364.543" filterUnits="userSpaceOnUse" color-interpolation-filters="sRGB">
<feFlood flood-opacity="0" result="BackgroundImageFix"/>
<feColorMatrix in="SourceAlpha" type="matrix" values="0 0 0 0 0 0 0 0 0 0 0 0 0 0 0 0 0 0 127 0" result="hardAlpha"/>
<feOffset/>
<feGaussianBlur stdDeviation="66.1443"/>
<feComposite in2="hardAlpha" operator="out"/>
<feColorMatrix type="matrix" values="0 0 0 0 1 0 0 0 0 0.333333 0 0 0 0 0.419608 0 0 0 0.28 0"/>
<feBlend mode="normal" in2="BackgroundImageFix" result="effect1_dropShadow_7_28927"/>
<feBlend mode="normal" in="SourceGraphic" in2="effect1_dropShadow_7_28927" result="shape"/>
</filter>
<linearGradient id="paint0_linear_7_28927" x1="586.825" y1="174.333" x2="586.825" y2="422.397" gradientUnits="userSpaceOnUse">
<stop stop-color="#D9D9D9"/>
<stop offset="1" stop-color="#D9D9D9" stop-opacity="0"/>
</linearGradient>
<linearGradient id="paint1_linear_7_28927" x1="328.449" y1="347.985" x2="328.449" y2="441" gradientUnits="userSpaceOnUse">
<stop stop-color="#D9D9D9"/>
<stop offset="1" stop-color="#D9D9D9" stop-opacity="0"/>
</linearGradient>
<linearGradient id="paint2_linear_7_28927" x1="64.171" y1="210.399" x2="64.171" y2="55.6161" gradientUnits="userSpaceOnUse">
<stop stop-color="#FF556B" stop-opacity="0"/>
<stop offset="0.150044" stop-color="#FF556B"/>
<stop offset="0.872765" stop-color="#FF556B"/>
<stop offset="1" stop-color="#FF556B" stop-opacity="0"/>
</linearGradient>
<linearGradient id="paint3_linear_7_28927" x1="349.418" y1="210.399" x2="349.418" y2="55.6161" gradientUnits="userSpaceOnUse">
<stop stop-color="#FF556B" stop-opacity="0"/>
<stop offset="0.150044" stop-color="#FF556B"/>
<stop offset="0.872765" stop-color="#FF556B"/>
<stop offset="1" stop-color="#FF556B" stop-opacity="0"/>
</linearGradient>
<linearGradient id="paint4_linear_7_28927" x1="371.874" y1="78.2318" x2="38.0531" y2="78.2318" gradientUnits="userSpaceOnUse">
<stop stop-color="#FF556B" stop-opacity="0"/>
<stop offset="0.0611854" stop-color="#DE5763"/>
<stop offset="0.933744" stop-color="#DE5763"/>
<stop offset="1" stop-color="#FF556B" stop-opacity="0"/>
</linearGradient>
<linearGradient id="paint5_linear_7_28927" x1="371.874" y1="181.583" x2="38.0531" y2="181.583" gradientUnits="userSpaceOnUse">
<stop stop-color="#FF556B" stop-opacity="0"/>
<stop offset="0.0611854" stop-color="#DE5763"/>
<stop offset="0.933744" stop-color="#DE5763"/>
<stop offset="1" stop-color="#FF556B" stop-opacity="0"/>
</linearGradient>
<clipPath id="clip0_7_28927">
<rect width="810" height="482" fill="white"/>
</clipPath>
</defs>
</svg>
