<svg width="810" height="482" viewBox="0 0 810 482" fill="none" xmlns="http://www.w3.org/2000/svg">
<g clip-path="url(#clip0_7_28707)">
<g clip-path="url(#clip1_7_28707)">
<mask id="mask0_7_28707" style="mask-type:alpha" maskUnits="userSpaceOnUse" x="21" y="58" width="773" height="416">
<path d="M793.517 58.4058H21.5986V473.743H793.517V58.4058Z" fill="url(#paint0_linear_7_28707)"/>
</mask>
<g mask="url(#mask0_7_28707)">
<g filter="url(#filter0_d_7_28707)">
<path d="M273.949 250.245H139.193C129.376 250.245 121.418 258.203 121.418 268.019V323.41C121.418 333.226 129.376 341.184 139.193 341.184H273.949C283.765 341.184 291.723 333.226 291.723 323.41V268.019C291.723 258.203 283.765 250.245 273.949 250.245Z" fill="white"/>
<path d="M273.949 251.258H139.193C129.936 251.258 122.431 258.762 122.431 268.019V323.41C122.431 332.667 129.936 340.171 139.193 340.171H273.949C283.206 340.171 290.71 332.667 290.71 323.41V268.019C290.71 258.762 283.206 251.258 273.949 251.258Z" stroke="#E9E9EC" stroke-width="2.02603"/>
</g>
<g filter="url(#filter1_d_7_28707)">
<path d="M715.369 113.01H481.407C471.59 113.01 463.633 120.968 463.633 130.784V184.522C463.633 194.338 471.59 202.296 481.407 202.296H715.369C725.186 202.296 733.144 194.338 733.144 184.522V130.784C733.144 120.968 725.186 113.01 715.369 113.01Z" fill="white"/>
<path d="M715.369 114.023H481.407C472.15 114.023 464.645 121.527 464.645 130.784V184.522C464.645 193.779 472.15 201.283 481.407 201.283H715.369C724.626 201.283 732.13 193.779 732.13 184.522V130.784C732.13 121.527 724.626 114.023 715.369 114.023Z" stroke="#E9E9EC" stroke-width="2.02603"/>
</g>
<g filter="url(#filter2_d_7_28707)">
<path d="M715.369 283.316H481.407C471.59 283.316 463.633 291.274 463.633 301.09V354.827C463.633 364.644 471.59 372.602 481.407 372.602H715.369C725.186 372.602 733.144 364.644 733.144 354.827V301.09C733.144 291.274 725.186 283.316 715.369 283.316Z" fill="white"/>
<path d="M715.369 284.329H481.407C472.15 284.329 464.645 291.833 464.645 301.09V354.827C464.645 364.084 472.15 371.589 481.407 371.589H715.369C724.626 371.589 732.13 364.084 732.13 354.827V301.09C732.13 291.833 724.626 284.329 715.369 284.329Z" stroke="#E9E9EC" stroke-width="2.02603"/>
</g>
<path d="M175.881 302.484L172.308 296.736C174.304 296.017 175.302 294.321 175.302 292.404C175.302 291.086 174.863 289.989 174.004 289.09C173.146 288.192 171.888 287.732 170.252 287.732H164.603V302.484H167.557V297.115H169.313L172.427 302.484H175.881ZM170.232 290.468C171.509 290.468 172.268 291.327 172.268 292.443C172.268 293.582 171.509 294.461 169.972 294.461H167.557V290.468H170.232ZM187.922 296.795C187.922 295.099 187.403 293.782 186.386 292.804C185.367 291.825 184.05 291.327 182.472 291.327C180.796 291.327 179.439 291.866 178.381 292.943C177.322 294.021 176.804 295.379 176.804 297.036C176.804 298.612 177.303 299.97 178.32 301.068C179.339 302.166 180.796 302.723 182.713 302.723C184.508 302.723 186.086 302.225 187.464 301.228L186.345 299.25C185.407 299.889 184.009 300.349 182.832 300.349C181.114 300.349 180.057 299.571 179.657 298.033H187.822C187.881 297.593 187.922 297.174 187.922 296.795ZM182.472 293.661C183.91 293.661 184.927 294.52 185.186 295.938H179.657C179.998 294.52 181.055 293.661 182.472 293.661ZM198.181 292.804C197.284 291.825 196.166 291.327 194.828 291.327C193.252 291.327 191.933 291.866 190.876 292.923C189.818 293.981 189.279 295.318 189.279 296.935C189.279 298.551 189.777 299.87 190.797 300.928C191.814 301.986 193.112 302.504 194.709 302.504C196.105 302.504 197.223 302.044 198.062 301.106V301.665C198.062 303.422 196.824 304.68 194.668 304.68C193.392 304.68 192.113 304.261 190.855 303.402L189.757 305.519C191.216 306.577 192.891 307.095 194.747 307.095C196.524 307.095 197.983 306.577 199.099 305.559C200.218 304.54 200.777 303.142 200.777 301.406V291.606H198.181V292.804ZM192.113 296.955C192.113 296.078 192.393 295.358 192.972 294.779C193.55 294.2 194.269 293.902 195.128 293.902C195.985 293.902 196.704 294.2 197.284 294.779C197.861 295.358 198.141 296.078 198.141 296.955C198.141 297.834 197.861 298.572 197.284 299.171C196.704 299.749 195.985 300.049 195.128 300.049C194.269 300.049 193.55 299.749 192.972 299.171C192.393 298.592 192.113 297.852 192.113 296.955ZM206.022 289.888C206.681 289.23 206.681 288.073 206.022 287.433C205.364 286.774 204.207 286.774 203.546 287.433C202.888 288.073 202.888 289.23 203.546 289.888C204.207 290.547 205.364 290.547 206.022 289.888ZM206.182 291.606H203.368V302.484H206.182V291.606ZM212.321 302.764C213.62 302.764 214.677 302.445 215.455 301.785C216.254 301.127 216.653 300.288 216.653 299.271C216.653 298.073 216.035 297.155 214.817 296.515C214.517 296.357 213.638 295.997 212.202 295.458C211.563 295.239 211.243 294.919 211.243 294.461C211.243 293.96 211.742 293.541 212.481 293.541C213.379 293.541 214.217 293.902 214.977 294.619L216.373 292.804C215.376 291.764 214.098 291.246 212.56 291.246C211.343 291.246 210.346 291.545 209.606 292.165C208.869 292.783 208.488 293.561 208.488 294.52C208.488 295.798 209.108 296.736 210.366 297.334C210.605 297.453 211.063 297.654 211.762 297.913C212.461 298.173 212.88 298.333 213.061 298.412C213.579 298.653 213.839 298.971 213.839 299.35C213.839 299.97 213.2 300.409 212.341 300.409C211.243 300.409 210.107 299.83 209.327 298.892L207.829 300.669C208.927 302.065 210.425 302.764 212.321 302.764ZM225.442 299.629C224.783 300.01 224.165 300.188 223.626 300.188C222.607 300.188 222.089 299.55 222.089 298.272V293.96H225.681V291.606H222.089V287.753H219.295V291.606H217.498V293.96H219.274V298.452C219.274 301.266 220.571 302.743 223.067 302.743C224.323 302.743 225.383 302.445 226.28 301.846L225.442 299.629ZM238.019 296.795C238.019 295.099 237.501 293.782 236.484 292.804C235.464 291.825 234.148 291.327 232.571 291.327C230.894 291.327 229.536 291.866 228.479 292.943C227.421 294.021 226.902 295.379 226.902 297.036C226.902 298.612 227.401 299.97 228.418 301.068C229.437 302.166 230.894 302.723 232.81 302.723C234.607 302.723 236.184 302.225 237.561 301.228L236.443 299.25C235.505 299.889 234.107 300.349 232.93 300.349C231.214 300.349 230.156 299.571 229.757 298.033H237.92C237.981 297.593 238.019 297.174 238.019 296.795ZM232.571 293.661C234.008 293.661 235.027 294.52 235.286 295.938H229.757C230.095 294.52 231.153 293.661 232.571 293.661ZM242.77 302.484V297.314C242.77 295.059 243.828 294.021 245.426 294.021C245.826 294.021 246.263 294.1 246.723 294.24L246.962 291.545C246.523 291.385 246.085 291.306 245.645 291.306C244.308 291.306 243.309 291.886 242.651 293.063V291.606H239.956V302.484H242.77Z" fill="#151C25"/>
<path d="M505.14 164.685C507.316 164.685 509.133 163.946 510.61 162.469C512.107 160.992 512.845 159.195 512.845 157.08C512.845 154.964 512.107 153.167 510.61 151.67C509.133 150.173 507.316 149.434 505.16 149.434C503.004 149.434 501.187 150.173 499.69 151.67C498.213 153.167 497.475 154.985 497.475 157.12C497.475 159.256 498.213 161.053 499.672 162.509C501.128 163.966 502.964 164.685 505.14 164.685ZM509.771 157.08C509.792 158.417 509.352 159.535 508.454 160.433C507.555 161.332 506.457 161.77 505.16 161.77C503.863 161.77 502.765 161.332 501.866 160.433C500.988 159.535 500.549 158.417 500.549 157.08C500.549 155.742 500.988 154.604 501.886 153.706C502.786 152.809 503.863 152.349 505.16 152.349C506.457 152.349 507.535 152.809 508.434 153.706C509.332 154.604 509.771 155.722 509.771 157.08ZM517.671 164.446V158.617C517.671 157.001 518.668 155.862 520.165 155.862C521.543 155.862 522.46 156.82 522.46 158.557V164.446H525.275V157.799C525.275 156.34 524.855 155.224 524.039 154.446C523.22 153.666 522.201 153.267 521.024 153.267C519.486 153.267 518.189 154.026 517.61 155.084V153.566H514.855V164.446H517.671ZM533.81 153.287C532.493 153.287 531.395 153.806 530.498 154.825V149.275H527.681V164.446H530.417V163.089C531.314 164.167 532.433 164.706 533.81 164.706C535.348 164.706 536.645 164.167 537.682 163.089C538.721 161.991 539.24 160.633 539.24 159.017C539.24 157.4 538.721 156.042 537.682 154.944C536.645 153.846 535.348 153.287 533.81 153.287ZM530.376 158.996C530.376 158.137 530.656 157.4 531.215 156.8C531.774 156.182 532.493 155.882 533.371 155.882C534.25 155.882 534.967 156.182 535.526 156.78C536.085 157.379 536.365 158.117 536.365 158.996C536.365 159.874 536.085 160.613 535.526 161.231C534.967 161.831 534.25 162.131 533.371 162.131C532.493 162.131 531.774 161.831 531.215 161.231C530.656 160.613 530.376 159.874 530.376 158.996ZM540.632 158.996C540.632 160.613 541.171 161.97 542.269 163.069C543.367 164.167 544.763 164.726 546.461 164.726C548.157 164.726 549.554 164.167 550.653 163.069C551.751 161.97 552.29 160.613 552.29 158.996C552.29 157.4 551.751 156.042 550.653 154.944C549.554 153.826 548.157 153.267 546.461 153.267C544.763 153.267 543.367 153.826 542.269 154.944C541.171 156.042 540.632 157.4 540.632 158.996ZM544.305 161.211C543.726 160.593 543.446 159.855 543.446 158.996C543.446 158.137 543.726 157.4 544.305 156.8C544.884 156.202 545.602 155.903 546.461 155.903C547.32 155.903 548.017 156.202 548.596 156.8C549.176 157.4 549.475 158.137 549.475 158.996C549.475 159.855 549.176 160.593 548.596 161.211C548.017 161.81 547.32 162.11 546.461 162.11C545.602 162.11 544.884 161.81 544.305 161.211ZM562.556 154.863C561.597 153.806 560.44 153.287 559.083 153.287C557.545 153.287 556.246 153.826 555.229 154.904C554.212 155.961 553.692 157.319 553.692 158.956C553.692 160.593 554.192 161.97 555.209 163.069C556.228 164.167 557.525 164.706 559.083 164.706C560.459 164.706 561.617 164.205 562.556 163.188V164.446H565.23V153.566H562.556V154.863ZM562.596 158.996C562.596 159.874 562.296 160.613 561.717 161.231C561.137 161.851 560.42 162.151 559.541 162.151C558.664 162.151 557.944 161.851 557.365 161.231C556.787 160.613 556.508 159.874 556.508 158.996C556.508 158.137 556.787 157.4 557.345 156.78C557.924 156.162 558.643 155.862 559.541 155.862C560.42 155.862 561.137 156.162 561.717 156.78C562.296 157.4 562.596 158.137 562.596 158.996ZM570.575 164.446V159.276C570.575 157.019 571.634 155.982 573.231 155.982C573.63 155.982 574.069 156.063 574.527 156.202L574.766 153.506C574.329 153.348 573.889 153.267 573.45 153.267C572.112 153.267 571.114 153.846 570.455 155.023V153.566H567.76V164.446H570.575ZM583.916 154.825C583.018 153.806 581.92 153.287 580.603 153.287C579.066 153.287 577.789 153.826 576.75 154.924C575.733 156.022 575.214 157.379 575.214 158.996C575.214 160.633 575.733 161.991 576.75 163.089C577.769 164.167 579.066 164.706 580.603 164.706C581.981 164.706 583.097 164.167 583.977 163.107V164.446H586.73V149.275H583.916V154.825ZM584.056 158.996C584.056 159.894 583.776 160.633 583.217 161.251C582.66 161.851 581.941 162.151 581.041 162.151C580.144 162.151 579.424 161.851 578.847 161.251C578.288 160.633 578.008 159.894 578.008 158.996C578.008 158.117 578.288 157.379 578.847 156.78C579.424 156.162 580.144 155.862 581.041 155.862C581.941 155.862 582.66 156.162 583.217 156.78C583.776 157.379 584.056 158.117 584.056 158.996ZM591.976 151.85C592.636 151.191 592.636 150.033 591.976 149.394C591.317 148.736 590.16 148.736 589.502 149.394C588.843 150.033 588.843 151.191 589.502 151.85C590.16 152.509 591.317 152.509 591.976 151.85ZM592.136 153.566H589.321V164.446H592.136V153.566ZM597.456 164.446V158.617C597.456 157.001 598.455 155.862 599.952 155.862C601.33 155.862 602.248 156.82 602.248 158.557V164.446H605.062V157.799C605.062 156.34 604.642 155.224 603.824 154.446C603.005 153.666 601.988 153.267 600.811 153.267C599.273 153.267 597.977 154.026 597.397 155.084V153.566H594.642V164.446H597.456ZM615.794 154.764C614.894 153.785 613.778 153.287 612.439 153.287C610.862 153.287 609.545 153.826 608.488 154.883C607.43 155.941 606.891 157.28 606.891 158.897C606.891 160.514 607.39 161.831 608.407 162.888C609.426 163.946 610.722 164.465 612.319 164.465C613.717 164.465 614.835 164.007 615.674 163.069V163.628C615.674 165.384 614.436 166.64 612.28 166.64C611.002 166.64 609.726 166.221 608.468 165.364L607.369 167.479C608.826 168.537 610.504 169.056 612.359 169.056C614.136 169.056 615.593 168.537 616.711 167.52C617.83 166.501 618.389 165.105 618.389 163.368V153.566H615.794V154.764ZM609.726 158.915C609.726 158.038 610.005 157.319 610.583 156.741C611.162 156.162 611.881 155.862 612.738 155.862C613.597 155.862 614.317 156.162 614.894 156.741C615.474 157.319 615.753 158.038 615.753 158.915C615.753 159.795 615.474 160.532 614.894 161.132C614.317 161.711 613.597 162.011 612.738 162.011C611.881 162.011 611.162 161.711 610.583 161.132C610.005 160.552 609.726 159.815 609.726 158.915ZM630.561 164.685C632.178 164.685 633.477 164.266 634.474 163.427C635.473 162.588 635.971 161.511 635.971 160.194C635.971 158.557 635.132 157.339 633.457 156.52C633.078 156.34 632.478 156.081 631.659 155.742L630.203 155.104C629.405 154.705 629.005 154.225 629.005 153.646C629.005 152.788 629.723 152.229 630.902 152.229C632 152.229 633.317 152.728 634.135 153.607L635.712 151.45C634.395 150.113 632.778 149.454 630.861 149.454C629.384 149.454 628.167 149.874 627.229 150.692C626.291 151.51 625.831 152.529 625.831 153.767C625.831 155.323 626.609 156.541 628.167 157.438C628.566 157.659 629.145 157.939 629.903 158.236C630.681 158.536 631.161 158.717 631.36 158.816C632.259 159.235 632.697 159.754 632.697 160.354C632.697 161.292 631.799 161.93 630.582 161.93C629.064 161.93 627.628 161.211 626.669 159.874L624.974 161.93C626.191 163.707 628.266 164.685 630.561 164.685ZM644.614 161.592C643.953 161.97 643.336 162.151 642.797 162.151C641.78 162.151 641.259 161.511 641.259 160.234V155.923H644.853V153.566H641.259V149.714H638.465V153.566H636.668V155.923H638.445V160.412C638.445 163.229 639.743 164.706 642.237 164.706C643.496 164.706 644.553 164.406 645.451 163.806L644.614 161.592ZM657.192 158.757C657.192 157.059 656.673 155.742 655.654 154.764C654.637 153.785 653.318 153.287 651.742 153.287C650.064 153.287 648.709 153.826 647.649 154.904C646.591 155.982 646.073 157.339 646.073 158.996C646.073 160.573 646.571 161.93 647.59 163.028C648.607 164.126 650.064 164.685 651.981 164.685C653.778 164.685 655.354 164.185 656.732 163.188L655.613 161.211C654.675 161.851 653.279 162.309 652.1 162.309C650.384 162.309 649.327 161.531 648.927 159.993H657.092C657.151 159.555 657.192 159.136 657.192 158.757ZM651.742 155.623C653.178 155.623 654.197 156.48 654.456 157.898H648.927C649.266 156.48 650.325 155.623 651.742 155.623ZM665.375 153.287C663.997 153.287 662.86 153.826 661.922 154.904V153.566H659.126V168.918H661.941V163.188C662.881 164.205 664.017 164.706 665.354 164.706C666.892 164.706 668.169 164.146 669.188 163.048C670.205 161.95 670.725 160.593 670.725 158.996C670.725 157.4 670.225 156.042 669.208 154.944C668.189 153.846 666.913 153.287 665.375 153.287ZM664.876 162.131C663.997 162.131 663.28 161.831 662.721 161.231C662.161 160.633 661.882 159.894 661.882 159.017C661.882 158.137 662.161 157.4 662.721 156.8C663.28 156.202 663.997 155.903 664.876 155.903C665.774 155.903 666.493 156.202 667.052 156.8C667.611 157.4 667.889 158.137 667.889 159.017C667.889 159.894 667.611 160.633 667.052 161.231C666.493 161.831 665.774 162.131 664.876 162.131ZM676.309 153.327L677.825 155.422L680.181 153.607V164.446H683.076V149.694H680.88L676.309 153.327ZM694.274 154.863C693.316 153.806 692.157 153.287 690.799 153.287C689.264 153.287 687.965 153.826 686.948 154.904C685.929 155.961 685.41 157.319 685.41 158.956C685.41 160.593 685.909 161.97 686.928 163.069C687.945 164.167 689.243 164.706 690.799 164.706C692.177 164.706 693.334 164.205 694.274 163.188V164.446H696.948V153.566H694.274V154.863ZM694.313 158.996C694.313 159.874 694.013 160.613 693.435 161.231C692.856 161.851 692.137 162.151 691.259 162.151C690.38 162.151 689.663 161.851 689.083 161.231C688.504 160.613 688.224 159.874 688.224 158.996C688.224 158.137 688.504 157.4 689.063 156.78C689.643 156.162 690.36 155.862 691.259 155.862C692.137 155.862 692.856 156.162 693.435 156.78C694.013 157.4 694.313 158.137 694.313 158.996Z" fill="#151C25"/>
<path d="M505.14 334.931C507.316 334.931 509.133 334.191 510.61 332.714C512.107 331.237 512.845 329.442 512.845 327.325C512.845 325.21 512.107 323.413 510.61 321.916C509.133 320.418 507.316 319.681 505.16 319.681C503.004 319.681 501.187 320.418 499.69 321.916C498.213 323.413 497.475 325.23 497.475 327.366C497.475 329.501 498.213 331.298 499.672 332.755C501.128 334.212 502.964 334.931 505.14 334.931ZM509.771 327.325C509.792 328.662 509.352 329.781 508.454 330.678C507.555 331.578 506.457 332.018 505.16 332.018C503.863 332.018 502.765 331.578 501.866 330.678C500.988 329.781 500.549 328.662 500.549 327.325C500.549 325.988 500.988 324.851 501.886 323.952C502.786 323.054 503.863 322.594 505.16 322.594C506.457 322.594 507.535 323.054 508.434 323.952C509.332 324.851 509.771 325.968 509.771 327.325ZM517.671 334.692V328.863C517.671 327.246 518.668 326.108 520.165 326.108C521.543 326.108 522.46 327.066 522.46 328.802V334.692H525.274V328.044C525.274 326.588 524.855 325.469 524.039 324.691C523.22 323.911 522.201 323.512 521.024 323.512C519.486 323.512 518.189 324.272 517.61 325.33V323.812H514.855V334.692H517.671ZM533.81 323.532C532.493 323.532 531.395 324.051 530.498 325.07V319.521H527.681V334.692H530.417V333.334C531.314 334.412 532.432 334.951 533.81 334.951C535.348 334.951 536.645 334.412 537.682 333.334C538.721 332.236 539.24 330.879 539.24 329.262C539.24 327.645 538.721 326.288 537.682 325.19C536.645 324.092 535.348 323.532 533.81 323.532ZM530.376 329.242C530.376 328.383 530.656 327.645 531.215 327.046C531.774 326.428 532.493 326.128 533.371 326.128C534.25 326.128 534.967 326.428 535.526 327.025C536.085 327.625 536.365 328.365 536.365 329.242C536.365 330.121 536.085 330.859 535.526 331.479C534.967 332.076 534.25 332.376 533.371 332.376C532.493 332.376 531.774 332.076 531.215 331.479C530.656 330.859 530.376 330.121 530.376 329.242ZM540.632 329.242C540.632 330.859 541.171 332.216 542.269 333.314C543.367 334.412 544.763 334.971 546.461 334.971C548.157 334.971 549.554 334.412 550.653 333.314C551.751 332.216 552.29 330.859 552.29 329.242C552.29 327.645 551.751 326.288 550.653 325.19C549.554 324.071 548.157 323.512 546.461 323.512C544.763 323.512 543.367 324.071 542.269 325.19C541.171 326.288 540.632 327.645 540.632 329.242ZM544.305 331.458C543.726 330.838 543.446 330.101 543.446 329.242C543.446 328.383 543.726 327.645 544.305 327.046C544.884 326.448 545.602 326.148 546.461 326.148C547.32 326.148 548.017 326.448 548.596 327.046C549.176 327.645 549.475 328.383 549.475 329.242C549.475 330.101 549.176 330.838 548.596 331.458C548.017 332.056 547.32 332.356 546.461 332.356C545.602 332.356 544.884 332.056 544.305 331.458ZM562.556 325.111C561.597 324.051 560.44 323.532 559.083 323.532C557.545 323.532 556.246 324.071 555.229 325.149C554.212 326.209 553.692 327.564 553.692 329.201C553.692 330.838 554.192 332.216 555.209 333.314C556.228 334.412 557.525 334.951 559.083 334.951C560.459 334.951 561.617 334.453 562.556 333.434V334.692H565.23V323.812H562.556V325.111ZM562.596 329.242C562.596 330.121 562.296 330.859 561.717 331.479C561.137 332.097 560.42 332.396 559.541 332.396C558.664 332.396 557.944 332.097 557.365 331.479C556.787 330.859 556.508 330.121 556.508 329.242C556.508 328.383 556.787 327.645 557.345 327.025C557.924 326.407 558.643 326.108 559.541 326.108C560.42 326.108 561.137 326.407 561.717 327.025C562.296 327.645 562.596 328.383 562.596 329.242ZM570.575 334.692V329.521C570.575 327.266 571.634 326.227 573.231 326.227C573.63 326.227 574.069 326.308 574.527 326.448L574.766 323.753C574.329 323.593 573.889 323.512 573.45 323.512C572.112 323.512 571.114 324.092 570.455 325.269V323.812H567.76V334.692H570.575ZM583.916 325.07C583.018 324.051 581.92 323.532 580.603 323.532C579.066 323.532 577.789 324.071 576.75 325.17C575.733 326.268 575.214 327.625 575.214 329.242C575.214 330.879 575.733 332.236 576.75 333.334C577.769 334.412 579.066 334.951 580.603 334.951C581.981 334.951 583.097 334.412 583.977 333.355V334.692H586.73V319.521H583.916V325.07ZM584.056 329.242C584.056 330.139 583.776 330.879 583.217 331.497C582.66 332.097 581.941 332.396 581.041 332.396C580.144 332.396 579.424 332.097 578.847 331.497C578.288 330.879 578.008 330.139 578.008 329.242C578.008 328.365 578.288 327.625 578.847 327.025C579.424 326.407 580.144 326.108 581.041 326.108C581.941 326.108 582.66 326.407 583.217 327.025C583.776 327.625 584.056 328.365 584.056 329.242ZM591.976 322.096C592.636 321.438 592.636 320.279 591.976 319.64C591.317 318.982 590.16 318.982 589.502 319.64C588.843 320.279 588.843 321.438 589.502 322.096C590.16 322.754 591.317 322.754 591.976 322.096ZM592.136 323.812H589.321V334.692H592.136V323.812ZM597.456 334.692V328.863C597.456 327.246 598.455 326.108 599.952 326.108C601.33 326.108 602.248 327.066 602.248 328.802V334.692H605.062V328.044C605.062 326.588 604.642 325.469 603.824 324.691C603.005 323.911 601.988 323.512 600.811 323.512C599.273 323.512 597.977 324.272 597.397 325.33V323.812H594.642V334.692H597.456ZM615.794 325.009C614.894 324.033 613.778 323.532 612.439 323.532C610.862 323.532 609.545 324.071 608.488 325.129C607.43 326.189 606.891 327.526 606.891 329.143C606.891 330.759 607.39 332.076 608.407 333.134C609.426 334.191 610.722 334.712 612.319 334.712C613.717 334.712 614.835 334.252 615.674 333.314V333.873C615.674 335.63 614.436 336.888 612.28 336.888C611.002 336.888 609.726 336.469 608.467 335.61L607.369 337.725C608.826 338.784 610.504 339.303 612.359 339.303C614.136 339.303 615.593 338.784 616.711 337.765C617.83 336.748 618.389 335.35 618.389 333.614V323.812H615.794V325.009ZM609.726 329.163C609.726 328.284 610.005 327.564 610.583 326.987C611.162 326.407 611.881 326.108 612.738 326.108C613.597 326.108 614.317 326.407 614.894 326.987C615.474 327.564 615.753 328.284 615.753 329.163C615.753 330.04 615.474 330.78 614.894 331.377C614.317 331.957 613.597 332.257 612.738 332.257C611.881 332.257 611.162 331.957 610.583 331.377C610.005 330.8 609.726 330.06 609.726 329.163ZM630.561 334.931C632.178 334.931 633.477 334.512 634.474 333.673C635.472 332.836 635.971 331.756 635.971 330.439C635.971 328.802 635.132 327.585 633.457 326.766C633.078 326.588 632.478 326.328 631.659 325.988L630.203 325.35C629.405 324.951 629.005 324.471 629.005 323.893C629.005 323.034 629.723 322.475 630.902 322.475C632 322.475 633.317 322.973 634.135 323.853L635.712 321.697C634.395 320.36 632.778 319.701 630.861 319.701C629.384 319.701 628.167 320.121 627.229 320.937C626.291 321.756 625.831 322.775 625.831 324.013C625.831 325.569 626.609 326.786 628.167 327.686C628.566 327.905 629.145 328.184 629.903 328.484C630.681 328.782 631.161 328.962 631.36 329.062C632.259 329.481 632.697 330 632.697 330.599C632.697 331.537 631.799 332.176 630.582 332.176C629.064 332.176 627.628 331.458 626.669 330.121L624.974 332.176C626.191 333.952 628.266 334.931 630.561 334.931ZM644.614 331.837C643.953 332.216 643.336 332.396 642.797 332.396C641.78 332.396 641.259 331.756 641.259 330.48V326.168H644.853V323.812H641.259V319.961H638.465V323.812H636.668V326.168H638.445V330.66C638.445 333.474 639.743 334.951 642.237 334.951C643.496 334.951 644.553 334.651 645.451 334.054L644.614 331.837ZM657.192 329.003C657.192 327.305 656.673 325.988 655.654 325.009C654.637 324.033 653.318 323.532 651.742 323.532C650.064 323.532 648.709 324.071 647.649 325.149C646.591 326.227 646.073 327.585 646.073 329.242C646.073 330.818 646.571 332.176 647.59 333.274C648.607 334.372 650.064 334.931 651.981 334.931C653.778 334.931 655.354 334.433 656.732 333.434L655.613 331.458C654.675 332.097 653.279 332.556 652.1 332.556C650.384 332.556 649.327 331.776 648.927 330.241H657.092C657.151 329.801 657.192 329.382 657.192 329.003ZM651.742 325.869C653.178 325.869 654.197 326.728 654.456 328.144H648.927C649.266 326.728 650.325 325.869 651.742 325.869ZM665.375 323.532C663.997 323.532 662.86 324.071 661.922 325.149V323.812H659.126V339.163H661.941V333.434C662.881 334.453 664.017 334.951 665.354 334.951C666.892 334.951 668.169 334.392 669.188 333.294C670.205 332.196 670.725 330.838 670.725 329.242C670.725 327.645 670.225 326.288 669.208 325.19C668.189 324.092 666.912 323.532 665.375 323.532ZM664.876 332.376C663.997 332.376 663.28 332.076 662.721 331.479C662.161 330.879 661.882 330.139 661.882 329.262C661.882 328.383 662.161 327.645 662.721 327.046C663.28 326.448 663.997 326.148 664.876 326.148C665.774 326.148 666.493 326.448 667.052 327.046C667.611 327.645 667.889 328.383 667.889 329.262C667.889 330.139 667.611 330.879 667.052 331.479C666.493 332.076 665.774 332.376 664.876 332.376ZM676.309 323.573L677.825 325.668L680.181 323.853V334.692H683.076V319.94H680.88L676.309 323.573ZM692.116 323.532C690.799 323.532 689.701 324.051 688.804 325.07V319.521H685.99V334.692H688.725V333.334C689.622 334.412 690.741 334.951 692.116 334.951C693.654 334.951 694.951 334.412 695.99 333.334C697.027 332.236 697.546 330.879 697.546 329.262C697.546 327.645 697.027 326.288 695.99 325.19C694.951 324.092 693.654 323.532 692.116 323.532ZM688.684 329.242C688.684 328.383 688.964 327.645 689.523 327.046C690.08 326.428 690.799 326.128 691.679 326.128C692.556 326.128 693.275 326.428 693.834 327.025C694.394 327.625 694.673 328.365 694.673 329.242C694.673 330.121 694.394 330.859 693.834 331.479C693.275 332.076 692.556 332.376 691.679 332.376C690.799 332.376 690.08 332.076 689.523 331.479C688.964 330.859 688.684 330.121 688.684 329.242Z" fill="#151C25"/>
<path d="M430.257 160.741C423.156 160.741 417.4 166.497 417.4 173.598V280.961C417.4 287.487 413.893 293.193 408.66 296.296C413.895 299.4 417.404 305.108 417.404 311.636V312.401C417.404 319.503 423.16 325.259 430.261 325.259H470.14V330.218H430.261C420.421 330.218 412.445 322.242 412.445 312.401V311.636C412.445 304.585 406.772 298.861 399.743 298.778C399.689 298.778 399.636 298.778 399.583 298.778L282.069 298.776V293.817H399.587C399.64 293.817 399.691 293.817 399.743 293.817C406.77 293.731 412.441 288.008 412.441 280.961V173.598C412.441 163.757 420.417 155.781 430.257 155.781H473.203V160.741H430.257Z" fill="#454549"/>
<path d="M205.395 479.58V341.542H210.354V479.58C210.354 486.681 216.11 492.439 223.211 492.439H470.831V497.399H223.211C213.371 497.399 205.395 489.42 205.395 479.58Z" fill="#454549"/>
<path d="M207.874 351.511C215.074 351.511 220.911 345.675 220.911 338.474C220.911 331.274 215.074 325.438 207.874 325.438C200.674 325.438 194.837 331.274 194.837 338.474C194.837 345.675 200.674 351.511 207.874 351.511Z" fill="white"/>
<path fill-rule="evenodd" clip-rule="evenodd" d="M207.874 347.498C212.858 347.498 216.9 343.458 216.9 338.472C216.9 333.488 212.858 329.446 207.874 329.446C202.89 329.446 198.848 333.488 198.848 338.472C198.848 343.458 202.89 347.498 207.874 347.498ZM207.874 343.487C210.644 343.487 212.889 341.242 212.889 338.472C212.889 335.703 210.644 333.458 207.874 333.458C205.105 333.458 202.86 335.703 202.86 338.472C202.86 341.242 205.105 343.487 207.874 343.487Z" fill="#3F3F46"/>
<path d="M464.007 170.53C471.207 170.53 477.044 164.693 477.044 157.493C477.044 150.293 471.207 144.456 464.007 144.456C456.807 144.456 450.97 150.293 450.97 157.493C450.97 164.693 456.807 170.53 464.007 170.53Z" fill="white"/>
<path fill-rule="evenodd" clip-rule="evenodd" d="M120.878 298.491H25.6543V293.426H120.878V298.491Z" fill="url(#paint1_linear_7_28707)"/>
<path d="M121.758 309.37C128.958 309.37 134.795 303.533 134.795 296.333C134.795 289.133 128.958 283.296 121.758 283.296C114.558 283.296 108.721 289.133 108.721 296.333C108.721 303.533 114.558 309.37 121.758 309.37Z" fill="white"/>
<path fill-rule="evenodd" clip-rule="evenodd" d="M464.009 166.519C468.993 166.519 473.035 162.477 473.035 157.493C473.035 152.509 468.993 148.467 464.009 148.467C459.023 148.467 454.983 152.509 454.983 157.493C454.983 162.477 459.023 166.519 464.009 166.519ZM464.009 162.507C466.779 162.507 469.024 160.263 469.024 157.493C469.024 154.723 466.779 152.479 464.009 152.479C461.24 152.479 458.995 154.723 458.995 157.493C458.995 160.263 461.24 162.507 464.009 162.507Z" fill="#3F3F46"/>
<path fill-rule="evenodd" clip-rule="evenodd" d="M121.759 305.357C126.744 305.357 130.785 301.317 130.785 296.331C130.785 291.347 126.744 287.307 121.759 287.307C116.775 287.307 112.734 291.347 112.734 296.331C112.734 301.317 116.775 305.357 121.759 305.357ZM121.759 301.345C124.529 301.345 126.774 299.1 126.774 296.331C126.774 293.563 124.529 291.316 121.759 291.316C118.99 291.316 116.745 293.563 116.745 296.331C116.745 299.1 118.99 301.345 121.759 301.345Z" fill="#3F3F46"/>
<path d="M464.007 340.777C471.207 340.777 477.044 334.941 477.044 327.741C477.044 320.54 471.207 314.704 464.007 314.704C456.807 314.704 450.97 320.54 450.97 327.741C450.97 334.941 456.807 340.777 464.007 340.777Z" fill="white"/>
<path fill-rule="evenodd" clip-rule="evenodd" d="M464.007 336.762C468.993 336.762 473.033 332.723 473.033 327.738C473.033 322.752 468.993 318.712 464.007 318.712C459.023 318.712 454.981 322.752 454.981 327.738C454.981 332.723 459.023 336.762 464.007 336.762ZM464.007 332.753C466.777 332.753 469.022 330.508 469.022 327.738C469.022 324.969 466.777 322.724 464.007 322.724C461.238 322.724 458.993 324.969 458.993 327.738C458.993 330.508 461.238 332.753 464.007 332.753Z" fill="#3F3F46"/>
<path d="M291.529 308.568C298.729 308.568 304.566 302.731 304.566 295.531C304.566 288.331 298.729 282.494 291.529 282.494C284.329 282.494 278.492 288.331 278.492 295.531C278.492 302.731 284.329 308.568 291.529 308.568Z" fill="white"/>
<path fill-rule="evenodd" clip-rule="evenodd" d="M291.531 304.557C296.515 304.557 300.555 300.515 300.555 295.531C300.555 290.547 296.515 286.505 291.531 286.505C286.545 286.505 282.505 290.547 282.505 295.531C282.505 300.515 286.545 304.557 291.531 304.557ZM291.531 300.545C294.298 300.545 296.545 298.3 296.545 295.531C296.545 292.761 294.298 290.516 291.531 290.516C288.761 290.516 286.516 292.761 286.516 295.531C286.516 298.3 288.761 300.545 291.531 300.545Z" fill="#3F3F46"/>
</g>
<g filter="url(#filter3_d_7_28707)">
<path d="M276.879 78.6661H128.978C115.551 78.6661 104.666 89.5512 104.666 102.979V161.734C104.666 175.161 115.551 186.046 128.978 186.046H276.879C290.306 186.046 301.191 175.161 301.191 161.734V102.979C301.191 89.5512 290.306 78.6661 276.879 78.6661Z" fill="white"/>
<path d="M276.879 80.6922H128.979C116.67 80.6922 106.692 90.6701 106.692 102.979V161.733C106.692 174.042 116.67 184.02 128.979 184.02H276.879C289.188 184.02 299.166 174.042 299.166 161.733V102.979C299.166 90.6701 289.188 80.6922 276.879 80.6922Z" stroke="#DE5763" stroke-width="4.05207"/>
</g>
<path d="M165.188 141.788C167.313 141.788 169.018 141.237 170.33 140.135C171.642 139.033 172.298 137.616 172.298 135.885C172.298 133.733 171.196 132.133 168.992 131.057C168.494 130.821 167.706 130.48 166.631 130.034L164.715 129.194C163.666 128.669 163.141 128.04 163.141 127.279C163.141 126.151 164.086 125.416 165.634 125.416C167.077 125.416 168.808 126.072 169.884 127.226L171.957 124.393C170.225 122.635 168.1 121.769 165.581 121.769C163.64 121.769 162.039 122.32 160.806 123.396C159.573 124.472 158.969 125.81 158.969 127.436C158.969 129.483 159.993 131.083 162.039 132.264C162.564 132.553 163.325 132.92 164.322 133.313C165.345 133.707 165.975 133.943 166.237 134.074C167.418 134.625 167.995 135.307 167.995 136.094C167.995 137.328 166.814 138.167 165.214 138.167C163.22 138.167 161.331 137.223 160.071 135.465L157.841 138.167C159.442 140.503 162.17 141.788 165.188 141.788ZM178.399 124.917C179.264 124.052 179.264 122.53 178.399 121.69C177.533 120.824 176.011 120.824 175.145 121.69C174.279 122.53 174.279 124.052 175.145 124.917C176.011 125.783 177.533 125.783 178.399 124.917ZM178.608 127.174H174.909V141.473H178.608V127.174ZM192.843 128.748C191.664 127.463 190.193 126.807 188.436 126.807C186.364 126.807 184.631 127.515 183.241 128.905C181.85 130.296 181.143 132.054 181.143 134.179C181.143 136.304 181.797 138.036 183.136 139.427C184.473 140.817 186.179 141.5 188.278 141.5C190.114 141.5 191.585 140.896 192.687 139.663V140.397C192.687 142.706 191.06 144.359 188.226 144.359C186.546 144.359 184.866 143.808 183.215 142.68L181.771 145.461C183.687 146.852 185.892 147.534 188.331 147.534C190.665 147.534 192.581 146.852 194.05 145.514C195.519 144.176 196.255 142.339 196.255 140.056V127.174H192.843V128.748ZM184.866 134.205C184.866 133.051 185.235 132.106 185.995 131.346C186.757 130.585 187.701 130.191 188.829 130.191C189.958 130.191 190.902 130.585 191.664 131.346C192.423 132.106 192.79 133.051 192.79 134.205C192.79 135.36 192.423 136.331 191.664 137.118C190.902 137.879 189.958 138.272 188.829 138.272C187.701 138.272 186.757 137.879 185.995 137.118C185.235 136.357 184.866 135.386 184.866 134.205ZM203.307 141.473V133.812C203.307 131.687 204.618 130.191 206.587 130.191C208.397 130.191 209.604 131.451 209.604 133.733V141.473H213.304V132.736C213.304 130.821 212.753 129.352 211.677 128.328C210.601 127.305 209.262 126.78 207.714 126.78C205.694 126.78 203.988 127.777 203.228 129.168V127.174H199.608V141.473H203.307ZM223.422 141.473H227.33V122.084H223.422V141.473ZM234.772 141.473V133.812C234.772 131.687 236.082 130.191 238.05 130.191C239.861 130.191 241.069 131.451 241.069 133.733V141.473H244.768V132.736C244.768 130.821 244.217 129.352 243.141 128.328C242.065 127.305 240.726 126.78 239.178 126.78C237.158 126.78 235.452 127.777 234.693 129.168V127.174H231.072V141.473H234.772Z" fill="#151C25"/>
<g filter="url(#filter4_d_7_28707)">
<path d="M284.983 173.685C284.983 170.403 288.843 168.634 291.341 170.772L316.048 191.885C318.706 194.156 317.193 198.498 313.698 198.642L302.484 199.085C301.278 199.132 300.144 199.669 299.339 200.562L291.705 209.07C289.349 211.699 284.983 210.034 284.983 206.509V173.689V173.685Z" fill="#151C25"/>
<path d="M317.365 190.345L292.658 169.232C292.658 169.23 292.658 169.23 292.656 169.23C288.853 165.976 282.957 168.665 282.957 173.685V173.689V206.509C282.957 211.9 289.621 214.429 293.213 210.423C293.213 210.423 293.213 210.423 293.215 210.423L300.843 201.92C300.845 201.918 300.845 201.918 300.845 201.918C301.289 201.428 301.909 201.136 302.563 201.111L313.777 200.666C319.099 200.447 321.431 193.822 317.365 190.345Z" stroke="white" stroke-width="4.05207"/>
</g>
</g>
</g>
<defs>
<filter id="filter0_d_7_28707" x="113.314" y="250.245" width="186.513" height="107.148" filterUnits="userSpaceOnUse" color-interpolation-filters="sRGB">
<feFlood flood-opacity="0" result="BackgroundImageFix"/>
<feColorMatrix in="SourceAlpha" type="matrix" values="0 0 0 0 0 0 0 0 0 0 0 0 0 0 0 0 0 0 127 0" result="hardAlpha"/>
<feOffset dy="8.10413"/>
<feGaussianBlur stdDeviation="4.05207"/>
<feComposite in2="hardAlpha" operator="out"/>
<feColorMatrix type="matrix" values="0 0 0 0 0.103646 0 0 0 0 0.105781 0 0 0 0 0.125 0 0 0 0.08 0"/>
<feBlend mode="normal" in2="BackgroundImageFix" result="effect1_dropShadow_7_28707"/>
<feBlend mode="normal" in="SourceGraphic" in2="effect1_dropShadow_7_28707" result="shape"/>
</filter>
<filter id="filter1_d_7_28707" x="455.528" y="113.01" width="285.719" height="105.494" filterUnits="userSpaceOnUse" color-interpolation-filters="sRGB">
<feFlood flood-opacity="0" result="BackgroundImageFix"/>
<feColorMatrix in="SourceAlpha" type="matrix" values="0 0 0 0 0 0 0 0 0 0 0 0 0 0 0 0 0 0 127 0" result="hardAlpha"/>
<feOffset dy="8.10413"/>
<feGaussianBlur stdDeviation="4.05207"/>
<feComposite in2="hardAlpha" operator="out"/>
<feColorMatrix type="matrix" values="0 0 0 0 0.103646 0 0 0 0 0.105781 0 0 0 0 0.125 0 0 0 0.08 0"/>
<feBlend mode="normal" in2="BackgroundImageFix" result="effect1_dropShadow_7_28707"/>
<feBlend mode="normal" in="SourceGraphic" in2="effect1_dropShadow_7_28707" result="shape"/>
</filter>
<filter id="filter2_d_7_28707" x="455.528" y="283.316" width="285.719" height="105.494" filterUnits="userSpaceOnUse" color-interpolation-filters="sRGB">
<feFlood flood-opacity="0" result="BackgroundImageFix"/>
<feColorMatrix in="SourceAlpha" type="matrix" values="0 0 0 0 0 0 0 0 0 0 0 0 0 0 0 0 0 0 127 0" result="hardAlpha"/>
<feOffset dy="8.10413"/>
<feGaussianBlur stdDeviation="4.05207"/>
<feComposite in2="hardAlpha" operator="out"/>
<feColorMatrix type="matrix" values="0 0 0 0 0.103646 0 0 0 0 0.105781 0 0 0 0 0.125 0 0 0 0.08 0"/>
<feBlend mode="normal" in2="BackgroundImageFix" result="effect1_dropShadow_7_28707"/>
<feBlend mode="normal" in="SourceGraphic" in2="effect1_dropShadow_7_28707" result="shape"/>
</filter>
<filter id="filter3_d_7_28707" x="-25.0001" y="-51" width="455.858" height="366.712" filterUnits="userSpaceOnUse" color-interpolation-filters="sRGB">
<feFlood flood-opacity="0" result="BackgroundImageFix"/>
<feColorMatrix in="SourceAlpha" type="matrix" values="0 0 0 0 0 0 0 0 0 0 0 0 0 0 0 0 0 0 127 0" result="hardAlpha"/>
<feOffset/>
<feGaussianBlur stdDeviation="64.8331"/>
<feComposite in2="hardAlpha" operator="out"/>
<feColorMatrix type="matrix" values="0 0 0 0 1 0 0 0 0 0.333333 0 0 0 0 0.419608 0 0 0 0.39 0"/>
<feBlend mode="normal" in2="BackgroundImageFix" result="effect1_dropShadow_7_28707"/>
<feBlend mode="normal" in="SourceGraphic" in2="effect1_dropShadow_7_28707" result="shape"/>
</filter>
<filter id="filter4_d_7_28707" x="249.645" y="163.939" width="81.0173" height="89.1238" filterUnits="userSpaceOnUse" color-interpolation-filters="sRGB">
<feFlood flood-opacity="0" result="BackgroundImageFix"/>
<feColorMatrix in="SourceAlpha" type="matrix" values="0 0 0 0 0 0 0 0 0 0 0 0 0 0 0 0 0 0 127 0" result="hardAlpha"/>
<feOffset dx="-11.042" dy="18.4034"/>
<feGaussianBlur stdDeviation="10.1219"/>
<feComposite in2="hardAlpha" operator="out"/>
<feColorMatrix type="matrix" values="0 0 0 0 0 0 0 0 0 0 0 0 0 0 0 0 0 0 0.1 0"/>
<feBlend mode="normal" in2="BackgroundImageFix" result="effect1_dropShadow_7_28707"/>
<feBlend mode="normal" in="SourceGraphic" in2="effect1_dropShadow_7_28707" result="shape"/>
</filter>
<linearGradient id="paint0_linear_7_28707" x1="407.558" y1="252.163" x2="407.558" y2="473.743" gradientUnits="userSpaceOnUse">
<stop stop-color="#D9D9D9"/>
<stop offset="0.91306" stop-color="#D9D9D9" stop-opacity="0"/>
</linearGradient>
<linearGradient id="paint1_linear_7_28707" x1="119.865" y1="295.958" x2="51.9927" y2="295.958" gradientUnits="userSpaceOnUse">
<stop stop-color="#454549"/>
<stop offset="1" stop-color="#454549" stop-opacity="0"/>
</linearGradient>
<clipPath id="clip0_7_28707">
<rect width="810" height="482" fill="white"/>
</clipPath>
<clipPath id="clip1_7_28707">
<rect width="818.517" height="524.743" fill="white" transform="translate(-25 -51)"/>
</clipPath>
</defs>
</svg>
