<svg width="20" height="20" viewBox="0 0 20 20" fill="none" xmlns="http://www.w3.org/2000/svg">
<path d="M17.7778 0H2.22222C1 0 0 1 0 2.22222V17.7778C0 19 1 20 2.22222 20H17.7778C19 20 20 19 20 17.7778V2.22222C20 1 19 0 17.7778 0ZM8.88889 5.55556H6.66667V7.77778C6.66667 9 5.66667 10 4.44444 10C5.66667 10 6.66667 11 6.66667 12.2222V14.4444H8.88889V16.6667H6.66667C5.44444 16.6667 4.44444 15.6667 4.44444 14.4444V13.3333C4.44444 12.1111 3.44444 11.1111 2.22222 11.1111V8.88889C3.44444 8.88889 4.44444 7.88889 4.44444 6.66667V5.55556C4.44444 4.33333 5.44444 3.33333 6.66667 3.33333H8.88889V5.55556ZM17.7778 11.1111C16.5556 11.1111 15.5556 12.1111 15.5556 13.3333V14.4444C15.5556 15.6667 14.5556 16.6667 13.3333 16.6667H11.1111V14.4444H13.3333V12.2222C13.3333 11 14.3333 10 15.5556 10C14.3333 10 13.3333 9 13.3333 7.77778V5.55556H11.1111V3.33333H13.3333C14.5556 3.33333 15.5556 4.33333 15.5556 5.55556V6.66667C15.5556 7.88889 16.5556 8.88889 17.7778 8.88889V11.1111Z" fill="#151C25"/>
</svg>
