<svg width="20" height="20" viewBox="0 0 20 20" fill="none" xmlns="http://www.w3.org/2000/svg">
<path d="M15 14C14.3814 14.0011 13.7784 14.1941 13.274 14.5523C12.7697 14.9105 12.3888 15.4163 12.184 16H9C7.346 16 6 14.654 6 13V9.975C6.86073 10.6361 7.91472 10.9962 9 11H12.184C12.3888 11.5837 12.7697 12.0895 13.274 12.4477C13.7784 12.8059 14.3814 12.9989 15 13C15.7956 13 16.5587 12.6839 17.1213 12.1213C17.6839 11.5587 18 10.7956 18 10C18 9.20435 17.6839 8.44129 17.1213 7.87868C16.5587 7.31607 15.7956 7 15 7C14.3814 7.00111 13.7784 7.19406 13.274 7.55226C12.7697 7.91046 12.3888 8.41628 12.184 9H9C7.346 9 6 7.654 6 6V5.816C6.58372 5.61118 7.08954 5.23035 7.44774 4.726C7.80594 4.22165 7.99889 3.61861 8 3C8 2.60603 7.9224 2.21593 7.77164 1.85195C7.62087 1.48797 7.3999 1.15726 7.12132 0.87868C6.84274 0.600104 6.51203 0.379125 6.14805 0.228361C5.78407 0.0775972 5.39397 0 5 0C4.60603 0 4.21593 0.0775972 3.85195 0.228361C3.48797 0.379125 3.15726 0.600104 2.87868 0.87868C2.6001 1.15726 2.37913 1.48797 2.22836 1.85195C2.0776 2.21593 2 2.60603 2 3C2.00111 3.61861 2.19406 4.22165 2.55226 4.726C2.91046 5.23035 3.41628 5.61118 4 5.816V13C4 15.757 6.243 18 9 18H12.184C12.3888 18.5837 12.7697 19.0895 13.274 19.4477C13.7784 19.8059 14.3814 19.9989 15 20C15.7956 20 16.5587 19.6839 17.1213 19.1213C17.6839 18.5587 18 17.7956 18 17C18 16.2044 17.6839 15.4413 17.1213 14.8787C16.5587 14.3161 15.7956 14 15 14ZM15 9C15.1981 8.9998 15.3917 9.05837 15.5565 9.16828C15.7213 9.2782 15.8497 9.43452 15.9256 9.61747C16.0015 9.80042 16.0214 10.0018 15.9828 10.196C15.9442 10.3903 15.8489 10.5688 15.7088 10.7088C15.5688 10.8489 15.3903 10.9442 15.196 10.9828C15.0018 11.0214 14.8004 11.0015 14.6175 10.9256C14.4345 10.8497 14.2782 10.7213 14.1683 10.5565C14.0584 10.3917 13.9998 10.1981 14 10C14 9.449 14.448 9 15 9ZM5 2C5.19806 1.9998 5.39174 2.05837 5.5565 2.16828C5.72127 2.2782 5.84972 2.43452 5.92561 2.61747C6.0015 2.80042 6.02141 3.00177 5.98281 3.19604C5.94422 3.39031 5.84887 3.56876 5.70881 3.70881C5.56876 3.84887 5.39031 3.94422 5.19604 3.98281C5.00177 4.02141 4.80042 4.0015 4.61747 3.92561C4.43452 3.84972 4.2782 3.72127 4.16828 3.5565C4.05837 3.39174 3.9998 3.19806 4 3C4 2.449 4.448 2 5 2ZM15 18C14.7425 17.9885 14.4994 17.8781 14.3213 17.6918C14.1431 17.5055 14.0437 17.2577 14.0437 17C14.0437 16.7423 14.1431 16.4945 14.3213 16.3082C14.4994 16.1219 14.7425 16.0115 15 16C15.2575 16.0115 15.5006 16.1219 15.6787 16.3082C15.8569 16.4945 15.9563 16.7423 15.9563 17C15.9563 17.2577 15.8569 17.5055 15.6787 17.6918C15.5006 17.8781 15.2575 17.9885 15 18Z" fill="#151C25"/>
</svg>
