<svg width="20" height="20" viewBox="0 0 20 20" fill="none" xmlns="http://www.w3.org/2000/svg">
<path d="M19.8216 18.9638L16.8849 16.031V4.74814L15.4979 2.18496C15.3956 1.98954 15.2421 1.82592 15.054 1.71178C14.8658 1.59763 14.6503 1.5373 14.4305 1.5373C14.2108 1.5373 13.9952 1.59763 13.8071 1.71178C13.619 1.82592 13.4655 1.98954 13.3632 2.18496L12.0606 4.7542V11.2076L1.03119 0.179251C0.946846 0.0937935 0.839084 0.0355125 0.721645 0.0118381C0.604206 -0.0118363 0.482412 0.000168525 0.37179 0.046322C0.261167 0.0924756 0.166729 0.170687 0.100516 0.270984C0.0343025 0.371281 -0.000686356 0.48912 1.02014e-05 0.609478V5.50558H1.30859V6.47511H1.02014e-05V10.3532H1.30859V11.3227H1.02014e-05V15.3523H1.30859V16.3219H1.02014e-05V19.394C1.02014e-05 19.5547 0.0635435 19.7089 0.176634 19.8225C0.289724 19.9361 0.443107 20 0.60304 20H19.3935C19.5132 20.0007 19.6305 19.9655 19.7303 19.899C19.8301 19.8325 19.908 19.7376 19.9539 19.6264C19.9998 19.5153 20.0118 19.3929 19.9882 19.2749C19.9647 19.1568 19.9067 19.0486 19.8216 18.9638ZM4.82425 15.2008V9.7109L10.2937 15.2008H4.82425ZM15.6788 16.4794H13.2667V15.0069H15.6788V16.4794ZM15.6788 14.0556H13.2667V5.05112L14.4366 2.76667L15.6788 5.05718V14.0556Z" fill="#151C25"/>
</svg>
