<svg width="20" height="20" viewBox="0 0 20 20" fill="none" xmlns="http://www.w3.org/2000/svg">
<path d="M13.7473 3.75006C13.7473 4.30866 13.6262 4.83992 13.4036 5.32039L15.4657 8.88295C14.5401 9.87124 13.349 10.6056 12.0094 10.9767L9.99805 7.50011L7.34232 12.09C8.182 12.3557 9.07245 12.5002 10.002 12.5002C12.7631 12.5002 15.2275 11.2228 16.8327 9.21889C17.2662 8.67982 18.0512 8.59388 18.5901 9.02357C19.1291 9.45327 19.215 10.2423 18.7854 10.7814C16.7194 13.3518 13.552 15.0002 9.99805 15.0002C8.61551 15.0002 7.28764 14.7502 6.06522 14.2932L3.85472 18.1136C3.67116 18.43 3.39777 18.6878 3.06971 18.8518L0.906073 19.9339C0.710799 20.0315 0.480375 20.0198 0.296817 19.9065C0.113259 19.7933 0 19.5901 0 19.3753V17.2112C0 16.8831 0.0859207 16.5588 0.253857 16.2698L2.59715 12.2189C2.09725 11.7814 1.63249 11.301 1.21851 10.7814C0.785003 10.2423 0.874829 9.45717 1.41379 9.02357C1.95274 8.58997 2.73775 8.67982 3.17126 9.21889C3.39387 9.49624 3.6321 9.75796 3.88205 10.0041L6.59246 5.32039C6.37376 4.84382 6.24878 4.31256 6.24878 3.75006C6.24878 1.67971 7.92814 0 9.99805 0C12.068 0 13.7473 1.67971 13.7473 3.75006ZM14.5675 15.3869C15.8407 14.8869 17.0084 14.1838 18.0394 13.3205L19.7461 16.2698C19.9102 16.5549 20 16.8792 20 17.2112V19.3753C20 19.5901 19.8867 19.7933 19.7032 19.9065C19.5196 20.0198 19.2892 20.0315 19.0939 19.9339L16.9303 18.8518C16.6022 18.6878 16.3288 18.43 16.1453 18.1136L14.5675 15.3869ZM9.99805 5.00007C10.3295 5.00007 10.6474 4.86838 10.8818 4.63395C11.1161 4.39953 11.2478 4.08158 11.2478 3.75006C11.2478 3.41853 11.1161 3.10058 10.8818 2.86616C10.6474 2.63174 10.3295 2.50004 9.99805 2.50004C9.66659 2.50004 9.34871 2.63174 9.11434 2.86616C8.87996 3.10058 8.74829 3.41853 8.74829 3.75006C8.74829 4.08158 8.87996 4.39953 9.11434 4.63395C9.34871 4.86838 9.66659 5.00007 9.99805 5.00007Z" fill="#151C25"/>
</svg>
