<svg width="22" height="22" viewBox="0 0 22 22" fill="none" xmlns="http://www.w3.org/2000/svg">
<path d="M21.5097 7.89173C21.5491 7.71679 21.5535 7.53411 21.5214 7.35232C21.4551 6.98095 21.2443 6.65707 20.9288 6.44012L18.2464 4.59875C18.33 4.95604 18.3393 5.33429 18.238 5.71255L15.4307 16.1893L15.2618 16.8197L21.2882 8.38434C21.3959 8.23351 21.4703 8.06667 21.5097 7.89173ZM13.8332 19.5302C13.8868 19.3585 13.9056 19.176 13.8882 18.9911L12.4629 4.15108C12.39 3.38882 11.7003 2.81876 10.9252 2.87975L1.44764 3.62844C1.06686 3.65883 0.722524 3.83489 0.479851 4.12347C0.347885 4.27954 0.255401 4.45865 0.204064 4.65024C0.162203 4.80647 0.1482 4.97117 0.164 5.13709L1.5901 19.9774C1.6626 20.7395 2.35182 21.3095 3.12694 21.2485L12.6045 20.4998C12.9853 20.4694 13.3296 20.2933 13.5723 20.0047C13.6918 19.8628 13.7796 19.7019 13.8332 19.5302ZM17.3384 5.47152C17.5368 4.73111 17.0929 3.96637 16.3489 3.76703L12.886 2.83915C13.1616 3.18166 13.3455 3.60106 13.3899 4.06492L14.5312 15.9483L17.3384 5.47152ZM12.9497 19.2363C12.9329 19.299 12.9023 19.3576 12.8592 19.4088C12.7777 19.506 12.6604 19.5644 12.5295 19.5745L3.05257 20.3243C2.78124 20.3456 2.54101 20.151 2.51619 19.891L2.25508 17.1653L12.6924 16.268L12.9621 19.0775C12.9674 19.1313 12.9633 19.1853 12.9497 19.2363ZM12.0009 18.195C12.0486 18.0169 12.0233 17.827 11.9305 17.6672C11.8378 17.5074 11.6851 17.3907 11.5062 17.3427C11.3273 17.2948 11.1367 17.3195 10.9764 17.4115C10.8162 17.5036 10.6993 17.6553 10.6516 17.8334C10.6039 18.0115 10.6292 18.2013 10.722 18.3611C10.8148 18.521 10.9674 18.6377 11.1463 18.6856C11.3253 18.7336 11.5158 18.7088 11.6761 18.6168C11.8364 18.5248 11.9532 18.373 12.0009 18.195ZM15.1824 2.49489L13.0939 1.06192C12.4539 0.622236 11.5723 0.770362 11.1279 1.39255L11.1177 1.40577L13.1259 1.94386L15.1824 2.49489ZM9.87376 2.03201L6.90367 1.23618C6.15974 1.03684 5.3929 1.47716 5.1945 2.21756L5.1439 2.40641L9.87376 2.03201Z" fill="#151C25"/>
</svg>
