<svg width="233" height="204" viewBox="0 0 233 204" fill="none" xmlns="http://www.w3.org/2000/svg">
<path d="M55.9025 199.599C54.5433 202.297 51.7793 204 48.7576 204L3.77098 204C1.56113 204 0.10971 201.692 1.0672 199.7L52.3729 92.9808C53.3303 90.9892 51.8789 88.681 49.6691 88.681L18 88.681C14.134 88.681 11 85.547 11 81.681L11 6.99999C11 3.13401 14.134 -1.13837e-05 18 -1.17217e-05L104.766 -1.9307e-05C108.632 -1.9645e-05 111.766 3.13398 111.766 6.99998L111.766 78.4639C111.766 85.1818 110.192 91.8062 107.17 97.8061L55.9025 199.599ZM177.509 199.58C176.153 202.289 173.384 204 170.355 204L125.019 204C122.806 204 121.355 201.685 122.319 199.693L173.967 92.988C174.931 90.9958 173.48 88.681 171.266 88.681L139.234 88.681C135.368 88.681 132.234 85.547 132.234 81.681L132.234 6.99998C132.234 3.134 135.368 -2.19823e-05 139.234 -2.23203e-05L226 -2.99056e-05C229.866 -3.02436e-05 233 3.13397 233 6.99997L233 78.5232C233 85.2031 231.444 91.7912 228.455 97.765L177.509 199.58Z" fill="url(#paint0_linear_2455_28054)"/>
<defs>
<linearGradient id="paint0_linear_2455_28054" x1="131" y1="204" x2="131" y2="-24" gradientUnits="userSpaceOnUse">
<stop stop-color="#E1E6ED" stop-opacity="0"/>
<stop offset="1" stop-color="#DFE4EB"/>
</linearGradient>
</defs>
</svg>
