<svg width="90" height="90" viewBox="0 0 90 90" fill="none" xmlns="http://www.w3.org/2000/svg">
<path d="M30.9849 77.9691L30.1829 77.6313L28.3254 82.1904L29.2119 82.5704C29.6341 82.7392 30.014 82.8237 30.3517 82.8237C30.6894 82.8237 31.0271 82.6548 31.3226 82.4015C31.6181 82.1482 31.8714 81.7261 32.1247 81.1351C32.378 80.5441 32.4624 80.0375 32.4624 79.6576C32.4202 79.2777 32.2935 78.94 32.0403 78.6867C31.787 78.349 31.4493 78.1379 30.9849 77.9691Z" fill="#070A24"/>
<path d="M19.2918 69.8639C19.2496 69.5684 19.0807 69.2307 18.8274 68.9352L18.2364 68.302L16.5901 69.7795L17.1811 70.4127C17.4766 70.7504 17.7721 70.9193 18.0676 71.0037C18.3631 71.0881 18.6586 70.9615 18.9541 70.7082C19.1651 70.4549 19.334 70.2016 19.2918 69.8639Z" fill="#070A24"/>
<path d="M51.7964 80.3752C51.5431 80.2485 51.1631 80.2063 50.741 80.2908L49.8967 80.4174L50.2767 82.6125L51.1209 82.4859C51.5431 82.4014 51.8808 82.2748 52.0919 82.0637C52.3029 81.8527 52.3873 81.5572 52.3029 81.1772C52.2607 80.7551 52.0919 80.5018 51.7964 80.3752Z" fill="#070A24"/>
<path d="M45 0C20.136 0 0 20.136 0 45C0 69.864 20.136 90 45 90C69.864 90 90 69.864 90 45C90 20.136 69.864 0 45 0ZM45 13.3396C62.4765 13.3396 76.6604 27.5235 76.6604 45C76.6604 62.4765 62.4765 76.6604 45 76.6604C27.5235 76.6604 13.3396 62.4765 13.3396 45C13.3396 27.5235 27.5235 13.3396 45 13.3396ZM16.3368 76.9137L14.5216 74.9296L15.7036 71.7214L15.1126 71.0882L12.8752 73.1144L11.2289 71.257L18.0253 65.136L20.6426 68.0488C21.1069 68.5553 21.4024 69.0619 21.5713 69.6107C21.7401 70.1595 21.7401 70.666 21.5713 71.2148C21.4024 71.7214 21.1069 72.228 20.6004 72.6501C20.136 73.0722 19.6295 73.3255 19.1229 73.4099C18.6163 73.4944 18.1098 73.4522 17.6032 73.2411L16.3368 76.9137ZM24.273 80.2908L23.091 81.8949L17.772 78.0957L23.091 70.666L28.4522 74.5075L27.2702 76.1116L23.9353 73.7054L23.0066 74.9719L26.046 77.167L24.864 78.7711L21.8246 76.576L20.8959 77.8424L24.273 80.2908ZM34.4043 82.0216C34.0244 82.9081 33.56 83.5835 32.969 84.0901C32.378 84.5966 31.6604 84.8499 30.9006 84.9343C30.1407 85.0188 29.3386 84.8921 28.4522 84.5122L25.2017 83.1614L28.6632 74.7186L31.8715 76.0272C32.758 76.3649 33.4334 76.8715 33.8978 77.4625C34.4043 78.0535 34.6998 78.7289 34.7842 79.531C34.9109 80.333 34.7842 81.1351 34.4043 82.0216ZM40.9897 85.0188C41.2852 85.4831 41.7495 85.7364 42.3405 85.7786C42.8049 85.8208 43.1848 85.7364 43.4381 85.5253C43.7336 85.3143 43.9024 85.0188 44.0291 84.6388L46.5197 84.8921C46.4353 85.272 46.3086 85.652 46.0976 86.0319C45.8865 86.4118 45.591 86.7495 45.2111 87.045C44.8311 87.3405 44.409 87.5938 43.8602 87.7627C43.3537 87.9315 42.7627 87.9737 42.0872 87.9315C41.243 87.8471 40.5253 87.5938 39.8921 87.2139C39.2589 86.7917 38.7946 86.243 38.4568 85.4831C38.1191 84.7655 38.0347 83.879 38.1191 82.8659C38.2036 81.8527 38.4991 81.0084 38.9212 80.3752C39.3856 79.6998 39.9343 79.2355 40.652 78.94C41.3274 78.6445 42.0872 78.5178 42.9315 78.6023C43.6914 78.6867 44.3668 78.8555 44.9578 79.1932C45.5488 79.531 45.9709 79.9531 46.3086 80.5441C46.6463 81.0929 46.773 81.7683 46.773 82.5281L44.2824 82.3171C44.2824 81.8949 44.1557 81.5572 43.9024 81.2617C43.6492 80.9662 43.3114 80.8396 42.8049 80.7974C42.1717 80.7552 41.7073 80.924 41.3274 81.3462C40.9475 81.7683 40.7364 82.3593 40.652 83.1614C40.6098 83.9212 40.6942 84.5544 40.9897 85.0188ZM53.5272 87.045L51.4165 84.3433L50.5722 84.47L51.0788 87.425L48.6304 87.8471L47.0685 78.8555L50.9522 78.1801C51.6276 78.0535 52.2186 78.0957 52.7674 78.2645C53.3161 78.4334 53.7383 78.6867 54.1182 79.1088C54.4559 79.531 54.7092 80.0375 54.8358 80.6707C54.9625 81.3039 54.8781 81.8527 54.7092 82.3171C54.4981 82.7814 54.2026 83.2036 53.7383 83.4991L56.1445 86.5385L53.5272 87.045ZM64.8827 80.8818C64.7983 81.6839 64.545 82.3593 64.0807 82.9925C63.6163 83.5835 62.9831 84.0478 62.2655 84.3856C61.5056 84.7233 60.7458 84.8499 59.9859 84.8077C59.2261 84.7655 58.5084 84.47 57.8752 84.0056C57.242 83.5413 56.6932 82.8236 56.3133 81.8949C55.8912 80.9662 55.7223 80.1219 55.8068 79.3199C55.8912 78.5178 56.1445 77.8424 56.6088 77.2092C57.0732 76.6182 57.7064 76.1538 58.4662 75.8161C59.2261 75.4784 59.9859 75.3518 60.7458 75.394C61.5056 75.4362 62.2233 75.7317 62.8565 76.1961C63.4897 76.6604 64.0385 77.378 64.4606 78.3068C64.7983 79.1932 64.9672 80.0797 64.8827 80.8818ZM72.9456 76.6604C72.7345 77.4625 72.1435 78.1801 71.257 78.8977C70.6238 79.4043 70.0328 79.742 69.3996 79.9109C68.8086 80.0797 68.2176 80.0797 67.6689 79.9109C67.1201 79.742 66.6135 79.3199 66.1069 78.7289L67.9644 77.2936C68.2599 77.6313 68.5553 77.758 68.8931 77.758C69.2308 77.758 69.6107 77.6313 69.9906 77.3358C70.2861 77.0826 70.4972 76.8293 70.5816 76.6182C70.666 76.3649 70.6238 76.1538 70.4972 75.985C70.3705 75.8161 70.1595 75.7317 69.9484 75.7739C69.6951 75.7739 69.3574 75.9006 68.8931 76.1538L68.0488 76.576C67.2889 76.9559 66.6135 77.0826 66.0225 77.0826C65.3893 77.0403 64.8827 76.7448 64.4184 76.1961C64.0385 75.7317 63.8696 75.2674 63.8274 74.7186C63.7852 74.1698 63.954 73.6632 64.2073 73.1144C64.5028 72.5657 64.925 72.1013 65.4737 71.637C66.0647 71.1726 66.6135 70.8771 67.2045 70.7505C67.7955 70.6238 68.3021 70.6238 68.8086 70.7927C69.3152 70.9615 69.7373 71.2993 70.1173 71.7636L68.2598 73.2411C68.0488 73.03 67.8377 72.9034 67.5844 72.9034C67.3311 72.9034 67.0357 73.03 66.7402 73.2411C66.4447 73.4944 66.2758 73.7054 66.1914 73.9165C66.1492 74.1276 66.1492 74.2964 66.2758 74.4653C66.4024 74.6341 66.5713 74.7186 66.8246 74.7186C67.0779 74.7186 67.3734 74.5919 67.7955 74.4231L68.4709 74.0854C69.3996 73.621 70.2017 73.4522 70.8349 73.5788C71.4681 73.6632 72.0169 74.0009 72.439 74.5497C72.9878 75.0985 73.1567 75.8584 72.9456 76.6604ZM76.4071 73.621C75.8583 73.9165 75.2674 74.0432 74.7186 74.0009C74.1276 73.9587 73.5366 73.6632 72.9456 73.1989L74.4231 71.3837C74.7608 71.637 75.0985 71.7214 75.4362 71.637C75.7739 71.5525 76.1116 71.3415 76.4071 70.9615C76.6604 70.666 76.7871 70.3705 76.8293 70.1173C76.8293 69.864 76.7871 69.6529 76.576 69.5263C76.4071 69.3996 76.1961 69.3574 75.985 69.4418C75.7317 69.5263 75.4362 69.6951 75.0141 70.0328L74.2964 70.6238C73.6632 71.1304 73.03 71.4681 72.3968 71.5525C71.7636 71.637 71.2148 71.4681 70.666 71.046C70.2017 70.666 69.9062 70.2439 69.7796 69.7373C69.6529 69.2308 69.6529 68.682 69.8218 68.091C69.9906 67.5 70.2861 66.9512 70.7505 66.3602C71.2148 65.7692 71.7214 65.3893 72.228 65.0938C72.7767 64.8405 73.2833 64.7139 73.8321 64.7983C74.3809 64.8405 74.8452 65.0516 75.3096 65.4315L73.8321 67.2889C73.5788 67.1201 73.3255 67.0779 73.0722 67.1201C72.819 67.1623 72.5657 67.3311 72.3124 67.6689C72.0591 67.9644 71.9325 68.2176 71.9325 68.4287C71.9325 68.6398 72.0169 68.8086 72.1435 68.9353C72.3124 69.0619 72.4812 69.1041 72.7345 69.0619C72.9878 68.9775 73.2411 68.8086 73.5788 68.5553L74.1698 68.091C74.9719 67.4578 75.6895 67.1201 76.3649 67.0356C77.0403 66.9512 77.6313 67.2045 78.1379 67.6266C78.8555 68.1754 79.151 68.8931 79.1088 69.6951C79.0666 70.4972 78.6867 71.3837 77.969 72.2702C77.5047 72.8189 76.9981 73.2833 76.4071 73.621Z" fill="#070A24"/>
<path d="M60.8303 77.8001C60.3659 77.5468 59.8593 77.5468 59.2683 77.7579C58.7196 78.0112 58.3818 78.3911 58.2552 78.9399C58.1286 79.4464 58.2552 80.1219 58.5929 80.8395C58.9306 81.5993 59.3105 82.1059 59.8171 82.3592C60.2815 82.6125 60.788 82.6125 61.379 82.4014C61.9278 82.1481 62.2655 81.7682 62.3922 81.2194C62.5188 80.7128 62.3922 80.0374 62.0545 79.3198C61.7167 78.5599 61.3368 78.0534 60.8303 77.8001Z" fill="#070A24"/>
<path d="M37.0637 52.8941V65.8538C37.0637 67.1202 38.0768 68.1333 39.3432 68.1333H49.7278C50.9943 68.1333 52.0074 67.1202 52.0074 65.8538V52.8941H64.9671C66.2335 52.8941 67.2466 51.881 67.2466 50.6146V40.2299C67.2466 38.9635 66.2335 37.9504 64.9671 37.9504H52.0074V24.9907C52.0074 23.7243 50.9943 22.7112 49.7278 22.7112H39.3432C38.0768 22.7112 37.0637 23.7243 37.0637 24.9907V37.9504H24.104C22.8376 37.9504 21.8245 38.9635 21.8245 40.2299V50.6146C21.8245 51.881 22.8376 52.8941 24.104 52.8941H37.0637Z" fill="#070A24"/>
</svg>
