<svg width="160" height="70" viewBox="0 0 160 70" fill="none" xmlns="http://www.w3.org/2000/svg">
<path d="M54.8776 31.6855C54.5529 31.9174 54.1818 32.103 53.9035 32.3813C52.0016 33.9121 50.1924 35.5821 48.2441 37.0202C47.038 37.9016 45.6927 38.551 44.3474 39.1541C42.9094 39.8035 41.425 39.8963 39.8941 39.4788C37.9922 39.0149 36.8789 37.6696 36.7861 35.6749C36.7397 35.1646 36.7861 34.608 36.7397 34.0977C36.6933 33.8658 36.6006 33.4947 36.415 33.4019C36.2295 33.3091 35.9047 33.4947 35.6728 33.6338C35.3945 33.8194 35.1625 34.0977 34.9306 34.3296C32.7967 36.3244 30.5237 38.1799 27.694 39.1077C26.5806 39.4788 25.3281 39.7107 24.1684 39.6643C21.4315 39.6179 19.6224 37.8088 19.3904 35.0719C19.1585 32.2886 19.6687 29.6444 20.8285 27.1394C23.1479 21.9439 26.9054 18.14 32.24 16.0989C35.812 14.7073 39.2447 14.7537 42.4919 17.1659C43.3269 17.8153 43.7444 17.6762 44.533 16.9339C44.9969 16.5164 45.4608 16.099 45.971 15.8206C46.5741 15.4959 47.2235 15.5887 47.7802 16.0989C48.2905 16.5628 48.3832 17.2123 48.1049 17.8153C47.641 18.7431 47.1308 19.6245 46.5741 20.5059C45.2288 22.7325 43.7908 24.8664 42.5847 27.1394C41.7497 28.763 41.193 30.5258 40.4972 32.1958C40.358 32.5669 40.2653 32.938 40.2189 33.3555C39.8941 35.3502 41.0539 36.5099 43.0022 36.046C43.8836 35.8605 44.8113 35.5357 45.5535 35.0255C47.9658 33.4483 50.3316 31.7783 52.6974 30.1083C56.6868 27.2786 59.934 23.8458 61.7895 19.2534C62.1606 18.3256 62.7637 17.4442 63.3668 16.5628C63.9698 15.6815 64.7584 15.4959 65.4542 15.867C66.1965 16.2381 66.5212 17.0731 66.1964 18.0473C65.9181 18.8359 65.547 19.6245 65.1759 20.3667C64.4801 21.8047 63.6915 23.1964 62.9956 24.6344C62.8101 25.0055 62.7637 25.3767 62.6245 25.7942C62.7173 25.8405 62.7637 25.9333 62.8565 25.9797C63.1812 25.7478 63.5523 25.5622 63.877 25.2839C66.1501 23.2892 68.3303 21.1553 70.6961 19.2998C72.3197 18.0009 74.1289 16.9803 75.938 15.9598C77.1905 15.264 78.6286 15.032 80.113 15.4031C82.0613 15.867 83.4066 17.3978 83.3602 19.3925C83.3602 20.5059 83.1746 21.712 82.7572 22.7325C81.8294 24.9128 80.7161 27.0003 79.6955 29.0877C79.1389 30.2475 78.4894 31.3608 77.8864 32.5205C77.7472 32.7988 77.608 33.0772 77.5153 33.3555C77.1905 34.1905 77.005 35.0255 77.6544 35.7213C78.3039 36.4171 79.1388 36.2316 79.8811 35.9532C80.9944 35.5357 82.2005 35.1183 83.1747 34.4224C85.958 32.4741 88.6485 30.433 91.339 28.3455C91.8957 27.928 92.2668 27.1394 92.5915 26.49C94.4935 22.6861 96.9057 19.3925 100.617 17.1659C103.214 15.5887 105.951 14.6609 108.967 15.4959C110.451 15.9134 111.843 16.702 113.234 17.3978C114.487 18.0473 114.765 18.0937 115.647 17.0267C115.971 16.6092 116.389 16.2381 116.806 15.9598C117.363 15.5887 117.966 15.5423 118.569 15.9598C119.126 16.3773 119.311 16.9803 119.126 17.5834C118.894 18.372 118.569 19.1142 118.198 19.8564C115.879 24.3097 113.513 28.763 111.147 33.2163C110.729 34.0049 110.312 34.8399 109.987 35.6285C109.894 35.8605 109.987 36.1388 109.987 36.4171C110.266 36.4171 110.544 36.4171 110.776 36.3707C111.008 36.3244 111.24 36.1388 111.472 36.046C114.858 34.0977 118.291 32.103 121.677 30.1547C122.466 29.6908 122.883 29.0877 123.069 28.2064C123.718 24.7272 125.388 21.7584 127.94 19.3461C128.589 18.7431 129.378 18.1864 130.213 17.7689C131.048 17.3514 131.929 17.6298 132.346 18.2328C132.764 18.8359 132.625 19.6245 132.022 20.3203C131.558 20.8306 131.001 21.2945 130.491 21.7584C128.357 23.7531 126.965 26.1189 126.641 29.0414C126.594 29.6444 126.548 30.2938 126.594 30.8969C126.873 34.8863 129.934 37.0666 133.785 35.9532C136.336 35.211 138.331 33.6338 140.001 31.6391C140.557 30.9897 140.465 30.5722 139.722 30.0619C139.119 29.6908 138.516 29.3197 138.006 28.8558C134.944 26.3508 134.016 22.5006 135.594 18.8823C136.521 16.702 138.563 15.3103 140.789 15.3567C143.526 15.4031 145.521 16.7948 146.356 19.207C147.144 21.48 147.098 23.7994 146.588 26.1189C146.495 26.3972 146.402 26.7219 146.356 27.0003C146.031 28.16 146.356 28.5775 147.562 28.5311C149.649 28.5311 151.691 28.0672 153.592 27.1394C154.752 26.5364 155.865 25.7942 156.979 25.0983C157.396 24.82 157.814 24.5417 158.278 24.3561C158.834 24.1242 159.484 24.1242 159.762 24.6808C159.994 25.0983 160.087 25.7942 159.901 26.2117C159.669 26.7683 159.205 27.325 158.695 27.6961C154.938 30.5722 150.716 32.0102 145.985 31.7783C144.639 31.6855 143.758 32.0566 142.923 33.1235C140.743 35.9069 138.006 38.0407 134.62 39.2468C133.599 39.6179 132.486 39.8499 131.419 39.9427C127.708 40.1746 125.11 38.5046 123.672 35.0719C123.533 34.7935 123.44 34.4688 123.347 34.1905C122.976 33.2163 122.605 33.0308 121.677 33.541C116.899 36.3244 112.121 39.1077 107.389 41.9838C106.74 42.4013 106.23 43.1899 105.859 43.9321C102.89 49.5915 100.014 55.3437 97.0448 61.0031C95.6068 63.74 93.6121 66.013 91.0143 67.683C88.7413 69.1211 86.2827 69.7241 83.6385 69.4922C80.7625 69.2138 78.7677 67.2655 78.5358 64.3894C78.3039 61.6061 79.0925 59.1011 80.8552 56.9209C82.618 54.7406 84.7519 52.9315 87.0713 51.4006C91.8957 48.1998 96.8129 45.1382 101.684 42.0765C102.797 41.3807 103.678 40.5457 104.142 39.3396C104.421 38.6438 104.792 37.9943 105.07 37.2521C105.163 36.9274 105.116 36.5563 105.116 36.2316C104.792 36.3244 104.467 36.3244 104.189 36.5099C103.215 37.113 102.287 37.8552 101.22 38.3191C99.689 38.9685 98.0654 39.5716 96.4418 39.8499C93.6585 40.3138 91.8493 39.0149 91.1535 36.2316C90.9679 35.5357 90.8751 34.7935 90.7824 34.0977C90.6432 33.1699 90.2257 32.9844 89.4835 33.6338C88.5557 34.376 87.7207 35.211 86.793 35.9532C84.7055 37.6232 82.4788 39.0149 79.8347 39.6179C78.7214 39.8499 77.5153 39.9427 76.3555 39.8499C74.8711 39.7107 73.8969 38.7366 73.7578 37.2985C73.665 36.1852 73.7114 34.9791 74.0825 33.9121C74.7319 32.103 75.6597 30.3866 76.4947 28.6239C77.4225 26.6755 78.443 24.7736 79.3708 22.8253C79.6955 22.1295 79.8811 21.3409 79.9738 20.5523C80.0666 19.6245 79.4636 19.0214 78.5358 19.0678C77.84 19.1142 77.0978 19.2998 76.4483 19.5781C73.9897 20.6914 71.9022 22.4078 69.9539 24.1706C65.4078 28.2527 61.0937 32.5205 57.5218 37.5305C56.9651 38.2727 56.2229 38.9221 55.4807 39.4788C54.8776 39.9427 54.1354 40.1282 53.4396 39.6179C52.7438 39.0613 52.7902 38.2727 53.0685 37.5305C53.6715 36.0924 54.321 34.7008 54.924 33.3091C55.1096 32.938 55.2024 32.5205 55.2951 32.103C55.0632 31.8247 54.9704 31.7783 54.8776 31.6855ZM94.679 32.2422C94.6326 34.9791 95.8851 35.9996 98.2509 35.3038C99.2251 35.0255 100.246 34.6544 101.127 34.1441C104.189 32.5205 106.926 30.3866 109.291 27.8353C110.126 26.9075 110.869 25.8405 111.379 24.7272C112.492 22.3614 111.286 20.042 108.781 19.2998C106.462 18.6039 104.328 19.207 102.333 20.4595C100.06 21.8511 98.2509 23.7531 96.8129 26.0725C95.6532 28.0208 94.7718 30.1083 94.679 32.2422ZM36.2295 19.0214C35.7192 19.1142 34.9306 19.207 34.142 19.3925C28.9928 20.8306 23.9365 26.8611 23.3334 32.1958C23.1015 34.4688 24.4932 35.8141 26.6734 35.3038C27.8331 35.0255 29.0392 34.5152 30.0598 33.8658C33.2142 31.9174 35.9975 29.4588 38.4561 26.6291C39.2447 25.7014 39.8014 24.5881 40.3116 23.4747C40.7755 22.4542 40.59 21.3872 39.8941 20.4595C39.0592 19.2998 37.8531 19.0678 36.2295 19.0214ZM85.4477 65.7811C86.8393 65.7811 88.0918 65.3172 89.066 64.3894C90.2257 63.3225 91.3854 62.1628 92.3596 60.9103C95.1893 57.1064 97.3232 52.8851 99.3643 48.6173C99.5498 48.1998 99.5498 47.6895 99.6426 47.2257C99.1787 47.3648 98.622 47.4112 98.2045 47.6432C95.0501 49.7306 91.8493 51.7717 88.7413 53.952C87.3032 54.9262 86.0044 56.0859 84.7519 57.292C83.453 58.4981 82.4324 59.9825 82.1077 61.7917C81.6902 64.343 82.9427 65.8275 85.4477 65.7811ZM143.294 24.9592C143.619 23.5675 143.573 22.0831 143.062 20.6914C142.923 20.3667 142.83 20.0884 142.645 19.7636C141.717 18.14 139.769 18.1864 138.702 19.7173C138.006 20.7378 137.867 21.8975 138.238 23.1036C138.748 24.82 139.954 26.0725 141.439 26.9539C142.134 27.3714 142.645 27.1858 142.877 26.3972C143.062 25.9333 143.155 25.4694 143.294 24.9592Z" fill="#070A24"/>
<path d="M35.3481 0.976184C46.0638 0.976184 56.826 0.976184 67.5417 0.976184C68.052 0.976184 68.5623 0.976184 69.0261 1.06896C69.7684 1.25451 70.2322 1.76479 70.2786 2.55339C70.325 3.342 69.8611 3.85227 69.1653 4.03783C68.3767 4.22338 67.5417 4.26977 66.7531 4.26977C52.6974 4.26977 38.5953 4.31616 24.5395 4.26977C22.5912 4.26977 21.4779 5.05837 20.6429 6.72836C17.1638 13.5939 13.5455 20.3666 10.0663 27.2321C8.4891 30.2937 7.09745 33.4018 5.56662 36.4634C5.19552 37.252 4.77802 38.087 4.31413 38.8292C3.80386 39.6178 3.01526 39.8498 2.27304 39.5251C1.43804 39.1539 1.15971 38.4581 1.29888 37.6695C1.48443 36.6954 1.76276 35.6748 2.18026 34.7934C4.63885 29.5979 7.14384 24.4488 9.74159 19.346C11.6435 15.635 13.6846 11.9703 15.6793 8.30557C16.0504 7.65613 16.3752 6.9603 16.6071 6.26448C16.9782 5.19754 16.5143 4.59449 15.4474 4.40894C14.9371 4.31616 14.3804 4.36255 13.8702 4.36255C10.1127 4.36255 6.40162 4.36255 2.64415 4.36255C2.08748 4.31616 1.43804 4.26977 0.927771 3.99144C0.510274 3.7595 0 3.20283 0 2.78534C0 2.32145 0.417497 1.67201 0.788605 1.44007C1.43804 1.11535 2.22665 1.02257 2.96887 0.976184C6.35523 0.929795 9.74159 0.976184 13.1743 0.976184C20.5501 0.976184 27.9723 0.976184 35.3481 0.976184Z" fill="#070A24"/>
</svg>
