<svg width="170" height="49" viewBox="0 0 170 49" fill="none" xmlns="http://www.w3.org/2000/svg">
<path d="M59.0749 18.0645C58.6018 18.0645 58.2471 18.4586 58.2471 18.8923V24.6474H49.8114V18.8923C49.8114 18.4192 49.4172 18.0645 48.9836 18.0645C48.55 18.0645 48.1558 18.4586 48.1558 18.8923V32.0582C48.1558 32.5313 48.55 32.886 48.9836 32.886C49.4566 32.886 49.8114 32.4918 49.8114 32.0582V26.1848H58.2471V32.0188C58.2471 32.4918 58.6412 32.8466 59.0749 32.8466C59.5085 32.8466 59.9027 32.4524 59.9027 32.0188V18.8923C59.9027 18.4192 59.5085 18.0645 59.0749 18.0645Z" fill="#070A24"/>
<path d="M74.5271 18.7348C74.33 18.2618 74.0146 17.9858 73.5022 17.9858H73.4233C72.9109 17.9858 72.5955 18.2618 72.3984 18.7348L66.4461 31.7037C66.3673 31.8614 66.3279 32.019 66.3279 32.1373C66.3279 32.5709 66.6432 32.8863 67.0768 32.8863C67.471 32.8863 67.7076 32.6892 67.8652 32.3344L69.4026 28.9444H77.4047L78.942 32.295C79.0997 32.6103 79.3756 32.8863 79.7698 32.8863C80.2034 32.8863 80.5582 32.5315 80.5582 32.0979C80.5582 31.9796 80.5188 31.8219 80.4399 31.6643L74.5271 18.7348ZM70.0727 27.407L73.4233 19.9174L76.7739 27.407H70.0727Z" fill="#070A24"/>
<path d="M93.2905 18.1436H87.8112C87.3776 18.1436 86.9834 18.5377 86.9834 18.9714V32.0191C86.9834 32.4921 87.3776 32.8469 87.8112 32.8469C88.2842 32.8469 88.639 32.4527 88.639 32.0191V27.0917H92.8568L96.9958 32.4527C97.1929 32.6892 97.4295 32.8863 97.7842 32.8863C98.2178 32.8863 98.612 32.4921 98.612 32.0585C98.612 31.822 98.4938 31.6249 98.3361 31.4672L94.7095 26.7763C96.9958 26.3427 98.612 24.9236 98.612 22.5191V22.4797C98.612 21.3365 98.1784 20.3116 97.4689 19.6021C96.5622 18.6954 95.1037 18.1436 93.2905 18.1436ZM96.917 22.5979C96.917 24.49 95.3402 25.5938 93.1722 25.5938H88.6784V19.6809H93.1722C95.5373 19.6809 96.917 20.7846 96.917 22.5585V22.5979Z" fill="#070A24"/>
<path d="M116.666 18.0645C116.272 18.0645 115.996 18.3404 115.838 18.6557L110.792 30.7968L105.747 18.6952C105.589 18.3404 105.313 18.0645 104.88 18.0645C104.407 18.0645 104.052 18.4586 104.052 18.8923C104.052 19.0499 104.091 19.1288 104.131 19.2864L109.768 32.2947C109.925 32.7284 110.241 32.9649 110.714 32.9649H110.792C111.265 32.9649 111.581 32.6889 111.738 32.2947L117.415 19.2076C117.454 19.0894 117.494 19.0105 117.494 18.8923C117.494 18.4192 117.139 18.0645 116.666 18.0645Z" fill="#070A24"/>
<path d="M135.035 18.0645C134.562 18.0645 134.208 18.4586 134.208 18.8923V26.6578C134.208 29.8508 132.512 31.4669 129.793 31.4669C127.033 31.4669 125.338 29.6931 125.338 26.5396V18.8923C125.338 18.4192 124.944 18.0645 124.51 18.0645C124.077 18.0645 123.683 18.4586 123.683 18.8923V26.6578C123.683 30.7968 126.166 33.0043 129.753 33.0043C133.419 33.0043 135.863 30.7968 135.863 26.5396V18.8923C135.863 18.4192 135.469 18.0645 135.035 18.0645Z" fill="#070A24"/>
<path d="M148.319 24.687C145.087 24.0168 144.338 23.2284 144.338 21.8488V21.8094C144.338 20.5085 145.56 19.4442 147.452 19.4442C148.792 19.4442 150.014 19.8384 151.236 20.7056C151.394 20.8239 151.512 20.8633 151.709 20.8633C152.143 20.8633 152.498 20.5085 152.498 20.0749C152.498 19.7596 152.301 19.5231 152.143 19.4048C150.803 18.4587 149.423 17.9463 147.492 17.9463C144.732 17.9463 142.682 19.6413 142.682 21.9276V21.967C142.682 24.3716 144.22 25.4359 147.61 26.1849C150.685 26.8156 151.394 27.604 151.394 28.9442V28.9836C151.394 30.4421 150.093 31.467 148.122 31.467C146.27 31.467 144.89 30.9152 143.51 29.7326C143.392 29.6143 143.234 29.5355 142.998 29.5355C142.564 29.5355 142.209 29.8903 142.209 30.3633C142.209 30.6392 142.328 30.8758 142.525 30.994C144.141 32.2948 145.915 32.965 148.043 32.965C150.961 32.965 153.05 31.3488 153.05 28.826V28.7865C153.089 26.5791 151.591 25.3965 148.319 24.687Z" fill="#070A24"/>
<path d="M169.211 18.1436H159.041C158.608 18.1436 158.253 18.4983 158.253 18.9319C158.253 19.3655 158.608 19.6809 159.041 19.6809H163.299V32.0585C163.299 32.5315 163.693 32.8863 164.126 32.8863C164.56 32.8863 164.954 32.4921 164.954 32.0585V19.6809H169.211C169.645 19.6809 170 19.3655 170 18.9319C170 18.4983 169.606 18.1436 169.211 18.1436Z" fill="#070A24"/>
<path d="M26.1991 20.8237H1.08915C0.103673 20.8237 -0.369357 22.0063 0.340187 22.6764C2.19288 24.4897 5.18874 27.4856 8.57878 30.8362H17.7634C18.3153 30.8362 18.7489 31.2698 18.7489 31.8611C18.7489 32.137 18.6306 32.3735 18.4336 32.5706C18.2365 32.7677 17.9999 32.8466 17.724 32.8466H10.5892C11.7717 34.0291 12.9937 35.2511 14.2157 36.4337H21.3506C21.9024 36.4337 22.336 36.8673 22.336 37.4192C22.336 37.6951 22.2178 37.9316 22.0601 38.1287C21.863 38.3258 21.6265 38.4441 21.3506 38.4441H16.2261L25.8049 48.0229C26.4751 48.693 27.6576 48.22 27.6576 47.2739V22.2428C27.6182 21.4544 26.9875 20.8237 26.1991 20.8237Z" fill="#070A24"/>
<path d="M9.52471 13.3737C9.64297 13.6102 9.87949 13.7679 10.1554 13.7284C10.5496 13.7284 10.8255 13.4131 10.8255 13.0189L10.4314 3.71598C10.4314 3.24296 10.0372 2.88818 9.56413 2.88818H5.22803C4.755 2.88818 4.47907 3.36121 4.67616 3.79482L9.52471 13.3737Z" fill="#070A24"/>
<path d="M14.7675 13.6496C15.2011 13.6102 15.5559 13.3343 15.6741 12.9401L18.3546 3.08529C18.5123 2.53342 18.2364 1.90272 17.7239 1.6662L14.6098 0.0894368C14.058 -0.186497 13.4272 0.207694 13.4272 0.8384L13.7426 12.7824C13.782 13.216 14.2156 13.6496 14.7675 13.6496Z" fill="#070A24"/>
<path d="M20.2076 15.2659C20.5229 15.2659 20.8383 15.1082 20.996 14.8323L24.5831 9.1165C24.8196 8.76173 24.7802 8.24928 24.4649 7.97335L21.5873 5.09575C21.1536 4.66214 20.4441 4.93808 20.3653 5.52936L19.3404 14.2804C19.2615 14.7929 19.6557 15.2659 20.2076 15.2659Z" fill="#070A24"/>
</svg>
