<svg width="21" height="17" viewBox="0 0 21 17" fill="none" xmlns="http://www.w3.org/2000/svg">
<path d="M20.706 1.99666C19.9445 2.33407 19.1266 2.56205 18.2666 2.6651C19.1539 2.13417 19.8177 1.29856 20.1342 0.314172C19.3006 0.809334 18.3882 1.15787 17.4368 1.34464C16.797 0.66149 15.9495 0.208687 15.026 0.056532C14.1024 -0.0956235 13.1545 0.0613811 12.3293 0.50317C11.5042 0.944959 10.848 1.64681 10.4626 2.49977C10.0772 3.35272 9.98416 4.30906 10.198 5.22029C8.50882 5.13548 6.85637 4.69644 5.34787 3.93166C3.83937 3.16689 2.50854 2.09347 1.44174 0.781074C1.07697 1.4103 0.867234 2.13983 0.867234 2.91679C0.866827 3.61622 1.03907 4.30494 1.36868 4.92185C1.69829 5.53875 2.17507 6.06476 2.75673 6.4532C2.08216 6.43174 1.42248 6.24946 0.832581 5.92155V5.97627C0.832513 6.95726 1.17184 7.90805 1.793 8.66733C2.41415 9.42661 3.27886 9.94761 4.24042 10.1419C3.61464 10.3113 2.95857 10.3362 2.32174 10.2149C2.59303 11.0589 3.12149 11.7971 3.83312 12.3259C4.54476 12.8547 5.40395 13.1478 6.29041 13.164C4.78559 14.3453 2.92715 14.9861 1.01405 14.9833C0.675166 14.9834 0.336567 14.9636 0 14.924C1.94191 16.1726 4.20243 16.8352 6.51109 16.8326C14.3262 16.8326 18.5986 10.3599 18.5986 4.74609C18.5986 4.56371 18.594 4.3795 18.5858 4.19712C19.4168 3.59614 20.1341 2.85194 20.7042 1.9994L20.706 1.99666Z" fill="#1D9BF0"/>
</svg>
