<svg width="90" height="90" viewBox="0 0 90 90" fill="none" xmlns="http://www.w3.org/2000/svg">
<path d="M60.6341 47.6248C60.6341 44.0491 57.2867 43.7448 57.2867 43.7448H50.1734L46.1032 36.6696C46.1032 36.6696 46.1032 23.394 46.1032 20.8834C46.1032 18.3729 42.1472 18.9434 42.1472 18.9434V18.2968H60.1776C55.5749 15.6341 50.1734 14.0745 44.4676 14.0745C27.1599 14.0745 13.1235 28.1108 13.1235 45.4185C13.1235 54.0533 16.6231 61.8893 22.2909 67.5571V45.1903C22.2909 43.1362 18.3349 43.1742 18.3349 43.1742C18.3349 43.1742 16.7753 42.4134 18.449 42.4134C20.1227 42.4134 20.9215 40.8919 20.9215 40.8919L30.8116 18.1446H33.5504L60.5961 63.4109C60.6341 63.4489 60.6341 51.2385 60.6341 47.6248Z" fill="#070A24"/>
<path d="M55.4607 31.3821C54.2054 31.3821 53.6729 31.3821 53.6729 31.3821V29.2139H54.3956C55.6129 29.2139 56.678 28.9096 57.705 28.2249C58.7321 27.5402 59.4168 26.6273 59.5689 25.41C59.683 24.6492 59.7591 23.6222 59.4928 22.8995C59.3407 22.443 59.0744 21.9865 58.7321 21.6061C57.9713 20.6932 56.8682 19.9705 55.6509 19.9705C53.4827 19.9705 52.5698 19.9705 52.5698 19.9705L52.5317 20.1607V40.7017C52.5317 40.7017 53.2164 42.2232 55.3847 42.2232C57.5529 42.2232 60.596 41.1581 60.596 36.7456C60.7101 32.3331 56.7541 31.3821 55.4607 31.3821Z" fill="#070A24"/>
<path d="M22.9753 42.3373C22.9753 42.3373 33.6262 42.3373 36.8215 42.3373C40.0168 42.3373 41.7285 44.2012 41.7285 44.2012H42.1469L30.5831 24.8774L27.1216 32.8276L34.0066 32.8656L34.7674 34.273H26.4749L22.9753 42.3373Z" fill="#070A24"/>
<path d="M63.2586 47.3583V70.562C70.9044 64.8562 75.8114 55.7269 75.8114 45.4564C75.8114 36.6694 72.1977 28.7193 66.3397 23.0134V24.8393C66.3397 26.475 64.3237 29.6702 59.5308 29.6702V30.393C63.3727 30.393 68.1656 32.5231 68.1656 36.8596C68.1656 41.196 64.5139 42.5654 64.5139 42.5654L67.0625 42.6415V43.3262C63.2586 43.3642 63.2586 47.3583 63.2586 47.3583Z" fill="#070A24"/>
<path d="M9.31957 29.3661C9.47172 29.0238 9.5478 28.9096 9.62388 28.6814L11.5639 29.6324C12.2105 29.9367 12.8572 30.279 13.0474 30.3932C13.0854 30.279 13.1615 30.1269 13.2376 29.9367C13.2756 29.8226 13.3517 29.7085 13.3897 29.6324C13.1615 29.5563 12.4768 29.252 11.8682 28.9477L9.92819 27.9967C10.1184 27.6163 10.2325 27.3881 10.3466 27.1979C10.4988 26.8936 10.6509 26.7414 10.765 26.7034C10.5749 26.5893 10.3466 26.4752 10.1945 26.323C10.1564 26.4371 10.0043 26.8175 9.85211 27.1599L8.97722 28.9096C8.74899 29.3661 8.63487 29.5943 8.52075 29.7085C8.67291 29.7845 8.93918 30.0128 9.0533 30.0888C9.09134 29.9367 9.12937 29.7465 9.31957 29.3661Z" fill="#070A24"/>
<path d="M13.0092 26.7793C13.6179 27.1597 14.1884 27.5781 14.3786 27.7303C14.4167 27.6542 14.5308 27.5021 14.6449 27.3119C14.721 27.1977 14.7971 27.0836 14.8351 27.0456C14.6069 26.9315 13.9982 26.5511 13.4277 26.2087L13.0853 25.9805C13.0853 25.9805 13.0853 25.9805 13.0853 25.9425L14.2645 24.1166C14.2645 24.1166 14.2645 24.1166 14.3026 24.1166L14.6449 24.3448C15.2535 24.7252 15.8241 25.1436 16.0143 25.2958C16.0523 25.2578 16.1665 25.0295 16.2425 24.8774C16.3186 24.7633 16.3947 24.6491 16.4327 24.5731C16.2045 24.4589 15.5959 24.0786 15.0253 23.6982L14.1884 23.2037C13.5037 22.7472 13.0092 22.4048 12.819 22.2527C12.781 22.3668 12.6669 22.4809 12.5908 22.6711C12.5147 22.7852 12.4387 22.8993 12.4006 22.9754C12.5908 23.0895 13.0473 23.3178 13.732 23.7742L13.8081 23.8123C13.8081 23.8123 13.8081 23.8123 13.8081 23.8503L12.6288 25.6381C12.6288 25.6381 12.6288 25.6381 12.5908 25.6381L12.5147 25.6001C11.792 25.1436 11.3736 24.8393 11.2214 24.6872C11.1834 24.7633 11.1073 24.9154 10.9932 25.1056C10.9171 25.2197 10.841 25.3338 10.803 25.4099C11.0312 25.486 11.5257 25.7903 12.2104 26.2468L13.0092 26.7793Z" fill="#070A24"/>
<path d="M16.0525 22.443C16.6992 22.9756 17.1176 23.394 17.2698 23.5462C17.3078 23.4701 17.4219 23.356 17.5741 23.1658C17.7643 22.9375 18.1066 22.6332 18.6011 22.0246C18.7533 21.8724 18.7913 21.7964 18.7913 21.7583C18.6772 21.6442 18.5251 21.416 18.411 21.2638C18.3349 21.4921 18.2208 21.7203 17.8784 22.1007C17.7263 22.2909 17.6121 22.405 17.498 22.5191C17.46 22.5571 17.4219 22.5952 17.3839 22.5952C17.3459 22.5952 17.2317 22.5191 16.4329 21.8724L16.2047 21.6823V21.6442C16.2808 21.5301 16.6612 21.1117 16.8133 20.9595C17.0035 20.7693 17.0796 20.7313 17.1937 20.6932C17.0796 20.5791 16.8514 20.3889 16.7372 20.2368C16.6992 20.3129 16.6612 20.3889 16.4329 20.6552C16.3188 20.8074 15.9384 21.2638 15.8623 21.3399H15.8243L14.8353 20.5411C14.8353 20.5411 14.8353 20.5411 14.8353 20.503C15.0635 20.2368 15.2918 19.9705 15.4439 19.8183C15.6722 19.5901 15.7863 19.514 15.8623 19.476C15.6341 19.2858 15.482 19.0956 15.4059 19.0195C15.3678 19.1336 15.2157 19.3238 15.1016 19.438L14.2267 20.465C14.1126 20.5791 13.9984 20.7313 13.9224 20.8074C14.0745 20.8834 14.4929 21.1877 15.2157 21.7964L16.0525 22.443Z" fill="#070A24"/>
<path d="M19.5519 18.8674C19.7801 19.5521 19.9323 20.0846 20.0083 20.427C20.0464 20.3889 20.1605 20.2368 20.3127 20.1227C20.4268 20.0085 20.5029 19.9705 20.5789 19.9325C20.4648 19.7042 20.2366 19.1336 20.0844 18.7152V18.6772L21.1495 17.7262C21.1495 17.7262 21.1495 17.7262 21.1876 17.7262C21.5299 17.9164 22.1766 18.1827 22.4048 18.3348C22.4809 18.2588 22.633 18.1066 22.7852 17.9544C22.8232 17.9164 22.9373 17.8023 23.0895 17.7262C22.7852 17.6501 22.1005 17.3458 21.4919 17.0795C20.3507 16.547 19.0954 15.9764 18.9433 15.9003C18.715 15.7862 18.677 15.7862 18.6389 15.8243C18.6009 15.8623 18.6389 15.9003 18.715 16.1286L19.5519 18.8674ZM20.693 17.4599C20.7311 17.498 20.7311 17.4599 20.693 17.4599L19.8942 18.2207C19.8942 18.2207 19.8942 18.2207 19.8562 18.2207L19.3236 16.8133L20.693 17.4599Z" fill="#070A24"/>
<path d="M21.9485 14.3025C22.5571 15.5198 23.3179 17.0794 23.432 17.4217C23.5081 17.3456 23.6222 17.2696 23.7743 17.1554C23.8124 17.1174 23.9645 17.0413 24.0406 17.0033C23.8124 16.6609 23.1277 15.4057 22.6712 14.5688C23.432 15.0253 24.459 15.5578 25.372 16.1284C25.448 16.1664 25.448 16.1664 25.448 16.0904C25.3339 15.1774 25.2578 13.9602 25.1437 12.9712C25.6763 13.7319 26.5892 14.8351 26.8555 15.2155C26.9316 15.1394 27.0837 15.0253 27.2359 14.9112C27.388 14.797 27.4641 14.759 27.5402 14.721C27.2739 14.4547 26.2088 13.1994 25.372 12.1724C25.1818 11.9441 24.9916 11.6778 24.8014 11.4877C24.6873 11.3735 24.6873 11.3735 24.6492 11.3735C24.6112 11.3735 24.6112 11.4116 24.6112 11.6018C24.6492 11.9441 24.6873 12.2484 24.6873 12.9712L24.8394 15.1013L22.5951 13.9602C22.2908 13.808 21.8343 13.5798 21.6441 13.5037C21.5681 13.4657 21.53 13.4657 21.53 13.4657C21.53 13.4657 21.53 13.5037 21.53 13.5798C21.6822 13.7319 21.7963 13.9982 21.9485 14.3025Z" fill="#070A24"/>
<path d="M27.8445 12.7431C28.2249 13.5039 28.4531 14.0744 28.5292 14.2646C28.6053 14.2266 28.7574 14.1505 28.9476 14.0364C29.2139 13.9223 29.6323 13.7321 30.317 13.3897C30.5072 13.2756 30.5833 13.2376 30.5833 13.2376C30.5453 13.0854 30.4692 12.8192 30.4311 12.629C30.279 12.7811 30.0508 12.9713 29.5943 13.1615C29.3661 13.2756 29.2519 13.3137 29.0998 13.3897C29.0617 13.3897 28.9857 13.4278 28.9476 13.4278C28.9096 13.4278 28.8335 13.2756 28.377 12.3627L28.2249 12.0964V12.0584C28.339 11.9823 28.8715 11.7541 29.0617 11.678C29.29 11.6019 29.4041 11.5639 29.5182 11.5639C29.4421 11.4117 29.328 11.1454 29.29 10.9553C29.2519 10.9933 29.1378 11.0694 28.8335 11.2215C28.6814 11.2976 28.1488 11.5639 28.0347 11.6019H27.9967L27.4261 10.4607C27.4261 10.4607 27.4261 10.4607 27.4261 10.4227C27.7684 10.2706 28.0727 10.1184 28.2629 10.0423C28.5672 9.9282 28.6814 9.89016 28.7955 9.9282C28.6814 9.69997 28.6053 9.4337 28.5672 9.31958C28.4912 9.39566 28.2629 9.50977 28.1108 9.58585L26.8935 10.1564C26.7414 10.2325 26.5892 10.3086 26.4751 10.3466C26.5892 10.4988 26.8555 10.9553 27.2739 11.7921L27.8445 12.7431Z" fill="#070A24"/>
<path d="M31.0017 11.2975C31.268 11.9822 31.4582 12.6288 31.4962 12.8951C31.5723 12.8571 31.8005 12.7429 31.9527 12.7049C32.0668 12.6669 32.219 12.6288 32.295 12.5908C32.1429 12.3625 31.9527 11.792 31.7244 11.1453L31.6864 10.9931C31.6864 10.9551 31.6864 10.9551 31.6864 10.9551C31.8766 10.879 32.1809 10.803 32.295 10.7269C32.3331 10.7269 32.3331 10.7269 32.3711 10.7269C32.6754 10.9171 33.4362 11.5257 33.8166 11.7159C34.0829 11.83 34.2731 11.868 34.5774 11.7539C34.7676 11.6778 34.9577 11.6018 35.0338 11.5257C34.9197 11.5257 34.6915 11.4116 34.3491 11.2214C33.8546 10.9551 33.284 10.5747 32.7895 10.2324C33.1319 9.81394 33.208 9.31944 33.0558 8.90101C32.9037 8.48258 32.5613 8.25435 32.2189 8.17827C31.9527 8.14023 31.5723 8.17827 31.1539 8.33043C30.9256 8.4065 30.4692 8.5967 30.355 8.63474C30.2409 8.67278 30.1268 8.71082 30.0127 8.74885C30.1649 8.93905 30.3931 9.50963 30.6594 10.2704L31.0017 11.2975ZM30.9256 8.93905C30.9637 8.90101 31.1158 8.86297 31.268 8.78689C31.7625 8.5967 32.257 8.74885 32.4852 9.31944C32.5993 9.66179 32.5233 9.9661 32.4091 10.1563C32.3711 10.1943 32.295 10.2704 32.1429 10.3084C31.8766 10.3845 31.6484 10.4606 31.5343 10.4606C31.4962 10.4606 31.4962 10.4606 31.4962 10.4226L30.9637 8.93905C30.8876 8.97709 30.8876 8.97709 30.9256 8.93905Z" fill="#070A24"/>
<path d="M35.0337 9.92816C35.2239 10.6509 35.3761 11.3356 35.4141 11.5638C35.4902 11.5258 35.7184 11.4497 35.8706 11.4117C36.0227 11.3736 36.1369 11.3356 36.2129 11.3356C36.1369 11.1834 35.9086 10.4227 35.7184 9.73796L35.4522 8.74895C35.262 7.95014 35.1098 7.34151 35.0718 7.11328C35.0337 7.15132 34.8435 7.18936 34.6153 7.26544C34.5012 7.30348 34.349 7.34151 34.2729 7.34151C34.349 7.49367 34.5392 8.14033 34.7675 8.93915L35.0337 9.92816Z" fill="#070A24"/>
<path d="M37.7726 10.4226C38.3812 10.803 39.0279 10.841 39.7506 10.7269C40.2451 10.6508 40.7016 10.4606 40.8918 10.3465C40.8918 10.1944 40.8918 9.85201 40.9298 9.69985C40.6635 9.96612 40.2071 10.1183 39.7506 10.1944C38.4573 10.4226 37.7345 9.58573 37.6204 8.6728C37.5443 8.21633 37.5824 7.75987 37.8867 7.37948C38.0769 7.15125 38.3812 6.92301 38.9137 6.8089C39.5984 6.69478 40.131 6.84693 40.3973 7.03713C40.3592 6.77086 40.3592 6.46655 40.3592 6.31439C40.131 6.31439 39.6365 6.20027 38.8757 6.31439C38.0388 6.46655 37.5443 6.77086 37.164 7.22732C36.7075 7.79791 36.7075 8.44457 36.7836 8.863C36.8977 9.39554 37.164 10.0422 37.7726 10.4226Z" fill="#070A24"/>
<path d="M42.1471 10.3847C42.1851 10.1184 42.3753 9.54782 42.5275 9.1294C42.5275 9.1294 42.5275 9.1294 42.5655 9.1294L43.973 9.09136C43.973 9.09136 43.973 9.09136 44.011 9.09136C44.1632 9.47175 44.4675 10.0804 44.5816 10.3466C44.6577 10.3086 44.9239 10.3086 45.1141 10.3086C45.1902 10.3086 45.3424 10.3086 45.4945 10.3086C45.3043 10.0804 45 9.39567 44.6957 8.78705C44.1632 7.64588 43.5545 6.42863 43.4785 6.23844C43.3643 6.01021 43.3263 5.97217 43.2883 5.97217C43.2502 5.97217 43.2122 6.04825 43.1361 6.23844L42.071 8.9392C41.8048 9.6239 41.5765 10.1184 41.4624 10.4227C41.5385 10.3847 41.6906 10.3847 41.8808 10.3847C42.033 10.3847 42.071 10.3847 42.1471 10.3847ZM43.1742 7.15137L43.7828 8.55881V8.59685L42.7177 8.63489C42.7177 8.63489 42.7177 8.63489 42.7177 8.59685L43.1742 7.15137Z" fill="#070A24"/>
<path d="M46.4836 10.3086C46.5977 10.3086 46.7118 10.3086 46.826 10.3466C46.7879 9.89013 46.9401 8.52073 47.0162 7.37956C47.6628 8.14034 48.7659 9.58581 49.2605 10.1944C49.6028 10.6129 49.755 10.727 49.793 10.727C49.831 10.727 49.8691 10.6889 49.9071 10.2705L49.9832 9.43366C50.1353 8.06426 50.2875 6.69486 50.3636 6.31447C50.3255 6.31447 50.0973 6.31447 49.9452 6.31447C49.831 6.31447 49.7169 6.27643 49.6408 6.27643C49.6408 6.99917 49.4887 8.5968 49.4506 9.24346C48.9181 8.67288 47.3965 6.7329 46.826 6.08624C46.7118 5.97212 46.6738 5.93408 46.6358 5.93408C46.5977 5.93408 46.5977 5.93408 46.5597 6.23839C46.4456 7.2274 46.1793 9.77601 46.0652 10.3086C46.1413 10.2705 46.4075 10.3086 46.4836 10.3086Z" fill="#070A24"/>
<path d="M54.0152 11.6018C55.0423 11.8681 55.727 11.4497 55.9172 10.765C56.0693 10.1944 55.765 9.73792 55.3086 9.43361C55.6129 9.35753 55.9552 9.12929 56.0693 8.71087C56.1835 8.29244 56.1074 7.68382 55.0803 7.41755C54.738 7.34147 54.4717 7.26539 54.1674 7.18931C54.0533 7.15127 53.9392 7.11323 53.8631 7.0752C53.8631 7.30343 53.7109 7.87401 53.4827 8.67283L53.2164 9.6238C53.0262 10.3465 52.836 10.9932 52.7219 11.2214C52.836 11.2595 53.0262 11.2975 53.1784 11.3356C53.2545 11.3736 53.5968 11.4877 54.0152 11.6018ZM54.4717 7.72186C54.5478 7.68382 54.6239 7.72186 54.8141 7.75989C55.3466 7.91205 55.4988 8.2544 55.3846 8.67283C55.3466 8.86302 55.1944 9.09126 54.9662 9.16733C54.8901 9.20537 54.8141 9.16733 54.6999 9.16733C54.6239 9.1293 54.2435 9.05322 54.1674 9.01518V8.97714L54.4717 7.72186ZM53.9011 9.85203L54.0152 9.47164C54.0152 9.47164 54.0152 9.47164 54.0533 9.47164L54.4717 9.58576C54.6999 9.66184 54.9282 9.77596 55.0803 10.0042C55.2705 10.3085 55.2705 10.4987 55.1945 10.6889C55.0423 11.2214 54.6239 11.3356 54.2054 11.2214C53.8631 11.1454 53.7109 10.9932 53.6729 10.9552C53.5968 10.8791 53.7109 10.5367 53.9011 9.85203Z" fill="#070A24"/>
<path d="M58.1995 13.1233C59.5308 13.6939 60.71 13.0472 61.2426 11.868C61.6991 10.8029 61.2806 9.5857 60.0253 9.05316C58.6179 8.44453 57.4767 9.20531 57.0203 10.2324C56.6018 11.1453 56.754 12.5147 58.1995 13.1233ZM57.781 10.3845C58.1995 9.43355 58.9222 9.05316 59.683 9.39551C60.5959 9.7759 60.7861 10.7649 60.4057 11.7159C59.8732 12.9712 58.9983 13.0092 58.5038 12.781C57.5909 12.3625 57.3626 11.3735 57.781 10.3845Z" fill="#070A24"/>
<path d="M60.9763 14.3026C61.1284 14.3787 61.2045 14.4167 61.2426 14.4928C61.4328 14.3026 61.8892 13.9222 62.2316 13.6179C62.2316 13.6179 62.2316 13.6179 62.2696 13.6179L63.4869 14.3407C63.4869 14.3407 63.4869 14.3407 63.4869 14.3787C63.4488 14.7591 63.3347 15.4438 63.2967 15.71C63.3727 15.7481 63.601 15.8622 63.7531 15.9763C63.8292 16.0144 63.9433 16.0904 64.0574 16.1665C64.0194 15.8622 64.0955 15.1395 64.1716 14.4548C64.3237 13.1995 64.4759 11.8301 64.4759 11.6399C64.5139 11.4117 64.5139 11.3356 64.4759 11.3356C64.4378 11.2975 64.3998 11.3736 64.2096 11.4877L61.8892 13.1995C61.3186 13.6179 60.8622 13.9222 60.5579 14.1124C60.672 14.1124 60.8241 14.2265 60.9763 14.3026ZM62.65 13.2756L63.8292 12.3246L63.601 13.8461C63.601 13.8461 63.601 13.8842 63.5629 13.8461L62.65 13.2756Z" fill="#070A24"/>
<path d="M65.2747 17.0415C65.3889 16.8133 65.7312 16.3188 66.1496 15.7863L66.2257 15.6721C66.2257 15.6721 66.2638 15.6341 66.2638 15.6721C66.4159 15.7863 66.6822 15.9765 66.7583 16.0525C66.7963 16.0525 66.7963 16.0906 66.7963 16.1286C66.7963 16.509 66.7202 17.46 66.7583 17.8784C66.7963 18.1827 66.8724 18.3349 67.1386 18.5631C67.2908 18.6772 67.481 18.7913 67.5571 18.8294C67.519 18.7153 67.443 18.487 67.4049 18.1066C67.3669 17.536 67.3669 16.8513 67.4049 16.2808C67.9375 16.3188 68.3939 16.1286 68.6602 15.7482C68.9265 15.4059 68.9265 14.9874 68.8124 14.6451C68.6982 14.3788 68.47 14.1125 68.0896 13.8463C67.8994 13.6941 67.481 13.4278 67.4049 13.3518C67.2908 13.2757 67.2147 13.1996 67.1386 13.1235C67.0626 13.3518 66.7202 13.8463 66.2257 14.4929L65.6171 15.2918C65.1606 15.8623 64.7422 16.3949 64.552 16.5851C64.6281 16.6231 64.8183 16.7753 64.9704 16.8513C65.1226 16.8894 65.1987 17.0035 65.2747 17.0415ZM66.5681 15.1776L67.519 13.9224C67.519 13.9224 67.5571 13.8843 67.5571 13.9224C67.6332 13.9604 67.7473 14.0365 67.8614 14.1125C68.2798 14.4169 68.432 14.9114 68.0516 15.4059C67.8233 15.7102 67.519 15.7863 67.2908 15.7863C67.2147 15.7863 67.1386 15.7482 66.9865 15.6341C66.7583 15.4819 66.6061 15.2918 66.53 15.2157C66.5681 15.2157 66.5681 15.2157 66.5681 15.1776Z" fill="#070A24"/>
<path d="M67.8613 19.0575C68.1276 19.2857 68.2417 19.4759 68.47 19.7041C68.5841 19.8563 68.7362 20.0084 68.9264 20.1986C69.6492 20.9214 70.2958 21.0355 70.7142 20.9975C71.1707 20.9975 71.7793 20.8073 72.2738 20.3128C72.7303 19.8182 72.9205 19.3237 72.8825 18.9053C72.8825 18.1445 72.426 17.4979 71.8174 16.8893C71.5131 16.5849 71.2468 16.3567 71.1327 16.2426C71.0186 16.1285 70.9044 16.0144 70.8664 15.9763C70.7523 16.1285 70.448 16.5089 69.7633 17.1936L69.0405 17.9163C68.4319 18.563 68.0515 18.9053 67.8613 19.0575ZM69.7252 18.2587L70.2958 17.6881C70.6762 17.3077 70.9805 16.9653 71.0946 16.9273H71.1327C71.2088 16.9653 71.3609 17.0794 71.5131 17.2316C71.9695 17.6881 72.2738 18.2206 72.1978 18.7912C72.1217 19.2477 71.9315 19.59 71.5891 19.8943C71.2088 20.2747 70.7523 20.4649 70.3339 20.4649C69.9154 20.4649 69.5731 20.2367 69.2688 19.9324C69.0025 19.6661 68.8123 19.3998 68.8123 19.2857C68.8123 19.2477 68.8884 19.1716 69.0025 19.0575C69.0786 18.9434 69.3068 18.6771 69.7252 18.2587Z" fill="#070A24"/>
<path d="M73.263 25.3338C74.0998 26.5131 75.4312 26.6272 76.4963 25.9044C77.4473 25.2578 77.7516 24.0025 76.9908 22.8613C76.1159 21.606 74.7465 21.606 73.7955 22.2527C72.9587 22.8233 72.3881 24.0786 73.263 25.3338ZM74.4041 22.8233C75.279 22.2147 76.0779 22.3288 76.5343 22.9754C77.1049 23.7743 76.7245 24.7252 75.8877 25.3338C74.7845 26.0946 74.0238 25.6762 73.7194 25.2197C73.1489 24.4209 73.5292 23.4319 74.4041 22.8233Z" fill="#070A24"/>
<path d="M75.0508 28.0346C75.0888 28.1106 75.2029 28.3008 75.279 28.415C75.3931 28.6051 75.4312 28.6812 75.4312 28.7573C75.5833 28.6432 76.3821 28.1867 76.8766 27.9205L77.1429 27.7683C77.181 27.7683 77.181 27.7683 77.181 27.7683C77.3331 28.0346 77.5233 28.415 77.5994 28.5671C77.6755 28.7953 77.7135 28.9095 77.7135 29.0236C77.8657 28.9475 78.208 28.7953 78.2841 28.7953C78.246 28.7573 78.17 28.6812 78.0178 28.3769C77.9417 28.2248 77.6374 27.6922 77.5994 27.5781C77.5994 27.5781 77.5994 27.5401 77.6374 27.5401C78.0178 27.3499 78.4362 27.1216 78.8166 26.9314H78.8547C79.0449 27.2738 79.2351 27.6542 79.3111 27.8063C79.4253 28.1106 79.4633 28.1867 79.4633 28.3008C79.5774 28.2628 79.8056 28.1106 80.0339 28.0726C79.9578 27.9965 79.8437 27.8063 79.7676 27.6161L79.1209 26.3989C79.0449 26.2467 78.9307 26.0946 78.9307 25.9805C78.7786 26.0946 78.3221 26.3609 77.4853 26.8173L76.6104 27.2738C75.8116 27.7303 75.241 27.9965 75.0508 28.0346Z" fill="#070A24"/>
<path d="M10.3086 52.7979C10.4227 52.7599 10.4227 52.7979 10.4227 52.7979C10.4608 52.8359 10.4988 52.9881 10.4988 53.0642C10.5749 53.3685 10.5369 53.5967 10.4608 53.7489C10.3847 53.9771 10.1945 54.1293 9.89019 54.2053C9.31961 54.3195 9.0153 53.9771 8.90118 53.5206L8.52079 53.7108C8.71099 54.5477 9.31961 55.1183 10.1565 54.9281C10.5369 54.852 10.7651 54.5857 10.8412 54.3955C10.9933 54.0532 11.0694 53.7108 10.9172 52.9881C10.8412 52.6077 10.727 52.3795 10.689 52.1512C10.651 51.9991 10.6129 51.923 10.6129 51.8469C10.4227 51.923 9.85215 52.0752 9.09138 52.2653L8.1404 52.4936C7.45571 52.6457 6.80904 52.7979 6.58081 52.7979C6.61885 52.874 6.65689 53.1022 6.69493 53.2544C6.73297 53.4065 6.771 53.5587 6.771 53.6728C6.99924 53.5967 7.6459 53.4065 8.29256 53.2544L10.3086 52.7979Z" fill="#070A24"/>
<path d="M10.3465 57.3626L10.4225 57.0203C10.5367 56.5258 10.6888 56.4116 10.879 56.3356C11.1453 56.2595 11.4116 56.3736 11.5637 56.754C11.7159 57.2105 11.6018 57.5908 11.4876 57.743C11.7919 57.6289 12.1723 57.5528 12.2484 57.5528C12.2484 57.5148 12.2104 57.4006 12.1723 57.1724C12.1343 57.0203 12.0963 56.8301 12.0202 56.6018C11.7539 55.803 11.0692 55.4987 10.4986 55.6889C10.1182 55.803 9.77589 56.0693 9.62373 56.8301L9.54765 57.1724C9.43354 57.6669 9.28138 57.8191 9.05315 57.8952C8.74884 58.0093 8.48256 57.8571 8.33041 57.4387C8.17825 56.9822 8.33041 56.5638 8.48256 56.2595C8.21629 56.3356 7.8359 56.4497 7.72179 56.4497C7.64571 56.7159 7.72179 57.1724 7.8359 57.5148C7.91198 57.781 8.10217 58.1234 8.36845 58.3136C8.74884 58.6179 9.2053 58.6179 9.50961 58.5418C9.92804 58.4657 10.1563 58.1995 10.3465 57.3626Z" fill="#070A24"/>
<path d="M14.0364 61.509C13.9983 61.471 13.9222 61.3188 13.8081 61.0145C13.7701 60.9384 13.732 60.8243 13.694 60.7482C13.5799 60.7482 13.3136 60.7482 13.1995 60.7482L11.5638 60.6341C11.6399 60.482 12.2866 59.6071 12.3626 59.4549C12.5528 59.2267 12.743 58.9604 12.8191 58.8463C12.7811 58.8082 12.6289 58.4659 12.5528 58.3137C12.4768 58.1235 12.4387 58.0094 12.4007 57.9333C12.2866 58.2377 12.0583 58.58 11.8681 58.9224C11.716 59.1126 11.2595 59.8353 10.9552 60.2918C10.9172 60.3678 10.8411 60.4439 10.727 60.482C9.96619 60.8243 9.50973 61.0145 9.28149 61.0906C9.31953 61.1667 9.47169 61.4329 9.50973 61.547C9.58581 61.6992 9.62384 61.8514 9.66188 61.8894C9.89012 61.7372 10.4227 61.471 11.0313 61.2047C11.1074 61.1667 11.1834 61.1667 11.2595 61.1667C11.6399 61.1667 12.743 61.2808 13.0473 61.3188C13.4658 61.3949 13.8462 61.4329 14.0364 61.509Z" fill="#070A24"/>
<path d="M12.4008 65.8452C11.7542 64.7801 12.1726 63.8292 12.9334 63.3727C13.3137 63.1445 13.7322 63.0304 14.1886 63.1825C14.4549 63.2586 14.7592 63.4488 15.0255 63.9052C15.3678 64.5139 15.4439 65.0464 15.3678 65.3888C15.5961 65.2746 15.9004 65.1225 16.0906 65.0845C16.0145 64.8562 15.9004 64.3617 15.52 63.7151C15.1016 62.9923 14.6071 62.65 14.0745 62.4598C13.3898 62.2315 12.7812 62.4598 12.4389 62.688C11.9824 62.9543 11.5259 63.4107 11.4118 64.1335C11.2977 64.8182 11.5259 65.4648 11.9063 66.0735C12.1726 66.4919 12.4769 66.8723 12.6671 67.0244C12.8192 66.9484 13.1616 66.8342 13.3137 66.7962C12.9334 66.606 12.629 66.2637 12.4008 65.8452Z" fill="#070A24"/>
<path d="M19.0194 68.5843C18.9053 68.5082 18.7912 68.356 18.6771 68.2039C18.5629 68.0517 18.4869 67.9756 18.4488 67.8996C18.2967 68.0517 17.9163 68.3941 17.3457 68.8886L17.2696 68.9266H17.2316L15.9383 67.329V67.2909L16.0143 67.2529C16.661 66.7204 17.0414 66.4541 17.1935 66.34C17.1175 66.2639 17.0033 66.1117 16.8512 65.9596C16.7751 65.8455 16.661 65.6933 16.623 65.6553C16.4708 65.8455 16.0524 66.2259 15.4437 66.7204L14.683 67.329C14.1504 67.7854 13.6179 68.1658 13.3896 68.28C13.4657 68.356 13.5798 68.5082 13.732 68.6984C13.8461 68.8125 13.9222 68.9266 13.9602 68.9647C14.1504 68.7745 14.6449 68.318 15.1394 67.8996L15.4437 67.6713H15.4818L16.7751 69.269V69.307L16.4708 69.5352C15.9383 69.9917 15.4057 70.3721 15.1775 70.4862C15.2155 70.5242 15.4057 70.7144 15.5198 70.8666C15.5959 70.9807 15.71 71.1329 15.7481 71.1709C15.9383 70.9807 16.4328 70.5242 16.9273 70.1058L17.688 69.4972C18.3727 69.0407 18.8292 68.6984 19.0194 68.5843Z" fill="#070A24"/>
<path d="M19.4379 71.2088C19.9704 70.6382 20.4269 70.2579 20.6171 70.1057C20.5791 70.0677 20.4269 69.9535 20.1987 69.7633C20.1226 69.6873 19.9705 69.5731 19.9324 69.4971C19.8563 69.6492 19.3999 70.1057 18.8673 70.6763L18.1826 71.361C17.6881 71.8555 17.1936 72.3119 17.0034 72.4641C17.0795 72.5021 17.2697 72.6923 17.3838 72.8065C17.4979 72.9206 17.612 73.0347 17.6501 73.0727C17.7262 72.9206 18.2587 72.35 18.7152 71.8935L19.4379 71.2088Z" fill="#070A24"/>
<path d="M22.3289 71.9697L19.8564 73.2249C19.2097 73.5293 18.7152 73.7575 18.4109 73.9096C18.487 73.9477 18.6011 74.0618 18.7913 74.1759C18.9434 74.29 18.9815 74.3661 19.0575 74.4042C19.2858 74.252 19.7042 73.9857 20.0846 73.7955C20.0846 73.7955 20.0846 73.7955 20.1226 73.7955L21.1877 74.6704V74.7085C21.1116 75.0508 20.9215 75.6214 20.8454 75.8877C20.9215 75.9637 21.1497 76.1159 21.3018 76.23C21.3399 76.2681 21.454 76.3822 21.6062 76.4963C21.6062 76.192 21.7963 75.5073 21.9485 74.8606C22.2528 73.6814 22.5571 72.3501 22.5952 72.1979C22.6712 71.9697 22.6712 71.8936 22.6332 71.8936C22.6332 71.8175 22.5571 71.8555 22.3289 71.9697ZM21.3779 74.1379L20.5411 73.4912C20.5411 73.4912 20.5411 73.4912 20.5411 73.4532L21.7583 72.8065L21.3779 74.1379Z" fill="#070A24"/>
<path d="M26.6273 75.6593C26.7414 75.4692 26.9316 75.279 27.0837 75.1268C26.9696 75.0888 26.5892 74.8605 26.2849 74.6703L24.6873 73.6053C24.2689 73.3009 24.0406 73.1488 23.9646 73.0347C23.8504 73.1868 23.5842 73.4531 23.4701 73.5292C23.6602 73.5672 23.8124 73.6433 24.1928 73.8715C24.4971 74.0617 24.6112 74.1378 24.8395 74.29L23.6983 76.0017C23.3179 76.5723 22.8995 77.1048 22.7473 77.295C22.8234 77.3331 23.0136 77.4472 23.2038 77.5993C23.3179 77.6754 23.432 77.7515 23.5081 77.8276C23.6222 77.5993 24.0026 76.9907 24.3449 76.4582L25.4861 74.7845C25.8285 75.0127 26.0187 75.1648 26.1708 75.279C26.4371 75.3931 26.5512 75.5072 26.6273 75.6593Z" fill="#070A24"/>
<path d="M28.7194 76.0017C28.4911 75.8876 28.0347 75.6594 27.9206 75.6213C27.8064 75.5453 27.6923 75.5072 27.5782 75.4312C27.5402 75.6594 27.2739 76.1919 26.9316 76.8766L26.4751 77.7515C26.1708 78.3601 25.8284 78.9307 25.6763 79.159C25.7523 79.197 26.0186 79.3111 26.1327 79.3872C26.2469 79.4633 26.399 79.5393 26.4751 79.5774C26.5512 79.3111 26.8174 78.8166 27.0837 78.246L27.1598 78.1319C27.1598 78.1319 27.1598 78.0939 27.1978 78.1319L27.7304 78.3982C27.7684 78.4362 27.7684 78.4362 27.7684 78.4743C27.8064 78.8166 27.8825 79.7295 28.0347 80.148C28.1108 80.4142 28.2249 80.5664 28.5672 80.7186C28.7574 80.7946 28.9857 80.9087 29.0617 80.9087C28.9857 80.7946 28.9096 80.5664 28.7955 80.224C28.6433 79.6915 28.5672 79.0448 28.4531 78.4743C28.9857 78.4362 29.366 78.208 29.5943 77.7896C29.7845 77.4092 29.7464 76.9907 29.5562 76.7245C29.4421 76.4582 29.1378 76.23 28.7194 76.0017ZM28.8715 77.5613C28.7194 77.8656 28.4531 77.9798 28.2249 78.0178C28.1488 78.0178 28.0727 77.9798 27.9206 77.9417C27.6923 77.8276 27.5021 77.7135 27.4261 77.6374V77.5994L28.1108 76.306L28.1488 76.268C28.1868 76.268 28.339 76.3441 28.4531 76.4202C28.9096 76.6104 29.1378 77.0288 28.8715 77.5613Z" fill="#070A24"/>
<path d="M33.3982 78.0557C33.3221 78.1698 33.1319 78.322 33.0178 78.3981L31.7625 79.4251C31.7245 79.2349 31.5723 78.2079 31.5343 78.0177C31.4962 77.7134 31.4582 77.4091 31.4582 77.2569C31.3821 77.2569 31.0398 77.1428 30.8876 77.0667C30.6974 76.9906 30.5833 76.9526 30.4692 76.9146C30.5833 77.2189 30.6594 77.5993 30.7735 78.0177C30.8115 78.2459 31.0017 79.0828 31.0778 79.6153C31.1159 79.6914 31.1159 79.8055 31.0398 79.9196C30.7355 80.7184 30.5453 81.1369 30.4312 81.3271C30.5072 81.3271 30.7735 81.4412 30.9257 81.4792C31.1159 81.5553 31.23 81.5933 31.268 81.6314C31.3441 81.3651 31.5343 80.7945 31.7625 80.1859C31.8006 80.1098 31.8386 80.0337 31.9147 79.9577C32.1809 79.6914 33.0558 79.0067 33.3221 78.8165C33.6645 78.5883 33.9688 78.36 34.159 78.284C34.1209 78.284 33.9307 78.2079 33.6645 78.0938C33.5884 78.1698 33.4743 78.0938 33.3982 78.0557Z" fill="#070A24"/>
<path d="M37.7347 79.4632C37.6966 79.235 37.6586 79.1589 37.6205 79.1589C37.5825 79.1589 37.5445 79.197 37.3923 79.3872L35.7947 81.6315C35.3382 82.202 35.0339 82.6205 34.8057 82.8867C34.8817 82.8867 35.0719 82.9248 35.2621 82.9628C35.4523 83.0009 35.5284 83.0389 35.6045 83.0389C35.7186 82.8107 35.9849 82.3922 36.2131 82.0119C36.2131 82.0119 36.2131 82.0119 36.2511 82.0119L37.6205 82.3162C37.6205 82.3162 37.6586 82.3162 37.6586 82.3542C37.7347 82.6965 37.8488 83.2671 37.8868 83.5714C38.0009 83.5714 38.2292 83.6095 38.4574 83.6856C38.5335 83.6856 38.6856 83.7236 38.8378 83.7997C38.7237 83.5334 38.5335 82.8107 38.3813 82.202C38.115 80.9468 37.7727 79.6154 37.7347 79.4632ZM37.5064 81.7836L36.5174 81.5554C36.5174 81.5554 36.5174 81.5554 36.5174 81.5173L37.2782 80.3762L37.5064 81.7836C37.5445 81.7836 37.5445 81.7836 37.5064 81.7836Z" fill="#070A24"/>
<path d="M43.7068 80.0338C43.5927 80.0338 43.4405 79.9957 43.3644 79.9957C43.3644 80.7185 43.2883 82.202 43.2503 82.7345C42.6036 82.1639 41.1962 80.4902 40.5876 79.8436C40.4735 79.7294 40.4354 79.6914 40.3974 79.6914C40.3593 79.6914 40.3593 79.6914 40.3213 79.9957C40.2452 80.9467 40.017 83.3812 39.9409 83.9137C39.979 83.9137 40.2833 83.9137 40.3593 83.9137C40.4735 83.9137 40.5876 83.9137 40.7397 83.9518C40.7017 83.5333 40.7778 82.2781 40.8539 81.213C41.3864 81.8216 42.5656 83.191 43.0981 83.7616C43.4785 84.18 43.6307 84.2941 43.6687 84.2941C43.7068 84.2941 43.7448 84.2561 43.7448 83.9898C43.7448 83.8376 43.7828 83.3812 43.8209 83.0769C43.897 81.8596 44.0872 80.3761 44.1632 80.0338C44.0872 80.0338 43.8589 80.0338 43.7068 80.0338Z" fill="#070A24"/>
<path d="M48.8799 80.4524C48.3093 79.9578 47.5866 79.8818 46.6736 79.9198C46.2172 79.9578 45.8748 79.9959 45.7227 79.9959C45.5705 79.9959 45.4184 79.9959 45.3423 79.9959C45.3803 80.1861 45.4564 80.6425 45.5325 81.5555L45.6086 82.5445C45.6466 83.3813 45.6846 83.8759 45.6466 84.1041C45.9889 84.066 46.2172 84.066 46.5215 84.066C46.7117 84.066 46.9399 84.066 47.2062 84.066C48.2332 83.99 48.7277 83.6096 49.0321 83.3053C49.3364 82.9629 49.6026 82.4304 49.5646 81.7457C49.4885 81.1751 49.1842 80.7186 48.8799 80.4524ZM48.3093 83.2292C48.005 83.5335 47.6246 83.6476 47.2062 83.6857C46.8258 83.7237 46.5215 83.6476 46.4454 83.6096C46.4074 83.5715 46.4074 83.5335 46.3693 83.3053C46.3693 83.1911 46.3313 82.9249 46.2933 82.3163L46.2552 81.5555C46.2172 81.061 46.2172 80.6806 46.2172 80.5284C46.2172 80.5284 46.2172 80.4904 46.2552 80.4904C46.3313 80.4524 46.4835 80.4523 46.7117 80.4143C47.3203 80.3763 47.9289 80.5284 48.2713 80.9088C48.5756 81.2131 48.6897 81.5935 48.6897 82.0119C48.7277 82.5065 48.5756 82.9249 48.3093 83.2292Z" fill="#070A24"/>
<path d="M56.4117 81.3652C56.1074 80.186 55.765 78.7025 55.727 78.3601C55.6889 78.3981 55.4607 78.4362 55.3085 78.5123C55.1944 78.5503 55.0423 78.5883 54.9662 78.5883C55.2325 79.273 55.6128 80.7185 55.727 81.213C54.9281 80.8707 53.0642 79.7675 52.2654 79.3491C52.1133 79.273 52.0752 79.273 52.0372 79.273C51.9992 79.273 51.9992 79.3111 52.0752 79.5774C52.3035 80.5283 52.9121 82.8867 52.9882 83.4193C53.0262 83.4193 53.3305 83.3052 53.4066 83.3052C53.5207 83.2671 53.6348 83.2291 53.7489 83.2291C53.5587 82.8487 53.2164 81.6314 52.9501 80.6044C53.6348 80.9848 55.1944 81.9358 55.9172 82.2781C56.4117 82.5444 56.5638 82.5824 56.6399 82.5824C56.6779 82.5824 56.6779 82.5444 56.6399 82.2781C56.6019 82.0879 56.4497 81.6314 56.4117 81.3652Z" fill="#070A24"/>
<path d="M59.683 80.7566C59.4548 80.8327 59.3026 80.9087 59.1505 80.9468C59.0744 80.9848 59.0363 80.9848 58.9983 80.9468C58.9603 80.9468 58.8842 80.7946 58.5418 79.9197L58.4277 79.6915V79.6534C58.5418 79.6154 59.0744 79.3872 59.2646 79.3491C59.4928 79.2731 59.6069 79.2731 59.721 79.2731C59.645 79.1209 59.5689 78.8166 59.5308 78.6264C59.4548 78.6644 59.3787 78.7405 59.0744 78.8546C58.8842 78.9307 58.3897 79.1209 58.2756 79.197C58.2756 79.197 58.2375 79.197 58.2375 79.1589L57.8191 78.0939V78.0558C58.1234 77.9417 58.4658 77.7895 58.6559 77.7515C58.9603 77.6374 59.1124 77.6374 59.2265 77.6374C59.1124 77.3711 59.0744 77.1048 59.0363 76.9907C58.9603 77.0668 58.694 77.1429 58.5418 77.219L57.2865 77.7135C57.1344 77.7895 56.9442 77.8656 56.8301 77.8656C56.9442 78.0178 57.1344 78.4742 57.4767 79.3111L57.8191 80.224C58.1234 80.9848 58.2756 81.5173 58.3516 81.7456C58.4277 81.7075 58.6179 81.6315 58.8461 81.5554C59.1505 81.4413 59.6069 81.2891 60.2916 81.0228C60.5199 80.9468 60.5579 80.9087 60.5959 80.8707C60.5579 80.7185 60.5199 80.4142 60.5199 80.224C60.4057 80.4523 60.1014 80.6044 59.683 80.7566Z" fill="#070A24"/>
<path d="M63.7911 76.4201C63.4107 75.7354 63.1825 75.1648 63.1064 74.9746C63.0684 75.0126 62.9162 75.0887 62.726 75.2028C62.6499 75.2409 62.4978 75.317 62.4217 75.355C62.5358 75.5452 62.8782 76.0397 63.2205 76.7244L63.4868 77.2189C63.8291 77.8275 63.9052 78.1699 63.8291 78.5122C63.7531 78.7785 63.4868 78.9307 63.3346 79.0448C63.1444 79.1208 62.9162 79.235 62.6119 79.1969C62.3076 79.1589 62.0413 78.9687 61.737 78.3601L61.3946 77.7134C61.0143 77.0287 60.748 76.4581 60.71 76.2679C60.6339 76.344 60.4437 76.4581 60.2154 76.5722C60.1013 76.6483 59.9492 76.6864 59.9111 76.7244C60.0252 76.8766 60.3676 77.4091 60.748 78.0938L61.1664 78.8546C61.5468 79.5393 61.8892 79.7675 62.2695 79.8436C62.688 79.9197 63.1825 79.7675 63.5629 79.5393C63.9052 79.3491 64.2476 79.0828 64.4378 78.6644C64.704 78.0558 64.4378 77.4471 64.1335 76.9146L63.7911 76.4201Z" fill="#070A24"/>
<path d="M68.8122 75.4692C68.2797 75.3551 67.6711 75.1649 67.1005 74.9747C67.2907 74.4802 67.2907 74.0237 67.0244 73.6433C66.7581 73.2629 66.3777 73.1488 66.0354 73.1869C65.7691 73.2249 65.4268 73.3771 65.0464 73.6433C64.8562 73.7955 64.4378 74.0998 64.3617 74.1759C64.2476 74.2519 64.1335 74.328 64.0574 74.4041C64.2476 74.5182 64.5899 75.0127 65.0464 75.6594L65.617 76.4582C66.0354 77.0288 66.3777 77.5994 66.4919 77.7896C66.5679 77.7515 66.7962 77.5613 66.9103 77.4852C67.0244 77.4092 67.1385 77.3331 67.2146 77.2951C67.0244 77.1049 66.6821 76.6484 66.3017 76.1159L66.2256 76.0017V75.9637L66.7201 75.6213C66.7581 75.5833 66.7581 75.5833 66.7962 75.6213C67.1385 75.7355 67.9754 76.0778 68.4318 76.1539C68.6981 76.1919 68.8883 76.1919 69.1926 75.9637C69.3448 75.8496 69.535 75.6974 69.6111 75.6213C69.4209 75.5833 69.1926 75.5453 68.8122 75.4692ZM66.606 75.0127C66.5679 75.0888 66.5299 75.1649 66.3777 75.241C66.1495 75.3931 65.9593 75.5072 65.8452 75.5453C65.8452 75.5453 65.8072 75.5453 65.8072 75.5072L64.9703 74.328V74.29C65.0083 74.2519 65.1225 74.1378 65.2366 74.0618C65.617 73.7955 66.1495 73.7574 66.4919 74.2519C66.7201 74.5182 66.6821 74.7845 66.606 75.0127Z" fill="#070A24"/>
<path d="M68.7744 70.5622C67.6332 71.6273 67.8234 72.9587 68.5842 73.7575C69.2309 74.4802 70.5242 74.8606 71.6653 73.7575C72.7304 72.7685 72.6544 71.4752 71.8175 70.5242C71.0187 69.7254 69.8014 69.6112 68.7744 70.5622ZM71.4371 73.3391C70.7524 73.9857 69.7634 73.7194 69.0787 73.0347C68.394 72.312 68.432 71.5132 68.9646 71.0187C69.6493 70.372 70.6383 70.6383 71.2469 71.285C72.1599 72.1979 71.8175 72.9587 71.4371 73.3391Z" fill="#070A24"/>
<path d="M74.8605 69.535C74.7084 69.7252 74.5943 69.8393 74.5182 69.9154C74.4801 69.9534 74.4041 69.9915 74.4041 69.9915C74.366 69.9915 74.2519 69.9154 73.5292 69.3068L72.8064 68.6981C72.2358 68.2036 71.7794 67.7852 71.6272 67.6331C71.5892 67.7091 71.437 67.8613 71.3229 68.0515C71.2468 68.1656 71.1327 68.2797 71.0566 68.3558C71.2088 68.4699 71.7033 68.8123 72.3119 69.3068L73.0347 69.9154C73.6433 70.4479 74.0617 70.8283 74.2139 70.9805C74.2519 70.9044 74.328 70.8283 74.4801 70.6381C74.7464 70.2958 74.9746 70.0675 75.5452 69.4589C75.7354 69.2307 75.7735 69.1927 75.7735 69.1546C75.6974 69.0405 75.5072 68.7362 75.3931 68.6221C75.355 68.8503 75.2029 69.1166 74.8605 69.535Z" fill="#070A24"/>
<path d="M77.0668 63.4868C76.1159 62.8781 74.8986 63.0683 74.1378 64.2095C73.263 65.5028 73.7575 66.7581 74.6704 67.3667C75.4692 67.8993 76.8006 67.9754 77.6755 66.644C78.4743 65.4268 78.1319 64.2095 77.0668 63.4868ZM77.3331 66.3017C76.8006 67.1005 75.8116 67.0624 74.9747 66.5299C74.1379 65.9593 73.9857 65.1985 74.4041 64.5899C74.9367 63.7911 75.9257 63.8291 76.6865 64.3236C77.7896 65.0464 77.6374 65.8452 77.3331 66.3017Z" fill="#070A24"/>
<path d="M80.3001 59.4547C79.8056 59.2265 79.5012 59.0363 79.3871 58.9602C79.3491 59.0363 79.311 59.1504 79.1969 59.4167C79.1209 59.5689 79.0828 59.721 79.0067 59.7971C79.1589 59.7971 79.4632 59.9112 79.8436 60.1014L80.3001 60.3296C80.3761 60.3677 80.4142 60.4057 80.4142 60.4057C80.4142 60.5579 80.3381 60.7861 80.262 60.9763C79.7675 62.0414 78.8546 62.3077 77.8656 61.8512C77.4471 61.661 77.1809 61.3187 77.0668 60.9763C76.9526 60.634 76.9907 60.2536 77.1809 59.7971C77.5232 59.0363 78.0558 58.694 78.284 58.6179C78.0177 58.5038 77.6754 58.2755 77.5993 58.1995C77.5232 58.3516 77.1048 58.8081 76.8005 59.4547C76.6103 59.8351 76.3821 60.4818 76.4581 61.1285C76.5342 61.699 76.8005 62.3457 77.6373 62.7261C78.1699 62.9924 78.6644 62.9924 79.0828 62.8782C79.7295 62.6881 80.3001 62.1935 80.6804 61.3567C80.9087 60.9002 81.0608 60.2536 81.0989 59.9112C81.0228 59.8732 80.9087 59.8351 80.6424 59.683L80.3001 59.4547Z" fill="#070A24"/>
<path d="M80.8707 56.2975C80.7946 56.2595 80.7186 56.2214 80.6425 56.1834C80.3762 55.9171 79.6535 55.0803 79.4252 54.852C79.197 54.5477 78.9307 54.2434 78.8166 54.0532C78.8166 54.0913 78.7786 54.2815 78.6645 54.5858C78.6264 54.6618 78.5884 54.776 78.5503 54.852C78.6645 54.9281 78.8166 55.1183 78.9307 55.1944L80.0339 56.4116C79.8437 56.4497 78.8166 56.6779 78.6264 56.7159C78.3221 56.792 78.0178 56.8301 77.9037 56.8301C77.9037 56.9061 77.7896 57.2485 77.7515 57.4387C77.6754 57.6289 77.6374 57.743 77.5994 57.8571C77.8656 57.705 78.2841 57.6289 78.6645 57.4767C78.8927 57.4387 79.7295 57.2104 80.2621 57.0963C80.3382 57.0583 80.4523 57.0583 80.5664 57.0963C81.3652 57.3626 81.8217 57.5528 82.0119 57.6289C82.0119 57.5528 82.126 57.2485 82.164 57.1344C82.2401 56.9442 82.2781 56.8301 82.2781 56.754C82.088 56.6399 81.4793 56.4877 80.8707 56.2975Z" fill="#070A24"/>
<path d="M79.1588 52.8359C79.0067 53.4825 79.4251 54.0912 80.0337 54.2433C80.6804 54.3955 81.289 54.0531 81.4412 53.3684C81.5933 52.7218 81.2129 52.1131 80.5663 51.961C79.9196 51.8088 79.349 52.1512 79.1588 52.8359ZM80.5663 52.1131C81.1369 52.2653 81.5172 52.7218 81.3651 53.3304C81.251 53.901 80.7184 54.2053 80.1098 54.0912C79.5392 53.977 79.1969 53.4445 79.311 52.8739C79.4251 52.3033 79.9957 51.999 80.5663 52.1131Z" fill="#070A24"/>
<path d="M80.148 53.7109C80.3001 53.7489 80.4903 53.7489 80.6805 53.5968C80.8707 53.4827 80.9468 53.2925 80.9848 53.1023C81.0228 52.9501 81.0228 52.798 81.0228 52.7599C80.9468 52.7599 80.8327 52.6838 80.7946 52.6838C80.8327 52.798 80.8327 52.9121 80.7946 53.0642C80.7185 53.4066 80.4523 53.4827 80.224 53.4446C80.1099 53.4066 79.9958 53.3685 79.9197 53.2544C79.8817 53.1784 79.8436 53.1023 79.8817 52.9501C79.9197 52.798 79.9958 52.6458 80.1099 52.6078C80.0338 52.6078 79.9197 52.5317 79.8436 52.4937C79.8056 52.5697 79.7295 52.6838 79.6915 52.9121C79.6535 53.1403 79.6535 53.3305 79.7295 53.4827C79.8817 53.6348 80.0338 53.7109 80.148 53.7109Z" fill="#070A24"/>
<path d="M45 0C20.1986 0 0 20.1986 0 45C0 69.8013 20.1986 90 45 90C69.8013 90 90 69.8013 90 45C89.962 20.1986 69.8013 0 45 0ZM45 87.2612C21.6822 87.2612 2.70076 68.2798 2.70076 45C2.70076 21.7202 21.6822 2.70076 45 2.70076C68.3178 2.70076 87.2612 21.6822 87.2612 45C87.2612 68.3178 68.2798 87.2612 45 87.2612Z" fill="#070A24"/>
<path d="M41.1581 67.481C40.7397 67.481 40.4734 67.8233 40.4734 68.2417C40.4734 68.8504 40.9299 69.0786 41.2722 69.0786C41.4244 69.0786 41.6906 69.0406 41.8428 68.8504C41.8808 68.8123 41.8808 68.8123 41.8808 68.7362C41.8808 68.6602 41.8808 68.5461 41.8808 68.508C41.9189 67.8233 41.5765 67.481 41.1581 67.481Z" fill="#070A24"/>
<path d="M48.5758 69.6872V68.47C48.4236 68.6602 47.815 69.459 47.6628 69.6872C47.8911 69.6872 48.1954 69.6872 48.5758 69.6872Z" fill="#070A24"/>
<path d="M44.4675 48.5377V59.7972C44.4675 60.8623 44.9239 61.8513 45.6086 62.574C46.3314 63.2587 47.2823 63.7152 48.3855 63.7152V64.6281H37.8487V63.7152H38.2671C40.4353 63.7152 42.1851 61.9654 42.1851 59.7972V53.2545C40.093 55.9172 36.0228 56.6019 34.9197 56.6019C33.8166 56.6019 30.317 56.6399 30.317 56.6399V55.0043H31.5723C34.1589 55.0043 36.2511 52.9121 36.2511 50.3255V48.7279C36.2511 46.1412 34.1589 44.0491 31.5723 44.0491H28.8715C28.8715 44.0491 28.8715 66.9104 28.8715 69.1547C28.8715 71.399 32.9417 71.361 32.9417 71.361V72.2359H28.2249C32.9417 75.1268 38.5334 76.7625 44.4675 76.7625C49.7549 76.7625 54.6999 75.4692 59.0744 73.1488L44.4675 48.5377ZM38.4954 71.2849C38.2671 71.2849 38.0769 71.2849 37.9628 71.3229C38.0008 71.0567 38.0008 70.41 38.0008 69.6873V68.7743C38.0008 68.0136 38.0008 67.9375 37.9628 67.9375C37.9248 67.9375 37.4683 68.1657 37.2781 68.2418C37.2781 68.1277 37.3161 67.7093 37.3161 67.6332C37.7726 67.5191 38.3812 67.2528 38.6855 67.0626C38.7236 67.0246 38.7997 66.9865 38.7997 66.9865C38.7997 66.9865 38.8377 67.0246 38.8377 67.0626C38.8377 67.1387 38.7997 67.6332 38.7997 68.5461V69.6492C38.7997 70.2959 38.8377 70.9806 38.8377 71.2849C38.7616 71.2849 38.6855 71.2849 38.4954 71.2849ZM40.093 71.399C40.131 71.2849 40.1691 71.0186 40.1691 70.7904C40.8918 70.6002 41.5385 70.1437 41.7667 69.421C41.5385 69.6112 41.2342 69.6492 40.9679 69.6492C40.2071 69.6492 39.6746 69.1167 39.6746 68.394C39.6746 67.6332 40.2451 66.9865 41.2722 66.9865C42.3373 66.9865 42.7937 67.7853 42.7937 68.6602C42.7937 70.41 41.2342 71.2849 40.093 71.399ZM44.3153 71.361C43.7447 71.361 43.2883 71.2469 43.1741 71.1708C43.1741 71.0567 43.2502 70.6002 43.2502 70.3339C43.4404 70.5622 43.8208 70.8284 44.3533 70.8284C44.8098 70.8284 45.2282 70.6002 45.2282 70.0677C45.2282 69.459 44.5816 69.3069 43.973 69.3449C44.011 69.2308 44.049 68.9645 44.049 68.8124C44.6577 68.8124 45 68.6222 45 68.1657C45 67.8614 44.7718 67.5951 44.2773 67.5951C43.8588 67.5951 43.5165 67.7853 43.3263 68.0136C43.3263 67.8614 43.3263 67.3669 43.2883 67.2528C43.4784 67.1767 43.8969 67.0246 44.4675 67.0246C45.5706 67.0246 45.9129 67.5571 45.9129 68.0136C45.9129 68.5461 45.5325 68.8124 45.1522 68.9645C45.1522 68.9645 45.1522 68.9645 45.1522 69.0026C45.5706 69.1167 46.1412 69.383 46.1412 70.0677C46.1412 70.7524 45.4945 71.361 44.3153 71.361ZM49.3745 71.2849C49.2984 71.2849 49.1843 71.2849 49.0321 71.2849C48.8419 71.2849 48.6137 71.2849 48.4996 71.3229C48.5376 71.0567 48.5757 70.6002 48.5757 70.2198C47.5866 70.2198 47.0541 70.2198 46.8259 70.2198C46.6737 70.2198 46.6357 70.2198 46.6357 70.1818C46.6357 70.1437 46.6737 70.1057 46.7878 69.9916C47.1302 69.6112 48.4996 67.8995 49.0321 67.2528C49.1462 67.1387 49.2604 67.0246 49.2984 67.0246C49.3364 67.0246 49.3364 67.0626 49.3364 67.1767C49.3364 67.3669 49.3364 67.5951 49.3364 68.0136V69.7253C49.5647 69.7253 49.9451 69.7253 50.0972 69.6873C50.0211 69.8775 49.9831 70.1437 49.9831 70.3339C49.8309 70.3339 49.5266 70.2959 49.3364 70.2959C49.2984 70.5241 49.3364 71.0186 49.3745 71.2849Z" fill="#070A24"/>
</svg>
