<svg width="170" height="49" viewBox="0 0 170 49" fill="none" xmlns="http://www.w3.org/2000/svg">
<path d="M18.3896 7.97119V21.5471H5.91734V7.97119H0V40.3788H5.91895V27.2434H18.388V40.3788H24.3085V7.97119H18.3896ZM43.254 29.9041C43.254 31.2031 42.7379 32.4489 41.8194 33.3674C40.9009 34.2859 39.6552 34.8019 38.3562 34.8019C37.0572 34.8019 35.8115 34.2859 34.893 33.3674C33.9745 32.4489 33.4585 31.2031 33.4585 29.9041V16.0222H27.8439V29.9041C27.8439 32.6894 28.9503 35.3606 30.9198 37.3301C32.8893 39.2996 35.5605 40.4061 38.3458 40.4061C41.1311 40.4061 43.8023 39.2996 45.7718 37.3301C47.7413 35.3606 48.8477 32.6894 48.8477 29.9041V16.0222H43.254V29.9041ZM84.8564 17.4527C84.8564 14.6062 86.7386 13.7043 88.8002 13.7043C90.463 13.7043 92.6575 14.9698 94.0944 16.5044L97.7707 12.1697C95.935 9.6868 92.2122 7.97119 89.1638 7.97119C83.0719 7.97119 78.6667 11.5386 78.6667 17.4527C78.6667 28.4256 92.0776 24.9431 92.0776 31.0847C92.0776 32.9781 90.2387 34.6505 88.1338 34.6505C84.8131 34.6505 83.7367 33.0278 82.2117 31.3106L78.1301 35.554C80.7411 38.7577 83.9609 40.3852 87.8166 40.3852C93.6042 40.3852 98.2593 36.7746 98.2593 31.1296C98.2593 18.9489 84.8468 22.7341 84.8468 17.4527M167.824 35.2015C164.507 35.2015 163.563 33.7663 163.563 31.5685V21.8371H168.721V16.9065H163.563V10.4012L157.87 12.9562V32.7779C157.87 37.8478 161.369 40.4028 166.165 40.4028C166.917 40.4157 167.67 40.3548 168.41 40.2234L169.799 35.1102C169.173 35.1535 168.454 35.1967 167.824 35.1967M64.6262 16.184C61.8454 16.184 59.9039 16.9914 58.0265 18.8319V8.16502H52.4039V27.937C52.4039 35.3377 57.7542 40.4093 63.7676 40.4093C70.4379 40.4093 76.3055 35.248 76.3055 28.299C76.3055 21.4366 70.9056 16.1888 64.6262 16.1888M64.591 34.7498C63.753 34.7498 62.9232 34.5848 62.1491 34.2641C61.3749 33.9434 60.6714 33.4734 60.0789 32.8808C59.4863 32.2883 59.0163 31.5849 58.6956 30.8107C58.375 30.0365 58.2099 29.2067 58.2099 28.3687C58.2099 27.5308 58.375 26.701 58.6956 25.9268C59.0163 25.1526 59.4863 24.4492 60.0789 23.8566C60.6714 23.2641 61.3749 22.794 62.1491 22.4734C62.9232 22.1527 63.753 21.9876 64.591 21.9876C66.2834 21.9876 67.9064 22.6599 69.1031 23.8566C70.2998 25.0533 70.9721 26.6764 70.9721 28.3687C70.9721 30.0611 70.2998 31.6842 69.1031 32.8808C67.9064 34.0775 66.2834 34.7498 64.591 34.7498ZM125.69 28.0043C125.69 21.0425 119.835 15.8941 113.152 15.8941C107.14 15.8941 101.788 20.964 101.788 28.3663V48.1495H107.411V37.4682C109.285 39.3056 111.23 40.1161 114.007 40.1161C120.287 40.1161 125.69 34.8684 125.69 28.0043ZM120.365 27.9338C120.365 29.6262 119.693 31.2492 118.496 32.4459C117.3 33.6426 115.677 34.3149 113.984 34.3149C112.292 34.3149 110.669 33.6426 109.472 32.4459C108.275 31.2492 107.603 29.6262 107.603 27.9338C107.603 26.2414 108.275 24.6184 109.472 23.4217C110.669 22.225 112.292 21.5527 113.984 21.5527C115.677 21.5527 117.3 22.225 118.496 23.4217C119.693 24.6184 120.365 26.2414 120.365 27.9338Z" fill="#070A24"/>
<path d="M143.858 15.6215V9.9717C144.605 9.62276 145.237 9.06895 145.681 8.37472C146.125 7.68049 146.363 6.87441 146.367 6.0503V5.92055C146.367 3.51773 144.419 1.56984 142.016 1.56984H141.886C140.733 1.56984 139.626 2.02822 138.81 2.84413C137.994 3.66005 137.536 4.76667 137.536 5.92055V6.0503C137.54 6.87441 137.777 7.68049 138.221 8.37472C138.666 9.06895 139.298 9.62276 140.044 9.9717V15.6215C137.899 15.9501 135.878 16.8398 134.186 18.2006L118.691 6.13199C118.802 5.73313 118.859 5.32304 118.866 4.91136C118.868 3.94175 118.582 2.99336 118.045 2.18615C117.508 1.37894 116.743 0.749168 115.848 0.376505C114.953 0.00384116 113.967 -0.0949754 113.016 0.0925543C112.065 0.280084 111.19 0.745535 110.504 1.43003C109.817 2.11453 109.349 2.98732 109.158 3.938C108.967 4.88869 109.063 5.87456 109.433 6.77091C109.802 7.66726 110.43 8.43382 111.235 8.97362C112.041 9.51343 112.988 9.80223 113.958 9.8035C114.806 9.79951 115.638 9.57305 116.372 9.14673L131.63 21.0199C130.259 23.0906 129.544 25.5262 129.578 28.0092C129.611 30.4922 130.392 32.9075 131.819 34.9402L127.178 39.5825C126.803 39.4625 126.412 39.3988 126.018 39.3934C125.222 39.3941 124.445 39.6306 123.783 40.0732C123.122 40.5158 122.606 41.1445 122.302 41.8799C121.997 42.6154 121.918 43.4245 122.073 44.2051C122.229 44.9857 122.612 45.7026 123.175 46.2654C123.738 46.8282 124.455 47.2115 125.235 47.367C126.016 47.5224 126.825 47.4429 127.56 47.1387C128.296 46.8344 128.925 46.3189 129.367 45.6574C129.81 44.9959 130.046 44.2181 130.047 43.4222C130.042 43.0283 129.978 42.6375 129.858 42.2624L134.449 37.6698C135.946 38.8224 137.687 39.617 139.539 39.9927C141.39 40.3685 143.303 40.3154 145.131 39.8376C146.959 39.3598 148.654 38.4699 150.085 37.2362C151.515 36.0024 152.645 34.4575 153.387 32.7198C154.128 30.982 154.462 29.0976 154.363 27.2109C154.264 25.3241 153.734 23.4851 152.814 21.8347C151.895 20.1843 150.609 18.7663 149.057 17.6893C147.505 16.6124 145.726 15.9051 143.858 15.6215ZM141.955 34.2033C141.107 34.2267 140.262 34.0797 139.472 33.7712C138.681 33.4626 137.96 32.9987 137.352 32.4068C136.743 31.8149 136.26 31.1071 135.93 30.3252C135.599 29.5433 135.429 28.7031 135.429 27.8543C135.429 27.0055 135.599 26.1653 135.93 25.3834C136.26 24.6015 136.743 23.8937 137.352 23.3018C137.96 22.7099 138.681 22.246 139.472 21.9374C140.262 21.6288 141.107 21.4819 141.955 21.5052C143.6 21.5628 145.158 22.2564 146.301 23.4398C147.444 24.6232 148.084 26.2041 148.085 27.8496C148.085 29.4951 147.448 31.0766 146.305 32.2612C145.163 33.4458 143.606 34.1409 141.962 34.2001" fill="#070A24"/>
</svg>
