<svg width="597" height="451" viewBox="0 0 597 451" fill="none" xmlns="http://www.w3.org/2000/svg">
<g filter="url(#filter0_di_7_31470)">
<path d="M536.826 28.5015C541.983 28.5015 546.259 33.0105 546.259 38.476V402.889C546.259 408.491 542.108 413 536.826 413H65.8204C60.6638 413 56.3877 408.491 56.3877 402.889V38.476C56.3877 33.0105 60.5381 28.5015 65.8204 28.5015H536.826Z" fill="white"/>
</g>
<g filter="url(#filter1_d_7_31470)">
<path d="M498.197 222.727H102.694C97.583 222.727 93.3242 218.644 93.3242 213.745V177.272C93.3242 172.373 97.583 168.29 102.694 168.29H498.197C503.307 168.29 507.566 172.373 507.566 177.272V213.745C507.566 218.644 503.307 222.727 498.197 222.727Z" fill="white"/>
</g>
<path d="M172.082 200.73H114.532C111.088 200.73 108.563 198.143 108.563 195.125C108.563 191.892 111.318 189.521 114.532 189.521H172.082C175.525 189.521 178.051 192.107 178.051 195.125C178.28 198.143 175.525 200.73 172.082 200.73Z" fill="#CFD4DD"/>
<path d="M216.898 200.73H190.782C187.325 200.73 184.79 198.143 184.79 195.125C184.79 191.892 187.556 189.521 190.782 189.521H216.898C220.355 189.521 222.89 192.107 222.89 195.125C223.121 198.143 220.355 200.73 216.898 200.73Z" fill="#CFD4DD"/>
<g filter="url(#filter2_d_7_31470)">
<path d="M498.197 295.926H102.694C97.583 295.926 93.3242 291.843 93.3242 286.944V250.471C93.3242 245.572 97.583 241.489 102.694 241.489H498.197C503.307 241.489 507.566 245.572 507.566 250.471V286.944C507.566 291.843 503.307 295.926 498.197 295.926Z" fill="white"/>
</g>
<path d="M172.082 273.929H114.532C111.088 273.929 108.563 271.342 108.563 268.324C108.563 265.091 111.318 262.719 114.532 262.719H172.082C175.525 262.719 178.051 265.306 178.051 268.324C178.28 271.342 175.525 273.929 172.082 273.929Z" fill="#CFD4DD"/>
<path d="M216.898 273.929H190.782C187.325 273.929 184.79 271.342 184.79 268.324C184.79 265.091 187.556 262.719 190.782 262.719H216.898C220.355 262.719 222.89 265.306 222.89 268.324C223.121 271.342 220.355 273.929 216.898 273.929Z" fill="#CFD4DD"/>
<path d="M546.245 38.5276V63.3869H56.3877V38.5276C56.3877 33.0338 60.5339 28.5015 65.8109 28.5015H536.822C542.099 28.5015 546.245 33.0338 546.245 38.5276Z" fill="black"/>
<path d="M72.4546 51.441C75.1854 51.441 77.399 49.2273 77.399 46.4966C77.399 43.7659 75.1854 41.5522 72.4546 41.5522C69.7239 41.5522 67.5103 43.7659 67.5103 46.4966C67.5103 49.2273 69.7239 51.441 72.4546 51.441Z" fill="white"/>
<path d="M86.0503 51.441C88.7811 51.441 90.9947 49.2273 90.9947 46.4966C90.9947 43.7659 88.7811 41.5522 86.0503 41.5522C83.3196 41.5522 81.106 43.7659 81.106 46.4966C81.106 49.2273 83.3196 51.441 86.0503 51.441Z" fill="white"/>
<path d="M99.5113 51.441C102.242 51.441 104.456 49.2273 104.456 46.4966C104.456 43.7659 102.242 41.5522 99.5113 41.5522C96.7806 41.5522 94.5669 43.7659 94.5669 46.4966C94.5669 49.2273 96.7806 51.441 99.5113 51.441Z" fill="white"/>
<path d="M414.066 361.524H485.022C496.769 361.524 506.402 352.463 506.402 341.414C506.402 330.365 496.769 321.305 485.022 321.305H414.066C402.318 321.305 392.685 330.365 392.685 341.414C392.45 352.463 402.083 361.524 414.066 361.524Z" fill="black"/>
<path opacity="0.6" d="M467.818 346.647H429.516C426.394 346.647 424.104 344.477 424.104 341.945C424.104 339.232 426.602 337.243 429.516 337.243H467.818C470.94 337.243 473.23 339.413 473.23 341.945C473.23 344.477 470.732 346.647 467.818 346.647Z" fill="white"/>
<path d="M108.053 132.525C110.577 132.525 112.882 132.013 114.967 130.952C117.052 129.891 118.735 128.538 119.979 126.892L115.442 122.538C113.504 124.843 111.162 126.014 108.492 126.014C106.443 126.014 104.724 125.319 103.297 123.928C101.907 122.502 101.212 120.746 101.212 118.66C101.212 116.502 101.907 114.709 103.297 113.283C104.724 111.856 106.443 111.161 108.528 111.161C110.979 111.161 113.247 112.295 115.333 114.526L119.686 109.954C117.198 106.698 112.918 104.612 108.089 104.612C104.175 104.612 100.882 105.929 98.1752 108.6C95.5046 111.234 94.151 114.6 94.151 118.697C94.151 122.758 95.468 126.087 98.1386 128.684C100.809 131.245 104.102 132.525 108.053 132.525ZM128.973 132.123V121.587C128.973 118.99 130.583 117.27 132.924 117.27C135.119 117.27 136.473 118.807 136.473 121.441V132.123H142.948V119.721C142.948 117.051 142.18 114.965 140.68 113.539C139.18 112.112 137.314 111.38 135.156 111.38C132.229 111.38 129.815 112.88 128.827 114.673V104.21H122.535V132.123H128.973ZM167.023 121.514C167.023 118.404 166.035 115.917 164.096 114.124C162.157 112.331 159.67 111.417 156.67 111.417C153.487 111.417 150.89 112.441 148.878 114.453C146.866 116.465 145.878 118.99 145.878 122.026C145.878 124.989 146.829 127.477 148.768 129.526C150.707 131.538 153.451 132.562 157.036 132.562C160.401 132.562 163.365 131.647 165.962 129.782L163.438 125.428C161.572 126.672 159.56 127.294 157.328 127.294C154.768 127.294 153.121 126.233 152.39 124.111H166.804C166.95 123.197 167.023 122.355 167.023 121.514ZM156.67 116.575C158.828 116.575 160.328 117.746 160.877 119.685H152.317C153.012 117.599 154.438 116.575 156.67 116.575ZM179.926 132.562C184.206 132.562 187.828 130.477 189.584 127.111L184.426 124.038C183.694 125.611 181.974 126.636 180.109 126.636C177.511 126.636 175.572 124.66 175.572 121.989C175.572 120.709 176.011 119.612 176.853 118.734C177.731 117.856 178.828 117.417 180.182 117.417C182.048 117.417 183.474 118.295 184.499 120.014L189.657 117.307C187.938 113.466 184.243 111.417 180.036 111.417C176.816 111.417 174.219 112.405 172.207 114.38C170.195 116.356 169.207 118.88 169.207 121.989C169.207 125.099 170.195 127.623 172.17 129.599C174.182 131.574 176.743 132.562 179.926 132.562ZM213.378 132.123L204.05 120.051L212.72 111.929H204.854L198.782 117.782V104.21H192.343V132.123H198.782V124.989L199.733 124.111L205.696 132.123H213.378ZM223.302 132.672C226.558 132.672 229.229 131.647 231.241 129.599C233.289 127.55 234.314 125.026 234.314 122.026C234.314 119.026 233.289 116.502 231.241 114.453C229.229 112.368 226.558 111.344 223.302 111.344C220.046 111.344 217.412 112.368 215.364 114.453C213.352 116.502 212.327 119.026 212.327 122.026C212.327 125.026 213.352 127.55 215.364 129.599C217.412 131.647 220.046 132.672 223.302 132.672ZM223.302 126.636C222.022 126.636 220.961 126.197 220.083 125.319C219.205 124.404 218.766 123.306 218.766 121.989C218.766 120.709 219.205 119.648 220.083 118.77C220.961 117.856 222.022 117.417 223.302 117.417C224.583 117.417 225.644 117.856 226.522 118.734C227.436 119.612 227.875 120.709 227.875 121.989C227.875 123.306 227.436 124.404 226.558 125.319C225.68 126.197 224.583 126.636 223.302 126.636ZM237.209 123.306C237.209 129.27 240.867 132.635 246.903 132.635C252.94 132.635 256.634 129.27 256.634 123.306V111.929H250.159V123.38C250.159 125.392 248.915 126.745 246.903 126.745C244.964 126.745 243.684 125.392 243.684 123.38V111.929H237.209V123.306ZM274.447 125.831C273.276 126.453 272.216 126.745 271.264 126.745C269.545 126.745 268.704 125.684 268.704 123.526V117.27H275.032V111.929H268.704V104.759H262.301V111.929H259.155V117.27H262.228V124.294C262.228 129.855 264.716 132.635 269.728 132.635C272.142 132.635 274.301 132.086 276.167 130.989L274.447 125.831Z" fill="url(#paint0_linear_7_31470)"/>
<g filter="url(#filter3_d_7_31470)">
<rect x="34" y="305.098" width="337.417" height="96.4049" rx="17.9358" fill="white"/>
</g>
<path d="M64.0535 335.191C64.0535 333.759 63.3675 332.629 62.0156 331.761C61.6524 331.539 61.0672 331.237 60.2601 330.853C59.4732 330.47 58.9687 330.207 58.7468 330.066C57.8388 329.521 57.3141 329.098 57.3141 328.371C57.3141 327.423 58.0607 326.818 59.1907 326.818C60.2197 326.818 61.2286 327.302 62.177 328.25L63.7509 326.313C62.7823 325.244 61.6725 324.598 60.4013 324.376V322.419H58.1011V324.356C55.9017 324.739 54.4287 326.313 54.4287 328.472C54.4287 329.925 55.135 331.115 56.5474 332.044C56.9308 332.306 57.5361 332.629 58.3634 333.032L59.6749 333.678C60.5829 334.122 61.0269 334.687 61.0269 335.353C61.0269 336.321 60.2197 337.068 58.9082 337.068C57.5563 337.068 56.2649 336.261 55.5385 334.889L53.6418 336.624C54.5902 338.339 56.0429 339.328 57.98 339.63V341.689H60.2803V339.55C62.5402 339.066 64.0535 337.451 64.0535 335.191ZM71.7808 339.671C75.9576 339.671 77.7736 335.958 77.7736 331.963C77.7736 327.968 75.9576 324.255 71.7808 324.255C67.6242 324.255 65.788 327.968 65.788 331.963C65.788 335.958 67.6242 339.671 71.7808 339.671ZM71.7808 337.088C70.7114 337.088 69.9043 336.624 69.3595 335.676C68.8147 334.727 68.5524 333.476 68.5524 331.963C68.5524 330.45 68.8147 329.219 69.3595 328.27C69.9043 327.322 70.7114 326.838 71.7808 326.838C72.8502 326.838 73.6573 327.322 74.2021 328.27C74.7469 329.219 75.0093 330.45 75.0093 331.963C75.0093 333.476 74.7469 334.727 74.2021 335.676C73.6775 336.624 72.8704 337.088 71.7808 337.088Z" fill="#333849"/>
<path d="M315.155 335.191C315.155 333.759 314.469 332.629 313.117 331.761C312.753 331.539 312.168 331.237 311.361 330.853C310.574 330.47 310.07 330.207 309.848 330.066C308.94 329.521 308.415 329.098 308.415 328.371C308.415 327.423 309.162 326.818 310.292 326.818C311.321 326.818 312.33 327.302 313.278 328.25L314.852 326.313C313.883 325.244 312.774 324.598 311.502 324.376V322.419H309.202V324.356C307.003 324.739 305.53 326.313 305.53 328.472C305.53 329.925 306.236 331.115 307.648 332.044C308.032 332.306 308.637 332.629 309.464 333.032L310.776 333.678C311.684 334.122 312.128 334.687 312.128 335.353C312.128 336.321 311.321 337.068 310.009 337.068C308.657 337.068 307.366 336.261 306.64 334.889L304.743 336.624C305.691 338.339 307.144 339.328 309.081 339.63V341.689H311.381V339.55C313.641 339.066 315.155 337.451 315.155 335.191ZM315.941 328.17L317.373 330.107L319.815 328.19V339.429H322.519V324.517H320.461L315.941 328.17ZM331.158 339.671C335.335 339.671 337.151 335.958 337.151 331.963C337.151 327.968 335.335 324.255 331.158 324.255C327.001 324.255 325.165 327.968 325.165 331.963C325.165 335.958 327.001 339.671 331.158 339.671ZM331.158 337.088C330.089 337.088 329.281 336.624 328.737 335.676C328.192 334.727 327.929 333.476 327.929 331.963C327.929 330.45 328.192 329.219 328.737 328.27C329.281 327.322 330.089 326.838 331.158 326.838C332.227 326.838 333.034 327.322 333.579 328.27C334.124 329.219 334.386 330.45 334.386 331.963C334.386 333.476 334.124 334.727 333.579 335.676C333.055 336.624 332.248 337.088 331.158 337.088ZM349.854 339.429L344.648 332.992L349.591 328.472H346.242L342.025 332.387V324.094H339.401V339.429H342.025V335.373L342.832 334.647L346.585 339.429H349.854Z" fill="#333849"/>
<rect x="53.0576" y="357.785" width="297.061" height="14.5728" rx="7.28641" fill="#DBDFE8"/>
<rect x="115.833" y="357.785" width="126.671" height="14.5728" rx="7.28641" fill="url(#paint1_linear_7_31470)"/>
<g filter="url(#filter4_d_7_31470)">
<circle cx="245.664" cy="365.6" r="16.7837" fill="white"/>
</g>
<path d="M241.987 361.814L237.579 366.222L241.987 370.63" stroke="#414859" stroke-width="2.20392" stroke-linecap="round" stroke-linejoin="round"/>
<path d="M249.334 370.63L253.742 366.222L249.334 361.814" stroke="#414859" stroke-width="2.20392" stroke-linecap="round" stroke-linejoin="round"/>
<g filter="url(#filter5_d_7_31470)">
<circle cx="121.408" cy="365.6" r="16.7837" fill="white"/>
</g>
<path d="M117.734 361.814L113.327 366.222L117.734 370.63" stroke="#414859" stroke-width="2.20392" stroke-linecap="round" stroke-linejoin="round"/>
<path d="M125.081 370.63L129.489 366.222L125.081 361.814" stroke="#414859" stroke-width="2.20392" stroke-linecap="round" stroke-linejoin="round"/>
<g filter="url(#filter6_d_7_31470)">
<rect x="524.741" y="7" width="257.422" height="172.014" rx="19.7264" transform="rotate(90 524.741 7)" fill="#F5288F"/>
<mask id="mask0_7_31470" style="mask-type:alpha" maskUnits="userSpaceOnUse" x="352" y="7" width="173" height="258">
<rect x="524.741" y="7.00195" width="257.422" height="172.014" rx="19.7264" transform="rotate(90 524.741 7.00195)" fill="#F5288F"/>
</mask>
<g mask="url(#mask0_7_31470)">
<g filter="url(#filter7_f_7_31470)">
<ellipse cx="506.595" cy="65.9327" rx="89.9425" ry="91.5304" transform="rotate(90 506.595 65.9327)" fill="#FF70EC"/>
</g>
<g filter="url(#filter8_f_7_31470)">
<ellipse cx="444.26" cy="305.52" rx="89.9425" ry="91.5304" transform="rotate(90 444.26 305.52)" fill="#FF70EC"/>
</g>
<g filter="url(#filter9_f_7_31470)">
<ellipse cx="523.561" cy="253.957" rx="65.5185" ry="66.6751" transform="rotate(90 523.561 253.957)" fill="#FFB9F6"/>
</g>
<g filter="url(#filter10_f_7_31470)">
<ellipse cx="391.393" cy="7.00305" rx="89.9425" ry="91.5304" transform="rotate(90 391.393 7.00305)" fill="#FFCAF8"/>
</g>
<g filter="url(#filter11_f_7_31470)">
<ellipse cx="532.633" cy="159.75" rx="75.2105" ry="76.5383" transform="rotate(90 532.633 159.75)" fill="#FF8BA7"/>
</g>
<g filter="url(#filter12_f_7_31470)">
<ellipse cx="352.727" cy="135.714" rx="75.2105" ry="76.5383" transform="rotate(90 352.727 135.714)" fill="#FF0F82"/>
</g>
<path d="M450.088 -53.249C460.361 83.6648 378.175 147.39 281.864 237.614L299.842 -63.975C346.499 -106.038 441.869 -162.78 450.088 -53.249Z" fill="url(#paint2_linear_7_31470)"/>
<g filter="url(#filter13_f_7_31470)">
<path d="M468.32 -68.3364C478.594 68.5774 421.449 87.5056 325.137 177.73L318.074 -79.0624C364.732 -121.125 460.102 -177.867 468.32 -68.3364Z" fill="url(#paint3_linear_7_31470)"/>
</g>
<g filter="url(#filter14_f_7_31470)">
<path d="M445.44 -31.8955C455.713 105.018 398.568 123.946 302.256 214.171L295.193 -42.6215C341.851 -84.6841 437.221 -141.427 445.44 -31.8955Z" fill="url(#paint4_linear_7_31470)"/>
</g>
<g filter="url(#filter15_f_7_31470)">
<ellipse cx="352.73" cy="18.6329" rx="89.9425" ry="91.5304" transform="rotate(90 352.73 18.6329)" fill="#FFA4C5"/>
</g>
<g filter="url(#filter16_f_7_31470)">
<path d="M434.001 43.4452C402.625 43.4452 377.189 18.4509 377.189 -12.3811C377.189 -43.2132 402.625 -68.2075 434.001 -68.2075C465.377 -68.2075 490.813 -43.2132 490.813 -12.3811C490.813 18.4509 465.377 43.4452 434.001 43.4452Z" fill="white"/>
</g>
</g>
<ellipse cx="490.811" cy="214.023" rx="13.9566" ry="14.203" transform="rotate(90 490.811 214.023)" fill="white"/>
<g filter="url(#filter17_b_7_31470)">
<ellipse cx="490.811" cy="230.307" rx="13.9566" ry="14.203" transform="rotate(90 490.811 230.307)" fill="white" fill-opacity="0.5"/>
</g>
<g opacity="0.4">
<path d="M480.045 36.7674L480.045 27.1636L481.009 27.1636C484.27 27.1636 486.865 29.6352 486.865 32.7423L486.865 36.7674L480.045 36.7674V36.7674Z" fill="white"/>
<path d="M459.512 27.1636L459.512 36.7674L452.693 36.7674L452.693 32.7423C452.693 29.6352 455.287 27.1636 458.549 27.1636L459.512 27.1636Z" fill="white"/>
<path d="M470.706 40.4395L470.706 27.1636L478.192 27.1636L478.192 37.2617L474.857 40.4395L470.706 40.4395Z" fill="white"/>
<path d="M464.702 40.4395L461.366 37.2617L461.366 27.1636L468.853 27.1636L468.853 40.4395L464.702 40.4395Z" fill="white"/>
<path d="M474.336 50.8188L474.336 42.2036L465.293 42.2036L465.293 50.8188L474.336 50.8188Z" fill="white"/>
<path d="M476.191 41.71L479.527 38.5322L486.865 38.5322L486.865 54.5622L479.527 54.5622L476.191 51.3844L476.191 41.71Z" fill="white"/>
<path d="M463.439 51.3844L460.03 54.5622L452.692 54.5622L452.692 38.5322L460.03 38.5322L463.439 41.71L463.439 51.3844Z" fill="white"/>
<path d="M481.009 65.8614L480.045 65.8614L480.045 56.3281L486.865 56.3281L486.865 60.3533C486.865 63.3898 484.27 65.8614 481.009 65.8614Z" fill="white"/>
<path d="M478.192 55.8353L478.192 65.8628L470.706 65.8628L470.706 52.5869L474.857 52.5869L478.192 55.8353Z" fill="white"/>
<path d="M468.853 52.5869L468.853 65.8628L461.366 65.8628L461.366 55.8353L464.702 52.5869L468.853 52.5869Z" fill="white"/>
<path d="M459.512 56.3281L459.512 65.932L458.549 65.932C455.287 65.932 452.693 63.4604 452.693 60.3533L452.693 56.3281L459.512 56.3281Z" fill="white"/>
</g>
</g>
<rect opacity="0.4" width="41.7901" height="8.7633" rx="4.38165" transform="matrix(-3.81602e-05 1 -1 -4.05668e-05 426.158 26.7163)" fill="white"/>
<rect opacity="0.4" width="59.2708" height="6.57247" rx="3.28624" transform="matrix(-3.81602e-05 1 -1 -4.05668e-05 392.196 26.7163)" fill="white"/>
<rect opacity="0.4" width="27.956" height="6.57247" rx="3.28624" transform="matrix(-3.81602e-05 1 -1 -4.05668e-05 392.196 94.6338)" fill="white"/>
<rect opacity="0.4" width="41.7901" height="8.7633" rx="4.38165" transform="matrix(-3.81602e-05 1 -1 -4.05668e-05 426.158 85.4512)" fill="white"/>
<rect opacity="0.4" x="426.154" y="143.925" width="41.6257" height="8.7633" rx="4.38165" transform="rotate(90 426.154 143.925)" fill="white"/>
<rect opacity="0.4" width="41.7901" height="8.7633" rx="4.38165" transform="matrix(-3.81602e-05 1 -1 -4.05668e-05 426.154 202.914)" fill="white"/>
<rect opacity="0.4" width="23.21" height="6.57247" rx="3.28624" transform="matrix(-3.81602e-05 1 -1 -4.05668e-05 392.196 221.493)" fill="white"/>
<defs>
<filter id="filter0_di_7_31470" x="39.9064" y="17.5139" width="522.834" height="417.461" filterUnits="userSpaceOnUse" color-interpolation-filters="sRGB">
<feFlood flood-opacity="0" result="BackgroundImageFix"/>
<feColorMatrix in="SourceAlpha" type="matrix" values="0 0 0 0 0 0 0 0 0 0 0 0 0 0 0 0 0 0 127 0" result="hardAlpha"/>
<feOffset dy="5.49377"/>
<feGaussianBlur stdDeviation="8.24065"/>
<feColorMatrix type="matrix" values="0 0 0 0 0.186493 0 0 0 0 0.248562 0 0 0 0 0.341667 0 0 0 0.1 0"/>
<feBlend mode="normal" in2="BackgroundImageFix" result="effect1_dropShadow_7_31470"/>
<feBlend mode="normal" in="SourceGraphic" in2="effect1_dropShadow_7_31470" result="shape"/>
<feColorMatrix in="SourceAlpha" type="matrix" values="0 0 0 0 0 0 0 0 0 0 0 0 0 0 0 0 0 0 127 0" result="hardAlpha"/>
<feMorphology radius="1.37344" operator="erode" in="SourceAlpha" result="effect2_innerShadow_7_31470"/>
<feOffset dy="-1.37344"/>
<feComposite in2="hardAlpha" operator="arithmetic" k2="-1" k3="1"/>
<feColorMatrix type="matrix" values="0 0 0 0 0.950625 0 0 0 0 0.962 0 0 0 0 0.975 0 0 0 0.76 0"/>
<feBlend mode="normal" in2="shape" result="effect2_innerShadow_7_31470"/>
</filter>
<filter id="filter1_d_7_31470" x="87.7939" y="164.603" width="425.302" height="65.4977" filterUnits="userSpaceOnUse" color-interpolation-filters="sRGB">
<feFlood flood-opacity="0" result="BackgroundImageFix"/>
<feColorMatrix in="SourceAlpha" type="matrix" values="0 0 0 0 0 0 0 0 0 0 0 0 0 0 0 0 0 0 127 0" result="hardAlpha"/>
<feOffset dy="1.84344"/>
<feGaussianBlur stdDeviation="2.76517"/>
<feColorMatrix type="matrix" values="0 0 0 0 0.593437 0 0 0 0 0.6315 0 0 0 0 0.675 0 0 0 0.76 0"/>
<feBlend mode="normal" in2="BackgroundImageFix" result="effect1_dropShadow_7_31470"/>
<feBlend mode="normal" in="SourceGraphic" in2="effect1_dropShadow_7_31470" result="shape"/>
</filter>
<filter id="filter2_d_7_31470" x="87.7939" y="237.802" width="425.302" height="65.4977" filterUnits="userSpaceOnUse" color-interpolation-filters="sRGB">
<feFlood flood-opacity="0" result="BackgroundImageFix"/>
<feColorMatrix in="SourceAlpha" type="matrix" values="0 0 0 0 0 0 0 0 0 0 0 0 0 0 0 0 0 0 127 0" result="hardAlpha"/>
<feOffset dy="1.84344"/>
<feGaussianBlur stdDeviation="2.76517"/>
<feColorMatrix type="matrix" values="0 0 0 0 0.593437 0 0 0 0 0.6315 0 0 0 0 0.675 0 0 0 0.76 0"/>
<feBlend mode="normal" in2="BackgroundImageFix" result="effect1_dropShadow_7_31470"/>
<feBlend mode="normal" in="SourceGraphic" in2="effect1_dropShadow_7_31470" result="shape"/>
</filter>
<filter id="filter3_d_7_31470" x="0.27607" y="287.012" width="404.865" height="163.853" filterUnits="userSpaceOnUse" color-interpolation-filters="sRGB">
<feFlood flood-opacity="0" result="BackgroundImageFix"/>
<feColorMatrix in="SourceAlpha" type="matrix" values="0 0 0 0 0 0 0 0 0 0 0 0 0 0 0 0 0 0 127 0" result="hardAlpha"/>
<feOffset dy="15.6386"/>
<feGaussianBlur stdDeviation="16.862"/>
<feColorMatrix type="matrix" values="0 0 0 0 0.11816 0 0 0 0 0.142741 0 0 0 0 0.170833 0 0 0 0.15 0"/>
<feBlend mode="normal" in2="BackgroundImageFix" result="effect1_dropShadow_7_31470"/>
<feBlend mode="normal" in="SourceGraphic" in2="effect1_dropShadow_7_31470" result="shape"/>
</filter>
<filter id="filter4_d_7_31470" x="223.907" y="348.816" width="43.5133" height="43.5133" filterUnits="userSpaceOnUse" color-interpolation-filters="sRGB">
<feFlood flood-opacity="0" result="BackgroundImageFix"/>
<feColorMatrix in="SourceAlpha" type="matrix" values="0 0 0 0 0 0 0 0 0 0 0 0 0 0 0 0 0 0 127 0" result="hardAlpha"/>
<feOffset dy="4.97294"/>
<feGaussianBlur stdDeviation="2.48647"/>
<feComposite in2="hardAlpha" operator="out"/>
<feColorMatrix type="matrix" values="0 0 0 0 0 0 0 0 0 0 0 0 0 0 0 0 0 0 0.25 0"/>
<feBlend mode="normal" in2="BackgroundImageFix" result="effect1_dropShadow_7_31470"/>
<feBlend mode="normal" in="SourceGraphic" in2="effect1_dropShadow_7_31470" result="shape"/>
</filter>
<filter id="filter5_d_7_31470" x="99.6511" y="348.816" width="43.5133" height="43.5133" filterUnits="userSpaceOnUse" color-interpolation-filters="sRGB">
<feFlood flood-opacity="0" result="BackgroundImageFix"/>
<feColorMatrix in="SourceAlpha" type="matrix" values="0 0 0 0 0 0 0 0 0 0 0 0 0 0 0 0 0 0 127 0" result="hardAlpha"/>
<feOffset dy="4.97294"/>
<feGaussianBlur stdDeviation="2.48647"/>
<feComposite in2="hardAlpha" operator="out"/>
<feColorMatrix type="matrix" values="0 0 0 0 0 0 0 0 0 0 0 0 0 0 0 0 0 0 0.25 0"/>
<feBlend mode="normal" in2="BackgroundImageFix" result="effect1_dropShadow_7_31470"/>
<feBlend mode="normal" in="SourceGraphic" in2="effect1_dropShadow_7_31470" result="shape"/>
</filter>
<filter id="filter6_d_7_31470" x="321.165" y="0.687569" width="235.139" height="320.548" filterUnits="userSpaceOnUse" color-interpolation-filters="sRGB">
<feFlood flood-opacity="0" result="BackgroundImageFix"/>
<feColorMatrix in="SourceAlpha" type="matrix" values="0 0 0 0 0 0 0 0 0 0 0 0 0 0 0 0 0 0 127 0" result="hardAlpha"/>
<feOffset dy="25.2498"/>
<feGaussianBlur stdDeviation="15.7811"/>
<feColorMatrix type="matrix" values="0 0 0 0 0.984314 0 0 0 0 0.145098 0 0 0 0 0.568628 0 0 0 0.12 0"/>
<feBlend mode="normal" in2="BackgroundImageFix" result="effect1_dropShadow_7_31470"/>
<feBlend mode="normal" in="SourceGraphic" in2="effect1_dropShadow_7_31470" result="shape"/>
</filter>
<filter id="filter7_f_7_31470" x="323.534" y="-115.54" width="366.121" height="362.945" filterUnits="userSpaceOnUse" color-interpolation-filters="sRGB">
<feFlood flood-opacity="0" result="BackgroundImageFix"/>
<feBlend mode="normal" in="SourceGraphic" in2="BackgroundImageFix" result="shape"/>
<feGaussianBlur stdDeviation="45.7652" result="effect1_foregroundBlur_7_31470"/>
</filter>
<filter id="filter8_f_7_31470" x="261.2" y="124.047" width="366.121" height="362.945" filterUnits="userSpaceOnUse" color-interpolation-filters="sRGB">
<feFlood flood-opacity="0" result="BackgroundImageFix"/>
<feBlend mode="normal" in="SourceGraphic" in2="BackgroundImageFix" result="shape"/>
<feGaussianBlur stdDeviation="45.7652" result="effect1_foregroundBlur_7_31470"/>
</filter>
<filter id="filter9_f_7_31470" x="365.356" y="96.9086" width="316.411" height="314.098" filterUnits="userSpaceOnUse" color-interpolation-filters="sRGB">
<feFlood flood-opacity="0" result="BackgroundImageFix"/>
<feBlend mode="normal" in="SourceGraphic" in2="BackgroundImageFix" result="shape"/>
<feGaussianBlur stdDeviation="45.7652" result="effect1_foregroundBlur_7_31470"/>
</filter>
<filter id="filter10_f_7_31470" x="208.332" y="-174.47" width="366.121" height="362.945" filterUnits="userSpaceOnUse" color-interpolation-filters="sRGB">
<feFlood flood-opacity="0" result="BackgroundImageFix"/>
<feBlend mode="normal" in="SourceGraphic" in2="BackgroundImageFix" result="shape"/>
<feGaussianBlur stdDeviation="45.7652" result="effect1_foregroundBlur_7_31470"/>
</filter>
<filter id="filter11_f_7_31470" x="364.564" y="-6.9913" width="336.137" height="333.482" filterUnits="userSpaceOnUse" color-interpolation-filters="sRGB">
<feFlood flood-opacity="0" result="BackgroundImageFix"/>
<feBlend mode="normal" in="SourceGraphic" in2="BackgroundImageFix" result="shape"/>
<feGaussianBlur stdDeviation="45.7652" result="effect1_foregroundBlur_7_31470"/>
</filter>
<filter id="filter12_f_7_31470" x="184.659" y="-31.0265" width="336.137" height="333.482" filterUnits="userSpaceOnUse" color-interpolation-filters="sRGB">
<feFlood flood-opacity="0" result="BackgroundImageFix"/>
<feBlend mode="normal" in="SourceGraphic" in2="BackgroundImageFix" result="shape"/>
<feGaussianBlur stdDeviation="45.7652" result="effect1_foregroundBlur_7_31470"/>
</filter>
<filter id="filter13_f_7_31470" x="293.614" y="-156.247" width="200.355" height="358.438" filterUnits="userSpaceOnUse" color-interpolation-filters="sRGB">
<feFlood flood-opacity="0" result="BackgroundImageFix"/>
<feBlend mode="normal" in="SourceGraphic" in2="BackgroundImageFix" result="shape"/>
<feGaussianBlur stdDeviation="12.2303" result="effect1_foregroundBlur_7_31470"/>
</filter>
<filter id="filter14_f_7_31470" x="277.045" y="-113.494" width="187.73" height="345.813" filterUnits="userSpaceOnUse" color-interpolation-filters="sRGB">
<feFlood flood-opacity="0" result="BackgroundImageFix"/>
<feBlend mode="normal" in="SourceGraphic" in2="BackgroundImageFix" result="shape"/>
<feGaussianBlur stdDeviation="9.07413" result="effect1_foregroundBlur_7_31470"/>
</filter>
<filter id="filter15_f_7_31470" x="169.67" y="-162.84" width="366.121" height="362.945" filterUnits="userSpaceOnUse" color-interpolation-filters="sRGB">
<feFlood flood-opacity="0" result="BackgroundImageFix"/>
<feBlend mode="normal" in="SourceGraphic" in2="BackgroundImageFix" result="shape"/>
<feGaussianBlur stdDeviation="45.7652" result="effect1_foregroundBlur_7_31470"/>
</filter>
<filter id="filter16_f_7_31470" x="285.659" y="-159.738" width="296.685" height="294.714" filterUnits="userSpaceOnUse" color-interpolation-filters="sRGB">
<feFlood flood-opacity="0" result="BackgroundImageFix"/>
<feBlend mode="normal" in="SourceGraphic" in2="BackgroundImageFix" result="shape"/>
<feGaussianBlur stdDeviation="45.7652" result="effect1_foregroundBlur_7_31470"/>
</filter>
<filter id="filter17_b_7_31470" x="467.14" y="206.882" width="47.3431" height="46.8504" filterUnits="userSpaceOnUse" color-interpolation-filters="sRGB">
<feFlood flood-opacity="0" result="BackgroundImageFix"/>
<feGaussianBlur in="BackgroundImageFix" stdDeviation="4.73433"/>
<feComposite in2="SourceAlpha" operator="in" result="effect1_backgroundBlur_7_31470"/>
<feBlend mode="normal" in="SourceGraphic" in2="effect1_backgroundBlur_7_31470" result="shape"/>
</filter>
<linearGradient id="paint0_linear_7_31470" x1="103.587" y1="122.123" x2="270.963" y2="119.742" gradientUnits="userSpaceOnUse">
<stop stop-color="#932DDA"/>
<stop offset="1" stop-color="#F682CE"/>
</linearGradient>
<linearGradient id="paint1_linear_7_31470" x1="123.236" y1="365.071" x2="238.367" y2="361.358" gradientUnits="userSpaceOnUse">
<stop stop-color="#932DDA"/>
<stop offset="1" stop-color="#F682CE"/>
</linearGradient>
<linearGradient id="paint2_linear_7_31470" x1="450.958" y1="60.4573" x2="281.864" y2="60.4573" gradientUnits="userSpaceOnUse">
<stop stop-color="#FF5FBF"/>
<stop offset="0.0001" stop-color="#FF3333"/>
<stop offset="1" stop-color="#FF5FDC"/>
</linearGradient>
<linearGradient id="paint3_linear_7_31470" x1="469.19" y1="45.3699" x2="300.096" y2="45.3699" gradientUnits="userSpaceOnUse">
<stop stop-color="#C57BFF"/>
<stop offset="1" stop-color="#F363FF"/>
</linearGradient>
<linearGradient id="paint4_linear_7_31470" x1="446.309" y1="81.8108" x2="277.215" y2="81.8108" gradientUnits="userSpaceOnUse">
<stop stop-color="#C57BFF"/>
<stop offset="1" stop-color="#F363FF"/>
</linearGradient>
</defs>
</svg>
