<svg width="40" height="40" viewBox="0 0 40 40" fill="none" xmlns="http://www.w3.org/2000/svg">
<rect width="40" height="40" rx="9" fill="#E6E2FF"/>
<path d="M11.6718 26.9556C10.6376 26.361 10 25.2589 10 24.0659V16.5339C10 15.3409 10.6376 14.2389 11.6718 13.6442L18.3384 9.81087C19.3672 9.21934 20.6328 9.21934 21.6616 9.81087L28.3282 13.6442C29.3624 14.2389 30 15.3409 30 16.5339V24.0659C30 25.2589 29.3624 26.361 28.3282 26.9556L21.6616 30.789C20.6328 31.3805 19.3672 31.3805 18.3384 30.789L11.6718 26.9556ZM20 29.1888L21.1111 28.5499V20.9388L27.7778 17.0777V15.911L26.5833 15.2166L20 19.0221L13.4167 15.2166L12.2222 15.911V17.0777L18.8889 20.9388V28.5499L20 29.1888Z" fill="#9E6DFF"/>
</svg>
